<?xml version="1.0" standalone="no"?>
<!DOCTYPE svg PUBLIC "-//W3C//DTD SVG 1.1//EN" "http://www.w3.org/Graphics/SVG/1.1/DTD/svg11.dtd" >
<svg xmlns="http://www.w3.org/2000/svg">
<metadata></metadata>
<defs>
<font id="euclid_flexlight_italic" horiz-adv-x="1277" >
<font-face units-per-em="2048" ascent="1651" descent="-397" />
<missing-glyph horiz-adv-x="522" />
<glyph horiz-adv-x="0" />
<glyph horiz-adv-x="682" />
<glyph unicode=" "  horiz-adv-x="522" />
<glyph unicode="&#x09;" horiz-adv-x="522" />
<glyph unicode="&#xa0;" horiz-adv-x="522" />
<glyph unicode="!" horiz-adv-x="491" d="M352 215h-110q-40 -20 -65 -53.5t-25 -73.5q0 -43 27 -73.5t73 -30.5q57 0 101 40.5t44 96.5q0 30 -12 56t-33 38zM289 397l98 568l105 489h126l-104 -489l-145 -568h-80z" />
<glyph unicode="&#x22;" horiz-adv-x="751" d="M371 993v461h116v-461h-116zM784 993v461h117v-461h-117z" />
<glyph unicode="#" horiz-adv-x="1703" d="M985 0l133 428h-413l-134 -428h-118l133 428h-267v113h302l124 395h-276v113h311l127 405h119l-127 -405h414l127 405h116l-126 -405h268v-113h-303l-125 -395h280v-113h-315l-133 -428h-117zM864 936l-125 -395h414l125 395h-414z" />
<glyph unicode="$" horiz-adv-x="1075" d="M813 1634h102l-38 -178q169 -42 278 -207l-102 -59q-104 170 -305 170q-127 0 -207 -63.5t-80 -168.5q0 -88 44 -149t138 -125l150 -102q126 -85 188.5 -173.5t62.5 -211.5q0 -162 -122 -272.5t-338 -110.5h-21l-35 -166h-102l37 178q-122 26 -214 97.5t-136 168.5 l108 60q44 -98 142.5 -163t230.5 -65q155 0 244.5 75.5t89.5 186.5q0 54 -14.5 97.5t-45.5 81t-67 66.5t-92 67l-148 100q-111 79 -163 162.5t-52 195.5q0 158 114 251t300 93h16z" />
<glyph unicode="%" horiz-adv-x="944" d="M334 248q0 -80 52 -128t126 -48q87 0 147 60.5t60 150.5q0 81 -51.5 128.5t-124.5 47.5q-87 0 -148 -60.5t-61 -150.5zM811 291q0 -129 -88.5 -218t-220.5 -89q-120 0 -190 75t-70 181q0 130 89 218.5t220 88.5q120 0 190 -75t70 -181zM532 1167q0 -79 52.5 -127.5 t124.5 -48.5q88 0 148.5 61.5t60.5 151.5q0 80 -52 128t-125 48q-88 0 -148.5 -61.5t-60.5 -151.5zM1010 1212q0 -129 -89 -218t-221 -89q-120 0 -190 75t-70 181q0 128 89.5 217.5t220.5 89.5q119 0 189.5 -75.5t70.5 -180.5zM348 678l23 100h542l-22 -100h-543z" />
<glyph unicode="&#x26;" horiz-adv-x="1263" d="M1114 0l-88 283q-51 -136 -168 -217.5t-280 -81.5q-129 0 -227 59.5t-146.5 153.5t-48.5 204q0 133 63 246.5t180.5 182.5t264.5 69q107 0 184 -41l-182 596h725l-23 -113h-545l416 -1341h-125zM276 412q0 -138 90 -227t220 -89q159 0 265.5 110t106.5 269 q0 136 -89 224.5t-218 88.5q-159 0 -267 -110t-108 -266z" />
<glyph unicode="'" horiz-adv-x="337" d="M371 993v461h116v-461h-116z" />
<glyph unicode="(" horiz-adv-x="505" d="M297 -279q-76 294 -76 545q0 223 54 431.5t150.5 396.5t252.5 413l108 -53q-450 -592 -450 -1171q0 -254 74 -519z" />
<glyph unicode=")" horiz-adv-x="505" d="M467 1497q76 -294 76 -545q0 -223 -54 -431.5t-150.5 -396.5t-252.5 -413l-109 53q451 593 451 1172q0 253 -74 518z" />
<glyph unicode="*" horiz-adv-x="907" d="M860 844l-155 207l-150 -207l-84 59l150 207l-244 82l29 100l247 -82v244h103v-244l250 80l32 -98l-247 -80l151 -209z" />
<glyph unicode="+" horiz-adv-x="1384" d="M358 498v112h392v375h118v-375h392v-112h-392v-387h-118v387h-392z" />
<glyph unicode="," horiz-adv-x="489" d="M84 -283l152 283h-86l45 211h196l-45 -213l-172 -281h-90z" />
<glyph unicode="-" horiz-adv-x="673" d="M209 487l29 134h464l-28 -134h-465z" />
<glyph unicode="." horiz-adv-x="505" d="M274 231q51 0 86 -37t35 -88q0 -48 -35.5 -84t-85.5 -36t-85 36t-35 84q0 51 34.5 88t85.5 37z" />
<glyph unicode="/" horiz-adv-x="727" d="M102 0l715 1454h117l-715 -1454h-117z" />
<glyph unicode="0" horiz-adv-x="1654" d="M348 676q0 -92 23.5 -177.5t70.5 -158.5t113.5 -127.5t157.5 -85.5t196 -31q125 0 236.5 36t195.5 100t145 149.5t92.5 187t31.5 209.5q0 115 -37.5 219t-106.5 185t-177 128.5t-240 47.5q-156 0 -288.5 -55.5t-222 -149t-140 -217t-50.5 -260.5zM1737 788 q0 -124 -36.5 -242t-109 -219.5t-172 -178t-233.5 -120.5t-285 -44q-158 0 -288.5 56.5t-214.5 151.5t-129.5 217t-45.5 257q0 124 36.5 242t109 219.5t172 178t233.5 120.5t285 44q158 0 288.5 -56.5t214.5 -151.5t129.5 -217t45.5 -257z" />
<glyph unicode="1" horiz-adv-x="540" d="M209 0l287 1348l149 122l-313 -1470h-123z" />
<glyph unicode="2" horiz-adv-x="1116" d="M475 1026q0 -122 79 -200t194 -78q144 0 238.5 96t94.5 237q0 121 -78 199t-194 78q-143 0 -238.5 -96.5t-95.5 -235.5zM63 0l711 643q-32 -4 -53 -4q-166 0 -265.5 111.5t-99.5 265.5q0 122 57.5 225.5t164.5 166t241 62.5q176 0 279.5 -111t103.5 -269 q0 -210 -178 -371l-670 -606h672l-25 -113h-938z" />
<glyph unicode="3" horiz-adv-x="1067" d="M1051 489q0 -138 -60 -251.5t-179 -183.5t-277 -70q-138 0 -242.5 59t-157.5 156l111 63q40 -78 120.5 -123t178.5 -45q164 0 271.5 110.5t107.5 274.5q0 145 -93.5 234.5t-244.5 89.5h-90l452 538h-551l25 113h760l-471 -561q159 -28 249.5 -142t90.5 -262z" />
<glyph unicode="4" horiz-adv-x="1206" d="M834 0l92 430h-860l1198 1040l-199 -927h211l-23 -113h-211l-92 -430h-116zM358 543h590l135 628z" />
<glyph unicode="5" horiz-adv-x="1112" d="M1100 492q0 -219 -143 -363.5t-375 -144.5q-134 0 -236.5 60t-155.5 159l111 59q40 -77 118.5 -122.5t170.5 -45.5q167 0 276 111.5t109 275.5q0 143 -91 233.5t-225 90.5q-145 0 -249 -94l-74 43l156 700h710l-24 -113h-594l-105 -464q89 36 191 36q100 0 182.5 -35 t136 -93.5t82.5 -134t29 -158.5z" />
<glyph unicode="6" horiz-adv-x="1103" d="M1120 492q0 -141 -63.5 -256.5t-182.5 -183.5t-272 -68q-100 0 -183 35.5t-136.5 94.5t-83 135t-29.5 159q0 99 38 187.5t116 186.5l546 672h142l-459 -563q64 22 137 22q100 0 182.5 -35t136 -93.5t82.5 -134t29 -158.5zM295 418q0 -144 90.5 -234t224.5 -90 q168 0 276.5 111t108.5 276q0 143 -90.5 233.5t-224.5 90.5q-166 0 -275.5 -112t-109.5 -275z" />
<glyph unicode="7" horiz-adv-x="1036" d="M145 0l961 1341h-758l25 113h948l-1040 -1454h-136z" />
<glyph unicode="8" horiz-adv-x="1142" d="M1118 1171q0 -104 -47 -188.5t-129 -132.5q94 -56 146.5 -151.5t52.5 -204.5q0 -140 -62.5 -256t-180 -185t-267.5 -69q-102 0 -186 34t-138.5 91.5t-84 133t-29.5 158.5q0 169 90 301.5t245 184.5q-90 84 -90 215q0 156 101 262t260 106q144 0 231.5 -88t87.5 -211z M317 414q0 -143 90.5 -231.5t231.5 -88.5q161 0 268 113t107 274q0 145 -90.5 233.5t-231.5 88.5q-161 0 -268 -113.5t-107 -275.5zM559 1114q0 -92 57.5 -146.5t147.5 -54.5q100 0 166.5 72.5t66.5 173.5q0 92 -57 146.5t-147 54.5q-100 0 -167 -72.5t-67 -173.5z" />
<glyph unicode="9" horiz-adv-x="1103" d="M289 963q0 141 63.5 256t182.5 183t272 68q100 0 183 -35t136.5 -94.5t83 -135t29.5 -158.5q0 -99 -38 -188t-116 -187l-546 -672h-142l459 563q-64 -22 -137 -22q-100 0 -182.5 35t-136 94t-82.5 134.5t-29 158.5zM1114 1036q0 144 -90.5 234t-224.5 90 q-168 0 -276.5 -111t-108.5 -276q0 -143 90.5 -233.5t224.5 -90.5q166 0 275.5 112t109.5 275z" />
<glyph unicode=":" horiz-adv-x="505" d="M446 1038q51 0 86 -37t35 -88q0 -48 -35.5 -84t-85.5 -36t-85 36t-35 84q0 51 34.5 88t85.5 37zM274 231q51 0 86 -37t35 -88q0 -48 -35.5 -84t-85.5 -36t-85 36t-35 84q0 51 34.5 88t85.5 37z" />
<glyph unicode=";" horiz-adv-x="505" d="M88 -283l152 283h-86l45 211h196l-45 -213l-172 -281h-90zM444 1040q51 0 86 -37t35 -88q0 -48 -35.5 -84t-85.5 -36t-85 36t-35 84q0 51 34.5 88t85.5 37z" />
<glyph unicode="&#x3c;" horiz-adv-x="1085" d="M850 -16l-592 553l592 555l74 -80l-508 -475l508 -476z" />
<glyph unicode="=" horiz-adv-x="1497" d="M408 272v111h919v-111h-919zM408 725v111h919v-111h-919z" />
<glyph unicode="&#x3e;" horiz-adv-x="1085" d="M465 -16l-74 77l510 476l-510 475l74 80l592 -555z" />
<glyph unicode="?" horiz-adv-x="942" d="M633 635h-170l22 113h154q159 0 257.5 96t98.5 237q0 121 -78 199t-194 78q-145 0 -240.5 -98t-93.5 -244h-119q0 122 57.5 225.5t164.5 166t241 62.5q176 0 279.5 -111t103.5 -269q0 -189 -133.5 -322t-349.5 -133zM481 215h-110q-40 -20 -65 -53.5t-25 -73.5 q0 -43 27 -73.5t73 -30.5q57 0 101 40.5t44 96.5q0 30 -12 56t-33 38z" />
<glyph unicode="@" horiz-adv-x="1667" d="M965 -16q-216 0 -380 94.5t-249.5 254t-85.5 357.5q0 114 30.5 219.5t84.5 190.5t129.5 155t164 117t189 72.5t203.5 25.5q145 0 271.5 -45.5t219.5 -127t147 -202t54 -264.5q0 -127 -34.5 -226.5t-90 -156.5t-118.5 -85.5t-128 -28.5q-64 0 -115 27.5t-75 72.5 q-48 -45 -116 -71.5t-142 -26.5q-141 0 -237.5 102t-96.5 252q0 187 129.5 317t320.5 130q130 0 224 -80l14 61h111l-107 -516q-15 -76 6.5 -119t97.5 -43q105 0 175.5 104.5t70.5 291.5q0 238 -163.5 386t-419.5 148q-137 0 -262 -48.5t-219 -135t-150 -215.5t-56 -281 q0 -173 69.5 -308t207.5 -213.5t326 -78.5q98 0 202 22t183 64l43 -102q-94 -42 -210 -66t-218 -24zM946 440q133 0 207 97l86 397q-30 49 -86.5 73.5t-120.5 24.5q-137 0 -233.5 -92t-96.5 -244q0 -120 65 -188t179 -68z" />
<glyph unicode="A" horiz-adv-x="1427" d="M20 0l1008 1470l379 -1470h-131l-113 444h-694l-301 -444h-148zM977 1190l-426 -625h582z" />
<glyph unicode="B" horiz-adv-x="1273" d="M209 0l309 1454h412q190 0 293.5 -96.5t103.5 -235.5q0 -133 -74.5 -228t-197.5 -138q101 -31 166 -113.5t65 -196.5q0 -204 -149.5 -325t-425.5 -121h-502zM360 117h373q199 0 311.5 91.5t112.5 233.5q0 109 -82 182.5t-233 73.5h-359zM508 811h326q165 0 264.5 83.5 t99.5 211.5q0 99 -71.5 165t-200.5 66h-305z" />
<glyph unicode="C" horiz-adv-x="1429" d="M1391 121q-193 -137 -473 -137q-159 0 -289.5 56.5t-214.5 151.5t-130 217t-46 257q0 124 35.5 241.5t107 219.5t170 178.5t233.5 120.5t289 44q310 0 498 -208l-94 -86q-158 174 -414 174q-153 0 -284.5 -55.5t-220 -148t-139 -215t-50.5 -255.5q0 -113 37 -215.5 t105 -182.5t175 -127t238 -47q222 0 397 119z" />
<glyph unicode="D" horiz-adv-x="1507" d="M362 121h279q181 0 335 59.5t257 159.5t161 230.5t58 271.5q0 216 -143 353.5t-389 137.5h-302zM209 0l309 1454h397q156 0 283 -46.5t211.5 -127.5t130 -191.5t45.5 -238.5q0 -174 -70.5 -330.5t-194 -271t-301 -181.5t-382.5 -67h-428z" />
<glyph unicode="E" horiz-adv-x="1146" d="M209 0l309 1454h825l-26 -121h-699l-110 -522h575l-26 -123h-576l-119 -567h699l-27 -121h-825z" />
<glyph unicode="F" horiz-adv-x="1036" d="M209 0l309 1454h811l-26 -121h-685l-110 -522h541l-27 -123h-541l-145 -688h-127z" />
<glyph unicode="G" horiz-adv-x="1589" d="M1466 145q-240 -161 -548 -161q-159 0 -289.5 56.5t-214.5 151.5t-130 217t-46 257q0 124 35.5 241.5t107 219.5t170 178.5t233.5 120.5t289 44q163 0 298 -54.5t222 -153.5l-96 -86q-71 82 -185 128t-249 46q-153 0 -284.5 -55.5t-220 -148t-139 -215t-50.5 -255.5 q0 -113 37 -215.5t105 -182.5t175 -127t238 -47q252 0 432 119l98 465h-434l82 123h506z" />
<glyph unicode="H" horiz-adv-x="1566" d="M209 0l309 1454h127l-137 -643h895l137 643h127l-309 -1454h-127l145 688h-895l-145 -688h-127z" />
<glyph unicode="I" horiz-adv-x="544" d="M209 0l309 1454h127l-309 -1454h-127z" />
<glyph unicode="J" horiz-adv-x="1046" d="M944 401q-46 -218 -166 -317.5t-311 -99.5q-160 0 -265.5 84t-105.5 235q0 54 10 100h125q-8 -58 -8 -79q0 -111 62 -165.5t190 -54.5q276 0 342 299l223 1051h127z" />
<glyph unicode="K" horiz-adv-x="1269" d="M209 0l309 1454h127l-153 -723l849 723h164l-878 -747l626 -707h-147l-623 698l-147 -698h-127z" />
<glyph unicode="L" horiz-adv-x="1050" d="M209 0l309 1454h127l-283 -1333h695l-27 -121h-821z" />
<glyph unicode="M" horiz-adv-x="1796" d="M209 0l313 1470l502 -813l877 813l-314 -1470h-127l242 1122l-701 -643l-421 672l-244 -1151h-127z" />
<glyph unicode="N" horiz-adv-x="1607" d="M1395 -16l-809 1190l-250 -1174h-127l313 1470l809 -1189l250 1173h127z" />
<glyph unicode="O" horiz-adv-x="1685" d="M369 676q0 -115 37 -217.5t105 -182t175 -126t238 -46.5q153 0 285 55.5t220.5 148t138.5 215t50 255.5q0 115 -36.5 217.5t-104.5 182t-175 126t-239 46.5q-153 0 -284.5 -55.5t-220 -148t-139 -215t-50.5 -255.5zM1751 788q0 -124 -36 -241.5t-107.5 -219.5 t-170.5 -178.5t-233.5 -120.5t-288.5 -44q-158 0 -288 56.5t-214 152t-129.5 217.5t-45.5 256q0 124 35.5 241.5t107 219.5t170 178.5t233.5 120.5t289 44q127 0 237 -37t190 -101.5t137 -150.5t85.5 -186t28.5 -207z" />
<glyph unicode="P" horiz-adv-x="1144" d="M209 0l309 1454h389q202 0 309 -102t107 -262q0 -104 -36 -191.5t-105 -153t-178 -102.5t-248 -37h-291l-129 -606h-127zM489 723h283q195 0 308.5 103t113.5 261q0 115 -73 183.5t-222 68.5h-278z" />
<glyph unicode="Q" horiz-adv-x="1685" d="M1751 788q0 -168 -67 -323t-191 -268l160 -197l-97 -74l-157 195q-205 -137 -484 -137q-158 0 -288 56.5t-214 152t-129.5 217.5t-45.5 256q0 124 35.5 241.5t107 219.5t170 178.5t233.5 120.5t289 44q127 0 237 -37t190 -101.5t137 -150.5t85.5 -186t28.5 -207zM369 676 q0 -115 37 -217.5t105 -182t175 -126t238 -46.5q223 0 397 115l-162 205l92 74l164 -203q97 94 150 219.5t53 263.5q0 115 -36.5 217.5t-104.5 182t-175 126t-239 46.5q-153 0 -284.5 -55.5t-220 -148t-139 -215t-50.5 -255.5z" />
<glyph unicode="R" horiz-adv-x="1290" d="M1096 0l-373 657h-248l-139 -657h-127l309 1454h389q195 0 299.5 -94t104.5 -246q0 -184 -120 -307.5t-333 -144.5l379 -662h-141zM502 774h274q192 0 299 94t107 238q0 107 -73 168t-216 61h-275z" />
<glyph unicode="S" horiz-adv-x="1097" d="M1075 367q0 -161 -125 -272t-342 -111q-163 0 -289 78t-182 200l115 70q45 -99 139.5 -163.5t226.5 -64.5q151 0 237.5 71.5t86.5 180.5q0 98 -50 167t-159 141l-147 100q-111 79 -165 164.5t-54 197.5q0 158 115 251t302 93q124 0 230 -52.5t178 -164.5l-115 -73 q-104 170 -305 170q-122 0 -199 -59.5t-77 -162.5q0 -86 41.5 -146t132.5 -122l149 -102q126 -85 191 -176.5t65 -214.5z" />
<glyph unicode="T" horiz-adv-x="1048" d="M459 0l282 1333h-417l26 121h967l-27 -121h-422l-282 -1333h-127z" />
<glyph unicode="U" horiz-adv-x="1490" d="M1417 547q-119 -563 -641 -563q-222 0 -353.5 111.5t-131.5 310.5q0 63 16 141l193 907h127l-195 -911q-14 -63 -14 -121q0 -155 96.5 -236.5t265.5 -81.5q198 0 330.5 112t179.5 329l193 909h127z" />
<glyph unicode="V" horiz-adv-x="1370" d="M682 -16l-342 1470h127l268 -1182l770 1182h144z" />
<glyph unicode="W" horiz-adv-x="1847" d="M532 -16l-178 1470h127l127 -1108l629 1124l143 -1155l600 1139h131l-792 -1470l-143 1153z" />
<glyph unicode="X" horiz-adv-x="1380" d="M61 0l723 762l-360 692h135l313 -600l568 600h157l-669 -706l391 -748h-135l-344 655l-621 -655h-158z" />
<glyph unicode="Y" horiz-adv-x="1273" d="M573 0l132 616l-355 838h135l297 -715l600 715h160l-711 -838l-131 -616h-127z" />
<glyph unicode="Z" horiz-adv-x="1234" d="M66 0l1146 1333h-776l27 121h999l-1147 -1333h887l-26 -121h-1110z" />
<glyph unicode="[" horiz-adv-x="573" d="M113 -272l376 1773h342l-24 -112h-225l-328 -1549h225l-24 -112h-342z" />
<glyph unicode="\" horiz-adv-x="1140" d="M1024 0l-715 1454h117l715 -1454h-117z" />
<glyph unicode="]" horiz-adv-x="573" d="M721 1501l-377 -1773h-342l25 112h225l328 1549h-226l25 112h342z" />
<glyph unicode="^" horiz-adv-x="1298" d="M240 664l551 792l550 -792h-129l-421 602l-422 -602h-129z" />
<glyph unicode="_" horiz-adv-x="858" d="M-25 -113l25 113h858l-24 -113h-859z" />
<glyph unicode="`" horiz-adv-x="493" d="M522 1116l-188 338h166l110 -338h-88z" />
<glyph unicode="a" d="M977 0l22 104q-146 -120 -346 -120q-105 0 -190.5 37.5t-140.5 102t-85 149t-30 178.5q0 115 44 222t121 188.5t188.5 130t238.5 48.5q116 0 208 -40t152 -111l29 135h119l-217 -1024h-113zM676 94q98 0 191 44t159 122l104 492q-49 83 -139.5 130.5t-195.5 47.5 q-196 0 -330.5 -138t-134.5 -335q0 -159 93 -261t253 -102z" />
<glyph unicode="b" horiz-adv-x="1284" d="M188 0l310 1454h118l-112 -528q147 114 338 114q105 0 190.5 -37.5t140.5 -102t85 -149t30 -178.5q0 -115 -44 -222t-121 -188.5t-188.5 -130t-238.5 -48.5q-115 0 -207.5 39.5t-152.5 109.5l-29 -133h-119zM819 930q-98 0 -190 -43.5t-158 -120.5l-106 -496 q49 -83 139 -129.5t196 -46.5q196 0 330.5 138t134.5 335q0 159 -93 261t-253 102z" />
<glyph unicode="c" horiz-adv-x="1128" d="M1085 131q-167 -147 -391 -147q-113 0 -206 39.5t-152.5 106.5t-92 153.5t-32.5 181.5q0 158 75 289.5t208.5 208.5t296.5 77q127 0 231 -51t166 -147l-98 -68q-49 74 -131 115t-179 41q-191 0 -319.5 -130.5t-128.5 -326.5q0 -117 52 -204.5t135 -131t183 -43.5 q179 0 306 121z" />
<glyph unicode="d" d="M977 0l22 104q-146 -120 -346 -120q-105 0 -190.5 37.5t-140.5 102t-85 149t-30 178.5q0 115 44.5 222t121.5 188.5t189 130t239 48.5q115 0 207 -40.5t153 -110.5l121 565h117l-309 -1454h-113zM678 94q98 0 191 44t159 122l105 490q-48 84 -140.5 132t-197.5 48 q-196 0 -330.5 -138t-134.5 -335q0 -159 93.5 -261t254.5 -102z" />
<glyph unicode="e" horiz-adv-x="1187" d="M1014 215l78 -82q-168 -149 -398 -149q-113 0 -206 39.5t-152.5 106.5t-92 153.5t-32.5 181.5q0 158 75 289.5t208.5 208.5t296.5 77q194 0 311 -117.5t117 -304.5q0 -51 -11 -108h-876v-37q0 -175 107 -277t263 -102q178 0 312 121zM780 930q-155 0 -272 -85.5 t-158 -230.5h746q2 14 2 31q0 130 -89.5 207.5t-228.5 77.5z" />
<glyph unicode="f" horiz-adv-x="714" d="M242 911l22 113h207q-65 62 -65 172q0 114 95 186t247 72h210l-24 -111h-182q-218 0 -230 -169q-5 -60 36 -103t110 -47h200l-22 -113h-277l-192 -911h-119l193 911h-209z" />
<glyph unicode="g" horiz-adv-x="1253" d="M1124 119q0 -127 -42.5 -226.5t-119.5 -162.5t-179 -95t-224 -32q-119 0 -235 38.5t-181 106.5l78 98q52 -60 145 -96.5t201 -36.5q205 0 319.5 105.5t114.5 292.5q0 23 -4 51q-151 -131 -350 -131q-136 0 -235.5 59.5t-149 158.5t-49.5 224q0 155 71.5 284t205.5 206 t305 77q215 0 344 -139l26 123h117l-168 -791q10 -65 10 -114zM672 141q95 0 186 45t158 123l94 455q-49 78 -136 122t-188 44q-193 0 -322.5 -128t-129.5 -323q0 -156 88.5 -247t249.5 -91z" />
<glyph unicode="h" horiz-adv-x="1230" d="M188 0l310 1454h116l-112 -532q143 118 338 118q161 0 259.5 -95.5t98.5 -256.5q0 -54 -12 -115l-123 -573h-117l121 567q12 53 12 97q0 126 -75 196t-203 70q-93 0 -180.5 -44.5t-153.5 -121.5v-2l-162 -762h-117z" />
<glyph unicode="i" horiz-adv-x="493" d="M428 1356q0 47 35.5 80.5t83.5 33.5q39 0 64.5 -26t25.5 -62q0 -59 -62 -98h-114q-33 26 -33 72zM188 0l218 1024h116l-217 -1024h-117z" />
<glyph unicode="j" horiz-adv-x="495" d="M430 1356q0 47 35.5 80.5t83.5 33.5q39 0 64.5 -26t25.5 -62q0 -60 -61 -98h-115q-33 26 -33 72zM-121 -377l25 113h43q60 0 99.5 11.5t65 40t39 65t27.5 98.5l228 1073h118l-233 -1096q-34 -167 -113 -236t-244 -69h-55z" />
<glyph unicode="k" horiz-adv-x="1030" d="M188 0l310 1454h116l-190 -895l606 465h160l-649 -496l479 -528h-139l-467 516l-109 -516h-117z" />
<glyph unicode="l" horiz-adv-x="493" d="M188 0l310 1454h116l-309 -1454h-117z" />
<glyph unicode="m" horiz-adv-x="1851" d="M1569 0l125 584q12 62 12 110q0 113 -61 174.5t-177 61.5q-94 0 -181 -53.5t-150 -145.5v-12q0 -55 -15 -125l-127 -594h-116l125 584q12 62 12 110q0 113 -61 174.5t-177 61.5q-85 0 -167 -45.5t-142 -118.5l-164 -766h-117l218 1024h112l-22 -104q66 55 150.5 87.5 t170.5 32.5q108 0 184.5 -47t110.5 -133q163 180 395 180q150 0 235 -85.5t85 -235.5q0 -51 -17 -131l-124 -588h-117z" />
<glyph unicode="n" horiz-adv-x="1228" d="M188 0l218 1024h112l-22 -104q142 120 342 120q161 0 259.5 -95.5t98.5 -256.5q0 -48 -12 -110l-123 -578h-117l121 567q12 53 12 97q0 126 -75 196t-203 70q-93 0 -180 -44t-152 -120l-162 -766h-117z" />
<glyph unicode="o" d="M332 473q0 -172 110.5 -275.5t266.5 -103.5q190 0 320 131t130 326q0 172 -110.5 275.5t-266.5 103.5q-191 0 -320.5 -130.5t-129.5 -326.5zM1280 559q0 -158 -75.5 -289.5t-209 -208.5t-295.5 -77q-150 0 -263.5 68.5t-169.5 176.5t-56 236q0 158 75.5 289.5t209 208.5 t295.5 77q150 0 263.5 -68.5t169.5 -176.5t56 -236z" />
<glyph unicode="p" horiz-adv-x="1284" d="M109 -377l297 1401h112l-22 -104q146 120 346 120q140 0 243 -65.5t153 -170t50 -231.5q0 -115 -44 -222t-121 -188.5t-188.5 -130t-238.5 -48.5q-234 0 -362 151l-109 -512h-116zM819 930q-99 0 -192.5 -45t-159.5 -123l-105 -488q46 -84 138.5 -132t199.5 -48 q197 0 332 138t135 335q0 159 -93.5 261t-254.5 102z" />
<glyph unicode="q" horiz-adv-x="1275" d="M891 -377l100 475q-143 -114 -338 -114q-105 0 -190.5 37.5t-140.5 102t-85 149t-30 178.5q0 115 44 222t121 188.5t188.5 130t238.5 48.5q116 0 208 -40t152 -111l29 135h117l-297 -1401h-117zM676 94q98 0 191 44t159 122l104 492q-49 83 -139.5 130.5t-195.5 47.5 q-196 0 -330.5 -138t-134.5 -335q0 -159 93 -261t253 -102z" />
<glyph unicode="r" horiz-adv-x="735" d="M188 0l218 1024h116l-28 -137q61 71 151.5 112t192.5 41q37 0 67 -6l-26 -123q-42 11 -82 11q-107 0 -196 -53.5t-144 -147.5l-152 -721h-117z" />
<glyph unicode="s" horiz-adv-x="860" d="M827 264q0 -121 -95 -200.5t-240 -79.5q-146 0 -238 64.5t-129 174.5l102 47q30 -86 99 -133t172 -47q90 0 150.5 45t60.5 115q0 65 -39 111t-117 92l-94 55q-187 111 -187 268q0 116 87 190t225 74q107 0 188 -51.5t117 -136.5l-107 -49q-24 57 -75.5 94t-126.5 37 q-85 0 -138 -41.5t-53 -108.5q0 -58 33.5 -101.5t101.5 -84.5l94 -55q209 -119 209 -279z" />
<glyph unicode="t" horiz-adv-x="706" d="M244 911v113h190l51 242l131 59l-63 -301h276l-22 -113h-279l-125 -600q-10 -55 -10 -86q0 -59 35.5 -85.5t120.5 -26.5h96l-24 -113h-78q-271 0 -271 201q0 29 15 110l125 600h-168z" />
<glyph unicode="u" horiz-adv-x="1179" d="M879 0l20 104q-67 -58 -155 -89t-183 -31q-163 0 -258.5 88.5t-95.5 244.5q0 44 14 119l125 588h117l-123 -584q-12 -56 -12 -102q0 -118 70 -181t198 -63q95 0 182 43.5t150 118.5l164 768h116l-217 -1024h-112z" />
<glyph unicode="v" horiz-adv-x="1075" d="M539 -16l-301 1040h124l220 -801l555 801h145z" />
<glyph unicode="w" horiz-adv-x="1544" d="M412 0l-133 1024h118l103 -807l499 823l138 -827l454 811h127l-573 -1024h-70l-127 768l-463 -768h-73z" />
<glyph unicode="x" horiz-adv-x="1130" d="M61 0l549 532l-297 492h127l250 -414l426 414h148l-519 -506l314 -518h-127l-266 440l-455 -440h-150z" />
<glyph unicode="y" horiz-adv-x="1060" d="M193 -377l282 420l-237 981h120l203 -854l572 854h135l-942 -1401h-133z" />
<glyph unicode="z" horiz-adv-x="1038" d="M53 0l877 911h-613l23 113h842l-877 -911h662l-25 -113h-889z" />
<glyph unicode="{" horiz-adv-x="591" d="M471 -272h-74q-111 0 -163 48t-52 150q0 54 15 125l73 346q9 41 9 72q0 94 -101 94h-16l22 107h17q75 0 109.5 41.5t51.5 122.5l84 397q34 154 108 212t218 58h74l-23 -112h-49q-104 0 -147.5 -38.5t-65.5 -146.5l-78 -362q-21 -97 -56 -150.5t-99 -77.5q71 -35 71 -127 q0 -43 -12 -98l-72 -342q-14 -72 -14 -100q0 -58 32.5 -82.5t110.5 -24.5h52z" />
<glyph unicode="|" horiz-adv-x="669" d="M391 -377v1831h117v-1831h-117z" />
<glyph unicode="}" horiz-adv-x="591" d="M381 1501h74q111 0 163 -48t52 -150q0 -55 -15 -125l-73 -347q-9 -41 -9 -71q0 -94 101 -94h16l-22 -107h-17q-75 0 -110 -41.5t-52 -122.5l-83 -397q-34 -154 -108 -212t-218 -58h-74l23 112h49q104 0 147.5 38.5t65.5 146.5l78 362q21 97 56 150t99 77q-71 35 -71 127 q0 43 12 99l72 342q14 72 14 100q0 58 -32.5 82.5t-110.5 24.5h-52z" />
<glyph unicode="~" horiz-adv-x="1312" d="M346 414v133l221 149l406 -155l231 151v-123l-223 -155l-406 155z" />
<glyph unicode="&#xa1;" horiz-adv-x="487" d="M473 809h-111q-21 12 -33 38t-12 56q0 56 44.5 96.5t101.5 40.5q46 0 73 -30.5t27 -73.5q0 -40 -25 -73.5t-65 -53.5zM430 680l-98 -567l-105 -490h-127l105 490l145 567h80z" />
<glyph unicode="&#xa2;" horiz-adv-x="1146" d="M522 -180l37 180q-107 28 -186 98.5t-117.5 165t-38.5 201.5q0 155 72.5 285t202.5 208t290 82l35 164h86l-37 -168q105 -14 190 -63t138 -131l-98 -68q-49 74 -131 115t-179 41q-191 0 -319.5 -130.5t-128.5 -326.5q0 -117 52 -204.5t135.5 -131t183.5 -43.5 q178 0 305 121l78 -84q-167 -147 -392 -147q-21 0 -57 4l-35 -168h-86z" />
<glyph unicode="&#xa3;" horiz-adv-x="1191" d="M973 637h-342l-113 -524h600l-22 -113h-924l23 113h204l111 524h-205l23 111h235q-60 45 -92.5 121.5t-32.5 164.5q0 183 128 309.5t319 126.5q176 0 279.5 -109.5t103.5 -264.5v-13h-121v4q0 123 -79 198t-189 75q-134 0 -229 -93t-95 -227q0 -128 81 -210t191 -82h170z " />
<glyph unicode="&#xa4;" horiz-adv-x="1335" d="M373 188l-88 88l141 144q-96 126 -96 289q0 161 94 292l-139 142l88 86l139 -137q132 106 301 106q176 0 309 -111l144 142l88 -86l-144 -148q93 -131 93 -286q0 -156 -95 -285l146 -148l-88 -88l-146 144q-132 -107 -307 -107q-165 0 -299 103zM811 334 q164 0 269.5 107.5t105.5 267.5q0 165 -105.5 275t-269.5 110q-155 0 -256.5 -110.5t-101.5 -274.5q0 -160 101.5 -267.5t256.5 -107.5z" />
<glyph unicode="&#xa5;" horiz-adv-x="1267" d="M381 539l25 112h286l-338 803h129l299 -717l607 717h143l-682 -803h293l-25 -112h-313l-33 -154h313l-24 -113h-311l-58 -272h-117l58 272h-309l24 113h307l33 154h-307z" />
<glyph unicode="&#xa6;" horiz-adv-x="669" d="M391 -377v787h117v-787h-117zM391 670v784h117v-784h-117z" />
<glyph unicode="&#xa7;" horiz-adv-x="1163" d="M809 971l76 -49q104 -67 160.5 -147.5t56.5 -194.5q0 -189 -123.5 -306.5t-298.5 -117.5l31 -25q69 -54 105 -120.5t36 -131.5q0 -116 -93 -192t-233 -76q-117 0 -198 59t-107 140l101 40q19 -60 72 -100.5t134 -40.5q100 0 156.5 46t56.5 122q0 139 -198 266l-58 37 q-88 56 -140 139.5t-52 188.5q0 187 121.5 304.5t290.5 117.5l-37 24q-69 48 -106.5 117.5t-37.5 138.5q0 113 93.5 186.5t228.5 73.5q115 0 194 -58t107 -138l-100 -41q-21 61 -71.5 101t-133.5 40q-92 0 -149.5 -48t-57.5 -118q0 -123 174 -237zM723 836 q-133 0 -225 -91.5t-92 -228.5q0 -119 79 -191.5t187 -72.5q134 0 225.5 91t91.5 228q0 120 -78.5 192.5t-187.5 72.5z" />
<glyph unicode="&#xa8;" horiz-adv-x="729" d="M309 1294q0 44 31.5 75.5t75.5 31.5t75 -31.5t31 -75.5t-31 -75t-75 -31t-75.5 31t-31.5 75zM866 1188q-44 0 -75 31t-31 75t31 75.5t75 31.5t75.5 -31.5t31.5 -75.5t-31.5 -75t-75.5 -31z" />
<glyph unicode="&#xa9;" horiz-adv-x="1687" d="M1034 295q-190 0 -314 126t-124 306q0 184 123.5 310t314.5 126q200 0 326 -149l-78 -68q-92 117 -248 117q-141 0 -234 -97.5t-93 -238.5q0 -139 93 -234.5t234 -95.5q151 0 242 109l76 -74q-130 -137 -318 -137zM999 -16q-150 0 -287.5 59t-237.5 158.5t-159 237 t-59 288.5t59 288.5t159 237t237.5 158.5t287.5 59q202 0 373 -99.5t271 -270.5t100 -373t-100 -373t-271 -270.5t-373 -99.5zM997 100q170 0 315 84.5t229.5 229t84.5 313.5q0 170 -84.5 315t-229.5 229.5t-315 84.5q-127 0 -242.5 -50t-199.5 -134.5t-134 -201t-50 -243.5 q0 -169 84 -313.5t228.5 -229t313.5 -84.5z" />
<glyph unicode="&#xaa;" horiz-adv-x="735" d="M729 840l12 57q-82 -68 -192 -68q-121 0 -193.5 81.5t-72.5 199.5q0 144 101 249t255 105q125 0 203 -78l14 68h98l-131 -614h-94zM569 924q54 0 105 23.5t86 64.5l57 266q-26 43 -75 67.5t-105 24.5q-106 0 -179 -73t-73 -181q0 -87 50 -139.5t134 -52.5z" />
<glyph unicode="&#xab;" horiz-adv-x="983" d="M795 76l-207 436l393 436l80 -76l-336 -372l176 -373zM379 76l-207 436l393 436l80 -76l-336 -372l176 -373z" />
<glyph unicode="&#xac;" horiz-adv-x="1466" d="M1143 111v387h-785v112h902v-499h-117z" />
<glyph unicode="&#xad;" horiz-adv-x="673" d="M209 487l29 134h464l-28 -134h-465z" />
<glyph unicode="&#xae;" horiz-adv-x="1687" d="M999 -16q-150 0 -287.5 59t-237.5 158.5t-159 237t-59 288.5t59 288.5t159 237t237.5 158.5t287.5 59q202 0 373 -99.5t271 -270.5t100 -373t-100 -373t-271 -270.5t-373 -99.5zM997 100q170 0 315 84.5t229.5 229t84.5 313.5q0 170 -84.5 315t-229.5 229.5t-315 84.5 q-127 0 -242.5 -50t-199.5 -134.5t-134 -201t-50 -243.5q0 -169 84 -313.5t228.5 -229t313.5 -84.5zM743 301v856h310q121 0 194.5 -68.5t73.5 -173.5q0 -91 -56.5 -156.5t-152.5 -82.5l274 -375h-133l-266 371h-131v-371h-113zM856 780h191q76 0 115.5 37t39.5 94t-39.5 94 t-115.5 37h-191v-262z" />
<glyph unicode="&#xaf;" horiz-adv-x="651" d="M315 1288l23 105h569l-22 -105h-570z" />
<glyph unicode="&#xb0;" horiz-adv-x="804" d="M662 963q-103 0 -176.5 73t-73.5 176t73.5 176.5t176.5 73.5t176 -73.5t73 -176.5t-73 -176t-176 -73zM662 1063q62 0 105.5 43.5t43.5 105.5t-44 106t-105 44q-62 0 -106 -44t-44 -106q0 -61 44 -105t106 -44z" />
<glyph unicode="&#xb1;" horiz-adv-x="1511" d="M381 598v113h391v313h119v-313h391v-113h-391v-326h-119v326h-391zM381 0v113h901v-113h-901z" />
<glyph unicode="&#xb2;" horiz-adv-x="684" d="M219 840l410 372q-104 0 -167 67.5t-63 164.5q0 113 80 195.5t205 82.5q109 0 172.5 -69t63.5 -166q0 -129 -111 -232l-360 -323h370l-18 -92h-582zM494 1452q0 -66 41.5 -110t105.5 -44q80 0 132 53.5t52 129.5q0 65 -42.5 107t-106.5 42q-78 0 -130 -52t-52 -126z" />
<glyph unicode="&#xb3;" horiz-adv-x="618" d="M809 1137q0 -129 -82.5 -218.5t-230.5 -89.5q-83 0 -146.5 36.5t-93.5 95.5l88 49q21 -42 63.5 -66t98.5 -24q91 0 147 59t56 147q0 79 -50.5 129t-140.5 50h-55l252 315h-312l21 92h471l-270 -338q88 -23 136 -87.5t48 -149.5z" />
<glyph unicode="&#xb4;" horiz-adv-x="475" d="M299 1116l258 338h166l-313 -338h-111z" />
<glyph unicode="&#xb6;" horiz-adv-x="1314" d="M920 1454h475l-389 -1831h-117l364 1718h-241l-365 -1718h-117l193 909q-161 22 -266.5 139.5t-106.5 293.5q0 150 74 262t202.5 169.5t293.5 57.5z" />
<glyph unicode="&#xb7;" horiz-adv-x="505" d="M365 655q51 0 85.5 -37t34.5 -88q0 -48 -35 -84t-85 -36t-85.5 36t-35.5 84q0 51 35 88t86 37z" />
<glyph unicode="&#xb8;" horiz-adv-x="301" d="M-39 -281l238 281h82l-168 -281h-152z" />
<glyph unicode="&#xb9;" horiz-adv-x="346" d="M301 840l168 794l119 99l-191 -893h-96z" />
<glyph unicode="&#xba;" horiz-adv-x="722" d="M385 1126q0 -93 58 -147.5t143 -54.5q102 0 169.5 69t67.5 174q0 93 -57.5 148t-140.5 55q-102 0 -171 -69.5t-69 -174.5zM926 1176q0 -145 -100.5 -246t-247.5 -101q-134 0 -214.5 84.5t-80.5 204.5q0 145 100.5 245.5t249.5 100.5q134 0 213.5 -84t79.5 -204z" />
<glyph unicode="&#xbb;" horiz-adv-x="983" d="M821 948l207 -436l-393 -436l-80 76l336 372l-176 373zM406 948l206 -436l-393 -436l-80 76l336 372l-176 373z" />
<glyph unicode="&#xbc;" horiz-adv-x="1509" d="M283 582l168 794l118 99l-190 -893h-96zM78 0h127l1308 1454h-127zM1280 0l51 236h-508l746 661l-123 -575h110l-18 -86h-111l-49 -236h-98zM1051 322h299l71 337z" />
<glyph unicode="&#xbd;" horiz-adv-x="1572" d="M283 582l168 794l118 99l-190 -893h-96zM78 0h127l1308 1454h-127zM1153 612q0 -66 41.5 -109.5t105.5 -43.5q80 0 132.5 53t52.5 129q0 65 -42.5 107.5t-107.5 42.5q-78 0 -130 -52t-52 -127zM879 0l409 373q-104 0 -166.5 67t-62.5 164q0 113 79.5 196t204.5 83 q109 0 172.5 -69t63.5 -167q0 -128 -111 -231l-360 -324h371l-19 -92h-581z" />
<glyph unicode="&#xbe;" horiz-adv-x="1703" d="M784 879q0 -129 -82.5 -218.5t-230.5 -89.5q-84 0 -147 36t-93 95l88 50q21 -42 63.5 -66t98.5 -24q91 0 147 59t56 147q0 79 -50 129t-140 50h-56l252 315h-311l20 92h471l-270 -338q88 -23 136 -87.5t48 -149.5zM272 0h127l1309 1454h-127zM1475 0l51 236h-508l745 661 l-123 -575h111l-18 -86h-111l-49 -236h-98zM1245 322h299l72 337z" />
<glyph unicode="&#xbf;" horiz-adv-x="942" d="M788 811h-110q-21 12 -33 38t-12 56q0 56 44 96.5t101 40.5q46 0 73.5 -30.5t27.5 -73.5q0 -40 -25.5 -73.5t-65.5 -53.5zM537 436h170l-23 -112h-154q-159 0 -257.5 -96t-98.5 -238q0 -121 78 -199t194 -78q145 0 240.5 98t93.5 244h119q0 -122 -57.5 -225.5 t-164.5 -166t-241 -62.5q-176 0 -279.5 111.5t-103.5 269.5q0 189 134 321.5t350 132.5z" />
<glyph unicode="&#xc0;" horiz-adv-x="1427" d="M20 0l1008 1470l379 -1470h-131l-113 444h-694l-301 -444h-148zM977 1190l-426 -625h582zM997 1573l-170 297h150l121 -297h-101z" />
<glyph unicode="&#xc1;" horiz-adv-x="1427" d="M20 0l1008 1470l379 -1470h-131l-113 444h-694l-301 -444h-148zM977 1190l-426 -625h582zM993 1573l236 297h170l-295 -297h-111z" />
<glyph unicode="&#xc2;" horiz-adv-x="1427" d="M20 0l1008 1470l379 -1470h-131l-113 444h-694l-301 -444h-148zM977 1190l-426 -625h582zM735 1583l-51 96l418 222l301 -230l-68 -88l-245 189z" />
<glyph unicode="&#xc3;" horiz-adv-x="1427" d="M20 0l1008 1470l379 -1470h-131l-113 444h-694l-301 -444h-148zM977 1190l-426 -625h582zM719 1620q14 97 79 150t140 53q34 0 76.5 -15t75 -33.5t67.5 -33.5t57 -15q88 0 117 97h107q-9 -92 -73 -147.5t-144 -55.5q-57 0 -155 48t-128 48q-82 0 -113 -96h-106z" />
<glyph unicode="&#xc4;" horiz-adv-x="1427" d="M20 0l1008 1470l379 -1470h-131l-113 444h-694l-301 -444h-148zM977 1190l-426 -625h582zM856 1620q-44 0 -75 31t-31 75t31 75.5t75 31.5t75.5 -31.5t31.5 -75.5t-31.5 -75t-75.5 -31zM1307 1620q-44 0 -75.5 31t-31.5 75t31.5 75.5t75.5 31.5t75 -31.5t31 -75.5 t-31 -75t-75 -31z" />
<glyph unicode="&#xc5;" horiz-adv-x="1427" d="M20 0l1008 1470l379 -1470h-131l-113 444h-694l-301 -444h-148zM977 1190l-426 -625h582zM1077 1538q-76 0 -129 50t-53 124q0 75 53.5 124.5t128.5 49.5q78 0 132.5 -49.5t54.5 -124.5q0 -74 -54 -124t-133 -50zM1077 1614q44 0 73.5 27.5t29.5 70.5q0 44 -30 72t-73 28 q-41 0 -70.5 -28.5t-29.5 -71.5t29.5 -70.5t70.5 -27.5z" />
<glyph unicode="&#xc6;" horiz-adv-x="2091" d="M20 0l920 1341l-29 113h785l33 -127h-664l133 -520h565l33 -123h-565l143 -557h664l33 -127h-795l-113 444h-694l-301 -444h-148zM977 1190l-426 -625h582z" />
<glyph unicode="&#xc7;" horiz-adv-x="1429" d="M1391 121q-172 -123 -422 -135l-135 -267h-170l196 267q-146 10 -265.5 69.5t-196.5 153t-118.5 211t-41.5 246.5q0 124 35.5 241.5t107 219.5t170 178.5t233.5 120.5t289 44q310 0 498 -208l-94 -86q-158 174 -414 174q-153 0 -284.5 -55.5t-220 -148t-139 -215 t-50.5 -255.5q0 -113 37 -215.5t105 -182.5t175 -127t238 -47q222 0 397 119z" />
<glyph unicode="&#xc8;" horiz-adv-x="1146" d="M946 1573l-170 297h150l121 -297h-101zM209 0l309 1454h825l-26 -121h-699l-110 -522h575l-26 -123h-576l-119 -567h699l-27 -121h-825z" />
<glyph unicode="&#xc9;" horiz-adv-x="1146" d="M209 0l309 1454h825l-26 -121h-699l-110 -522h575l-26 -123h-576l-119 -567h699l-27 -121h-825zM821 1573l236 297h170l-295 -297h-111z" />
<glyph unicode="&#xca;" horiz-adv-x="1146" d="M643 1583l-51 96l418 222l301 -230l-68 -88l-246 189zM209 0l309 1454h825l-26 -121h-699l-110 -522h575l-26 -123h-576l-119 -567h699l-27 -121h-825z" />
<glyph unicode="&#xcb;" horiz-adv-x="1146" d="M209 0l309 1454h825l-26 -121h-699l-110 -522h575l-26 -123h-576l-119 -567h699l-27 -121h-825zM764 1620q-44 0 -75.5 31t-31.5 75t31.5 75.5t75.5 31.5t75 -31.5t31 -75.5t-31 -75t-75 -31zM1214 1620q-44 0 -75 31t-31 75t31 75.5t75 31.5t75.5 -31.5t31.5 -75.5 t-31.5 -75t-75.5 -31z" />
<glyph unicode="&#xcc;" horiz-adv-x="544" d="M209 0l309 1454h127l-309 -1454h-127zM596 1573l-170 297h149l121 -297h-100z" />
<glyph unicode="&#xcd;" horiz-adv-x="544" d="M209 0l309 1454h127l-309 -1454h-127zM471 1573l236 297h170l-295 -297h-111z" />
<glyph unicode="&#xce;" horiz-adv-x="544" d="M209 0l309 1454h127l-309 -1454h-127zM311 1583l-51 96l418 222l301 -230l-68 -88l-245 189z" />
<glyph unicode="&#xcf;" horiz-adv-x="544" d="M209 0l309 1454h127l-309 -1454h-127zM414 1620q-44 0 -75.5 31t-31.5 75t31.5 75.5t75.5 31.5t75 -31.5t31 -75.5t-31 -75t-75 -31zM864 1620q-44 0 -75 31t-31 75t31 75.5t75 31.5t75.5 -31.5t31.5 -75.5t-31.5 -75t-75.5 -31z" />
<glyph unicode="&#xd0;" horiz-adv-x="1507" d="M145 700l25 119h213l135 635h397q156 0 283 -46.5t211.5 -127.5t130 -191.5t45.5 -238.5q0 -174 -70.5 -330.5t-194 -271t-301 -181.5t-382.5 -67h-428l147 700h-211zM362 121h279q181 0 335 59.5t257 159.5t161 230.5t58 271.5q0 216 -143 353.5t-389 137.5h-302 l-108 -514h287l-25 -119h-287z" />
<glyph unicode="&#xd1;" horiz-adv-x="1609" d="M811 1620q14 97 79 150t140 53q44 0 99 -24t103.5 -48.5t74.5 -24.5q87 0 116 97h107q-9 -92 -73 -147.5t-144 -55.5q-57 0 -155 48t-128 48q-81 0 -112 -96h-107zM1395 -16l-809 1190l-250 -1174h-127l313 1470l809 -1189l250 1173h127z" />
<glyph unicode="&#xd2;" horiz-adv-x="1685" d="M1163 1573l-170 297h150l121 -297h-101zM369 676q0 -115 37 -217.5t105 -182t175 -126t238 -46.5q153 0 285 55.5t220.5 148t138.5 215t50 255.5q0 115 -36.5 217.5t-104.5 182t-175 126t-239 46.5q-153 0 -284.5 -55.5t-220 -148t-139 -215t-50.5 -255.5zM1751 788 q0 -124 -36 -241.5t-107.5 -219.5t-170.5 -178.5t-233.5 -120.5t-288.5 -44q-158 0 -288 56.5t-214 152t-129.5 217.5t-45.5 256q0 124 35.5 241.5t107 219.5t170 178.5t233.5 120.5t289 44q127 0 237 -37t190 -101.5t137 -150.5t85.5 -186t28.5 -207z" />
<glyph unicode="&#xd3;" horiz-adv-x="1685" d="M1036 1573l236 297h170l-295 -297h-111zM369 676q0 -115 37 -217.5t105 -182t175 -126t238 -46.5q153 0 285 55.5t220.5 148t138.5 215t50 255.5q0 115 -36.5 217.5t-104.5 182t-175 126t-239 46.5q-153 0 -284.5 -55.5t-220 -148t-139 -215t-50.5 -255.5zM1751 788 q0 -124 -36 -241.5t-107.5 -219.5t-170.5 -178.5t-233.5 -120.5t-288.5 -44q-158 0 -288 56.5t-214 152t-129.5 217.5t-45.5 256q0 124 35.5 241.5t107 219.5t170 178.5t233.5 120.5t289 44q127 0 237 -37t190 -101.5t137 -150.5t85.5 -186t28.5 -207z" />
<glyph unicode="&#xd4;" horiz-adv-x="1685" d="M860 1583l-51 96l418 222l301 -230l-68 -88l-246 189zM369 676q0 -115 37 -217.5t105 -182t175 -126t238 -46.5q153 0 285 55.5t220.5 148t138.5 215t50 255.5q0 115 -36.5 217.5t-104.5 182t-175 126t-239 46.5q-153 0 -284.5 -55.5t-220 -148t-139 -215t-50.5 -255.5z M1751 788q0 -124 -36 -241.5t-107.5 -219.5t-170.5 -178.5t-233.5 -120.5t-288.5 -44q-158 0 -288 56.5t-214 152t-129.5 217.5t-45.5 256q0 124 35.5 241.5t107 219.5t170 178.5t233.5 120.5t289 44q127 0 237 -37t190 -101.5t137 -150.5t85.5 -186t28.5 -207z" />
<glyph unicode="&#xd5;" horiz-adv-x="1685" d="M369 676q0 -115 37 -217.5t105 -182t175 -126t238 -46.5q153 0 285 55.5t220.5 148t138.5 215t50 255.5q0 115 -36.5 217.5t-104.5 182t-175 126t-239 46.5q-153 0 -284.5 -55.5t-220 -148t-139 -215t-50.5 -255.5zM1751 788q0 -124 -36 -241.5t-107.5 -219.5 t-170.5 -178.5t-233.5 -120.5t-288.5 -44q-158 0 -288 56.5t-214 152t-129.5 217.5t-45.5 256q0 124 35.5 241.5t107 219.5t170 178.5t233.5 120.5t289 44q127 0 237 -37t190 -101.5t137 -150.5t85.5 -186t28.5 -207zM846 1620q14 97 79 150t140 53q55 0 151 -48.5 t125 -48.5q88 0 117 97h107q-9 -92 -73 -147.5t-144 -55.5q-44 0 -100.5 24t-106 48t-76.5 24q-82 0 -113 -96h-106z" />
<glyph unicode="&#xd6;" horiz-adv-x="1685" d="M369 676q0 -115 37 -217.5t105 -182t175 -126t238 -46.5q153 0 285 55.5t220.5 148t138.5 215t50 255.5q0 115 -36.5 217.5t-104.5 182t-175 126t-239 46.5q-153 0 -284.5 -55.5t-220 -148t-139 -215t-50.5 -255.5zM1751 788q0 -124 -36 -241.5t-107.5 -219.5 t-170.5 -178.5t-233.5 -120.5t-288.5 -44q-158 0 -288 56.5t-214 152t-129.5 217.5t-45.5 256q0 124 35.5 241.5t107 219.5t170 178.5t233.5 120.5t289 44q127 0 237 -37t190 -101.5t137 -150.5t85.5 -186t28.5 -207zM981 1620q-44 0 -75.5 31t-31.5 75t31.5 75.5t75.5 31.5 t75 -31.5t31 -75.5t-31 -75t-75 -31zM1432 1620q-44 0 -75.5 31t-31.5 75t31.5 75.5t75.5 31.5t75 -31.5t31 -75.5t-31 -75t-75 -31z" />
<glyph unicode="&#xd7;" horiz-adv-x="1337" d="M485 176l-75 78l299 299l-299 299l75 76l299 -299l299 299l76 -76l-299 -299l301 -299l-78 -78l-299 299z" />
<glyph unicode="&#xd8;" horiz-adv-x="1685" d="M418 -29l-78 70l102 121q-100 94 -152 225.5t-52 278.5q0 124 35.5 241.5t107 219.5t170 178.5t233.5 120.5t289 44q223 0 385 -108l115 133l78 -70l-111 -129q102 -96 156.5 -229t54.5 -279q0 -124 -36 -241.5t-107.5 -219.5t-170.5 -178.5t-233.5 -120.5t-288.5 -44 q-231 0 -393 112zM1618 778q0 123 -41.5 232t-120.5 188l-850 -1003q134 -91 318 -91q153 0 285 55.5t220.5 148t138.5 215t50 255.5zM369 676q0 -122 40 -230t117 -186l850 1004q-136 86 -313 86q-153 0 -284.5 -55.5t-220 -148t-139 -215t-50.5 -255.5z" />
<glyph unicode="&#xd9;" horiz-adv-x="1490" d="M1069 1573l-170 297h150l120 -297h-100zM1417 547q-119 -563 -641 -563q-222 0 -353.5 111.5t-131.5 310.5q0 63 16 141l193 907h127l-195 -911q-14 -63 -14 -121q0 -155 96.5 -236.5t265.5 -81.5q198 0 330.5 112t179.5 329l193 909h127z" />
<glyph unicode="&#xda;" horiz-adv-x="1490" d="M1417 547q-119 -563 -641 -563q-222 0 -353.5 111.5t-131.5 310.5q0 63 16 141l193 907h127l-195 -911q-14 -63 -14 -121q0 -155 96.5 -236.5t265.5 -81.5q198 0 330.5 112t179.5 329l193 909h127zM942 1573l236 297h170l-295 -297h-111z" />
<glyph unicode="&#xdb;" horiz-adv-x="1490" d="M768 1583l-51 96l418 222l301 -230l-68 -88l-246 189zM1417 547q-119 -563 -641 -563q-222 0 -353.5 111.5t-131.5 310.5q0 63 16 141l193 907h127l-195 -911q-14 -63 -14 -121q0 -155 96.5 -236.5t265.5 -81.5q198 0 330.5 112t179.5 329l193 909h127z" />
<glyph unicode="&#xdc;" horiz-adv-x="1490" d="M1417 547q-119 -563 -641 -563q-222 0 -353.5 111.5t-131.5 310.5q0 63 16 141l193 907h127l-195 -911q-14 -63 -14 -121q0 -155 96.5 -236.5t265.5 -81.5q198 0 330.5 112t179.5 329l193 909h127zM889 1620q-44 0 -75.5 31t-31.5 75t31.5 75.5t75.5 31.5t75 -31.5 t31 -75.5t-31 -75t-75 -31zM1339 1620q-44 0 -75 31t-31 75t31 75.5t75 31.5t75.5 -31.5t31.5 -75.5t-31.5 -75t-75.5 -31z" />
<glyph unicode="&#xdd;" horiz-adv-x="1273" d="M573 0l132 616l-355 838h135l297 -715l600 715h160l-711 -838l-131 -616h-127zM823 1573l236 297h170l-295 -297h-111z" />
<glyph unicode="&#xde;" horiz-adv-x="1146" d="M209 0l309 1454h127l-63 -293h274q197 0 301.5 -103.5t104.5 -264.5q0 -214 -148 -347t-420 -133h-288l-70 -313h-127zM428 430h283q189 0 305.5 100.5t116.5 255.5q0 125 -74 193t-225 68h-275z" />
<glyph unicode="&#xdf;" horiz-adv-x="1069" d="M393 -377l23 109h65q113 0 215.5 52.5t165 142.5t62.5 192q0 123 -78.5 196.5t-216.5 73.5h-133l430 522h-445l-194 -911h-117l252 1184q31 148 105.5 209t232.5 61h55l-24 -113h-54q-92 0 -136 -37t-62 -124l-33 -156h643l-442 -537q157 -17 247 -122t90 -246 q0 -100 -44 -190.5t-120 -158t-186.5 -107.5t-236.5 -40h-64z" />
<glyph unicode="&#xe0;" d="M977 0l22 104q-146 -120 -346 -120q-105 0 -190.5 37.5t-140.5 102t-85 149t-30 178.5q0 115 44 222t121 188.5t188.5 130t238.5 48.5q116 0 208 -40t152 -111l29 135h119l-217 -1024h-113zM676 94q98 0 191 44t159 122l104 492q-49 83 -139.5 130.5t-195.5 47.5 q-196 0 -330.5 -138t-134.5 -335q0 -159 93 -261t253 -102zM840 1116l-189 338h166l111 -338h-88z" />
<glyph unicode="&#xe1;" d="M977 0l22 104q-146 -120 -346 -120q-105 0 -190.5 37.5t-140.5 102t-85 149t-30 178.5q0 115 44 222t121 188.5t188.5 130t238.5 48.5q116 0 208 -40t152 -111l29 135h119l-217 -1024h-113zM676 94q98 0 191 44t159 122l104 492q-49 83 -139.5 130.5t-195.5 47.5 q-196 0 -330.5 -138t-134.5 -335q0 -159 93 -261t253 -102zM776 1116l258 338h166l-313 -338h-111z" />
<glyph unicode="&#xe2;" d="M977 0l22 104q-146 -120 -346 -120q-105 0 -190.5 37.5t-140.5 102t-85 149t-30 178.5q0 115 44 222t121 188.5t188.5 130t238.5 48.5q116 0 208 -40t152 -111l29 135h119l-217 -1024h-113zM676 94q98 0 191 44t159 122l104 492q-49 83 -139.5 130.5t-195.5 47.5 q-196 0 -330.5 -138t-134.5 -335q0 -159 93 -261t253 -102zM571 1153l-51 92l400 225l278 -239l-68 -78l-223 193z" />
<glyph unicode="&#xe3;" d="M977 0l22 104q-146 -120 -346 -120q-105 0 -190.5 37.5t-140.5 102t-85 149t-30 178.5q0 115 44 222t121 188.5t188.5 130t238.5 48.5q116 0 208 -40t152 -111l29 135h119l-217 -1024h-113zM676 94q98 0 191 44t159 122l104 492q-49 83 -139.5 130.5t-195.5 47.5 q-196 0 -330.5 -138t-134.5 -335q0 -159 93 -261t253 -102zM532 1171q14 97 79.5 150t140.5 53q43 0 98.5 -24t103.5 -48t74 -24q89 0 117 96h106q-9 -92 -73 -147.5t-144 -55.5q-56 0 -154 48.5t-128 48.5q-81 0 -113 -97h-107z" />
<glyph unicode="&#xe4;" d="M977 0l22 104q-146 -120 -346 -120q-105 0 -190.5 37.5t-140.5 102t-85 149t-30 178.5q0 115 44 222t121 188.5t188.5 130t238.5 48.5q116 0 208 -40t152 -111l29 135h119l-217 -1024h-113zM676 94q98 0 191 44t159 122l104 492q-49 83 -139.5 130.5t-195.5 47.5 q-196 0 -330.5 -138t-134.5 -335q0 -159 93 -261t253 -102zM567 1294q0 44 31.5 75.5t75.5 31.5t75 -31.5t31 -75.5t-31 -75t-75 -31t-75.5 31t-31.5 75zM1124 1188q-44 0 -75 31t-31 75t31 75.5t75 31.5t75.5 -31.5t31.5 -75.5t-31.5 -75t-75.5 -31z" />
<glyph unicode="&#xe5;" d="M977 0l22 104q-146 -120 -346 -120q-105 0 -190.5 37.5t-140.5 102t-85 149t-30 178.5q0 115 44 222t121 188.5t188.5 130t238.5 48.5q116 0 208 -40t152 -111l29 135h119l-217 -1024h-113zM676 94q98 0 191 44t159 122l104 492q-49 83 -139.5 130.5t-195.5 47.5 q-196 0 -330.5 -138t-134.5 -335q0 -159 93 -261t253 -102zM801 1360q0 -46 32.5 -78.5t77.5 -32.5q44 0 76.5 32.5t32.5 78.5q0 44 -32.5 77t-76.5 33t-77 -33t-33 -77zM1100 1360q0 -76 -56 -131t-133 -55q-78 0 -133 54.5t-55 131.5t55 131.5t133 54.5q77 0 133 -55 t56 -131z" />
<glyph unicode="&#xe6;" horiz-adv-x="1945" d="M1772 215l77 -82q-168 -149 -397 -149q-148 0 -253.5 64t-162.5 173q-231 -237 -532 -237q-168 0 -257 79.5t-89 204.5q0 77 34.5 148t96.5 126t157.5 87.5t210.5 32.5q184 0 328 -95q27 138 27 164q0 201 -256 201q-190 0 -346 -125l-62 88q203 145 406 145 q83 0 153.5 -20.5t124.5 -67.5t74 -116q78 96 192.5 150t249.5 54q194 0 311 -117.5t117 -304.5q0 -56 -10 -108h-876v-37q0 -175 107 -277t263 -102q178 0 312 121zM516 92q128 0 234 54t176 143l32 160q-115 106 -321 106q-91 0 -172.5 -35t-132.5 -100.5t-51 -145.5 q0 -86 65.5 -134t169.5 -48zM1538 930q-155 0 -272 -85.5t-158 -230.5h745q2 14 2 31q0 130 -89 207.5t-228 77.5z" />
<glyph unicode="&#xe7;" horiz-adv-x="1056" d="M403 -281l228 269q-132 14 -228.5 83.5t-144 171.5t-47.5 222q0 158 75 289.5t208.5 208.5t296.5 77q127 0 231 -51t166 -147l-98 -68q-49 74 -131 115t-179 41q-191 0 -319.5 -130.5t-128.5 -326.5q0 -117 52 -204.5t135 -131t183 -43.5q179 0 306 121l77 -84 q-157 -141 -372 -147l-158 -265h-152z" />
<glyph unicode="&#xe8;" horiz-adv-x="1187" d="M1014 215l78 -82q-168 -149 -398 -149q-113 0 -206 39.5t-152.5 106.5t-92 153.5t-32.5 181.5q0 158 75 289.5t208.5 208.5t296.5 77q194 0 311 -117.5t117 -304.5q0 -51 -11 -108h-876v-37q0 -175 107 -277t263 -102q178 0 312 121zM780 930q-155 0 -272 -85.5 t-158 -230.5h746q2 14 2 31q0 130 -89.5 207.5t-228.5 77.5zM809 1116l-188 338h165l111 -338h-88z" />
<glyph unicode="&#xe9;" horiz-adv-x="1187" d="M672 1116l258 338h166l-314 -338h-110zM1014 215l78 -82q-168 -149 -398 -149q-113 0 -206 39.5t-152.5 106.5t-92 153.5t-32.5 181.5q0 158 75 289.5t208.5 208.5t296.5 77q194 0 311 -117.5t117 -304.5q0 -51 -11 -108h-876v-37q0 -175 107 -277t263 -102 q178 0 312 121zM780 930q-155 0 -272 -85.5t-158 -230.5h746q2 14 2 31q0 130 -89.5 207.5t-228.5 77.5z" />
<glyph unicode="&#xea;" horiz-adv-x="1187" d="M520 1153l-51 92l399 225l279 -239l-68 -78l-223 193zM1014 215l78 -82q-168 -149 -398 -149q-113 0 -206 39.5t-152.5 106.5t-92 153.5t-32.5 181.5q0 158 75 289.5t208.5 208.5t296.5 77q194 0 311 -117.5t117 -304.5q0 -51 -11 -108h-876v-37q0 -175 107 -277 t263 -102q178 0 312 121zM780 930q-155 0 -272 -85.5t-158 -230.5h746q2 14 2 31q0 130 -89.5 207.5t-228.5 77.5z" />
<glyph unicode="&#xeb;" horiz-adv-x="1187" d="M514 1294q0 44 31.5 75.5t75.5 31.5t75 -31.5t31 -75.5t-31 -75t-75 -31t-75.5 31t-31.5 75zM1071 1188q-44 0 -75 31t-31 75t31 75.5t75 31.5t75.5 -31.5t31.5 -75.5t-31.5 -75t-75.5 -31zM1014 215l78 -82q-168 -149 -398 -149q-113 0 -206 39.5t-152.5 106.5 t-92 153.5t-32.5 181.5q0 158 75 289.5t208.5 208.5t296.5 77q194 0 311 -117.5t117 -304.5q0 -51 -11 -108h-876v-37q0 -175 107 -277t263 -102q178 0 312 121zM780 930q-155 0 -272 -85.5t-158 -230.5h746q2 14 2 31q0 130 -89.5 207.5t-228.5 77.5z" />
<glyph unicode="&#xec;" horiz-adv-x="497" d="M188 0l218 1024h120l-217 -1024h-121zM489 1116l-188 338h166l111 -338h-89z" />
<glyph unicode="&#xed;" horiz-adv-x="497" d="M344 1116l258 338h166l-313 -338h-111zM188 0l218 1024h120l-217 -1024h-121z" />
<glyph unicode="&#xee;" horiz-adv-x="497" d="M219 1153l-51 92l399 225l279 -239l-68 -78l-223 193zM188 0l218 1024h120l-217 -1024h-121z" />
<glyph unicode="&#xef;" horiz-adv-x="497" d="M193 1294q0 44 31 75.5t75 31.5t75.5 -31.5t31.5 -75.5t-31.5 -75t-75.5 -31t-75 31t-31 75zM750 1188q-44 0 -75.5 31t-31.5 75t31.5 75.5t75.5 31.5t75 -31.5t31 -75.5t-31 -75t-75 -31zM188 0l218 1024h120l-217 -1024h-121z" />
<glyph unicode="&#xf0;" d="M647 1171l27 113h182l-82 170h131l80 -170h279l-27 -113h-197l146 -305q53 -106 72.5 -168.5t19.5 -138.5q0 -158 -75.5 -289.5t-209 -208.5t-295.5 -77q-150 0 -263.5 68.5t-169.5 176.5t-56 236q0 158 75 289.5t208.5 208.5t295.5 77q60 0 121 -15.5t92 -37.5l-90 184 h-264zM330 473q0 -171 110 -275t267 -104q191 0 320.5 131t129.5 326q0 171 -110 275t-267 104q-191 0 -320.5 -131t-129.5 -326z" />
<glyph unicode="&#xf1;" horiz-adv-x="1228" d="M188 0l218 1024h112l-22 -104q142 120 342 120q161 0 259.5 -95.5t98.5 -256.5q0 -48 -12 -110l-123 -578h-117l121 567q12 53 12 97q0 126 -75 196t-203 70q-93 0 -180 -44t-152 -120l-162 -766h-117zM535 1171q14 97 79 150t140 53q43 0 98.5 -24t103.5 -48t74 -24 q89 0 117 96h106q-9 -92 -73 -147.5t-144 -55.5q-56 0 -154 48.5t-128 48.5q-81 0 -113 -97h-106z" />
<glyph unicode="&#xf2;" horiz-adv-x="1280" d="M332 473q0 -172 110.5 -275.5t266.5 -103.5q190 0 320 131t130 326q0 172 -110.5 275.5t-266.5 103.5q-191 0 -320.5 -130.5t-129.5 -326.5zM1280 559q0 -158 -75.5 -289.5t-209 -208.5t-295.5 -77q-150 0 -263.5 68.5t-169.5 176.5t-56 236q0 158 75.5 289.5t209 208.5 t295.5 77q150 0 263.5 -68.5t169.5 -176.5t56 -236zM811 1116l-188 338h165l111 -338h-88z" />
<glyph unicode="&#xf3;" horiz-adv-x="1280" d="M731 1116l258 338h166l-313 -338h-111zM332 473q0 -172 110.5 -275.5t266.5 -103.5q190 0 320 131t130 326q0 172 -110.5 275.5t-266.5 103.5q-191 0 -320.5 -130.5t-129.5 -326.5zM1280 559q0 -158 -75.5 -289.5t-209 -208.5t-295.5 -77q-150 0 -263.5 68.5 t-169.5 176.5t-56 236q0 158 75.5 289.5t209 208.5t295.5 77q150 0 263.5 -68.5t169.5 -176.5t56 -236z" />
<glyph unicode="&#xf4;" horiz-adv-x="1280" d="M586 1153l-51 92l399 225l278 -239l-67 -78l-223 193zM332 473q0 -172 110.5 -275.5t266.5 -103.5q190 0 320 131t130 326q0 172 -110.5 275.5t-266.5 103.5q-191 0 -320.5 -130.5t-129.5 -326.5zM1280 559q0 -158 -75.5 -289.5t-209 -208.5t-295.5 -77 q-150 0 -263.5 68.5t-169.5 176.5t-56 236q0 158 75.5 289.5t209 208.5t295.5 77q150 0 263.5 -68.5t169.5 -176.5t56 -236z" />
<glyph unicode="&#xf5;" horiz-adv-x="1280" d="M332 473q0 -172 110.5 -275.5t266.5 -103.5q190 0 320 131t130 326q0 172 -110.5 275.5t-266.5 103.5q-191 0 -320.5 -130.5t-129.5 -326.5zM1280 559q0 -158 -75.5 -289.5t-209 -208.5t-295.5 -77q-150 0 -263.5 68.5t-169.5 176.5t-56 236q0 158 75.5 289.5t209 208.5 t295.5 77q150 0 263.5 -68.5t169.5 -176.5t56 -236zM481 1171q14 97 79 150t140 53q56 0 152 -48t125 -48q89 0 117 96h106q-9 -92 -73 -147.5t-144 -55.5q-57 0 -155 48.5t-128 48.5q-80 0 -112 -97h-107z" />
<glyph unicode="&#xf6;" horiz-adv-x="1280" d="M580 1294q0 44 31 75.5t75 31.5t75.5 -31.5t31.5 -75.5t-31.5 -75t-75.5 -31t-75 31t-31 75zM1137 1188q-44 0 -75.5 31t-31.5 75t31.5 75.5t75.5 31.5t75 -31.5t31 -75.5t-31 -75t-75 -31zM332 473q0 -172 110.5 -275.5t266.5 -103.5q190 0 320 131t130 326 q0 172 -110.5 275.5t-266.5 103.5q-191 0 -320.5 -130.5t-129.5 -326.5zM1280 559q0 -158 -75.5 -289.5t-209 -208.5t-295.5 -77q-150 0 -263.5 68.5t-169.5 176.5t-56 236q0 158 75.5 289.5t209 208.5t295.5 77q150 0 263.5 -68.5t169.5 -176.5t56 -236z" />
<glyph unicode="&#xf7;" horiz-adv-x="1384" d="M811 717q-51 0 -87 36t-36 87t36 87t87 36q50 0 85.5 -36t35.5 -87t-35.5 -87t-85.5 -36zM811 145q-51 0 -87 36t-36 87t36 87t87 36q50 0 85.5 -36t35.5 -87t-35.5 -87t-85.5 -36zM358 498v112h902v-112h-902z" />
<glyph unicode="&#xf8;" horiz-adv-x="1280" d="M297 -27l-78 74l100 105q-108 129 -108 313q0 158 75.5 289.5t209 208.5t295.5 77q177 0 301 -94l100 103l76 -72l-101 -103q113 -134 113 -315q0 -158 -75.5 -289.5t-209 -208.5t-295.5 -77q-179 0 -303 94zM1159 551q0 136 -76 235l-602 -622q98 -70 228 -70 q190 0 320 131t130 326zM332 473q0 -137 74 -233l602 620q-98 70 -226 70q-191 0 -320.5 -130.5t-129.5 -326.5z" />
<glyph unicode="&#xf9;" horiz-adv-x="1179" d="M879 0l20 104q-67 -58 -155 -89t-183 -31q-163 0 -258.5 88.5t-95.5 244.5q0 44 14 119l125 588h117l-123 -584q-12 -56 -12 -102q0 -118 70 -181t198 -63q95 0 182 43.5t150 118.5l164 768h116l-217 -1024h-112zM801 1116l-189 338h166l111 -338h-88z" />
<glyph unicode="&#xfa;" horiz-adv-x="1179" d="M655 1116l258 338h166l-313 -338h-111zM879 0l20 104q-67 -58 -155 -89t-183 -31q-163 0 -258.5 88.5t-95.5 244.5q0 44 14 119l125 588h117l-123 -584q-12 -56 -12 -102q0 -118 70 -181t198 -63q95 0 182 43.5t150 118.5l164 768h116l-217 -1024h-112z" />
<glyph unicode="&#xfb;" horiz-adv-x="1179" d="M510 1153l-51 92l399 225l279 -239l-68 -78l-223 193zM879 0l20 104q-67 -58 -155 -89t-183 -31q-163 0 -258.5 88.5t-95.5 244.5q0 44 14 119l125 588h117l-123 -584q-12 -56 -12 -102q0 -118 70 -181t198 -63q95 0 182 43.5t150 118.5l164 768h116l-217 -1024h-112z " />
<glyph unicode="&#xfc;" horiz-adv-x="1179" d="M502 1294q0 44 31 75.5t75 31.5t75.5 -31.5t31.5 -75.5t-31.5 -75t-75.5 -31t-75 31t-31 75zM1059 1188q-44 0 -75.5 31t-31.5 75t31.5 75.5t75.5 31.5t75 -31.5t31 -75.5t-31 -75t-75 -31zM879 0l20 104q-67 -58 -155 -89t-183 -31q-163 0 -258.5 88.5t-95.5 244.5 q0 44 14 119l125 588h117l-123 -584q-12 -56 -12 -102q0 -118 70 -181t198 -63q95 0 182 43.5t150 118.5l164 768h116l-217 -1024h-112z" />
<glyph unicode="&#xfd;" horiz-adv-x="1060" d="M193 -377l282 420l-237 981h120l203 -854l572 854h135l-942 -1401h-133zM618 1116l259 338h165l-313 -338h-111z" />
<glyph unicode="&#xfe;" horiz-adv-x="1284" d="M109 -377l389 1831h112l-114 -534q146 120 346 120q140 0 243 -65.5t153 -170t50 -231.5q0 -115 -44 -222t-121 -188.5t-188.5 -130t-238.5 -48.5q-234 0 -362 151l-109 -512h-116zM819 930q-99 0 -192.5 -45t-159.5 -123l-105 -488q46 -84 138.5 -132t199.5 -48 q197 0 332 138t135 335q0 159 -93.5 261t-254.5 102z" />
<glyph unicode="&#xff;" horiz-adv-x="1060" d="M193 -377l282 420l-237 981h120l203 -854l572 854h135l-942 -1401h-133zM471 1294q0 44 31.5 75.5t75.5 31.5t75 -31.5t31 -75.5t-31 -75t-75 -31t-75.5 31t-31.5 75zM1028 1188q-44 0 -75 31t-31 75t31 75.5t75 31.5t75.5 -31.5t31.5 -75.5t-31.5 -75t-75.5 -31z" />
<glyph unicode="&#x152;" horiz-adv-x="2336" d="M1331 0l19 92q-187 -108 -435 -108q-158 0 -288 56.5t-214 152t-129.5 217.5t-45.5 256q0 124 35.5 241.5t107 219.5t170 178.5t233.5 120.5t289 44q166 0 299 -61.5t223 -169.5l43 215h818l-27 -121h-688l-53 -248q57 -122 63 -274h444l-26 -123h-424 q-17 -139 -80.5 -265t-165.5 -222l-16 -80h690l-27 -121h-815zM369 676q0 -115 37 -217.5t105 -182t175 -126t238 -46.5q153 0 285 55.5t220.5 148t138.5 215t50 255.5q0 115 -36.5 217.5t-104.5 182t-175 126t-239 46.5q-153 0 -284.5 -55.5t-220 -148t-139 -215 t-50.5 -255.5z" />
<glyph unicode="&#x153;" horiz-adv-x="2134" d="M1198 260q-77 -127 -207.5 -201.5t-290.5 -74.5q-150 0 -263.5 68.5t-169.5 176.5t-56 236q0 158 75.5 289.5t209 208.5t295.5 77q161 0 276 -75t170 -201q77 127 208.5 201.5t291.5 74.5q194 0 311 -117.5t117 -304.5q0 -51 -11 -108h-876v-37q0 -175 107.5 -277 t263.5 -102q177 0 311 121l78 -82q-168 -149 -398 -149q-161 0 -275 75t-167 201zM1296 614h746q2 14 2 31q0 130 -89.5 207.5t-228.5 77.5q-155 0 -272 -85.5t-158 -230.5zM709 94q190 0 320 131t130 326q0 172 -110.5 275.5t-266.5 103.5q-191 0 -320.5 -130.5 t-129.5 -326.5q0 -172 110.5 -275.5t266.5 -103.5z" />
<glyph unicode="&#x178;" horiz-adv-x="1273" d="M573 0l132 616l-355 838h135l297 -715l600 715h160l-711 -838l-131 -616h-127zM766 1620q-44 0 -75.5 31t-31.5 75t31.5 75.5t75.5 31.5t75 -31.5t31 -75.5t-31 -75t-75 -31zM1217 1620q-44 0 -75.5 31t-31.5 75t31.5 75.5t75.5 31.5t75 -31.5t31 -75.5t-31 -75t-75 -31z " />
<glyph unicode="&#x2c6;" horiz-adv-x="761" d="M356 1153l-51 92l400 225l278 -239l-68 -78l-223 193z" />
<glyph unicode="&#x2dc;" horiz-adv-x="841" d="M332 1171q14 97 79 150t140 53q55 0 151 -48t125 -48q89 0 117 96h107q-9 -92 -73 -147.5t-144 -55.5q-44 0 -100.5 24t-106 48.5t-76.5 24.5q-81 0 -113 -97h-106z" />
<glyph unicode="&#x2000;" horiz-adv-x="950" />
<glyph unicode="&#x2001;" horiz-adv-x="1901" />
<glyph unicode="&#x2002;" horiz-adv-x="950" />
<glyph unicode="&#x2003;" horiz-adv-x="1901" />
<glyph unicode="&#x2004;" horiz-adv-x="633" />
<glyph unicode="&#x2005;" horiz-adv-x="475" />
<glyph unicode="&#x2006;" horiz-adv-x="316" />
<glyph unicode="&#x2007;" horiz-adv-x="316" />
<glyph unicode="&#x2008;" horiz-adv-x="237" />
<glyph unicode="&#x2009;" horiz-adv-x="380" />
<glyph unicode="&#x200a;" horiz-adv-x="105" />
<glyph unicode="&#x2010;" horiz-adv-x="673" d="M209 487l29 134h464l-28 -134h-465z" />
<glyph unicode="&#x2011;" horiz-adv-x="673" d="M209 487l29 134h464l-28 -134h-465z" />
<glyph unicode="&#x2012;" horiz-adv-x="673" d="M209 487l29 134h464l-28 -134h-465z" />
<glyph unicode="&#x2013;" horiz-adv-x="1052" d="M211 498l25 112h843l-24 -112h-844z" />
<glyph unicode="&#x2014;" horiz-adv-x="1658" d="M211 498l25 112h1450l-25 -112h-1450z" />
<glyph unicode="&#x2018;" horiz-adv-x="518" d="M670 1454l-152 -283h86l-45 -210h-197l46 213l172 280h90z" />
<glyph unicode="&#x2019;" horiz-adv-x="518" d="M362 961l152 282h-86l45 211h197l-45 -213l-172 -280h-91z" />
<glyph unicode="&#x201a;" horiz-adv-x="518" d="M98 -283l152 283h-86l45 211h197l-46 -213l-172 -281h-90z" />
<glyph unicode="&#x201c;" horiz-adv-x="915" d="M670 1454l-152 -283h86l-45 -210h-197l46 213l172 280h90zM1067 1454l-152 -283h86l-45 -210h-196l45 213l172 280h90z" />
<glyph unicode="&#x201d;" horiz-adv-x="915" d="M362 961l152 282h-86l45 211h197l-45 -213l-172 -280h-91zM760 961l151 282h-86l45 211h197l-45 -213l-172 -280h-90z" />
<glyph unicode="&#x201e;" horiz-adv-x="915" d="M98 -283l152 283h-86l45 211h197l-46 -213l-172 -281h-90zM496 -283l151 283h-86l45 211h197l-45 -213l-172 -281h-90z" />
<glyph unicode="&#x2022;" horiz-adv-x="835" d="M549 340q-116 0 -197.5 81.5t-81.5 196.5q0 116 82 197.5t197 81.5t196.5 -81.5t81.5 -197.5t-81.5 -197t-196.5 -81z" />
<glyph unicode="&#x2026;" horiz-adv-x="1247" d="M231 231q51 0 86 -37t35 -88q0 -48 -35.5 -84t-85.5 -36t-85 36t-35 84q0 51 34.5 88t85.5 37zM645 231q51 0 86 -37t35 -88q0 -48 -35.5 -84t-85.5 -36t-85.5 36t-35.5 84q0 51 35 88t86 37zM1059 231q51 0 86 -37t35 -88q0 -48 -35.5 -84t-85.5 -36t-85.5 36t-35.5 84 q0 51 35 88t86 37z" />
<glyph unicode="&#x202f;" horiz-adv-x="380" />
<glyph unicode="&#x2039;" horiz-adv-x="567" d="M379 76l-207 436l393 436l80 -76l-336 -372l176 -373z" />
<glyph unicode="&#x203a;" horiz-adv-x="567" d="M406 948l206 -436l-393 -436l-80 76l336 372l-176 373z" />
<glyph unicode="&#x205f;" horiz-adv-x="475" />
<glyph unicode="&#x20ac;" horiz-adv-x="1404" d="M188 850l62 92h242q40 112 112 207t170.5 167t228 113t275.5 41q217 0 371 -112l-66 -98q-134 102 -315 102q-238 0 -411 -115t-249 -305h764l-61 -92h-731q-21 -86 -21 -174q0 -44 2 -64h592l-61 -92h-517q43 -192 186.5 -310t366.5 -118q116 0 222 37l-31 -121 q-89 -24 -197 -24q-138 0 -254.5 42t-198.5 115.5t-136 170t-76 208.5h-338l61 92h264q-2 16 -2 54q0 92 21 184h-275z" />
<glyph unicode="&#x2122;" horiz-adv-x="1925" d="M1104 637v858l403 -418l400 418v-858h-109v606l-291 -303l-295 303v-606h-108zM631 637v715h-232v102h572v-102h-234v-715h-106z" />
<glyph unicode="&#x25fc;" horiz-adv-x="1024" d="M0 1024h1024v-1024h-1024v1024z" />
<glyph unicode="&#xfb01;" horiz-adv-x="1208" d="M242 911l22 113h207q-65 62 -65 172q0 114 95 186t247 72h210l-24 -111h-182q-218 0 -230 -169q-5 -60 36 -103t110 -47h200l-22 -113h-277l-192 -911h-119l193 911h-209zM1143 1356q0 47 35.5 80.5t83.5 33.5q39 0 64.5 -26t25.5 -62q0 -59 -62 -98h-114q-33 26 -33 72z M903 0l217 1024h117l-217 -1024h-117z" />
<glyph unicode="&#xfb02;" horiz-adv-x="1208" d="M242 911l22 113h207q-65 62 -65 172q0 114 95 186t247 72h210l-24 -111h-182q-218 0 -230 -169q-5 -60 36 -103t110 -47h200l-22 -113h-277l-192 -911h-119l193 911h-209zM903 0l309 1454h117l-309 -1454h-117z" />
</font>
</defs>
</svg>
