<?xml version="1.0" standalone="no"?>
<!DOCTYPE svg PUBLIC "-//W3C//DTD SVG 1.1//EN" "http://www.w3.org/Graphics/SVG/1.1/DTD/svg11.dtd" >
<svg xmlns="http://www.w3.org/2000/svg">
<metadata></metadata>
<defs>
<font id="euclid_flexultralight_italic" horiz-adv-x="448" >
<font-face units-per-em="2048" ascent="1651" descent="-397" />
<missing-glyph horiz-adv-x="409" />
<glyph horiz-adv-x="0" />
<glyph horiz-adv-x="682" />
<glyph unicode=" "  horiz-adv-x="409" />
<glyph unicode="&#x09;" horiz-adv-x="409" />
<glyph unicode="&#xa0;" horiz-adv-x="409" />
<glyph unicode="!" horiz-adv-x="454" d="M209 0l45 211h39l-45 -211q-8 -8 -19 -8q-17 0 -20 8zM281 334l145 706l88 414h45l-88 -414l-160 -706h-30z" />
<glyph unicode="&#x22;" horiz-adv-x="673" d="M371 993v461h39v-461h-39zM784 993v461h39v-461h-39z" />
<glyph unicode="#" horiz-adv-x="1693" d="M311 459v39h351l149 473h-336v39h348l140 444h38l-139 -444h469l139 444h37l-139 -444h328v-39h-340l-148 -473h322v-39h-334l-143 -459h-39l143 459h-467l-143 -459h-41l143 459h-338zM702 498h467l150 473h-469z" />
<glyph unicode="$" horiz-adv-x="1087" d="M154 254l36 18q44 -106 157.5 -177.5t266.5 -71.5q184 0 287 88.5t103 220.5q0 124 -58.5 207.5t-185.5 165.5l-185 120q-196 129 -196 314q0 153 102.5 242t284.5 89q246 0 385 -206l-35 -23q-125 191 -356 191q-151 0 -245.5 -77.5t-94.5 -213.5q0 -93 45 -159.5 t141 -129.5l185 -121q130 -86 191.5 -177t61.5 -220q0 -68 -26 -129.5t-77.5 -111.5t-136.5 -79.5t-194 -29.5q-161 0 -285 79t-171 191zM469 -178l41 182h39l-41 -182h-39zM813 1440l43 194h39l-43 -194h-39z" />
<glyph unicode="%" horiz-adv-x="937" d="M238 240q0 130 88 218.5t219 88.5q120 0 191 -75t71 -181q0 -130 -88 -218.5t-219 -88.5q-120 0 -191 75t-71 181zM276 242q0 -101 66.5 -162.5t159.5 -61.5q111 0 188.5 78t77.5 193q0 102 -66.5 162.5t-158.5 60.5q-111 0 -189 -77.5t-78 -192.5zM375 711l8 39h491 l-8 -39h-491zM438 1163q0 130 88 218.5t219 88.5q120 0 191.5 -75t71.5 -181q0 -130 -88.5 -218.5t-219.5 -88.5q-120 0 -191 75t-71 181zM477 1165q0 -101 66 -162t159 -61q111 0 189 77.5t78 192.5q0 102 -67 163t-159 61q-111 0 -188.5 -78t-77.5 -193z" />
<glyph unicode="&#x26;" horiz-adv-x="1273" d="M164 399q0 137 64.5 251t180 180.5t257.5 66.5q185 0 301 -123l-213 680h686l-8 -39h-625l453 -1415h-43l-138 430q-17 -193 -154 -319.5t-337 -126.5q-194 0 -309 122t-115 293zM205 399q0 -88 32 -160.5t86 -119t122 -71.5t143 -25q193 0 326 131.5t133 328.5 q0 115 -55 202t-141.5 130t-186.5 43q-192 0 -325.5 -132.5t-133.5 -326.5z" />
<glyph unicode="'" horiz-adv-x="260" d="M371 993v461h39v-461h-39z" />
<glyph unicode="(" horiz-adv-x="462" d="M246 268q0 323 93.5 587t336.5 615l35 -16q-230 -326 -327 -591.5t-97 -586.5q0 -253 67 -497l-41 -17q-67 265 -67 506z" />
<glyph unicode=")" horiz-adv-x="462" d="M14 -221q230 327 327 592t97 585q0 254 -67 498l41 16q67 -265 67 -505q0 -324 -93.5 -588.5t-336.5 -614.5z" />
<glyph unicode="*" horiz-adv-x="854" d="M381 1237l12 39l277 -96v274h39v-272l276 90l12 -37l-274 -90l170 -232l-35 -24l-168 231l-168 -233l-33 20l168 232z" />
<glyph unicode="+" horiz-adv-x="1359" d="M348 535v38h432v412h39v-412h430v-38h-430v-424h-39v424h-432z" />
<glyph unicode="," horiz-adv-x="407" d="M10 -283l176 295l43 199h39l-45 -213l-170 -281h-43z" />
<glyph unicode="-" horiz-adv-x="671" d="M217 535l8 38h465l-8 -38h-465z" />
<glyph unicode="." d="M205 0l45 211h39l-45 -211h-39z" />
<glyph unicode="/" horiz-adv-x="651" d="M102 0l715 1454h41l-713 -1454h-43z" />
<glyph unicode="0" horiz-adv-x="1648" d="M221 666q0 124 36.5 242t109 219.5t172 178t233.5 120.5t285 44q158 0 288.5 -56.5t214.5 -151.5t129.5 -217t45.5 -257q0 -124 -36.5 -242t-109 -219.5t-172 -178t-233.5 -120.5t-285 -44q-158 0 -288.5 56.5t-214.5 151.5t-129.5 217t-45.5 257zM262 666 q0 -102 26.5 -196.5t80 -176t128.5 -141.5t178.5 -94.5t223.5 -34.5q177 0 328 62.5t252 168t158 244t57 290.5q0 128 -42.5 243.5t-121 205t-201 142.5t-272.5 53q-176 0 -327 -62.5t-252.5 -168t-158.5 -244.5t-57 -291z" />
<glyph unicode="1" d="M205 0l305 1432l47 38l-313 -1470h-39z" />
<glyph unicode="2" horiz-adv-x="1116" d="M102 0l783 700q-68 -22 -137 -22q-167 0 -267 105.5t-100 254.5q0 182 124 307t310 125q168 0 267.5 -105t99.5 -253q0 -201 -160 -342l-821 -731h784l-8 -39h-875zM422 1038q0 -147 97 -234t229 -87q165 0 279 113.5t114 281.5q0 144 -97 232t-229 88 q-166 0 -279.5 -114t-113.5 -280z" />
<glyph unicode="3" horiz-adv-x="976" d="M82 193l33 22q49 -91 148 -141.5t212 -50.5q194 0 326.5 130t132.5 326q0 115 -55 203t-141.5 132t-186.5 44h-64l512 557h-628l8 39h708l-514 -557q186 -12 294 -132.5t108 -285.5q0 -210 -143 -352.5t-357 -142.5q-136 0 -239 57t-154 152z" />
<glyph unicode="4" horiz-adv-x="1206" d="M111 426l1138 1044l-215 -1005h211l-8 -39h-211l-90 -426h-39l90 426h-876zM207 465h788l193 899z" />
<glyph unicode="5" horiz-adv-x="1091" d="M186 188l35 21q50 -88 142 -137t198 -49q193 0 326 131.5t133 328.5q0 115 -55 202t-141.5 130t-186.5 43q-148 0 -268 -84l-21 25l152 655h680l-9 -39h-639l-137 -577q115 59 244 59q97 0 178.5 -34.5t133.5 -92t81 -132t29 -155.5q0 -103 -38 -195.5t-104 -159 t-159 -105.5t-199 -39q-128 0 -225 55.5t-150 148.5z" />
<glyph unicode="6" horiz-adv-x="1118" d="M188 399q0 186 123 332l600 723h50l-515 -616q109 59 244 59q97 0 178.5 -34.5t133.5 -92t81 -132t29 -155.5q0 -103 -38 -195.5t-104 -159t-159 -105.5t-199 -39q-194 0 -309 122t-115 293zM229 399q0 -88 32 -160.5t86 -119t122 -71.5t143 -25q193 0 326 131.5 t133 328.5q0 115 -55 202t-141.5 130t-186.5 43q-192 0 -325.5 -132.5t-133.5 -326.5z" />
<glyph unicode="7" horiz-adv-x="1030" d="M170 0l1055 1415h-863l9 39h929l-1081 -1454h-49z" />
<glyph unicode="8" horiz-adv-x="1118" d="M193 393q0 191 117 330.5t304 165.5q-69 36 -107 102t-38 144q0 141 95 238t233 97q132 0 209 -81t77 -195q0 -117 -66.5 -205.5t-170.5 -118.5q126 -43 196 -148.5t70 -236.5q0 -138 -63.5 -252.5t-178 -181.5t-256.5 -67q-130 0 -227.5 57.5t-145.5 149.5t-48 202z M233 397q0 -117 53.5 -203.5t140 -128.5t191.5 -42q122 0 226 60t165.5 166t61.5 232q0 117 -53.5 203.5t-140 129t-191.5 42.5q-122 0 -226 -60.5t-165.5 -166.5t-61.5 -232zM510 1139q0 -113 73 -177.5t175 -64.5q118 0 201 84.5t83 208.5q0 113 -72.5 177.5t-174.5 64.5 q-118 0 -201.5 -84.5t-83.5 -208.5z" />
<glyph unicode="9" horiz-adv-x="1118" d="M311 971q0 103 38 195.5t104 159t159 105.5t199 39q194 0 309 -122t115 -293q0 -186 -123 -332l-600 -723h-49l514 616q-109 -59 -244 -59q-97 0 -178.5 34.5t-133.5 92t-81 132t-29 155.5zM352 971q0 -115 55 -202t141.5 -130t186.5 -43q192 0 325.5 132.5t133.5 326.5 q0 116 -55.5 204t-141 130.5t-186.5 42.5q-193 0 -326 -132t-133 -329z" />
<glyph unicode=":" horiz-adv-x="450" d="M205 0l45 211h39l-45 -211h-39zM379 813l45 211h39l-45 -211h-39z" />
<glyph unicode=";" horiz-adv-x="407" d="M10 -283l176 295l43 199h39l-45 -213l-170 -281h-43zM356 813l45 211h39l-45 -211h-39z" />
<glyph unicode="&#x3c;" horiz-adv-x="1038" d="M250 518l592 535l26 -29l-561 -506l561 -506l-26 -28z" />
<glyph unicode="=" horiz-adv-x="1482" d="M399 291v39h920v-39h-920zM399 778v39h920v-39h-920z" />
<glyph unicode="&#x3e;" horiz-adv-x="1038" d="M389 12l561 506l-561 506l27 29l592 -535l-592 -534z" />
<glyph unicode="?" horiz-adv-x="886" d="M272 1038q0 181 124.5 306.5t310.5 125.5q167 0 266.5 -103.5t99.5 -244.5q0 -62 -21 -121t-64.5 -118t-90.5 -111.5t-117 -124.5l-24 -24l-234 -240l-28 27l229 233q8 9 46.5 48t48 49t42 44.5t42.5 47.5t35 44.5t33.5 48.5t24.5 45.5t21.5 50t10.5 48.5t5 53 q0 137 -97.5 223.5t-227.5 86.5q-166 0 -280 -114t-114 -280q0 -98 47.5 -172.5t120.5 -110.5t158 -36v-39q-168 0 -267.5 105t-99.5 253zM418 0l45 211h39l-45 -211q-8 -8 -23 -8q-13 0 -16 8z" />
<glyph unicode="@" horiz-adv-x="1685" d="M250 709q0 160 62 301t170 242t260.5 159.5t326.5 58.5q318 0 506 -172.5t188 -463.5q0 -224 -102.5 -360t-235.5 -136q-70 0 -119.5 34.5t-68.5 92.5q-60 -62 -139 -94.5t-160 -32.5q-79 0 -142.5 28t-103.5 75.5t-61 107.5t-21 127q0 120 57 225.5t159.5 169.5 t226.5 64q85 0 156.5 -35t115.5 -94l18 86h37l-106 -508q-21 -95 25 -152t128 -57q118 0 207.5 124.5t89.5 331.5q0 145 -50 260.5t-138.5 190t-209 113.5t-263.5 39q-166 0 -311 -57.5t-246 -155.5t-159 -232t-58 -284q0 -195 84 -350.5t242 -245t364 -89.5q238 0 414 86 l14 -36q-92 -41 -207 -63.5t-221 -22.5q-219 0 -385.5 93.5t-255 258t-88.5 373.5zM649 676q0 -130 78.5 -215.5t218.5 -85.5q77 0 154.5 36t128.5 99q-3 25 4 63l82 383q-40 67 -112.5 104.5t-151.5 37.5q-169 0 -285.5 -124.5t-116.5 -297.5z" />
<glyph unicode="A" horiz-adv-x="1400" d="M20 0l994 1470l366 -1470h-39l-129 510h-802l-344 -510h-46zM436 549h768l-207 829z" />
<glyph unicode="B" horiz-adv-x="1236" d="M205 0l309 1454h393q185 0 281 -88.5t96 -220.5q0 -152 -95.5 -254t-234.5 -139q76 -13 137.5 -51t102.5 -107.5t41 -159.5q0 -88 -34.5 -165t-102.5 -137.5t-179.5 -96t-254.5 -35.5h-459zM252 39h424q247 0 382.5 112.5t135.5 282.5q0 132 -96.5 214.5t-276.5 82.5 h-422zM408 770h395q194 0 317 107.5t123 261.5q0 119 -86.5 197.5t-241.5 78.5h-370z" />
<glyph unicode="C" horiz-adv-x="1419" d="M233 666q0 124 36.5 242t109 219.5t172 178t233.5 120.5t285 44q295 0 481 -186l-28 -29q-172 177 -453 177q-176 0 -327 -62.5t-252.5 -168t-158.5 -244.5t-57 -291q0 -102 26.5 -196.5t80 -176t128.5 -141.5t178.5 -94.5t223.5 -34.5q241 0 426 112l21 -35 q-193 -116 -447 -116q-158 0 -288.5 56.5t-214.5 151.5t-129.5 217t-45.5 257z" />
<glyph unicode="D" horiz-adv-x="1486" d="M205 0l309 1454h393q153 0 278.5 -45.5t209 -126t129 -190t45.5 -236.5q0 -171 -70 -326.5t-194 -273t-305.5 -187t-391.5 -69.5h-403zM252 39h362q164 0 309.5 44t254.5 121.5t188.5 180.5t120.5 223.5t41 247.5q0 119 -43 221.5t-121.5 177.5t-196 117.5t-260.5 42.5 h-362z" />
<glyph unicode="E" horiz-adv-x="1083" d="M205 0l309 1454h797l-8 -39h-758l-137 -645h634l-8 -39h-635l-147 -692h758l-9 -39h-796z" />
<glyph unicode="F" horiz-adv-x="1026" d="M205 0l309 1454h786l-8 -39h-747l-137 -645h604l-8 -39h-605l-155 -731h-39z" />
<glyph unicode="G" horiz-adv-x="1558" d="M233 666q0 124 36.5 242t109 219.5t172 178t233.5 120.5t285 44t277.5 -49t214.5 -137l-29 -29q-81 84 -200.5 130.5t-262.5 46.5q-176 0 -327 -62.5t-252.5 -168t-158.5 -244.5t-57 -291q0 -102 26.5 -196.5t80 -176t128.5 -141.5t178.5 -94.5t223.5 -34.5 q262 0 484 127l123 581h-474l27 39h496l-137 -645q-227 -141 -519 -141q-158 0 -288.5 56.5t-214.5 151.5t-129.5 217t-45.5 257z" />
<glyph unicode="H" horiz-adv-x="1515" d="M205 0l309 1454h39l-145 -684h1028l145 684h39l-309 -1454h-39l155 731h-1028l-155 -731h-39z" />
<glyph unicode="I" d="M205 0l309 1454h39l-309 -1454h-39z" />
<glyph unicode="J" horiz-adv-x="1005" d="M94 287q0 38 10 96h39q-10 -55 -10 -92q0 -128 84.5 -198t233.5 -70q169 0 272 93t141 267l228 1071h38l-227 -1071q-42 -200 -159 -299.5t-293 -99.5q-156 0 -256.5 78t-100.5 225z" />
<glyph unicode="K" horiz-adv-x="1181" d="M205 0l309 1454h39l-309 -1454h-39zM399 723l947 731h57l-948 -733l706 -721h-53z" />
<glyph unicode="L" horiz-adv-x="1021" d="M205 0l309 1454h39l-301 -1415h758l-9 -39h-796z" />
<glyph unicode="M" horiz-adv-x="1748" d="M205 0l313 1470l488 -847l852 847l-314 -1470h-39l287 1352l-795 -791l-462 803l-291 -1364h-39z" />
<glyph unicode="N" horiz-adv-x="1568" d="M205 0l313 1470l825 -1384l291 1368h39l-313 -1470l-825 1384l-291 -1368h-39z" />
<glyph unicode="O" horiz-adv-x="1679" d="M233 666q0 124 36.5 242t109 219.5t172 178t233.5 120.5t285 44q158 0 288.5 -56.5t214.5 -151.5t129.5 -217t45.5 -257q0 -124 -36.5 -242t-109 -219.5t-172 -178t-233.5 -120.5t-285 -44q-158 0 -288.5 56.5t-214.5 151.5t-129.5 217t-45.5 257zM274 666 q0 -102 26.5 -196.5t80 -176t128.5 -141.5t178.5 -94.5t223.5 -34.5q177 0 328 62.5t252 168t158 244t57 290.5q0 128 -42.5 243.5t-121 205t-201 142.5t-272.5 53q-176 0 -327 -62.5t-252.5 -168t-158.5 -244.5t-57 -291z" />
<glyph unicode="P" horiz-adv-x="1099" d="M205 0l309 1454h399q183 0 277 -92.5t94 -233.5q0 -90 -33 -169.5t-96.5 -142.5t-167.5 -99.5t-235 -36.5h-363l-145 -680h-39zM397 719h361q227 0 356 115.5t129 291.5q0 129 -82.5 209t-247.5 80h-368z" />
<glyph unicode="Q" horiz-adv-x="1679" d="M233 666q0 124 36.5 242t109 219.5t172 178t233.5 120.5t285 44q158 0 288.5 -56.5t214.5 -151.5t129.5 -217t45.5 -257q0 -179 -77.5 -343t-217.5 -279l172 -217l-29 -23l-172 217q-219 -159 -512 -159q-158 0 -288.5 56.5t-214.5 151.5t-129.5 217t-45.5 257zM274 666 q0 -102 26.5 -196.5t80 -176t128.5 -141.5t178.5 -94.5t223.5 -34.5q283 0 490 151l-184 236l28 22l185 -235q132 107 204 262t72 329q0 128 -42.5 243.5t-121 205t-201 142.5t-272.5 53q-176 0 -327 -62.5t-252.5 -168t-158.5 -244.5t-57 -291z" />
<glyph unicode="R" horiz-adv-x="1241" d="M205 0l309 1454h367q183 0 279.5 -86t96.5 -221q0 -184 -134.5 -303.5t-387.5 -122.5l445 -721h-45l-445 721h-293l-153 -721h-39zM406 760h323q238 0 363 107.5t125 279.5q0 121 -86 194.5t-248 73.5h-338z" />
<glyph unicode="S" horiz-adv-x="1093" d="M154 254l36 18q44 -106 157.5 -177.5t266.5 -71.5q184 0 287 88.5t103 220.5q0 124 -58.5 207.5t-185.5 165.5l-185 120q-196 129 -196 314q0 153 102.5 242t284.5 89q246 0 385 -206l-35 -23q-125 191 -356 191q-151 0 -245.5 -77.5t-94.5 -213.5q0 -93 45 -159.5 t141 -129.5l185 -121q130 -86 191.5 -177t61.5 -220q0 -68 -26 -129.5t-77.5 -111.5t-136.5 -79.5t-194 -29.5q-161 0 -285 79t-171 191z" />
<glyph unicode="T" horiz-adv-x="1030" d="M342 1415l8 39h948l-8 -39h-454l-301 -1415h-39l301 1415h-455z" />
<glyph unicode="U" horiz-adv-x="1474" d="M301 385q0 76 16 147l197 922h39l-197 -922q-16 -71 -16 -145q0 -180 112 -272t310 -92q230 0 378 127t203 382l197 922h39l-197 -922q-58 -268 -213 -408t-405 -140q-218 0 -340.5 104t-122.5 297z" />
<glyph unicode="V" horiz-adv-x="1318" d="M330 1454h39l305 -1374l889 1374h45l-951 -1470z" />
<glyph unicode="W" horiz-adv-x="1804" d="M360 1454h39l111 -1335l698 1351l125 -1353l676 1337h43l-745 -1470l-125 1351l-699 -1351z" />
<glyph unicode="X" horiz-adv-x="1320" d="M51 0l744 762l-381 692h43l366 -663l650 663h53l-684 -700l418 -754h-43l-402 725l-711 -725h-53z" />
<glyph unicode="Y" horiz-adv-x="1130" d="M319 1454h41l336 -795l674 795h49l-708 -836l-131 -618h-39l131 618z" />
<glyph unicode="Z" horiz-adv-x="1218" d="M68 0l1298 1415h-885l8 39h965l-1298 -1415h999l-8 -39h-1079z" />
<glyph unicode="[" horiz-adv-x="530" d="M135 -236l361 1700h284l-8 -39h-246l-344 -1622h246l-8 -39h-285z" />
<glyph unicode="\" horiz-adv-x="1064" d="M309 1454h41l715 -1454h-43z" />
<glyph unicode="]" horiz-adv-x="530" d="M10 -236l8 39h246l344 1622h-246l9 39h284l-360 -1700h-285z" />
<glyph unicode="^" horiz-adv-x="1290" d="M240 680l551 795l550 -795h-43l-507 731l-508 -731h-43z" />
<glyph unicode="_" horiz-adv-x="858" d="M-8 -39l8 39h858l-8 -39h-858z" />
<glyph unicode="`" horiz-adv-x="346" d="M326 1454h39l153 -338h-39z" />
<glyph unicode="a" horiz-adv-x="1243" d="M201 451q0 116 45 223.5t122.5 188t189 129t237.5 48.5q134 0 237 -53.5t164 -146.5l41 184h39l-217 -1024h-39l31 145q-79 -78 -182 -119.5t-212 -41.5q-111 0 -199.5 38t-143.5 103.5t-84 148.5t-29 177zM242 449q0 -117 46 -212t142.5 -154.5t228.5 -59.5 q115 0 223.5 50t182.5 140l121 571q-56 103 -162 160t-233 57q-153 0 -280 -75.5t-198 -202t-71 -274.5z" />
<glyph unicode="b" horiz-adv-x="1253" d="M184 0l310 1454h38l-122 -575q78 78 180 119.5t213 41.5t199.5 -38t144 -103.5t84.5 -148.5t29 -177q0 -116 -45 -223.5t-122.5 -188t-189 -129t-237.5 -48.5q-135 0 -239.5 53.5t-164.5 146.5l-39 -184h-39zM274 240q54 -104 160.5 -160.5t235.5 -56.5q153 0 280 75.5 t198 202t71 274.5q0 87 -27.5 163.5t-78.5 135.5t-131.5 93t-180.5 34q-115 0 -223.5 -50t-182.5 -140z" />
<glyph unicode="c" horiz-adv-x="1105" d="M205 465q0 158 74 289.5t206 208.5t295 77q116 0 223.5 -45t170.5 -131l-31 -26q-57 79 -154.5 121t-210.5 42q-225 0 -378.5 -153.5t-153.5 -382.5q0 -137 62.5 -239.5t161.5 -152.5t218 -50q206 0 354 129l25 -33q-161 -135 -381 -135q-113 0 -205.5 39.5t-152 106.5 t-91.5 153.5t-32 181.5z" />
<glyph unicode="d" horiz-adv-x="1243" d="M201 451q0 116 45 223.5t122.5 188t189 129t237.5 48.5q134 0 237.5 -54t165.5 -148l131 616h39l-309 -1454h-39l31 145q-79 -78 -182 -119.5t-212 -41.5q-111 0 -199.5 38t-143.5 103.5t-84 148.5t-29 177zM242 449q0 -117 46 -212t142.5 -154.5t228.5 -59.5 q115 0 223.5 50t182.5 140l121 569q-54 104 -161 161.5t-234 57.5q-153 0 -280 -75.5t-198 -202t-71 -274.5z" />
<glyph unicode="e" horiz-adv-x="1163" d="M205 465q0 158 74 289.5t206 208.5t295 77q82 0 156.5 -23.5t135 -69.5t96.5 -122.5t36 -173.5q0 -57 -12 -121h-942q-4 -46 -4 -65q0 -137 62 -239.5t160.5 -152.5t217.5 -50q208 0 356 129l25 -33q-161 -135 -381 -135q-113 0 -205.5 39.5t-152 106.5t-91.5 153.5 t-32 181.5zM254 567h903q6 44 6 80q0 169 -108.5 261.5t-276.5 92.5q-199 0 -344.5 -121.5t-179.5 -312.5z" />
<glyph unicode="f" horiz-adv-x="579" d="M197 985l8 39h262q-44 25 -72 75.5t-28 106.5q0 109 89 178.5t224 69.5h186l-8 -37h-170q-129 0 -204.5 -58t-75.5 -155q0 -76 52.5 -128t143.5 -52h172l-8 -39h-283l-209 -985h-38l208 985h-249z" />
<glyph unicode="g" horiz-adv-x="1226" d="M141 -238l35 29q50 -67 149 -108t216 -41q253 0 387.5 131t134.5 358q0 50 -8 78q-80 -87 -186.5 -135.5t-219.5 -48.5q-111 0 -197.5 35t-139.5 96.5t-80 141t-27 173.5q0 155 72.5 284.5t206.5 207t302 77.5q132 0 232.5 -53.5t161.5 -146.5l39 184h38l-163 -776 q10 -65 10 -119q0 -130 -42 -231t-118 -165t-178.5 -97t-226.5 -33q-121 0 -231.5 44t-166.5 115zM246 469q0 -180 103.5 -293t301.5 -113q113 0 222.5 55t185.5 148l108 520q-55 103 -157.5 159t-227.5 56q-154 0 -277 -70.5t-191 -192t-68 -269.5z" />
<glyph unicode="h" horiz-adv-x="1187" d="M184 0l310 1454h38l-133 -623q158 209 398 209q167 0 263.5 -93.5t96.5 -252.5q0 -58 -12 -119l-123 -575h-39l125 584q12 58 12 108q0 146 -88 227.5t-235 81.5q-128 0 -234 -67.5t-182 -188.5l-158 -745h-39z" />
<glyph unicode="i" horiz-adv-x="407" d="M184 0l217 1024h39l-217 -1024h-39zM455 1270l39 184q8 8 22 8q13 0 16 -8l-38 -184h-39z" />
<glyph unicode="j" horiz-adv-x="405" d="M-137 -377l8 39h16q51 0 89 6.5t66.5 22.5t47.5 36t33.5 53.5t24 67.5t20.5 86l231 1090h39l-237 -1122q-32 -153 -101 -216t-223 -63h-14zM453 1270l39 184q8 8 22 8q13 0 16 -8l-38 -184h-39z" />
<glyph unicode="k" horiz-adv-x="980" d="M184 0l310 1454h38l-194 -915l713 485h65l-719 -489l561 -535h-55l-565 539l-115 -539h-39z" />
<glyph unicode="l" horiz-adv-x="407" d="M184 0l310 1454h38l-309 -1454h-39z" />
<glyph unicode="m" horiz-adv-x="1816" d="M184 0l217 1024h39l-41 -186q71 93 166.5 147.5t206.5 54.5q133 0 210 -61.5t95 -173.5q71 104 180 169.5t230 65.5q151 0 230 -78.5t79 -220.5q0 -59 -16 -137l-129 -604h-39l131 612q14 63 14 123q0 127 -69.5 196.5t-200.5 69.5q-119 0 -225 -68.5t-181 -189.5v-2 q0 -59 -16 -137l-129 -604h-39l131 612q14 63 14 123q0 127 -69.5 196.5t-200.5 69.5q-116 0 -215.5 -65t-173.5 -182l-160 -754h-39z" />
<glyph unicode="n" horiz-adv-x="1185" d="M184 0l217 1024h39l-41 -190q156 206 396 206q167 0 263.5 -93.5t96.5 -252.5q0 -58 -12 -119l-123 -575h-39l125 584q12 58 12 108q0 146 -88 227.5t-235 81.5q-127 0 -232.5 -66t-181.5 -185l-158 -750h-39z" />
<glyph unicode="o" horiz-adv-x="1269" d="M205 465q0 158 74.5 289.5t207 208.5t293.5 77q113 0 207.5 -39.5t156.5 -106.5t96 -153.5t34 -181.5q0 -158 -75 -289.5t-207.5 -208.5t-293.5 -77q-113 0 -207.5 39.5t-156 106.5t-95.5 153.5t-34 181.5zM246 465q0 -101 37.5 -186t100.5 -140t143.5 -85.5t168.5 -30.5 q148 0 271 69t194.5 192t71.5 275q0 101 -37.5 186t-100.5 140t-144 85.5t-169 30.5q-148 0 -270.5 -69t-194 -192t-71.5 -275z" />
<glyph unicode="p" horiz-adv-x="1253" d="M104 -377l297 1401h39l-30 -145q78 78 180 119.5t213 41.5t199.5 -38t144 -103.5t84.5 -148.5t29 -177q0 -116 -45 -223.5t-122.5 -188t-189 -129t-237.5 -48.5q-135 0 -239.5 53.5t-164.5 146.5l-119 -561h-39zM274 242q55 -104 161.5 -161.5t234.5 -57.5 q153 0 280 75.5t198 202t71 274.5q0 87 -27.5 163.5t-78.5 135.5t-131.5 93t-180.5 34q-115 0 -223.5 -50.5t-182.5 -141.5z" />
<glyph unicode="q" horiz-adv-x="1241" d="M201 451q0 116 45 223.5t122.5 188t189 129t237.5 48.5q133 0 236 -53t165 -145l39 182h39l-297 -1401h-39l111 520q-78 -76 -180.5 -117.5t-211.5 -41.5q-111 0 -199.5 38t-143.5 103.5t-84 148.5t-29 177zM242 449q0 -117 46 -212t142.5 -154.5t228.5 -59.5 q114 0 222 49.5t182 138.5l121 575q-54 102 -160.5 158.5t-232.5 56.5q-153 0 -280 -75.5t-198 -202t-71 -274.5z" />
<glyph unicode="r" horiz-adv-x="655" d="M184 0l217 1024h39l-39 -186q65 91 166 146.5t224 55.5q25 0 65 -4l-10 -41q-36 4 -64 4q-132 0 -237.5 -70.5t-163.5 -185.5l-158 -743h-39z" />
<glyph unicode="s" horiz-adv-x="849" d="M135 209l35 18q31 -92 112.5 -148t202.5 -56q119 0 195 59t76 149q0 84 -47.5 141.5t-135.5 110.5l-110 66q-168 99 -168 256q0 101 78 168t207 67q100 0 174 -50t104 -116l-35 -18q-27 56 -89.5 100.5t-153.5 44.5q-111 0 -177.5 -54.5t-66.5 -141.5q0 -75 41 -130.5 t119 -101.5l110 -65q191 -114 191 -270q0 -108 -86 -181t-230 -73q-140 0 -227 65.5t-119 159.5z" />
<glyph unicode="t" horiz-adv-x="632" d="M227 985v39h238l61 287l43 20l-65 -307h284l-8 -39h-284l-150 -709q-12 -58 -12 -100q0 -71 41.5 -104t138.5 -33h64l-9 -39h-57q-113 0 -165 41t-52 131q0 46 12 107l150 706h-230z" />
<glyph unicode="u" horiz-adv-x="1155" d="M219 301q0 44 14 119l127 604h39l-129 -612q-12 -56 -12 -105q0 -135 84.5 -209.5t235.5 -74.5q257 0 411 251l160 750h39l-217 -1024h-39l39 188q-70 -94 -169.5 -149t-223.5 -55q-171 0 -265 83.5t-94 233.5z" />
<glyph unicode="v" horiz-adv-x="1036" d="M236 1024h40l261 -954l667 954h47l-729 -1040z" />
<glyph unicode="w" horiz-adv-x="1531" d="M246 1024h41l135 -928l551 944l149 -946l529 930h47l-596 -1040l-152 944l-549 -944z" />
<glyph unicode="x" horiz-adv-x="1032" d="M31 0l565 530l-317 494h45l301 -467l499 467h54l-533 -500l338 -524h-45l-322 498l-532 -498h-53z" />
<glyph unicode="y" horiz-adv-x="1056" d="M236 -377l278 395l-268 1006h43l254 -963l674 963h49l-983 -1401h-47z" />
<glyph unicode="z" horiz-adv-x="995" d="M47 0l1006 985h-721l8 39h809l-1006 -985h779l-9 -39h-866z" />
<glyph unicode="{" horiz-adv-x="505" d="M168 600l8 39h4q45 0 77 14.5t52 45t31 61t22 78.5l78 379q31 143 102 195t216 52h14l-8 -39h-10q-139 0 -195.5 -49t-85.5 -192l-70 -328q-22 -107 -53.5 -162t-97.5 -78q65 -33 65 -120q0 -38 -14 -113l-63 -289q-19 -90 -19 -143q0 -79 43.5 -113.5t145.5 -34.5h12 l-8 -39h-19q-109 0 -161 45.5t-52 143.5q0 44 17 127l69 321q13 67 13 91q0 108 -109 108h-4z" />
<glyph unicode="|" horiz-adv-x="632" d="M412 -377v1831h39v-1831h-39z" />
<glyph unicode="}" horiz-adv-x="503" d="M-6 -236l8 39h10q139 0 195.5 49.5t85.5 192.5l69 328q22 106 54 161t98 78q-65 33 -65 121q0 38 14 113l63 289q19 90 19 143q0 79 -43.5 113t-145.5 34h-12l8 39h19q109 0 161 -45t52 -143q0 -44 -17 -127l-69 -322q-13 -67 -13 -90q0 -108 109 -108h4l-8 -39h-4 q-45 0 -77 -14.5t-52.5 -45t-31.5 -61.5t-22 -78l-77 -379q-31 -143 -102.5 -195.5t-215.5 -52.5h-14z" />
<glyph unicode="~" horiz-adv-x="1273" d="M330 465v43l221 149l410 -145l225 152v-43l-221 -150l-410 145z" />
<glyph unicode="&#xa1;" horiz-adv-x="454" d="M125 -375l78 367l159 706h31l-145 -706l-78 -367h-45zM379 813l45 211q8 8 18 8q18 0 21 -8l-45 -211h-39z" />
<glyph unicode="&#xa2;" horiz-adv-x="1134" d="M215 465q0 158 74 289.5t206.5 208.5t295.5 77q18 0 28 -2l37 166h39l-37 -168q98 -11 184.5 -54.5t141.5 -117.5l-31 -26q-57 79 -154.5 121t-210.5 42q-225 0 -378.5 -153.5t-153.5 -382.5q0 -137 62.5 -239.5t161.5 -152.5t218 -50q207 0 355 129l24 -33 q-161 -135 -381 -135q-21 0 -61 4l-35 -168h-39l37 172q-181 31 -282 164t-101 309z" />
<glyph unicode="&#xa3;" horiz-adv-x="1103" d="M133 0l8 39h299l144 678h-299l8 39h336q-89 40 -137 121t-48 182q0 172 118.5 291.5t295.5 119.5q160 0 255 -100.5t95 -241.5v-4h-41v4q0 137 -92 219.5t-217 82.5q-155 0 -264 -107.5t-109 -263.5q0 -139 92 -221t218 -82h161l-8 -39h-325l-144 -678h572l-9 -39h-909z " />
<glyph unicode="&#xa4;" horiz-adv-x="1351" d="M319 248l140 139q-123 136 -123 322t121 323l-138 137l31 31l135 -137q65 64 152 99.5t182 35.5q198 0 342 -137l139 139l31 -31l-141 -141q119 -138 119 -319q0 -183 -121 -320l143 -141l-31 -33l-143 143q-143 -133 -338 -133q-191 0 -332 131l-137 -141zM377 709 q0 -182 128 -311.5t316 -129.5q124 0 227.5 60t161.5 161t58 220q0 186 -129.5 318t-319.5 132q-187 0 -314.5 -132t-127.5 -318z" />
<glyph unicode="&#xa5;" horiz-adv-x="1140" d="M281 315l8 39h336l49 228h-336l8 39h334l-350 833h41l336 -795l673 795h50l-707 -833h362l-8 -39h-364l-49 -228h364l-8 -39h-365l-65 -315h-39l65 315h-335z" />
<glyph unicode="&#xa6;" horiz-adv-x="632" d="M412 -377v787h39v-787h-39zM412 670v784h39v-784h-39z" />
<glyph unicode="&#xa7;" horiz-adv-x="1171" d="M270 -215l35 18q28 -58 87.5 -101.5t156.5 -43.5q111 0 177.5 48.5t66.5 127.5q0 148 -218 283l-100 63q-90 56 -138 141t-48 189q0 186 128 315t316 129q36 0 72 -4l-66 41q-87 54 -133.5 123.5t-46.5 140.5q0 89 82 152t203 63q105 0 176.5 -49t101.5 -116l-35 -19 q-28 59 -87 102.5t-156 43.5q-110 0 -177 -51t-67 -126q0 -132 172 -241l135 -86q207 -131 207 -344q0 -187 -127.5 -317t-316.5 -130q-26 0 -76 8l59 -39q87 -56 134 -128t47 -144q0 -92 -81 -153.5t-204 -61.5q-105 0 -177 49t-102 117zM330 510q0 -101 48.5 -178.5 t125 -116.5t164.5 -39q172 0 288.5 116t116.5 292q0 149 -100.5 240t-237.5 91q-170 0 -287.5 -116t-117.5 -289z" />
<glyph unicode="&#xa8;" horiz-adv-x="571" d="M270 1196l45 211h39l-45 -211h-39zM721 1196l45 211h39l-45 -211h-39z" />
<glyph unicode="&#xa9;" horiz-adv-x="1679" d="M254 729q0 150 59 287.5t158 236.5t236.5 158t287.5 59t287.5 -59t237 -158t158.5 -236.5t59 -287.5t-59 -287.5t-158.5 -236.5t-237 -158t-287.5 -59t-287.5 59t-236.5 158t-158 236.5t-59 287.5zM299 729q0 -188 93.5 -348.5t254 -254t348.5 -93.5q141 0 270 55.5 t222.5 148.5t149 222t55.5 270t-55.5 270t-149 222t-222.5 148.5t-270 55.5q-188 0 -348.5 -93.5t-254 -254t-93.5 -348.5zM563 729q0 189 134 323t323 134t326 -137l-33 -31q-123 123 -293 123t-291 -121t-121 -291t121 -291t291 -121t289 119l32 -30q-63 -63 -146 -98.5 t-175 -35.5q-189 0 -323 134t-134 323z" />
<glyph unicode="&#xaa;" horiz-adv-x="757" d="M305 1110q0 143 102.5 248.5t254.5 105.5q155 0 231 -110l22 100h41l-131 -614h-39l17 80q-94 -91 -225 -91q-129 0 -201 82t-72 199zM346 1110q0 -104 63 -173t175 -69q64 0 125.5 28.5t103.5 78.5l70 328q-31 58 -92 90t-132 32q-132 0 -222.5 -92.5t-90.5 -222.5z" />
<glyph unicode="&#xab;" horiz-adv-x="929" d="M170 514l395 434l27 -26l-375 -414l197 -416l-35 -16zM559 514l395 434l27 -26l-375 -414l197 -416l-35 -16z" />
<glyph unicode="&#xac;" horiz-adv-x="1449" d="M348 535v38h901v-462h-39v424h-862z" />
<glyph unicode="&#xad;" horiz-adv-x="671" d="M217 535l8 38h465l-8 -38h-465z" />
<glyph unicode="&#xae;" horiz-adv-x="1679" d="M254 729q0 150 59 287.5t158 236.5t236.5 158t287.5 59t287.5 -59t237 -158t158.5 -236.5t59 -287.5t-59 -287.5t-158.5 -236.5t-237 -158t-287.5 -59t-287.5 59t-236.5 158t-158 236.5t-59 287.5zM299 729q0 -188 93.5 -348.5t254 -254t348.5 -93.5q141 0 270 55.5 t222.5 148.5t149 222t55.5 270t-55.5 270t-149 222t-222.5 148.5t-270 55.5q-188 0 -348.5 -93.5t-254 -254t-93.5 -348.5zM764 279v901h227q115 0 189.5 -59.5t74.5 -172.5q0 -108 -71 -166t-183 -61l402 -442h-49l-406 442h-143v-442h-41zM805 762h182q111 0 168 49 t57 139q0 91 -57 140t-168 49h-182v-377z" />
<glyph unicode="&#xaf;" horiz-adv-x="651" d="M303 1354l10 39h570l-11 -39h-569z" />
<glyph unicode="&#xb0;" horiz-adv-x="796" d="M408 1212q0 103 73 176.5t176 73.5t176.5 -73.5t73.5 -176.5t-73.5 -176t-176.5 -73t-176 73t-73 176zM444 1212q0 -88 62.5 -150.5t150.5 -62.5t150.5 62.5t62.5 150.5t-62.5 150.5t-150.5 62.5t-150.5 -62.5t-62.5 -150.5z" />
<glyph unicode="&#xb1;" horiz-adv-x="1492" d="M367 0v39h901v-39h-901zM367 627v39h432v358h39v-358h430v-39h-430v-363h-39v363h-432z" />
<glyph unicode="&#xb2;" horiz-adv-x="673" d="M231 840l455 409q-30 -10 -68 -10q-99 1 -158 65t-59 154q0 110 76 187t191 77q103 0 163 -64t60 -155q0 -123 -98 -211l-463 -413h448l-8 -39h-539zM442 1460q0 -83 54.5 -133.5t130.5 -50.5q95 0 159 65t64 160q0 82 -54.5 132t-129.5 50q-95 0 -159.5 -64.5 t-64.5 -158.5z" />
<glyph unicode="&#xb3;" horiz-adv-x="595" d="M248 956l35 23q27 -53 82.5 -82t121.5 -29q109 0 183.5 74t74.5 184q0 98 -64 157.5t-157 59.5h-41l295 330h-362l8 39h434l-299 -336q106 -10 167.5 -81t61.5 -167q0 -126 -85.5 -212.5t-217.5 -86.5q-82 0 -144.5 35t-92.5 92z" />
<glyph unicode="&#xb4;" horiz-adv-x="354" d="M279 1116l296 338h48l-297 -338h-47z" />
<glyph unicode="&#xb6;" horiz-adv-x="1212" d="M346 965q0 226 158.5 357.5t410.5 131.5h381l-389 -1831h-39l381 1792h-303l-381 -1792h-39l193 909q-161 22 -266.5 139.5t-106.5 293.5z" />
<glyph unicode="&#xb7;" d="M299 440l45 211h39l-45 -211h-39z" />
<glyph unicode="&#xb8;" horiz-adv-x="278" d="M-55 -338l225 338h43l-225 -338h-43z" />
<glyph unicode="&#xb9;" horiz-adv-x="323" d="M317 840l183 860l47 35l-191 -895h-39z" />
<glyph unicode="&#xba;" horiz-adv-x="768" d="M307 1118q0 145 99.5 245.5t246.5 100.5q134 0 214.5 -84.5t80.5 -203.5q0 -146 -99.5 -246.5t-246.5 -100.5q-134 0 -214.5 84.5t-80.5 204.5zM348 1120q0 -114 75.5 -183t180.5 -69q127 0 215 87.5t88 218.5q0 114 -75 182.5t-179 68.5q-129 0 -217 -87t-88 -218z" />
<glyph unicode="&#xbb;" horiz-adv-x="929" d="M166 102l375 414l-197 416l35 16l209 -438l-395 -434zM555 102l375 414l-197 416l35 16l209 -438l-395 -434z" />
<glyph unicode="&#xbc;" horiz-adv-x="1507" d="M70 0h43l1331 1454h-43zM293 582l182 860l47 35l-190 -895h-39zM799 252l700 653l-131 -616h123l-6 -37h-125l-53 -252h-39l53 252h-522zM895 289h434l109 512z" />
<glyph unicode="&#xbd;" horiz-adv-x="1544" d="M70 0h43l1331 1454h-43zM293 582l182 860l47 35l-190 -895h-39zM870 0l455 410q-33 -11 -68 -11q-99 1 -158 65t-59 154q0 110 76 187.5t191 77.5q103 0 163 -64t60 -155q0 -123 -98 -211l-463 -414h448l-8 -39h-539zM1081 621q0 -83 55 -134t130 -51q95 0 159 65t64 161 q0 82 -54.5 132t-129.5 50q-95 0 -159.5 -64.5t-64.5 -158.5z" />
<glyph unicode="&#xbe;" horiz-adv-x="1771" d="M240 698l34 23q27 -53 83 -82t122 -29q109 0 183.5 74t74.5 184q0 98 -64 157.5t-157 59.5h-41l295 330h-362l8 39h434l-299 -336q106 -10 167.5 -81t61.5 -167q0 -126 -85.5 -212.5t-217.5 -86.5q-82 0 -144.5 35t-92.5 92zM332 0h43l1331 1454h-43zM1061 252l700 653 l-131 -616h123l-6 -37h-125l-53 -252h-39l53 252h-522zM1157 289h434l109 512z" />
<glyph unicode="&#xbf;" horiz-adv-x="886" d="M43 -41q0 62 19 119t70 124.5t86 107t121 127.5q14 15 21 22l234 239l29 -26l-230 -234q-8 -9 -46.5 -48t-48 -49t-42 -44.5t-42.5 -47.5t-35 -44.5t-33.5 -48.5t-24.5 -45.5t-21.5 -50t-10.5 -48.5t-5 -53q0 -137 97.5 -223t228.5 -86q166 0 279.5 113.5t113.5 279.5 q0 98 -47.5 172.5t-120.5 110.5t-158 36v39q168 0 267.5 -105t99.5 -253q0 -182 -124 -307t-310 -125q-167 0 -267 103.5t-100 244.5zM606 821l45 211q8 8 23 8q13 0 16 -8l-45 -211h-39z" />
<glyph unicode="&#xc0;" horiz-adv-x="1400" d="M20 0l994 1470l366 -1470h-39l-129 510h-802l-344 -510h-46zM436 549h768l-207 829zM856 1870h39l162 -297h-39z" />
<glyph unicode="&#xc1;" horiz-adv-x="1400" d="M20 0l994 1470l366 -1470h-39l-129 510h-802l-344 -510h-46zM436 549h768l-207 829zM1014 1573l286 297h48l-287 -297h-47z" />
<glyph unicode="&#xc2;" horiz-adv-x="1400" d="M20 0l994 1470l366 -1470h-39l-129 510h-802l-344 -510h-46zM436 549h768l-207 829zM668 1616l432 285l313 -285l-22 -27l-295 264l-410 -266z" />
<glyph unicode="&#xc3;" horiz-adv-x="1400" d="M20 0l994 1470l366 -1470h-39l-129 510h-802l-344 -510h-46zM436 549h768l-207 829zM723 1645q22 87 76 134.5t119 47.5q47 0 91.5 -23t72.5 -50t66 -50t75 -23q114 0 157 146h39q-26 -94 -77.5 -138t-118.5 -44q-44 0 -85.5 22.5t-70 50t-68.5 50t-81 22.5 q-112 0 -156 -145h-39z" />
<glyph unicode="&#xc4;" horiz-adv-x="1400" d="M20 0l994 1470l366 -1470h-39l-129 510h-802l-344 -510h-46zM436 549h768l-207 829zM801 1614l45 211h39l-45 -211h-39zM1251 1614l45 211h39l-45 -211h-39z" />
<glyph unicode="&#xc5;" horiz-adv-x="1400" d="M20 0l994 1470l366 -1470h-39l-129 510h-802l-344 -510h-46zM436 549h768l-207 829zM903 1712q0 68 48.5 116t115.5 48t115.5 -48t48.5 -116t-48.5 -116t-115.5 -48t-115.5 48t-48.5 116zM940 1712q0 -54 36.5 -91.5t90.5 -37.5t90.5 37.5t36.5 91.5t-36.5 91.5 t-90.5 37.5t-90.5 -37.5t-36.5 -91.5z" />
<glyph unicode="&#xc6;" horiz-adv-x="2148" d="M20 0l965 1427l-6 27h786l11 -39h-750l162 -645h647l10 -39h-647l172 -692h748l10 -39h-787l-129 510h-802l-344 -510h-46zM436 549h768l-207 829z" />
<glyph unicode="&#xc7;" horiz-adv-x="1421" d="M233 666q0 124 36.5 242t109 219.5t172 178t233.5 120.5t285 44q295 0 481 -186l-28 -29q-172 177 -453 177q-176 0 -327 -62.5t-252.5 -168t-158.5 -244.5t-57 -291q0 -102 26.5 -196.5t80 -176t128.5 -141.5t178.5 -94.5t223.5 -34.5q241 0 426 112l21 -35 q-182 -110 -428 -116l-213 -322h-43l215 324q-123 3 -229 41t-183.5 102t-133 149t-83 184t-27.5 204z" />
<glyph unicode="&#xc8;" horiz-adv-x="1083" d="M205 0l309 1454h797l-8 -39h-758l-137 -645h634l-8 -39h-635l-147 -692h758l-9 -39h-796zM807 1870h39l162 -297h-39z" />
<glyph unicode="&#xc9;" horiz-adv-x="1083" d="M205 0l309 1454h797l-8 -39h-758l-137 -645h634l-8 -39h-635l-147 -692h758l-9 -39h-796zM829 1573l287 297h47l-286 -297h-48z" />
<glyph unicode="&#xca;" horiz-adv-x="1083" d="M205 0l309 1454h797l-8 -39h-758l-137 -645h634l-8 -39h-635l-147 -692h758l-9 -39h-796zM573 1616l433 285l313 -285l-23 -27l-295 264l-409 -266z" />
<glyph unicode="&#xcb;" horiz-adv-x="1083" d="M205 0l309 1454h797l-8 -39h-758l-137 -645h634l-8 -39h-635l-147 -692h758l-9 -39h-796zM705 1614l45 211h38l-45 -211h-38zM1155 1614l45 211h39l-45 -211h-39z" />
<glyph unicode="&#xcc;" d="M205 0l309 1454h39l-309 -1454h-39zM426 1870h39l162 -297h-39z" />
<glyph unicode="&#xcd;" d="M205 0l309 1454h39l-309 -1454h-39zM449 1573l286 297h47l-286 -297h-47z" />
<glyph unicode="&#xce;" d="M201 1616l432 285l313 -285l-22 -27l-295 264l-410 -266zM205 0l309 1454h39l-309 -1454h-39z" />
<glyph unicode="&#xcf;" d="M205 0l309 1454h39l-309 -1454h-39zM324 1614l45 211h39l-46 -211h-38zM774 1614l45 211h39l-45 -211h-39z" />
<glyph unicode="&#xd0;" horiz-adv-x="1486" d="M115 731l8 39h246l145 684h393q153 0 278.5 -45.5t209 -126t129 -190t45.5 -236.5q0 -171 -70 -326.5t-194 -273t-305.5 -187t-391.5 -69.5h-403l155 731h-245zM252 39h362q164 0 309.5 44t254.5 121.5t188.5 180.5t120.5 223.5t41 247.5q0 119 -43 221.5t-121.5 177.5 t-196 117.5t-260.5 42.5h-362l-137 -645h395l-8 -39h-396z" />
<glyph unicode="&#xd1;" horiz-adv-x="1568" d="M205 0l313 1470l825 -1384l291 1368h39l-313 -1470l-825 1384l-291 -1368h-39zM807 1645q22 87 76 134.5t118 47.5q47 0 91.5 -23t73 -50t66.5 -50t75 -23q114 0 157 146h39q-26 -94 -77.5 -138t-118.5 -44q-36 0 -69.5 15t-60 36.5t-52.5 42.5t-58 36t-66 15 q-111 0 -155 -145h-39z" />
<glyph unicode="&#xd2;" horiz-adv-x="1679" d="M233 666q0 124 36.5 242t109 219.5t172 178t233.5 120.5t285 44q158 0 288.5 -56.5t214.5 -151.5t129.5 -217t45.5 -257q0 -124 -36.5 -242t-109 -219.5t-172 -178t-233.5 -120.5t-285 -44q-158 0 -288.5 56.5t-214.5 151.5t-129.5 217t-45.5 257zM274 666 q0 -102 26.5 -196.5t80 -176t128.5 -141.5t178.5 -94.5t223.5 -34.5q177 0 328 62.5t252 168t158 244t57 290.5q0 128 -42.5 243.5t-121 205t-201 142.5t-272.5 53q-176 0 -327 -62.5t-252.5 -168t-158.5 -244.5t-57 -291zM1036 1870h39l162 -297h-39z" />
<glyph unicode="&#xd3;" horiz-adv-x="1679" d="M233 666q0 124 36.5 242t109 219.5t172 178t233.5 120.5t285 44q158 0 288.5 -56.5t214.5 -151.5t129.5 -217t45.5 -257q0 -124 -36.5 -242t-109 -219.5t-172 -178t-233.5 -120.5t-285 -44q-158 0 -288.5 56.5t-214.5 151.5t-129.5 217t-45.5 257zM274 666 q0 -102 26.5 -196.5t80 -176t128.5 -141.5t178.5 -94.5t223.5 -34.5q177 0 328 62.5t252 168t158 244t57 290.5q0 128 -42.5 243.5t-121 205t-201 142.5t-272.5 53q-176 0 -327 -62.5t-252.5 -168t-158.5 -244.5t-57 -291zM1059 1573l287 297h47l-287 -297h-47z" />
<glyph unicode="&#xd4;" horiz-adv-x="1679" d="M233 666q0 124 36.5 242t109 219.5t172 178t233.5 120.5t285 44q158 0 288.5 -56.5t214.5 -151.5t129.5 -217t45.5 -257q0 -124 -36.5 -242t-109 -219.5t-172 -178t-233.5 -120.5t-285 -44q-158 0 -288.5 56.5t-214.5 151.5t-129.5 217t-45.5 257zM274 666 q0 -102 26.5 -196.5t80 -176t128.5 -141.5t178.5 -94.5t223.5 -34.5q177 0 328 62.5t252 168t158 244t57 290.5q0 128 -42.5 243.5t-121 205t-201 142.5t-272.5 53q-176 0 -327 -62.5t-252.5 -168t-158.5 -244.5t-57 -291zM801 1616l432 285l313 -285l-22 -27l-295 264 l-410 -266z" />
<glyph unicode="&#xd5;" horiz-adv-x="1679" d="M233 666q0 124 36.5 242t109 219.5t172 178t233.5 120.5t285 44q158 0 288.5 -56.5t214.5 -151.5t129.5 -217t45.5 -257q0 -124 -36.5 -242t-109 -219.5t-172 -178t-233.5 -120.5t-285 -44q-158 0 -288.5 56.5t-214.5 151.5t-129.5 217t-45.5 257zM274 666 q0 -102 26.5 -196.5t80 -176t128.5 -141.5t178.5 -94.5t223.5 -34.5q177 0 328 62.5t252 168t158 244t57 290.5q0 128 -42.5 243.5t-121 205t-201 142.5t-272.5 53q-176 0 -327 -62.5t-252.5 -168t-158.5 -244.5t-57 -291zM856 1645q22 87 76 134.5t119 47.5q47 0 91.5 -23 t72.5 -50t66 -50t75 -23q114 0 157 146h39q-26 -94 -77.5 -138t-118.5 -44q-44 0 -85.5 22.5t-70 50t-68.5 50t-81 22.5q-113 0 -156 -145h-39z" />
<glyph unicode="&#xd6;" horiz-adv-x="1679" d="M233 666q0 124 36.5 242t109 219.5t172 178t233.5 120.5t285 44q158 0 288.5 -56.5t214.5 -151.5t129.5 -217t45.5 -257q0 -124 -36.5 -242t-109 -219.5t-172 -178t-233.5 -120.5t-285 -44q-158 0 -288.5 56.5t-214.5 151.5t-129.5 217t-45.5 257zM274 666 q0 -102 26.5 -196.5t80 -176t128.5 -141.5t178.5 -94.5t223.5 -34.5q177 0 328 62.5t252 168t158 244t57 290.5q0 128 -42.5 243.5t-121 205t-201 142.5t-272.5 53q-176 0 -327 -62.5t-252.5 -168t-158.5 -244.5t-57 -291zM934 1614l45 211h39l-45 -211h-39zM1384 1614 l46 211h38l-45 -211h-39z" />
<glyph unicode="&#xd7;" horiz-adv-x="1245" d="M408 860l28 29l305 -305l291 290l27 -28l-291 -291l305 -303l-29 -29l-305 303l-299 -299l-26 29l299 299z" />
<glyph unicode="&#xd8;" horiz-adv-x="1679" d="M233 666q0 124 36.5 242t109 219.5t172 178t233.5 120.5t285 44q226 0 391 -114l111 139l28 -25l-106 -135q123 -95 188.5 -239t65.5 -308q0 -124 -36.5 -242t-109 -219.5t-172 -178t-233.5 -120.5t-285 -44q-230 0 -395 114l-100 -127l-29 25l98 125 q-121 94 -186.5 237.5t-65.5 307.5zM274 666q0 -154 61 -289t175 -225l928 1175q-156 105 -369 105q-176 0 -327 -62.5t-252.5 -168t-158.5 -244.5t-57 -291zM541 129q153 -106 370 -106q177 0 328 62.5t252 168t158 244t57 290.5q0 155 -61.5 291.5t-176.5 225.5z" />
<glyph unicode="&#xd9;" horiz-adv-x="1474" d="M301 385q0 76 16 147l197 922h39l-197 -922q-16 -71 -16 -145q0 -180 112 -272t310 -92q230 0 378 127t203 382l197 922h39l-197 -922q-58 -268 -213 -408t-405 -140q-218 0 -340.5 104t-122.5 297zM938 1870h39l162 -297h-39z" />
<glyph unicode="&#xda;" horiz-adv-x="1474" d="M301 385q0 76 16 147l197 922h39l-197 -922q-16 -71 -16 -145q0 -180 112 -272t310 -92q230 0 378 127t203 382l197 922h39l-197 -922q-58 -268 -213 -408t-405 -140q-218 0 -340.5 104t-122.5 297zM961 1573l286 297h47l-286 -297h-47z" />
<glyph unicode="&#xdb;" horiz-adv-x="1474" d="M301 385q0 76 16 147l197 922h39l-197 -922q-16 -71 -16 -145q0 -180 112 -272t310 -92q230 0 378 127t203 382l197 922h39l-197 -922q-58 -268 -213 -408t-405 -140q-218 0 -340.5 104t-122.5 297zM705 1616l432 285l313 -285l-23 -27l-294 264l-410 -266z" />
<glyph unicode="&#xdc;" horiz-adv-x="1474" d="M301 385q0 76 16 147l197 922h39l-197 -922q-16 -71 -16 -145q0 -180 112 -272t310 -92q230 0 378 127t203 382l197 922h39l-197 -922q-58 -268 -213 -408t-405 -140q-218 0 -340.5 104t-122.5 297zM838 1614l45 211h39l-45 -211h-39zM1288 1614l45 211h39l-45 -211h-39z " />
<glyph unicode="&#xdd;" horiz-adv-x="1130" d="M319 1454h41l336 -795l674 795h49l-708 -836l-131 -618h-39l131 618zM780 1573l287 297h47l-287 -297h-47z" />
<glyph unicode="&#xde;" horiz-adv-x="1091" d="M205 0l309 1454h39l-70 -324h361q183 0 276.5 -92t93.5 -233q0 -90 -33 -170t-96.5 -143t-167.5 -99.5t-235 -36.5h-363l-75 -356h-39zM328 395h360q227 0 356.5 116t129.5 292q0 129 -82.5 209t-247.5 80h-369z" />
<glyph unicode="&#xdf;" horiz-adv-x="1034" d="M184 0l250 1176q32 148 108 213t216 65h57l-8 -37h-43q-97 0 -155.5 -29t-89 -85.5t-52.5 -159.5l-27 -119h676l-514 -545q189 -12 295.5 -117t106.5 -266q0 -212 -153.5 -342.5t-416.5 -130.5h-82l8 39h74q244 0 386.5 117.5t142.5 316.5q0 86 -32 153.5t-86 108 t-121.5 61.5t-143.5 21h-64l512 545h-596l-209 -985h-39z" />
<glyph unicode="&#xe0;" horiz-adv-x="1243" d="M201 451q0 116 45 223.5t122.5 188t189 129t237.5 48.5q134 0 237 -53.5t164 -146.5l41 184h39l-217 -1024h-39l31 145q-79 -78 -182 -119.5t-212 -41.5q-111 0 -199.5 38t-143.5 103.5t-84 148.5t-29 177zM242 449q0 -117 46 -212t142.5 -154.5t228.5 -59.5 q115 0 223.5 50t182.5 140l121 571q-56 103 -162 160t-233 57q-153 0 -280 -75.5t-198 -202t-71 -274.5zM682 1454h39l153 -338h-38z" />
<glyph unicode="&#xe1;" horiz-adv-x="1243" d="M201 451q0 116 45 223.5t122.5 188t189 129t237.5 48.5q134 0 237 -53.5t164 -146.5l41 184h39l-217 -1024h-39l31 145q-79 -78 -182 -119.5t-212 -41.5q-111 0 -199.5 38t-143.5 103.5t-84 148.5t-29 177zM242 449q0 -117 46 -212t142.5 -154.5t228.5 -59.5 q115 0 223.5 50t182.5 140l121 571q-56 103 -162 160t-233 57q-153 0 -280 -75.5t-198 -202t-71 -274.5zM786 1116l297 338h47l-296 -338h-48z" />
<glyph unicode="&#xe2;" horiz-adv-x="1243" d="M201 451q0 116 45 223.5t122.5 188t189 129t237.5 48.5q134 0 237 -53.5t164 -146.5l41 184h39l-217 -1024h-39l31 145q-79 -78 -182 -119.5t-212 -41.5q-111 0 -199.5 38t-143.5 103.5t-84 148.5t-29 177zM242 449q0 -117 46 -212t142.5 -154.5t228.5 -59.5 q115 0 223.5 50t182.5 140l121 571q-56 103 -162 160t-233 57q-153 0 -280 -75.5t-198 -202t-71 -274.5zM532 1186l392 284l272 -284l-27 -27l-251 262l-363 -264z" />
<glyph unicode="&#xe3;" horiz-adv-x="1243" d="M201 451q0 116 45 223.5t122.5 188t189 129t237.5 48.5q134 0 237 -53.5t164 -146.5l41 184h39l-217 -1024h-39l31 145q-79 -78 -182 -119.5t-212 -41.5q-111 0 -199.5 38t-143.5 103.5t-84 148.5t-29 177zM242 449q0 -117 46 -212t142.5 -154.5t228.5 -59.5 q115 0 223.5 50t182.5 140l121 571q-56 103 -162 160t-233 57q-153 0 -280 -75.5t-198 -202t-71 -274.5zM541 1192q22 87 76 134.5t118 47.5q39 0 74.5 -15t62.5 -36t52.5 -42.5t55.5 -36.5t60 -15q115 0 158 145h39q-26 -94 -78 -138t-119 -44q-44 0 -85.5 22.5t-70 50 t-68.5 50t-81 22.5q-111 0 -155 -145h-39z" />
<glyph unicode="&#xe4;" horiz-adv-x="1243" d="M201 451q0 116 45 223.5t122.5 188t189 129t237.5 48.5q134 0 237 -53.5t164 -146.5l41 184h39l-217 -1024h-39l31 145q-79 -78 -182 -119.5t-212 -41.5q-111 0 -199.5 38t-143.5 103.5t-84 148.5t-29 177zM242 449q0 -117 46 -212t142.5 -154.5t228.5 -59.5 q115 0 223.5 50t182.5 140l121 571q-56 103 -162 160t-233 57q-153 0 -280 -75.5t-198 -202t-71 -274.5zM625 1196l45 211h39l-45 -211h-39zM1075 1196l45 211h39l-45 -211h-39z" />
<glyph unicode="&#xe5;" horiz-adv-x="1243" d="M201 451q0 116 45 223.5t122.5 188t189 129t237.5 48.5q134 0 237 -53.5t164 -146.5l41 184h39l-217 -1024h-39l31 145q-79 -78 -182 -119.5t-212 -41.5q-111 0 -199.5 38t-143.5 103.5t-84 148.5t-29 177zM242 449q0 -117 46 -212t142.5 -154.5t228.5 -59.5 q115 0 223.5 50t182.5 140l121 571q-56 103 -162 160t-233 57q-153 0 -280 -75.5t-198 -202t-71 -274.5zM745 1374q0 68 48.5 116t115.5 48t115.5 -48t48.5 -116t-48.5 -116t-115.5 -48t-115.5 48t-48.5 116zM782 1374q0 -54 36.5 -91.5t90.5 -37.5t90.5 37.5t36.5 91.5 t-36.5 91.5t-90.5 37.5t-90.5 -37.5t-36.5 -91.5z" />
<glyph unicode="&#xe6;" horiz-adv-x="1970" d="M135 266q0 159 132.5 268t340.5 109q248 0 396 -139l30 143q13 60 13 103q0 127 -83 189t-233 62q-111 0 -215 -40.5t-178 -106.5l-21 35q188 151 422 151q98 0 173.5 -27.5t124 -92.5t48.5 -162q75 130 206 206t294 76q82 0 156.5 -23.5t135 -69.5t96.5 -122.5 t36 -173.5q0 -57 -12 -121h-942q-4 -46 -4 -65q0 -137 62 -239.5t160.5 -152.5t217.5 -50q208 0 356 129l25 -33q-161 -135 -381 -135q-164 0 -278 77.5t-166 206.5q-113 -138 -252.5 -211t-294.5 -73q-157 0 -261 81.5t-104 200.5zM178 274q0 -107 88.5 -179t231.5 -72 q147 0 286 76t248 210q-19 65 -22 129q-71 82 -177 124t-231 42q-181 0 -302.5 -98.5t-121.5 -231.5zM1059 567h903q6 44 6 80q0 169 -108.5 261.5t-276.5 92.5q-199 0 -344.5 -121.5t-179.5 -312.5z" />
<glyph unicode="&#xe7;" horiz-adv-x="1105" d="M205 465q0 158 74 289.5t206 208.5t295 77q116 0 223.5 -45t170.5 -131l-31 -26q-57 79 -154.5 121t-210.5 42q-225 0 -378.5 -153.5t-153.5 -382.5q0 -137 62.5 -239.5t161.5 -152.5t218 -50q206 0 354 129l25 -33q-151 -129 -365 -135l-213 -322h-43l213 322 q-107 4 -194.5 45.5t-143.5 107.5t-86 150.5t-30 177.5z" />
<glyph unicode="&#xe8;" horiz-adv-x="1163" d="M205 465q0 158 74 289.5t206 208.5t295 77q82 0 156.5 -23.5t135 -69.5t96.5 -122.5t36 -173.5q0 -57 -12 -121h-942q-4 -46 -4 -65q0 -137 62 -239.5t160.5 -152.5t217.5 -50q208 0 356 129l25 -33q-161 -135 -381 -135q-113 0 -205.5 39.5t-152 106.5t-91.5 153.5 t-32 181.5zM254 567h903q6 44 6 80q0 169 -108.5 261.5t-276.5 92.5q-199 0 -344.5 -121.5t-179.5 -312.5zM668 1454h39l153 -338h-39z" />
<glyph unicode="&#xe9;" horiz-adv-x="1163" d="M205 465q0 158 74 289.5t206 208.5t295 77q82 0 156.5 -23.5t135 -69.5t96.5 -122.5t36 -173.5q0 -57 -12 -121h-942q-4 -46 -4 -65q0 -137 62 -239.5t160.5 -152.5t217.5 -50q208 0 356 129l25 -33q-161 -135 -381 -135q-113 0 -205.5 39.5t-152 106.5t-91.5 153.5 t-32 181.5zM254 567h903q6 44 6 80q0 169 -108.5 261.5t-276.5 92.5q-199 0 -344.5 -121.5t-179.5 -312.5zM702 1116l297 338h48l-297 -338h-48z" />
<glyph unicode="&#xea;" horiz-adv-x="1163" d="M205 465q0 158 74 289.5t206 208.5t295 77q82 0 156.5 -23.5t135 -69.5t96.5 -122.5t36 -173.5q0 -57 -12 -121h-942q-4 -46 -4 -65q0 -137 62 -239.5t160.5 -152.5t217.5 -50q208 0 356 129l25 -33q-161 -135 -381 -135q-113 0 -205.5 39.5t-152 106.5t-91.5 153.5 t-32 181.5zM254 567h903q6 44 6 80q0 169 -108.5 261.5t-276.5 92.5q-199 0 -344.5 -121.5t-179.5 -312.5zM475 1186l391 284l273 -284l-27 -27l-252 262l-362 -264z" />
<glyph unicode="&#xeb;" horiz-adv-x="1163" d="M205 465q0 158 74 289.5t206 208.5t295 77q82 0 156.5 -23.5t135 -69.5t96.5 -122.5t36 -173.5q0 -57 -12 -121h-942q-4 -46 -4 -65q0 -137 62 -239.5t160.5 -152.5t217.5 -50q208 0 356 129l25 -33q-161 -135 -381 -135q-113 0 -205.5 39.5t-152 106.5t-91.5 153.5 t-32 181.5zM254 567h903q6 44 6 80q0 169 -108.5 261.5t-276.5 92.5q-199 0 -344.5 -121.5t-179.5 -312.5zM567 1196l45 211h39l-45 -211h-39zM1018 1196l45 211h39l-45 -211h-39z" />
<glyph unicode="&#xec;" d="M205 0l217 1024h39l-217 -1024h-39zM334 1454h39l153 -338h-39z" />
<glyph unicode="&#xed;" d="M205 0l217 1024h39l-217 -1024h-39zM348 1116l297 338h47l-297 -338h-47z" />
<glyph unicode="&#xee;" d="M156 1186l391 284l272 -284l-26 -27l-252 262l-363 -264zM205 0l217 1024h39l-217 -1024h-39z" />
<glyph unicode="&#xef;" d="M205 0l217 1024h39l-217 -1024h-39zM233 1196l46 211h38l-45 -211h-39zM684 1196l45 211h39l-45 -211h-39z" />
<glyph unicode="&#xf0;" horiz-adv-x="1269" d="M203 465q0 158 74.5 289.5t207 208.5t293.5 77q199 0 330 -112l-143 282h-279l8 39h250l-102 205h43l102 -205h297l-8 -39h-270l159 -315q64 -127 85.5 -192t21.5 -144q0 -158 -75 -289.5t-207.5 -208.5t-293.5 -77q-113 0 -207.5 39.5t-156 106.5t-95.5 153.5t-34 181.5 zM244 465q0 -101 37.5 -186t100.5 -140t143.5 -85.5t168.5 -30.5q148 0 271 69t194.5 192t71.5 275q0 101 -37.5 186t-100.5 140t-144 85.5t-169 30.5q-148 0 -270.5 -69t-194 -192t-71.5 -275z" />
<glyph unicode="&#xf1;" horiz-adv-x="1185" d="M184 0l217 1024h39l-41 -190q156 206 396 206q167 0 263.5 -93.5t96.5 -252.5q0 -58 -12 -119l-123 -575h-39l125 584q12 58 12 108q0 146 -88 227.5t-235 81.5q-127 0 -232.5 -66t-181.5 -185l-158 -750h-39zM528 1192q22 87 76 134.5t119 47.5q39 0 74.5 -15t62.5 -36 t52.5 -42.5t55.5 -36.5t60 -15q115 0 158 145h39q-26 -94 -78 -138t-119 -44q-44 0 -85.5 22.5t-70 50t-68.5 50t-81 22.5q-113 0 -156 -145h-39z" />
<glyph unicode="&#xf2;" horiz-adv-x="1269" d="M205 465q0 158 74.5 289.5t207 208.5t293.5 77q113 0 207.5 -39.5t156.5 -106.5t96 -153.5t34 -181.5q0 -158 -75 -289.5t-207.5 -208.5t-293.5 -77q-113 0 -207.5 39.5t-156 106.5t-95.5 153.5t-34 181.5zM246 465q0 -101 37.5 -186t100.5 -140t143.5 -85.5t168.5 -30.5 q148 0 271 69t194.5 192t71.5 275q0 101 -37.5 186t-100.5 140t-144 85.5t-169 30.5q-148 0 -270.5 -69t-194 -192t-71.5 -275zM739 1454h39l154 -338h-39z" />
<glyph unicode="&#xf3;" horiz-adv-x="1269" d="M205 465q0 158 74.5 289.5t207 208.5t293.5 77q113 0 207.5 -39.5t156.5 -106.5t96 -153.5t34 -181.5q0 -158 -75 -289.5t-207.5 -208.5t-293.5 -77q-113 0 -207.5 39.5t-156 106.5t-95.5 153.5t-34 181.5zM246 465q0 -101 37.5 -186t100.5 -140t143.5 -85.5t168.5 -30.5 q148 0 271 69t194.5 192t71.5 275q0 101 -37.5 186t-100.5 140t-144 85.5t-169 30.5q-148 0 -270.5 -69t-194 -192t-71.5 -275zM754 1116l297 338h47l-297 -338h-47z" />
<glyph unicode="&#xf4;" horiz-adv-x="1269" d="M205 465q0 158 74.5 289.5t207 208.5t293.5 77q113 0 207.5 -39.5t156.5 -106.5t96 -153.5t34 -181.5q0 -158 -75 -289.5t-207.5 -208.5t-293.5 -77q-113 0 -207.5 39.5t-156 106.5t-95.5 153.5t-34 181.5zM246 465q0 -101 37.5 -186t100.5 -140t143.5 -85.5t168.5 -30.5 q148 0 271 69t194.5 192t71.5 275q0 101 -37.5 186t-100.5 140t-144 85.5t-169 30.5q-148 0 -270.5 -69t-194 -192t-71.5 -275zM547 1186l391 284l272 -284l-26 -27l-252 262l-363 -264z" />
<glyph unicode="&#xf5;" horiz-adv-x="1269" d="M205 465q0 158 74.5 289.5t207 208.5t293.5 77q113 0 207.5 -39.5t156.5 -106.5t96 -153.5t34 -181.5q0 -158 -75 -289.5t-207.5 -208.5t-293.5 -77q-113 0 -207.5 39.5t-156 106.5t-95.5 153.5t-34 181.5zM246 465q0 -101 37.5 -186t100.5 -140t143.5 -85.5t168.5 -30.5 q148 0 271 69t194.5 192t71.5 275q0 101 -37.5 186t-100.5 140t-144 85.5t-169 30.5q-148 0 -270.5 -69t-194 -192t-71.5 -275zM555 1192q22 87 76 134.5t119 47.5q39 0 74.5 -15t62.5 -36t52.5 -42.5t55.5 -36.5t60 -15q114 0 157 145h39q-26 -94 -77.5 -138t-118.5 -44 q-44 0 -85.5 22.5t-70 50t-68.5 50t-81 22.5q-112 0 -156 -145h-39z" />
<glyph unicode="&#xf6;" horiz-adv-x="1269" d="M205 465q0 158 74.5 289.5t207 208.5t293.5 77q113 0 207.5 -39.5t156.5 -106.5t96 -153.5t34 -181.5q0 -158 -75 -289.5t-207.5 -208.5t-293.5 -77q-113 0 -207.5 39.5t-156 106.5t-95.5 153.5t-34 181.5zM246 465q0 -101 37.5 -186t100.5 -140t143.5 -85.5t168.5 -30.5 q148 0 271 69t194.5 192t71.5 275q0 101 -37.5 186t-100.5 140t-144 85.5t-169 30.5q-148 0 -270.5 -69t-194 -192t-71.5 -275zM639 1196l45 211h39l-45 -211h-39zM1090 1196l45 211h39l-46 -211h-38z" />
<glyph unicode="&#xf7;" horiz-adv-x="1359" d="M348 535v38h901v-38h-901zM778 166v211h39v-211h-39zM778 731v211h39v-211h-39z" />
<glyph unicode="&#xf8;" horiz-adv-x="1269" d="M205 465q0 158 74.5 289.5t207 208.5t293.5 77q181 0 314 -102l96 111l27 -27l-95 -109q73 -67 112.5 -159.5t39.5 -194.5q0 -158 -75 -289.5t-207.5 -208.5t-293.5 -77q-182 0 -313 100l-96 -107l-27 27l94 105q-73 67 -112 160t-39 196zM246 465q0 -202 137 -326 l682 768q-123 94 -283 94q-148 0 -270.5 -69t-194 -192t-71.5 -275zM412 115q125 -92 284 -92q148 0 271 69t194.5 192t71.5 275q0 199 -137 326z" />
<glyph unicode="&#xf9;" horiz-adv-x="1155" d="M219 301q0 44 14 119l127 604h39l-129 -612q-12 -56 -12 -105q0 -135 84.5 -209.5t235.5 -74.5q257 0 411 251l160 750h39l-217 -1024h-39l39 188q-70 -94 -169.5 -149t-223.5 -55q-171 0 -265 83.5t-94 233.5zM666 1454h39l153 -338h-39z" />
<glyph unicode="&#xfa;" horiz-adv-x="1155" d="M219 301q0 44 14 119l127 604h39l-129 -612q-12 -56 -12 -105q0 -135 84.5 -209.5t235.5 -74.5q257 0 411 251l160 750h39l-217 -1024h-39l39 188q-70 -94 -169.5 -149t-223.5 -55q-171 0 -265 83.5t-94 233.5zM678 1116l297 338h47l-297 -338h-47z" />
<glyph unicode="&#xfb;" horiz-adv-x="1155" d="M219 301q0 44 14 119l127 604h39l-129 -612q-12 -56 -12 -105q0 -135 84.5 -209.5t235.5 -74.5q257 0 411 251l160 750h39l-217 -1024h-39l39 188q-70 -94 -169.5 -149t-223.5 -55q-171 0 -265 83.5t-94 233.5zM473 1186l391 284l273 -284l-27 -27l-252 262l-362 -264z " />
<glyph unicode="&#xfc;" horiz-adv-x="1155" d="M219 301q0 44 14 119l127 604h39l-129 -612q-12 -56 -12 -105q0 -135 84.5 -209.5t235.5 -74.5q257 0 411 251l160 750h39l-217 -1024h-39l39 188q-70 -94 -169.5 -149t-223.5 -55q-171 0 -265 83.5t-94 233.5zM565 1196l45 211h39l-45 -211h-39zM1016 1196l45 211h39 l-45 -211h-39z" />
<glyph unicode="&#xfd;" horiz-adv-x="1056" d="M236 -377l278 395l-268 1006h43l254 -963l674 963h49l-983 -1401h-47zM651 1116l297 338h47l-297 -338h-47z" />
<glyph unicode="&#xfe;" horiz-adv-x="1253" d="M104 -377l390 1831h38l-122 -575q79 78 181.5 119.5t211.5 41.5q111 0 199.5 -38t144 -103.5t84.5 -148.5t29 -177q0 -116 -45 -223.5t-122.5 -188t-189 -129t-237.5 -48.5q-134 0 -238 53.5t-166 146.5l-119 -561h-39zM274 242q55 -104 161.5 -161.5t234.5 -57.5 q153 0 279.5 74.5t198 201t71.5 276.5q0 87 -27.5 163.5t-78.5 135.5t-131.5 93t-180.5 34q-115 0 -223.5 -50t-182.5 -140z" />
<glyph unicode="&#xff;" horiz-adv-x="1056" d="M236 -377l278 395l-268 1006h43l254 -963l674 963h49l-983 -1401h-47zM539 1196l45 211h39l-45 -211h-39zM989 1196l45 211h39l-45 -211h-39z" />
<glyph unicode="&#x152;" horiz-adv-x="2260" d="M233 666q0 124 36.5 242t109 219.5t172 178t233.5 120.5t285 44q188 0 332 -77.5t233 -210.5l58 272h796l-8 -39h-758l-59 -282q84 -159 84 -345q0 -3 -1 -9t-1 -9h475l-8 -39h-467q-12 -162 -85.5 -308t-197.5 -249l-32 -135h757l-8 -39h-797l33 137 q-216 -153 -504 -153q-158 0 -288.5 56.5t-214.5 151.5t-129.5 217t-45.5 257zM274 666q0 -102 26.5 -196.5t80 -176t128.5 -141.5t178.5 -94.5t223.5 -34.5q177 0 328 62.5t252 168t158 244t57 290.5q0 128 -42.5 243.5t-121 205t-201 142.5t-272.5 53q-176 0 -327 -62.5 t-252.5 -168t-158.5 -244.5t-57 -291z" />
<glyph unicode="&#x153;" horiz-adv-x="2189" d="M205 465q0 158 74.5 289.5t207 208.5t293.5 77q194 0 322 -107t162 -271q58 169 204 273.5t338 104.5q82 0 156.5 -23.5t135 -69.5t96.5 -122.5t36 -173.5q0 -57 -12 -121h-942q-4 -46 -4 -65q0 -137 62 -239.5t160.5 -152.5t217.5 -50q208 0 356 129l25 -33 q-161 -135 -381 -135q-193 0 -317 106.5t-156 271.5q-60 -169 -206 -273.5t-335 -104.5q-113 0 -207.5 39.5t-156 106.5t-95.5 153.5t-34 181.5zM246 465q0 -101 37.5 -186t100.5 -140t143.5 -85.5t168.5 -30.5q148 0 271 69t194.5 192t71.5 275q0 101 -37.5 186t-100.5 140 t-144 85.5t-169 30.5q-148 0 -270.5 -69t-194 -192t-71.5 -275zM1280 567h903q6 43 6 80q0 169 -108.5 261.5t-276.5 92.5q-199 0 -344.5 -121.5t-179.5 -312.5z" />
<glyph unicode="&#x178;" horiz-adv-x="1130" d="M319 1454h41l336 -795l674 795h49l-708 -836l-131 -618h-39l131 618zM655 1614l45 211h39l-45 -211h-39zM1106 1614l45 211h39l-45 -211h-39z" />
<glyph unicode="&#x2c6;" horiz-adv-x="745" d="M268 1186l391 284l273 -284l-27 -27l-252 262l-362 -264z" />
<glyph unicode="&#x2dc;" horiz-adv-x="739" d="M270 1192q22 87 76 134.5t119 47.5q39 0 74.5 -15t62.5 -36t52.5 -42.5t55.5 -36.5t60 -15q115 0 158 145h39q-26 -94 -78 -138t-119 -44q-44 0 -85.5 22.5t-70 50t-68.5 50t-81 22.5q-113 0 -156 -145h-39z" />
<glyph unicode="&#x2000;" horiz-adv-x="950" />
<glyph unicode="&#x2001;" horiz-adv-x="1901" />
<glyph unicode="&#x2002;" horiz-adv-x="950" />
<glyph unicode="&#x2003;" horiz-adv-x="1901" />
<glyph unicode="&#x2004;" horiz-adv-x="633" />
<glyph unicode="&#x2005;" horiz-adv-x="475" />
<glyph unicode="&#x2006;" horiz-adv-x="316" />
<glyph unicode="&#x2007;" horiz-adv-x="316" />
<glyph unicode="&#x2008;" horiz-adv-x="237" />
<glyph unicode="&#x2009;" horiz-adv-x="380" />
<glyph unicode="&#x200a;" horiz-adv-x="105" />
<glyph unicode="&#x2010;" horiz-adv-x="671" d="M217 535l8 38h465l-8 -38h-465z" />
<glyph unicode="&#x2011;" horiz-adv-x="671" d="M217 535l8 38h465l-8 -38h-465z" />
<glyph unicode="&#x2012;" horiz-adv-x="671" d="M217 535l8 38h465l-8 -38h-465z" />
<glyph unicode="&#x2013;" horiz-adv-x="1042" d="M217 535l8 38h836l-8 -38h-836z" />
<glyph unicode="&#x2014;" horiz-adv-x="1673" d="M217 535l8 38h1467l-9 -38h-1466z" />
<glyph unicode="&#x2018;" horiz-adv-x="374" d="M338 961l45 213l170 280h43l-176 -295l-43 -198h-39z" />
<glyph unicode="&#x2019;" horiz-adv-x="374" d="M293 961l176 294l43 199h39l-45 -213l-170 -280h-43z" />
<glyph unicode="&#x201a;" horiz-adv-x="374" d="M29 -283l176 295l43 199h39l-45 -213l-170 -281h-43z" />
<glyph unicode="&#x201c;" horiz-adv-x="751" d="M338 961l45 213l170 280h43l-176 -295l-43 -198h-39zM715 961l45 213l170 280h43l-176 -295l-43 -198h-39z" />
<glyph unicode="&#x201d;" horiz-adv-x="751" d="M293 961l176 294l43 199h39l-45 -213l-170 -280h-43zM670 961l176 294l43 199h39l-45 -213l-170 -280h-43z" />
<glyph unicode="&#x201e;" horiz-adv-x="751" d="M29 -283l176 295l43 199h39l-45 -213l-170 -281h-43zM406 -283l176 295l43 199h39l-46 -213l-169 -281h-43z" />
<glyph unicode="&#x2022;" horiz-adv-x="835" d="M270 618q0 116 82 197.5t197 81.5t196.5 -81.5t81.5 -197.5t-81.5 -197t-196.5 -81q-116 0 -197.5 81.5t-81.5 196.5z" />
<glyph unicode="&#x2026;" horiz-adv-x="1087" d="M162 0l45 211h39l-45 -211h-39zM522 0l45 211h39l-45 -211h-39zM885 0l45 211h39l-45 -211h-39z" />
<glyph unicode="&#x202f;" horiz-adv-x="380" />
<glyph unicode="&#x2039;" horiz-adv-x="538" d="M170 514l395 434l27 -26l-375 -414l197 -416l-35 -16z" />
<glyph unicode="&#x203a;" horiz-adv-x="540" d="M166 102l375 414l-197 416l35 16l209 -438l-395 -434z" />
<glyph unicode="&#x205f;" horiz-adv-x="475" />
<glyph unicode="&#x20ac;" horiz-adv-x="1308" d="M123 528l18 39h271q-6 49 -6 99q0 124 32 227h-237l18 39h232q40 114 112 210.5t171 170.5t229.5 115.5t277.5 41.5q164 0 299 -61l-18 -35q-133 58 -281 58q-272 0 -469.5 -139t-277.5 -361h792l-18 -39h-789q-33 -106 -33 -227q0 -45 7 -99h641l-21 -39h-614 q42 -221 205.5 -363t418.5 -142q101 0 189 18l-8 -41q-91 -16 -181 -16q-138 0 -255.5 42.5t-200 117.5t-136 172.5t-73.5 211.5h-295z" />
<glyph unicode="&#x2122;" horiz-adv-x="1802" d="M406 1415v39h530v-39h-246v-760h-39v760h-245zM1053 655v836l356 -504l356 504v-836h-39v715l-317 -448l-317 448v-715h-39z" />
<glyph unicode="&#x25fc;" horiz-adv-x="1024" d="M0 0v1024h1024v-1024h-1024z" />
<glyph unicode="&#xfb01;" horiz-adv-x="987" d="M197 985l8 39h262q-44 25 -72 75.5t-28 106.5q0 109 89 178.5t224 69.5h186l-8 -37h-170q-129 0 -204.5 -58t-75.5 -155q0 -76 52.5 -128t143.5 -52h172l-8 -39h-283l-209 -985h-38l208 985h-249zM764 0l217 1024h39l-217 -1024h-39zM1034 1270l39 184q8 8 23 8 q13 0 16 -8l-39 -184h-39z" />
<glyph unicode="&#xfb02;" horiz-adv-x="987" d="M197 985l8 39h262q-44 25 -72 75.5t-28 106.5q0 109 89 178.5t224 69.5h186l-8 -37h-170q-129 0 -204.5 -58t-75.5 -155q0 -76 52.5 -128t143.5 -52h172l-8 -39h-283l-209 -985h-38l208 985h-249zM764 0l309 1454h39l-309 -1454h-39z" />
</font>
</defs>
</svg>
