<?xml version="1.0" standalone="no"?>
<!DOCTYPE svg PUBLIC "-//W3C//DTD SVG 1.1//EN" "http://www.w3.org/Graphics/SVG/1.1/DTD/svg11.dtd" >
<svg xmlns="http://www.w3.org/2000/svg">
<metadata></metadata>
<defs>
<font id="euclid_flexlight_italic" horiz-adv-x="1277" >
<font-face units-per-em="2048" ascent="1651" descent="-397" />
<missing-glyph horiz-adv-x="522" />
<glyph horiz-adv-x="0" />
<glyph horiz-adv-x="682" />
<glyph unicode=" "  horiz-adv-x="522" />
<glyph unicode="&#x09;" horiz-adv-x="522" />
<glyph unicode="&#xa0;" horiz-adv-x="522" />
<glyph unicode="!" horiz-adv-x="491" d="M152 88q0 -43 27 -73.5t73 -30.5q57 0 101 40.5t44 96.5q0 30 -12 56t-33 38h-110q-40 -20 -65 -53.5t-25 -73.5zM289 397l98 568l105 489h126l-104 -489l-145 -568h-80z" />
<glyph unicode="&#x22;" horiz-adv-x="751" d="M371 993v461h116v-461h-116zM784 993v461h117v-461h-117z" />
<glyph unicode="#" horiz-adv-x="1703" d="M319 428v113h302l124 395h-276v113h311l127 405h119l-127 -405h414l127 405h116l-126 -405h268v-113h-303l-125 -395h280v-113h-315l-133 -428h-117l133 428h-413l-134 -428h-118l133 428h-267zM739 541h414l125 395h-414z" />
<glyph unicode="$" horiz-adv-x="1075" d="M113 262l108 60q44 -98 142.5 -163t230.5 -65q155 0 244.5 75.5t89.5 186.5q0 54 -14.5 97.5t-45.5 81t-67 66.5t-92 67l-148 100q-111 79 -163 162.5t-52 195.5q0 158 114 251t300 93h16l37 164h102l-38 -178q169 -42 278 -207l-102 -59q-104 170 -305 170 q-127 0 -207 -63.5t-80 -168.5q0 -88 44 -149t138 -125l150 -102q126 -85 188.5 -173.5t62.5 -211.5q0 -162 -122 -272.5t-338 -110.5h-21l-35 -166h-102l37 178q-122 26 -214 97.5t-136 168.5z" />
<glyph unicode="%" horiz-adv-x="944" d="M242 240q0 130 89 218.5t220 88.5q120 0 190 -75t70 -181q0 -129 -88.5 -218t-220.5 -89q-120 0 -190 75t-70 181zM334 248q0 -80 52 -128t126 -48q87 0 147 60.5t60 150.5q0 81 -51.5 128.5t-124.5 47.5q-87 0 -148 -60.5t-61 -150.5zM348 678l23 100h542l-22 -100h-543 zM440 1161q0 128 89.5 217.5t220.5 89.5q119 0 189.5 -75.5t70.5 -180.5q0 -129 -89 -218t-221 -89q-120 0 -190 75t-70 181zM532 1167q0 -79 52.5 -127.5t124.5 -48.5q88 0 148.5 61.5t60.5 151.5q0 80 -52 128t-125 48q-88 0 -148.5 -61.5t-60.5 -151.5z" />
<glyph unicode="&#x26;" horiz-adv-x="1263" d="M156 401q0 133 63 246.5t180.5 182.5t264.5 69q107 0 184 -41l-182 596h725l-23 -113h-545l416 -1341h-125l-88 283q-51 -136 -168 -217.5t-280 -81.5q-129 0 -227 59.5t-146.5 153.5t-48.5 204zM276 412q0 -138 90 -227t220 -89q159 0 265.5 110t106.5 269 q0 136 -89 224.5t-218 88.5q-159 0 -267 -110t-108 -266z" />
<glyph unicode="'" horiz-adv-x="337" d="M371 993v461h116v-461h-116z" />
<glyph unicode="(" horiz-adv-x="505" d="M221 266q0 223 54 431.5t150.5 396.5t252.5 413l108 -53q-450 -592 -450 -1171q0 -254 74 -519l-113 -43q-76 294 -76 545z" />
<glyph unicode=")" horiz-adv-x="505" d="M-23 -236q451 593 451 1172q0 253 -74 518l113 43q76 -294 76 -545q0 -223 -54 -431.5t-150.5 -396.5t-252.5 -413z" />
<glyph unicode="*" horiz-adv-x="907" d="M377 1192l29 100l247 -82v244h103v-244l250 80l32 -98l-247 -80l151 -209l-82 -59l-155 207l-150 -207l-84 59l150 207z" />
<glyph unicode="+" horiz-adv-x="1384" d="M358 498v112h392v375h118v-375h392v-112h-392v-387h-118v387h-392z" />
<glyph unicode="," horiz-adv-x="489" d="M84 -283l152 283h-86l45 211h196l-45 -213l-172 -281h-90z" />
<glyph unicode="-" horiz-adv-x="673" d="M209 487l29 134h464l-28 -134h-465z" />
<glyph unicode="." horiz-adv-x="505" d="M154 106q0 51 34.5 88t85.5 37t86 -37t35 -88q0 -48 -35.5 -84t-85.5 -36t-85 36t-35 84z" />
<glyph unicode="/" horiz-adv-x="727" d="M102 0l715 1454h117l-715 -1454h-117z" />
<glyph unicode="0" horiz-adv-x="1654" d="M223 666q0 124 36.5 242t109 219.5t172 178t233.5 120.5t285 44q158 0 288.5 -56.5t214.5 -151.5t129.5 -217t45.5 -257q0 -124 -36.5 -242t-109 -219.5t-172 -178t-233.5 -120.5t-285 -44q-158 0 -288.5 56.5t-214.5 151.5t-129.5 217t-45.5 257zM348 676 q0 -92 23.5 -177.5t70.5 -158.5t113.5 -127.5t157.5 -85.5t196 -31q125 0 236.5 36t195.5 100t145 149.5t92.5 187t31.5 209.5q0 115 -37.5 219t-106.5 185t-177 128.5t-240 47.5q-156 0 -288.5 -55.5t-222 -149t-140 -217t-50.5 -260.5z" />
<glyph unicode="1" horiz-adv-x="540" d="M209 0l287 1348l149 122l-313 -1470h-123z" />
<glyph unicode="2" horiz-adv-x="1116" d="M63 0l711 643q-32 -4 -53 -4q-166 0 -265.5 111.5t-99.5 265.5q0 122 57.5 225.5t164.5 166t241 62.5q176 0 279.5 -111t103.5 -269q0 -210 -178 -371l-670 -606h672l-25 -113h-938zM475 1026q0 -122 79 -200t194 -78q144 0 238.5 96t94.5 237q0 121 -78 199t-194 78 q-143 0 -238.5 -96.5t-95.5 -235.5z" />
<glyph unicode="3" horiz-adv-x="1067" d="M135 199l111 63q40 -78 120.5 -123t178.5 -45q164 0 271.5 110.5t107.5 274.5q0 145 -93.5 234.5t-244.5 89.5h-90l452 538h-551l25 113h760l-471 -561q159 -28 249.5 -142t90.5 -262q0 -138 -60 -251.5t-179 -183.5t-277 -70q-138 0 -242.5 59t-157.5 156z" />
<glyph unicode="4" horiz-adv-x="1206" d="M66 430l1198 1040l-199 -927h211l-23 -113h-211l-92 -430h-116l92 430h-860zM358 543h590l135 628z" />
<glyph unicode="5" horiz-adv-x="1112" d="M190 203l111 59q40 -77 118.5 -122.5t170.5 -45.5q167 0 276 111.5t109 275.5q0 143 -91 233.5t-225 90.5q-145 0 -249 -94l-74 43l156 700h710l-24 -113h-594l-105 -464q89 36 191 36q100 0 182.5 -35t136 -93.5t82.5 -134t29 -158.5q0 -219 -143 -363.5t-375 -144.5 q-134 0 -236.5 60t-155.5 159z" />
<glyph unicode="6" horiz-adv-x="1103" d="M170 408q0 99 38 187.5t116 186.5l546 672h142l-459 -563q64 22 137 22q100 0 182.5 -35t136 -93.5t82.5 -134t29 -158.5q0 -141 -63.5 -256.5t-182.5 -183.5t-272 -68q-100 0 -183 35.5t-136.5 94.5t-83 135t-29.5 159zM295 418q0 -144 90.5 -234t224.5 -90 q168 0 276.5 111t108.5 276q0 143 -90.5 233.5t-224.5 90.5q-166 0 -275.5 -112t-109.5 -275z" />
<glyph unicode="7" horiz-adv-x="1036" d="M145 0l961 1341h-758l25 113h948l-1040 -1454h-136z" />
<glyph unicode="8" horiz-adv-x="1142" d="M193 401q0 169 90 301.5t245 184.5q-90 84 -90 215q0 156 101 262t260 106q144 0 231.5 -88t87.5 -211q0 -104 -47 -188.5t-129 -132.5q94 -56 146.5 -151.5t52.5 -204.5q0 -140 -62.5 -256t-180 -185t-267.5 -69q-102 0 -186 34t-138.5 91.5t-84 133t-29.5 158.5z M317 414q0 -143 90.5 -231.5t231.5 -88.5q161 0 268 113t107 274q0 145 -90.5 233.5t-231.5 88.5q-161 0 -268 -113.5t-107 -275.5zM559 1114q0 -92 57.5 -146.5t147.5 -54.5q100 0 166.5 72.5t66.5 173.5q0 92 -57 146.5t-147 54.5q-100 0 -167 -72.5t-67 -173.5z" />
<glyph unicode="9" horiz-adv-x="1103" d="M289 963q0 141 63.5 256t182.5 183t272 68q100 0 183 -35t136.5 -94.5t83 -135t29.5 -158.5q0 -99 -38 -188t-116 -187l-546 -672h-142l459 563q-64 -22 -137 -22q-100 0 -182.5 35t-136 94t-82.5 134.5t-29 158.5zM414 973q0 -143 90.5 -233.5t224.5 -90.5 q166 0 275.5 112t109.5 275q0 144 -90.5 234t-224.5 90q-168 0 -276.5 -111t-108.5 -276z" />
<glyph unicode=":" horiz-adv-x="505" d="M154 106q0 51 34.5 88t85.5 37t86 -37t35 -88q0 -48 -35.5 -84t-85.5 -36t-85 36t-35 84zM326 913q0 51 34.5 88t85.5 37t86 -37t35 -88q0 -48 -35.5 -84t-85.5 -36t-85 36t-35 84z" />
<glyph unicode=";" horiz-adv-x="505" d="M88 -283l152 283h-86l45 211h196l-45 -213l-172 -281h-90zM324 915q0 51 34.5 88t85.5 37t86 -37t35 -88q0 -48 -35.5 -84t-85.5 -36t-85 36t-35 84z" />
<glyph unicode="&#x3c;" horiz-adv-x="1085" d="M258 537l592 555l74 -80l-508 -475l508 -476l-74 -77z" />
<glyph unicode="=" horiz-adv-x="1497" d="M408 272v111h919v-111h-919zM408 725v111h919v-111h-919z" />
<glyph unicode="&#x3e;" horiz-adv-x="1085" d="M391 61l510 476l-510 475l74 80l592 -555l-592 -553z" />
<glyph unicode="?" horiz-adv-x="942" d="M270 1016q0 122 57.5 225.5t164.5 166t241 62.5q176 0 279.5 -111t103.5 -269q0 -189 -133.5 -322t-349.5 -133h-170l22 113h154q159 0 257.5 96t98.5 237q0 121 -78 199t-194 78q-145 0 -240.5 -98t-93.5 -244h-119zM281 88q0 -43 27 -73.5t73 -30.5q57 0 101 40.5 t44 96.5q0 30 -12 56t-33 38h-110q-40 -20 -65 -53.5t-25 -73.5z" />
<glyph unicode="@" horiz-adv-x="1667" d="M250 690q0 114 30.5 219.5t84.5 190.5t129.5 155t164 117t189 72.5t203.5 25.5q145 0 271.5 -45.5t219.5 -127t147 -202t54 -264.5q0 -127 -34.5 -226.5t-90 -156.5t-118.5 -85.5t-128 -28.5q-64 0 -115 27.5t-75 72.5q-48 -45 -116 -71.5t-142 -26.5q-141 0 -237.5 102 t-96.5 252q0 187 129.5 317t320.5 130q130 0 224 -80l14 61h111l-107 -516q-15 -76 6.5 -119t97.5 -43q105 0 175.5 104.5t70.5 291.5q0 238 -163.5 386t-419.5 148q-137 0 -262 -48.5t-219 -135t-150 -215.5t-56 -281q0 -173 69.5 -308t207.5 -213.5t326 -78.5q98 0 202 22 t183 64l43 -102q-94 -42 -210 -66t-218 -24q-216 0 -380 94.5t-249.5 254t-85.5 357.5zM702 696q0 -120 65 -188t179 -68q133 0 207 97l86 397q-30 49 -86.5 73.5t-120.5 24.5q-137 0 -233.5 -92t-96.5 -244z" />
<glyph unicode="A" horiz-adv-x="1427" d="M20 0l1008 1470l379 -1470h-131l-113 444h-694l-301 -444h-148zM551 565h582l-156 625z" />
<glyph unicode="B" horiz-adv-x="1273" d="M209 0l309 1454h412q190 0 293.5 -96.5t103.5 -235.5q0 -133 -74.5 -228t-197.5 -138q101 -31 166 -113.5t65 -196.5q0 -204 -149.5 -325t-425.5 -121h-502zM360 117h373q199 0 311.5 91.5t112.5 233.5q0 109 -82 182.5t-233 73.5h-359zM508 811h326q165 0 264.5 83.5 t99.5 211.5q0 99 -71.5 165t-200.5 66h-305z" />
<glyph unicode="C" horiz-adv-x="1429" d="M238 666q0 124 35.5 241.5t107 219.5t170 178.5t233.5 120.5t289 44q310 0 498 -208l-94 -86q-158 174 -414 174q-153 0 -284.5 -55.5t-220 -148t-139 -215t-50.5 -255.5q0 -113 37 -215.5t105 -182.5t175 -127t238 -47q222 0 397 119l70 -102q-193 -137 -473 -137 q-159 0 -289.5 56.5t-214.5 151.5t-130 217t-46 257z" />
<glyph unicode="D" horiz-adv-x="1507" d="M209 0l309 1454h397q156 0 283 -46.5t211.5 -127.5t130 -191.5t45.5 -238.5q0 -174 -70.5 -330.5t-194 -271t-301 -181.5t-382.5 -67h-428zM362 121h279q181 0 335 59.5t257 159.5t161 230.5t58 271.5q0 216 -143 353.5t-389 137.5h-302z" />
<glyph unicode="E" horiz-adv-x="1146" d="M209 0l309 1454h825l-26 -121h-699l-110 -522h575l-26 -123h-576l-119 -567h699l-27 -121h-825z" />
<glyph unicode="F" horiz-adv-x="1036" d="M209 0l309 1454h811l-26 -121h-685l-110 -522h541l-27 -123h-541l-145 -688h-127z" />
<glyph unicode="G" horiz-adv-x="1589" d="M238 666q0 124 35.5 241.5t107 219.5t170 178.5t233.5 120.5t289 44q163 0 298 -54.5t222 -153.5l-96 -86q-71 82 -185 128t-249 46q-153 0 -284.5 -55.5t-220 -148t-139 -215t-50.5 -255.5q0 -113 37 -215.5t105 -182.5t175 -127t238 -47q252 0 432 119l98 465h-434 l82 123h506l-142 -666q-240 -161 -548 -161q-159 0 -289.5 56.5t-214.5 151.5t-130 217t-46 257z" />
<glyph unicode="H" horiz-adv-x="1566" d="M209 0l309 1454h127l-137 -643h895l137 643h127l-309 -1454h-127l145 688h-895l-145 -688h-127z" />
<glyph unicode="I" horiz-adv-x="544" d="M209 0l309 1454h127l-309 -1454h-127z" />
<glyph unicode="J" horiz-adv-x="1046" d="M96 303q0 54 10 100h125q-8 -58 -8 -79q0 -111 62 -165.5t190 -54.5q276 0 342 299l223 1051h127l-223 -1053q-46 -218 -166 -317.5t-311 -99.5q-160 0 -265.5 84t-105.5 235z" />
<glyph unicode="K" horiz-adv-x="1269" d="M209 0l309 1454h127l-153 -723l849 723h164l-878 -747l626 -707h-147l-623 698l-147 -698h-127z" />
<glyph unicode="L" horiz-adv-x="1050" d="M209 0l309 1454h127l-283 -1333h695l-27 -121h-821z" />
<glyph unicode="M" horiz-adv-x="1796" d="M209 0l313 1470l502 -813l877 813l-314 -1470h-127l242 1122l-701 -643l-421 672l-244 -1151h-127z" />
<glyph unicode="N" horiz-adv-x="1607" d="M209 0l313 1470l809 -1189l250 1173h127l-313 -1470l-809 1190l-250 -1174h-127z" />
<glyph unicode="O" horiz-adv-x="1685" d="M238 666q0 124 35.5 241.5t107 219.5t170 178.5t233.5 120.5t289 44q127 0 237 -37t190 -101.5t137 -150.5t85.5 -186t28.5 -207q0 -124 -36 -241.5t-107.5 -219.5t-170.5 -178.5t-233.5 -120.5t-288.5 -44q-158 0 -288 56.5t-214 152t-129.5 217.5t-45.5 256zM369 676 q0 -115 37 -217.5t105 -182t175 -126t238 -46.5q153 0 285 55.5t220.5 148t138.5 215t50 255.5q0 115 -36.5 217.5t-104.5 182t-175 126t-239 46.5q-153 0 -284.5 -55.5t-220 -148t-139 -215t-50.5 -255.5z" />
<glyph unicode="P" horiz-adv-x="1144" d="M209 0l309 1454h389q202 0 309 -102t107 -262q0 -104 -36 -191.5t-105 -153t-178 -102.5t-248 -37h-291l-129 -606h-127zM489 723h283q195 0 308.5 103t113.5 261q0 115 -73 183.5t-222 68.5h-278z" />
<glyph unicode="Q" horiz-adv-x="1685" d="M238 666q0 124 35.5 241.5t107 219.5t170 178.5t233.5 120.5t289 44q127 0 237 -37t190 -101.5t137 -150.5t85.5 -186t28.5 -207q0 -168 -67 -323t-191 -268l160 -197l-97 -74l-157 195q-205 -137 -484 -137q-158 0 -288 56.5t-214 152t-129.5 217.5t-45.5 256zM369 676 q0 -115 37 -217.5t105 -182t175 -126t238 -46.5q223 0 397 115l-162 205l92 74l164 -203q97 94 150 219.5t53 263.5q0 115 -36.5 217.5t-104.5 182t-175 126t-239 46.5q-153 0 -284.5 -55.5t-220 -148t-139 -215t-50.5 -255.5z" />
<glyph unicode="R" horiz-adv-x="1290" d="M209 0l309 1454h389q195 0 299.5 -94t104.5 -246q0 -184 -120 -307.5t-333 -144.5l379 -662h-141l-373 657h-248l-139 -657h-127zM502 774h274q192 0 299 94t107 238q0 107 -73 168t-216 61h-275z" />
<glyph unicode="S" horiz-adv-x="1097" d="M137 262l115 70q45 -99 139.5 -163.5t226.5 -64.5q151 0 237.5 71.5t86.5 180.5q0 98 -50 167t-159 141l-147 100q-111 79 -165 164.5t-54 197.5q0 158 115 251t302 93q124 0 230 -52.5t178 -164.5l-115 -73q-104 170 -305 170q-122 0 -199 -59.5t-77 -162.5 q0 -86 41.5 -146t132.5 -122l149 -102q126 -85 191 -176.5t65 -214.5q0 -161 -125 -272t-342 -111q-163 0 -289 78t-182 200z" />
<glyph unicode="T" horiz-adv-x="1048" d="M324 1333l26 121h967l-27 -121h-422l-282 -1333h-127l282 1333h-417z" />
<glyph unicode="U" horiz-adv-x="1490" d="M291 406q0 63 16 141l193 907h127l-195 -911q-14 -63 -14 -121q0 -155 96.5 -236.5t265.5 -81.5q198 0 330.5 112t179.5 329l193 909h127l-193 -907q-119 -563 -641 -563q-222 0 -353.5 111.5t-131.5 310.5z" />
<glyph unicode="V" horiz-adv-x="1370" d="M340 1454h127l268 -1182l770 1182h144l-967 -1470z" />
<glyph unicode="W" horiz-adv-x="1847" d="M354 1454h127l127 -1108l629 1124l143 -1155l600 1139h131l-792 -1470l-143 1153l-644 -1153z" />
<glyph unicode="X" horiz-adv-x="1380" d="M61 0l723 762l-360 692h135l313 -600l568 600h157l-669 -706l391 -748h-135l-344 655l-621 -655h-158z" />
<glyph unicode="Y" horiz-adv-x="1273" d="M350 1454h135l297 -715l600 715h160l-711 -838l-131 -616h-127l132 616z" />
<glyph unicode="Z" horiz-adv-x="1234" d="M66 0l1146 1333h-776l27 121h999l-1147 -1333h887l-26 -121h-1110z" />
<glyph unicode="[" horiz-adv-x="573" d="M113 -272l376 1773h342l-24 -112h-225l-328 -1549h225l-24 -112h-342z" />
<glyph unicode="\" horiz-adv-x="1140" d="M309 1454h117l715 -1454h-117z" />
<glyph unicode="]" horiz-adv-x="573" d="M2 -272l25 112h225l328 1549h-226l25 112h342l-377 -1773h-342z" />
<glyph unicode="^" horiz-adv-x="1298" d="M240 664l551 792l550 -792h-129l-421 602l-422 -602h-129z" />
<glyph unicode="_" horiz-adv-x="858" d="M-25 -113l25 113h858l-24 -113h-859z" />
<glyph unicode="`" horiz-adv-x="493" d="M334 1454h166l110 -338h-88z" />
<glyph unicode="a" d="M207 451q0 115 44 222t121 188.5t188.5 130t238.5 48.5q116 0 208 -40t152 -111l29 135h119l-217 -1024h-113l22 104q-146 -120 -346 -120q-105 0 -190.5 37.5t-140.5 102t-85 149t-30 178.5zM330 457q0 -159 93 -261t253 -102q98 0 191 44t159 122l104 492 q-49 83 -139.5 130.5t-195.5 47.5q-196 0 -330.5 -138t-134.5 -335z" />
<glyph unicode="b" horiz-adv-x="1284" d="M188 0l310 1454h118l-112 -528q147 114 338 114q105 0 190.5 -37.5t140.5 -102t85 -149t30 -178.5q0 -115 -44 -222t-121 -188.5t-188.5 -130t-238.5 -48.5q-115 0 -207.5 39.5t-152.5 109.5l-29 -133h-119zM365 270q49 -83 139 -129.5t196 -46.5q196 0 330.5 138 t134.5 335q0 159 -93 261t-253 102q-98 0 -190 -43.5t-158 -120.5z" />
<glyph unicode="c" horiz-adv-x="1128" d="M211 465q0 158 75 289.5t208.5 208.5t296.5 77q127 0 231 -51t166 -147l-98 -68q-49 74 -131 115t-179 41q-191 0 -319.5 -130.5t-128.5 -326.5q0 -117 52 -204.5t135 -131t183 -43.5q179 0 306 121l77 -84q-167 -147 -391 -147q-113 0 -206 39.5t-152.5 106.5t-92 153.5 t-32.5 181.5z" />
<glyph unicode="d" d="M207 451q0 115 44.5 222t121.5 188.5t189 130t239 48.5q115 0 207 -40.5t153 -110.5l121 565h117l-309 -1454h-113l22 104q-146 -120 -346 -120q-105 0 -190.5 37.5t-140.5 102t-85 149t-30 178.5zM330 457q0 -159 93.5 -261t254.5 -102q98 0 191 44t159 122l105 490 q-48 84 -140.5 132t-197.5 48q-196 0 -330.5 -138t-134.5 -335z" />
<glyph unicode="e" horiz-adv-x="1187" d="M211 465q0 158 75 289.5t208.5 208.5t296.5 77q194 0 311 -117.5t117 -304.5q0 -51 -11 -108h-876v-37q0 -175 107 -277t263 -102q178 0 312 121l78 -82q-168 -149 -398 -149q-113 0 -206 39.5t-152.5 106.5t-92 153.5t-32.5 181.5zM350 614h746q2 14 2 31 q0 130 -89.5 207.5t-228.5 77.5q-155 0 -272 -85.5t-158 -230.5z" />
<glyph unicode="f" horiz-adv-x="714" d="M242 911l22 113h207q-65 62 -65 172q0 114 95 186t247 72h210l-24 -111h-182q-218 0 -230 -169q-1 -7 -1 -13q0 -52 37 -90q41 -43 110 -47h200l-22 -113h-277l-192 -911h-119l193 911h-209z" />
<glyph unicode="g" horiz-adv-x="1253" d="M143 -252l78 98q52 -60 145 -96.5t201 -36.5q205 0 319.5 105.5t114.5 292.5q0 23 -4 51q-151 -131 -350 -131q-136 0 -235.5 59.5t-149 158.5t-49.5 224q0 155 71.5 284t205.5 206t305 77q215 0 344 -139l26 123h117l-168 -791q10 -65 10 -114q0 -127 -42.5 -226.5 t-119.5 -162.5t-179 -95t-224 -32q-119 0 -235 38.5t-181 106.5zM334 479q0 -156 88.5 -247t249.5 -91q95 0 186 45t158 123l94 455q-49 78 -136 122t-188 44q-193 0 -322.5 -128t-129.5 -323z" />
<glyph unicode="h" horiz-adv-x="1230" d="M188 0l310 1454h116l-112 -532q143 118 338 118q161 0 259.5 -95.5t98.5 -256.5q0 -54 -12 -115l-123 -573h-117l121 567q12 53 12 97q0 126 -75 196t-203 70q-93 0 -180.5 -44.5t-153.5 -121.5v-2l-162 -762h-117z" />
<glyph unicode="i" horiz-adv-x="493" d="M188 0l218 1024h116l-217 -1024h-117zM428 1356q0 47 35.5 80.5t83.5 33.5q39 0 64.5 -26t25.5 -62q0 -59 -62 -98h-114q-33 26 -33 72z" />
<glyph unicode="j" horiz-adv-x="495" d="M-121 -377l25 113h43q60 0 99.5 11.5t65 40t39 65t27.5 98.5l228 1073h118l-233 -1096q-34 -167 -113 -236t-244 -69h-55zM430 1356q0 47 35.5 80.5t83.5 33.5q39 0 64.5 -26t25.5 -62q0 -60 -61 -98h-115q-33 26 -33 72z" />
<glyph unicode="k" horiz-adv-x="1030" d="M188 0l310 1454h116l-190 -895l606 465h160l-649 -496l479 -528h-139l-467 516l-109 -516h-117z" />
<glyph unicode="l" horiz-adv-x="493" d="M188 0l310 1454h116l-309 -1454h-117z" />
<glyph unicode="m" horiz-adv-x="1851" d="M188 0l218 1024h112l-22 -104q66 55 150.5 87.5t170.5 32.5q108 0 184.5 -47t110.5 -133q163 180 395 180q150 0 235 -85.5t85 -235.5q0 -51 -17 -131l-124 -588h-117l125 584q12 62 12 110q0 113 -61 174.5t-177 61.5q-94 0 -181 -53.5t-150 -145.5v-12q0 -55 -15 -125 l-127 -594h-116l125 584q12 62 12 110q0 113 -61 174.5t-177 61.5q-85 0 -167 -45.5t-142 -118.5l-164 -766h-117z" />
<glyph unicode="n" horiz-adv-x="1228" d="M188 0l218 1024h112l-22 -104q142 120 342 120q161 0 259.5 -95.5t98.5 -256.5q0 -48 -12 -110l-123 -578h-117l121 567q12 53 12 97q0 126 -75 196t-203 70q-93 0 -180 -44t-152 -120l-162 -766h-117z" />
<glyph unicode="o" d="M211 465q0 158 75.5 289.5t209 208.5t295.5 77q150 0 263.5 -68.5t169.5 -176.5t56 -236q0 -158 -75.5 -289.5t-209 -208.5t-295.5 -77q-150 0 -263.5 68.5t-169.5 176.5t-56 236zM332 473q0 -172 110.5 -275.5t266.5 -103.5q190 0 320 131t130 326q0 172 -110.5 275.5 t-266.5 103.5q-191 0 -320.5 -130.5t-129.5 -326.5z" />
<glyph unicode="p" horiz-adv-x="1284" d="M109 -377l297 1401h112l-22 -104q146 120 346 120q140 0 243 -65.5t153 -170t50 -231.5q0 -115 -44 -222t-121 -188.5t-188.5 -130t-238.5 -48.5q-234 0 -362 151l-109 -512h-116zM362 274q46 -84 138.5 -132t199.5 -48q197 0 332 138t135 335q0 159 -93.5 261 t-254.5 102q-99 0 -192.5 -45t-159.5 -123z" />
<glyph unicode="q" horiz-adv-x="1275" d="M207 451q0 115 44 222t121 188.5t188.5 130t238.5 48.5q116 0 208 -40t152 -111l29 135h117l-297 -1401h-117l100 475q-143 -114 -338 -114q-105 0 -190.5 37.5t-140.5 102t-85 149t-30 178.5zM330 457q0 -159 93 -261t253 -102q98 0 191 44t159 122l104 492 q-49 83 -139.5 130.5t-195.5 47.5q-196 0 -330.5 -138t-134.5 -335z" />
<glyph unicode="r" horiz-adv-x="735" d="M188 0l218 1024h116l-28 -137q61 71 151.5 112t192.5 41q37 0 67 -6l-26 -123q-42 11 -82 11q-107 0 -196 -53.5t-144 -147.5l-152 -721h-117z" />
<glyph unicode="s" horiz-adv-x="860" d="M125 223l102 47q30 -86 99 -133t172 -47q90 0 150.5 45t60.5 115q0 65 -39 111t-117 92l-94 55q-187 111 -187 268q0 116 87 190t225 74q107 0 188 -51.5t117 -136.5l-107 -49q-24 57 -75.5 94t-126.5 37q-85 0 -138 -41.5t-53 -108.5q0 -58 33.5 -101.5t101.5 -84.5 l94 -55q209 -119 209 -279q0 -121 -95 -200.5t-240 -79.5q-146 0 -238 64.5t-129 174.5z" />
<glyph unicode="t" horiz-adv-x="706" d="M244 911v113h190l51 242l131 59l-63 -301h276l-22 -113h-279l-125 -600q-10 -55 -10 -86q0 -59 35.5 -85.5t120.5 -26.5h96l-24 -113h-78q-271 0 -271 201q0 29 15 110l125 600h-168z" />
<glyph unicode="u" horiz-adv-x="1179" d="M207 317q0 44 14 119l125 588h117l-123 -584q-12 -56 -12 -102q0 -118 70 -181t198 -63q95 0 182 43.5t150 118.5l164 768h116l-217 -1024h-112l20 104q-67 -58 -155 -89t-183 -31q-163 0 -258.5 88.5t-95.5 244.5z" />
<glyph unicode="v" horiz-adv-x="1075" d="M238 1024h124l220 -801l555 801h145l-743 -1040z" />
<glyph unicode="w" horiz-adv-x="1544" d="M279 1024h118l103 -807l499 823l138 -827l454 811h127l-573 -1024h-70l-127 768l-463 -768h-73z" />
<glyph unicode="x" horiz-adv-x="1130" d="M61 0l549 532l-297 492h127l250 -414l426 414h148l-519 -506l314 -518h-127l-266 440l-455 -440h-150z" />
<glyph unicode="y" horiz-adv-x="1060" d="M193 -377l282 420l-237 981h120l203 -854l572 854h135l-942 -1401h-133z" />
<glyph unicode="z" horiz-adv-x="1038" d="M53 0l877 911h-613l23 113h842l-877 -911h662l-25 -113h-889z" />
<glyph unicode="{" horiz-adv-x="591" d="M162 563l22 107h17q75 0 109.5 41.5t51.5 122.5l84 397q34 154 108 212t218 58h74l-23 -112h-49q-104 0 -147.5 -38.5t-65.5 -146.5l-78 -362q-21 -97 -56 -150.5t-99 -77.5q71 -35 71 -127q0 -43 -12 -98l-72 -342q-14 -72 -14 -100q0 -58 32.5 -82.5t110.5 -24.5h52 l-25 -112h-74q-111 0 -163 48t-52 150q0 54 15 125l73 346q9 41 9 72q0 94 -101 94h-16z" />
<glyph unicode="|" horiz-adv-x="669" d="M391 -377v1831h117v-1831h-117z" />
<glyph unicode="}" horiz-adv-x="591" d="M6 -272l23 112h49q104 0 147.5 38.5t65.5 146.5l78 362q21 97 56 150t99 77q-71 35 -71 127q0 43 12 99l72 342q14 72 14 100q0 58 -32.5 82.5t-110.5 24.5h-52l25 112h74q111 0 163 -48t52 -150q0 -55 -15 -125l-73 -347q-9 -41 -9 -71q0 -94 101 -94h16l-22 -107h-17 q-75 0 -110 -41.5t-52 -122.5l-83 -397q-34 -154 -108 -212t-218 -58h-74z" />
<glyph unicode="~" horiz-adv-x="1312" d="M346 414v133l221 149l406 -155l231 151v-123l-223 -155l-406 155z" />
<glyph unicode="&#xa1;" horiz-adv-x="487" d="M100 -377l105 490l145 567h80l-98 -567l-105 -490h-127zM317 903q0 56 44.5 96.5t101.5 40.5q46 0 73 -30.5t27 -73.5q0 -40 -25 -73.5t-65 -53.5h-111q-21 12 -33 38t-12 56z" />
<glyph unicode="&#xa2;" horiz-adv-x="1146" d="M217 465q0 155 72.5 285t202.5 208t290 82l35 164h86l-37 -168q105 -14 190 -63t138 -131l-98 -68q-49 74 -131 115t-179 41q-191 0 -319.5 -130.5t-128.5 -326.5q0 -117 52 -204.5t135.5 -131t183.5 -43.5q178 0 305 121l78 -84q-167 -147 -392 -147q-21 0 -57 4 l-35 -168h-86l37 180q-107 28 -186 98.5t-117.5 165t-38.5 201.5z" />
<glyph unicode="&#xa3;" horiz-adv-x="1191" d="M172 0l23 113h204l111 524h-205l23 111h235q-60 45 -92.5 121.5t-32.5 164.5q0 183 128 309.5t319 126.5q176 0 279.5 -109.5t103.5 -264.5v-13h-121v4q0 123 -79 198t-189 75q-134 0 -229 -93t-95 -227q0 -128 81 -210t191 -82h170l-24 -111h-342l-113 -524h600 l-22 -113h-924z" />
<glyph unicode="&#xa4;" horiz-adv-x="1335" d="M285 276l141 144q-96 126 -96 289q0 161 94 292l-139 142l88 86l139 -137q132 106 301 106q176 0 309 -111l144 142l88 -86l-144 -148q93 -131 93 -286q0 -156 -95 -285l146 -148l-88 -88l-146 144q-132 -107 -307 -107q-165 0 -299 103l-141 -140zM453 709 q0 -160 101.5 -267.5t256.5 -107.5q164 0 269.5 107.5t105.5 267.5q0 165 -105.5 275t-269.5 110q-155 0 -256.5 -110.5t-101.5 -274.5z" />
<glyph unicode="&#xa5;" horiz-adv-x="1267" d="M324 272l24 113h307l33 154h-307l25 112h286l-338 803h129l299 -717l607 717h143l-682 -803h293l-25 -112h-313l-33 -154h313l-24 -113h-311l-58 -272h-117l58 272h-309z" />
<glyph unicode="&#xa6;" horiz-adv-x="669" d="M391 -377v787h117v-787h-117zM391 670v784h117v-784h-117z" />
<glyph unicode="&#xa7;" horiz-adv-x="1163" d="M221 -190l101 40q19 -60 72 -100.5t134 -40.5q100 0 156.5 46t56.5 122q0 139 -198 266l-58 37q-88 56 -140 139.5t-52 188.5q0 187 121.5 304.5t290.5 117.5l-37 24q-69 48 -106.5 117.5t-37.5 138.5q0 113 93.5 186.5t228.5 73.5q115 0 194 -58t107 -138l-100 -41 q-21 61 -71.5 101t-133.5 40q-92 0 -149.5 -48t-57.5 -118q0 -123 174 -237l76 -49q104 -67 160.5 -147.5t56.5 -194.5q0 -189 -123.5 -306.5t-298.5 -117.5l31 -25q69 -54 105 -120.5t36 -131.5q0 -116 -93 -192t-233 -76q-117 0 -198 59t-107 140zM406 516 q0 -119 79 -191.5t187 -72.5q134 0 225.5 91t91.5 228q0 120 -78.5 192.5t-187.5 72.5q-133 0 -225 -91.5t-92 -228.5z" />
<glyph unicode="&#xa8;" horiz-adv-x="729" d="M309 1294q0 44 31.5 75.5t75.5 31.5t75 -31.5t31 -75.5t-31 -75t-75 -31t-75.5 31t-31.5 75zM760 1294q0 44 31 75.5t75 31.5t75.5 -31.5t31.5 -75.5t-31.5 -75t-75.5 -31t-75 31t-31 75z" />
<glyph unicode="&#xa9;" horiz-adv-x="1687" d="M256 727q0 151 59 288.5t159 237t237.5 158.5t287.5 59q202 0 373 -99.5t271 -270.5t100 -373t-100 -373t-271 -270.5t-373 -99.5q-150 0 -287.5 59t-237.5 158.5t-159 237t-59 288.5zM371 727q0 -169 84 -313.5t228.5 -229t313.5 -84.5q170 0 315 84.5t229.5 229 t84.5 313.5q0 170 -84.5 315t-229.5 229.5t-315 84.5q-127 0 -242.5 -50t-199.5 -134.5t-134 -201t-50 -243.5zM596 727q0 184 123.5 310t314.5 126q200 0 326 -149l-78 -68q-92 117 -248 117q-141 0 -234 -97.5t-93 -238.5q0 -139 93 -234.5t234 -95.5q151 0 242 109 l76 -74q-130 -137 -318 -137q-190 0 -314 126t-124 306z" />
<glyph unicode="&#xaa;" horiz-adv-x="735" d="M283 1110q0 144 101 249t255 105q125 0 203 -78l14 68h98l-131 -614h-94l12 57q-82 -68 -192 -68q-121 0 -193.5 81.5t-72.5 199.5zM385 1116q0 -87 50 -139.5t134 -52.5q54 0 105 23.5t86 64.5l57 266q-26 43 -75 67.5t-105 24.5q-106 0 -179 -73t-73 -181z" />
<glyph unicode="&#xab;" horiz-adv-x="983" d="M172 512l393 436l80 -76l-336 -372l176 -373l-106 -51zM588 512l393 436l80 -76l-336 -372l176 -373l-106 -51z" />
<glyph unicode="&#xac;" horiz-adv-x="1466" d="M358 498v112h902v-499h-117v387h-785z" />
<glyph unicode="&#xad;" horiz-adv-x="673" d="M209 487l29 134h464l-28 -134h-465z" />
<glyph unicode="&#xae;" horiz-adv-x="1687" d="M256 727q0 151 59 288.5t159 237t237.5 158.5t287.5 59q202 0 373 -99.5t271 -270.5t100 -373t-100 -373t-271 -270.5t-373 -99.5q-150 0 -287.5 59t-237.5 158.5t-159 237t-59 288.5zM371 727q0 -169 84 -313.5t228.5 -229t313.5 -84.5q170 0 315 84.5t229.5 229 t84.5 313.5q0 170 -84.5 315t-229.5 229.5t-315 84.5q-127 0 -242.5 -50t-199.5 -134.5t-134 -201t-50 -243.5zM743 301v856h310q121 0 194.5 -68.5t73.5 -173.5q0 -91 -56.5 -156.5t-152.5 -82.5l274 -375h-133l-266 371h-131v-371h-113zM856 780h191q76 0 115.5 37 t39.5 94t-39.5 94t-115.5 37h-191v-262z" />
<glyph unicode="&#xaf;" horiz-adv-x="651" d="M315 1288l23 105h569l-22 -105h-570z" />
<glyph unicode="&#xb0;" horiz-adv-x="804" d="M412 1212q0 103 73.5 176.5t176.5 73.5t176 -73.5t73 -176.5t-73 -176t-176 -73t-176.5 73t-73.5 176zM512 1212q0 -61 44 -105t106 -44t105.5 43.5t43.5 105.5t-44 106t-105 44q-62 0 -106 -44t-44 -106z" />
<glyph unicode="&#xb1;" horiz-adv-x="1511" d="M381 0v113h901v-113h-901zM381 598v113h391v313h119v-313h391v-113h-391v-326h-119v326h-391z" />
<glyph unicode="&#xb2;" horiz-adv-x="684" d="M219 840l410 372q-104 0 -167 67.5t-63 164.5q0 113 80 195.5t205 82.5q109 0 172.5 -69t63.5 -166q0 -129 -111 -232l-360 -323h370l-18 -92h-582zM494 1452q0 -66 41.5 -110t105.5 -44q80 0 132 53.5t52 129.5q0 65 -42.5 107t-106.5 42q-78 0 -130 -52t-52 -126z" />
<glyph unicode="&#xb3;" horiz-adv-x="618" d="M256 961l88 49q21 -42 63.5 -66t98.5 -24q91 0 147 59t56 147q0 79 -50.5 129t-140.5 50h-55l252 315h-312l21 92h471l-270 -338q88 -23 136 -87.5t48 -149.5q0 -129 -82.5 -218.5t-230.5 -89.5q-83 0 -146.5 36.5t-93.5 95.5z" />
<glyph unicode="&#xb4;" horiz-adv-x="475" d="M299 1116l258 338h166l-313 -338h-111z" />
<glyph unicode="&#xb6;" horiz-adv-x="1314" d="M350 965q0 150 74 262t202.5 169.5t293.5 57.5h475l-389 -1831h-117l364 1718h-241l-365 -1718h-117l193 909q-161 22 -266.5 139.5t-106.5 293.5z" />
<glyph unicode="&#xb7;" horiz-adv-x="505" d="M244 530q0 51 35 88t86 37t85.5 -37t34.5 -88q0 -48 -35 -84t-85 -36t-85.5 36t-35.5 84z" />
<glyph unicode="&#xb8;" horiz-adv-x="301" d="M-39 -281l238 281h82l-168 -281h-152z" />
<glyph unicode="&#xb9;" horiz-adv-x="346" d="M301 840l168 794l119 99l-191 -893h-96z" />
<glyph unicode="&#xba;" horiz-adv-x="722" d="M283 1118q0 145 100.5 245.5t249.5 100.5q134 0 213.5 -84t79.5 -204q0 -145 -100.5 -246t-247.5 -101q-134 0 -214.5 84.5t-80.5 204.5zM385 1126q0 -93 58 -147.5t143 -54.5q102 0 169.5 69t67.5 174q0 93 -57.5 148t-140.5 55q-102 0 -171 -69.5t-69 -174.5z" />
<glyph unicode="&#xbb;" horiz-adv-x="983" d="M139 152l336 372l-176 373l107 51l206 -436l-393 -436zM555 152l336 372l-176 373l106 51l207 -436l-393 -436z" />
<glyph unicode="&#xbc;" horiz-adv-x="1509" d="M78 0h127l1308 1454h-127zM283 582l168 794l118 99l-190 -893h-96zM823 236l746 661l-123 -575h110l-18 -86h-111l-49 -236h-98l51 236h-508zM1051 322h299l71 337z" />
<glyph unicode="&#xbd;" horiz-adv-x="1572" d="M78 0h127l1308 1454h-127zM283 582l168 794l118 99l-190 -893h-96zM879 0l409 373q-104 0 -166.5 67t-62.5 164q0 113 79.5 196t204.5 83q109 0 172.5 -69t63.5 -167q0 -128 -111 -231l-360 -324h371l-19 -92h-581zM1153 612q0 -66 41.5 -109.5t105.5 -43.5 q80 0 132.5 53t52.5 129q0 65 -42.5 107.5t-107.5 42.5q-78 0 -130 -52t-52 -127z" />
<glyph unicode="&#xbe;" horiz-adv-x="1703" d="M231 702l88 50q21 -42 63.5 -66t98.5 -24q91 0 147 59t56 147q0 79 -50 129t-140 50h-56l252 315h-311l20 92h471l-270 -338q88 -23 136 -87.5t48 -149.5q0 -129 -82.5 -218.5t-230.5 -89.5q-84 0 -147 36t-93 95zM272 0h127l1309 1454h-127zM1018 236l745 661l-123 -575 h111l-18 -86h-111l-49 -236h-98l51 236h-508zM1245 322h299l72 337z" />
<glyph unicode="&#xbf;" horiz-adv-x="942" d="M53 -18q0 189 134 321.5t350 132.5h170l-23 -112h-154q-159 0 -257.5 -96t-98.5 -238q0 -121 78 -199t194 -78q145 0 240.5 98t93.5 244h119q0 -122 -57.5 -225.5t-164.5 -166t-241 -62.5q-176 0 -279.5 111.5t-103.5 269.5zM633 905q0 56 44 96.5t101 40.5 q46 0 73.5 -30.5t27.5 -73.5q0 -40 -25.5 -73.5t-65.5 -53.5h-110q-21 12 -33 38t-12 56z" />
<glyph unicode="&#xc0;" horiz-adv-x="1427" d="M20 0l1008 1470l379 -1470h-131l-113 444h-694l-301 -444h-148zM551 565h582l-156 625zM827 1870h150l121 -297h-101z" />
<glyph unicode="&#xc1;" horiz-adv-x="1427" d="M20 0l1008 1470l379 -1470h-131l-113 444h-694l-301 -444h-148zM551 565h582l-156 625zM993 1573l236 297h170l-295 -297h-111z" />
<glyph unicode="&#xc2;" horiz-adv-x="1427" d="M20 0l1008 1470l379 -1470h-131l-113 444h-694l-301 -444h-148zM551 565h582l-156 625zM684 1679l418 222l301 -230l-68 -88l-245 189l-355 -189z" />
<glyph unicode="&#xc3;" horiz-adv-x="1427" d="M20 0l1008 1470l379 -1470h-131l-113 444h-694l-301 -444h-148zM551 565h582l-156 625zM719 1620q14 97 79 150t140 53q34 0 76.5 -15t75 -33.5t67.5 -33.5t57 -15q88 0 117 97h107q-9 -92 -73 -147.5t-144 -55.5q-57 0 -155 48t-128 48q-82 0 -113 -96h-106z" />
<glyph unicode="&#xc4;" horiz-adv-x="1427" d="M20 0l1008 1470l379 -1470h-131l-113 444h-694l-301 -444h-148zM551 565h582l-156 625zM750 1726q0 44 31 75.5t75 31.5t75.5 -31.5t31.5 -75.5t-31.5 -75t-75.5 -31t-75 31t-31 75zM1200 1726q0 44 31.5 75.5t75.5 31.5t75 -31.5t31 -75.5t-31 -75t-75 -31t-75.5 31 t-31.5 75z" />
<glyph unicode="&#xc5;" horiz-adv-x="1427" d="M20 0l1008 1470l379 -1470h-131l-113 444h-694l-301 -444h-148zM551 565h582l-156 625zM895 1712q0 75 53.5 124.5t128.5 49.5q78 0 132.5 -49.5t54.5 -124.5q0 -74 -54 -124t-133 -50q-76 0 -129 50t-53 124zM977 1712q0 -43 29.5 -70.5t70.5 -27.5q44 0 73.5 27.5 t29.5 70.5q0 44 -30 72t-73 28q-41 0 -70.5 -28.5t-29.5 -71.5z" />
<glyph unicode="&#xc6;" horiz-adv-x="2091" d="M20 0l920 1341l-29 113h785l33 -127h-664l133 -520h565l33 -123h-565l143 -557h664l33 -127h-795l-113 444h-694l-301 -444h-148zM551 565h582l-156 625z" />
<glyph unicode="&#xc7;" horiz-adv-x="1429" d="M238 666q0 124 35.5 241.5t107 219.5t170 178.5t233.5 120.5t289 44q310 0 498 -208l-94 -86q-158 174 -414 174q-153 0 -284.5 -55.5t-220 -148t-139 -215t-50.5 -255.5q0 -113 37 -215.5t105 -182.5t175 -127t238 -47q222 0 397 119l70 -102q-172 -123 -422 -135 l-135 -267h-170l196 267q-146 10 -265.5 69.5t-196.5 153t-118.5 211t-41.5 246.5z" />
<glyph unicode="&#xc8;" horiz-adv-x="1146" d="M209 0l309 1454h825l-26 -121h-699l-110 -522h575l-26 -123h-576l-119 -567h699l-27 -121h-825zM776 1870h150l121 -297h-101z" />
<glyph unicode="&#xc9;" horiz-adv-x="1146" d="M209 0l309 1454h825l-26 -121h-699l-110 -522h575l-26 -123h-576l-119 -567h699l-27 -121h-825zM821 1573l236 297h170l-295 -297h-111z" />
<glyph unicode="&#xca;" horiz-adv-x="1146" d="M209 0l309 1454h825l-26 -121h-699l-110 -522h575l-26 -123h-576l-119 -567h699l-27 -121h-825zM592 1679l418 222l301 -230l-68 -88l-246 189l-354 -189z" />
<glyph unicode="&#xcb;" horiz-adv-x="1146" d="M209 0l309 1454h825l-26 -121h-699l-110 -522h575l-26 -123h-576l-119 -567h699l-27 -121h-825zM657 1726q0 44 31.5 75.5t75.5 31.5t75 -31.5t31 -75.5t-31 -75t-75 -31t-75.5 31t-31.5 75zM1108 1726q0 44 31 75.5t75 31.5t75.5 -31.5t31.5 -75.5t-31.5 -75t-75.5 -31 t-75 31t-31 75z" />
<glyph unicode="&#xcc;" horiz-adv-x="544" d="M209 0l309 1454h127l-309 -1454h-127zM426 1870h149l121 -297h-100z" />
<glyph unicode="&#xcd;" horiz-adv-x="544" d="M209 0l309 1454h127l-309 -1454h-127zM471 1573l236 297h170l-295 -297h-111z" />
<glyph unicode="&#xce;" horiz-adv-x="544" d="M209 0l309 1454h127l-309 -1454h-127zM260 1679l418 222l301 -230l-68 -88l-245 189l-355 -189z" />
<glyph unicode="&#xcf;" horiz-adv-x="544" d="M209 0l309 1454h127l-309 -1454h-127zM307 1726q0 44 31.5 75.5t75.5 31.5t75 -31.5t31 -75.5t-31 -75t-75 -31t-75.5 31t-31.5 75zM758 1726q0 44 31 75.5t75 31.5t75.5 -31.5t31.5 -75.5t-31.5 -75t-75.5 -31t-75 31t-31 75z" />
<glyph unicode="&#xd0;" horiz-adv-x="1507" d="M145 700l25 119h213l135 635h397q156 0 283 -46.5t211.5 -127.5t130 -191.5t45.5 -238.5q0 -174 -70.5 -330.5t-194 -271t-301 -181.5t-382.5 -67h-428l147 700h-211zM362 121h279q181 0 335 59.5t257 159.5t161 230.5t58 271.5q0 216 -143 353.5t-389 137.5h-302 l-108 -514h287l-25 -119h-287z" />
<glyph unicode="&#xd1;" horiz-adv-x="1609" d="M209 0l313 1470l809 -1189l250 1173h127l-313 -1470l-809 1190l-250 -1174h-127zM811 1620q14 97 79 150t140 53q44 0 99 -24t103.5 -48.5t74.5 -24.5q87 0 116 97h107q-9 -92 -73 -147.5t-144 -55.5q-57 0 -155 48t-128 48q-81 0 -112 -96h-107z" />
<glyph unicode="&#xd2;" horiz-adv-x="1685" d="M238 666q0 124 35.5 241.5t107 219.5t170 178.5t233.5 120.5t289 44q127 0 237 -37t190 -101.5t137 -150.5t85.5 -186t28.5 -207q0 -124 -36 -241.5t-107.5 -219.5t-170.5 -178.5t-233.5 -120.5t-288.5 -44q-158 0 -288 56.5t-214 152t-129.5 217.5t-45.5 256zM369 676 q0 -115 37 -217.5t105 -182t175 -126t238 -46.5q153 0 285 55.5t220.5 148t138.5 215t50 255.5q0 115 -36.5 217.5t-104.5 182t-175 126t-239 46.5q-153 0 -284.5 -55.5t-220 -148t-139 -215t-50.5 -255.5zM993 1870h150l121 -297h-101z" />
<glyph unicode="&#xd3;" horiz-adv-x="1685" d="M238 666q0 124 35.5 241.5t107 219.5t170 178.5t233.5 120.5t289 44q127 0 237 -37t190 -101.5t137 -150.5t85.5 -186t28.5 -207q0 -124 -36 -241.5t-107.5 -219.5t-170.5 -178.5t-233.5 -120.5t-288.5 -44q-158 0 -288 56.5t-214 152t-129.5 217.5t-45.5 256zM369 676 q0 -115 37 -217.5t105 -182t175 -126t238 -46.5q153 0 285 55.5t220.5 148t138.5 215t50 255.5q0 115 -36.5 217.5t-104.5 182t-175 126t-239 46.5q-153 0 -284.5 -55.5t-220 -148t-139 -215t-50.5 -255.5zM1036 1573l236 297h170l-295 -297h-111z" />
<glyph unicode="&#xd4;" horiz-adv-x="1685" d="M238 666q0 124 35.5 241.5t107 219.5t170 178.5t233.5 120.5t289 44q127 0 237 -37t190 -101.5t137 -150.5t85.5 -186t28.5 -207q0 -124 -36 -241.5t-107.5 -219.5t-170.5 -178.5t-233.5 -120.5t-288.5 -44q-158 0 -288 56.5t-214 152t-129.5 217.5t-45.5 256zM369 676 q0 -115 37 -217.5t105 -182t175 -126t238 -46.5q153 0 285 55.5t220.5 148t138.5 215t50 255.5q0 115 -36.5 217.5t-104.5 182t-175 126t-239 46.5q-153 0 -284.5 -55.5t-220 -148t-139 -215t-50.5 -255.5zM809 1679l418 222l301 -230l-68 -88l-246 189l-354 -189z" />
<glyph unicode="&#xd5;" horiz-adv-x="1685" d="M238 666q0 124 35.5 241.5t107 219.5t170 178.5t233.5 120.5t289 44q127 0 237 -37t190 -101.5t137 -150.5t85.5 -186t28.5 -207q0 -124 -36 -241.5t-107.5 -219.5t-170.5 -178.5t-233.5 -120.5t-288.5 -44q-158 0 -288 56.5t-214 152t-129.5 217.5t-45.5 256zM369 676 q0 -115 37 -217.5t105 -182t175 -126t238 -46.5q153 0 285 55.5t220.5 148t138.5 215t50 255.5q0 115 -36.5 217.5t-104.5 182t-175 126t-239 46.5q-153 0 -284.5 -55.5t-220 -148t-139 -215t-50.5 -255.5zM846 1620q14 97 79 150t140 53q55 0 151 -48.5t125 -48.5 q88 0 117 97h107q-9 -92 -73 -147.5t-144 -55.5q-44 0 -100.5 24t-106 48t-76.5 24q-82 0 -113 -96h-106z" />
<glyph unicode="&#xd6;" horiz-adv-x="1685" d="M238 666q0 124 35.5 241.5t107 219.5t170 178.5t233.5 120.5t289 44q127 0 237 -37t190 -101.5t137 -150.5t85.5 -186t28.5 -207q0 -124 -36 -241.5t-107.5 -219.5t-170.5 -178.5t-233.5 -120.5t-288.5 -44q-158 0 -288 56.5t-214 152t-129.5 217.5t-45.5 256zM369 676 q0 -115 37 -217.5t105 -182t175 -126t238 -46.5q153 0 285 55.5t220.5 148t138.5 215t50 255.5q0 115 -36.5 217.5t-104.5 182t-175 126t-239 46.5q-153 0 -284.5 -55.5t-220 -148t-139 -215t-50.5 -255.5zM874 1726q0 44 31.5 75.5t75.5 31.5t75 -31.5t31 -75.5t-31 -75 t-75 -31t-75.5 31t-31.5 75zM1325 1726q0 44 31.5 75.5t75.5 31.5t75 -31.5t31 -75.5t-31 -75t-75 -31t-75.5 31t-31.5 75z" />
<glyph unicode="&#xd7;" horiz-adv-x="1337" d="M410 254l299 299l-299 299l75 76l299 -299l299 299l76 -76l-299 -299l301 -299l-78 -78l-299 299l-299 -299z" />
<glyph unicode="&#xd8;" horiz-adv-x="1685" d="M238 666q0 124 35.5 241.5t107 219.5t170 178.5t233.5 120.5t289 44q223 0 385 -108l115 133l78 -70l-111 -129q102 -96 156.5 -229t54.5 -279q0 -124 -36 -241.5t-107.5 -219.5t-170.5 -178.5t-233.5 -120.5t-288.5 -44q-231 0 -393 112l-104 -125l-78 70l102 121 q-100 94 -152 225.5t-52 278.5zM369 676q0 -122 40 -230t117 -186l850 1004q-136 86 -313 86q-153 0 -284.5 -55.5t-220 -148t-139 -215t-50.5 -255.5zM606 195q134 -91 318 -91q153 0 285 55.5t220.5 148t138.5 215t50 255.5q0 123 -41.5 232t-120.5 188z" />
<glyph unicode="&#xd9;" horiz-adv-x="1490" d="M291 406q0 63 16 141l193 907h127l-195 -911q-14 -63 -14 -121q0 -155 96.5 -236.5t265.5 -81.5q198 0 330.5 112t179.5 329l193 909h127l-193 -907q-119 -563 -641 -563q-222 0 -353.5 111.5t-131.5 310.5zM899 1870h150l120 -297h-100z" />
<glyph unicode="&#xda;" horiz-adv-x="1490" d="M291 406q0 63 16 141l193 907h127l-195 -911q-14 -63 -14 -121q0 -155 96.5 -236.5t265.5 -81.5q198 0 330.5 112t179.5 329l193 909h127l-193 -907q-119 -563 -641 -563q-222 0 -353.5 111.5t-131.5 310.5zM942 1573l236 297h170l-295 -297h-111z" />
<glyph unicode="&#xdb;" horiz-adv-x="1490" d="M291 406q0 63 16 141l193 907h127l-195 -911q-14 -63 -14 -121q0 -155 96.5 -236.5t265.5 -81.5q198 0 330.5 112t179.5 329l193 909h127l-193 -907q-119 -563 -641 -563q-222 0 -353.5 111.5t-131.5 310.5zM717 1679l418 222l301 -230l-68 -88l-246 189l-354 -189z" />
<glyph unicode="&#xdc;" horiz-adv-x="1490" d="M291 406q0 63 16 141l193 907h127l-195 -911q-14 -63 -14 -121q0 -155 96.5 -236.5t265.5 -81.5q198 0 330.5 112t179.5 329l193 909h127l-193 -907q-119 -563 -641 -563q-222 0 -353.5 111.5t-131.5 310.5zM782 1726q0 44 31.5 75.5t75.5 31.5t75 -31.5t31 -75.5 t-31 -75t-75 -31t-75.5 31t-31.5 75zM1233 1726q0 44 31 75.5t75 31.5t75.5 -31.5t31.5 -75.5t-31.5 -75t-75.5 -31t-75 31t-31 75z" />
<glyph unicode="&#xdd;" horiz-adv-x="1273" d="M350 1454h135l297 -715l600 715h160l-711 -838l-131 -616h-127l132 616zM823 1573l236 297h170l-295 -297h-111z" />
<glyph unicode="&#xde;" horiz-adv-x="1146" d="M209 0l309 1454h127l-63 -293h274q197 0 301.5 -103.5t104.5 -264.5q0 -214 -148 -347t-420 -133h-288l-70 -313h-127zM428 430h283q189 0 305.5 100.5t116.5 255.5q0 125 -74 193t-225 68h-275z" />
<glyph unicode="&#xdf;" horiz-adv-x="1069" d="M170 0l252 1184q31 148 105.5 209t232.5 61h55l-24 -113h-54q-92 0 -136 -37t-62 -124l-33 -156h643l-442 -537q157 -17 247 -122t90 -246q0 -100 -44 -190.5t-120 -158t-186.5 -107.5t-236.5 -40h-64l23 109h65q113 0 215.5 52.5t165 142.5t62.5 192q0 123 -78.5 196.5 t-216.5 73.5h-133l430 522h-445l-194 -911h-117z" />
<glyph unicode="&#xe0;" d="M207 451q0 115 44 222t121 188.5t188.5 130t238.5 48.5q116 0 208 -40t152 -111l29 135h119l-217 -1024h-113l22 104q-146 -120 -346 -120q-105 0 -190.5 37.5t-140.5 102t-85 149t-30 178.5zM330 457q0 -159 93 -261t253 -102q98 0 191 44t159 122l104 492 q-49 83 -139.5 130.5t-195.5 47.5q-196 0 -330.5 -138t-134.5 -335zM651 1454h166l111 -338h-88z" />
<glyph unicode="&#xe1;" d="M207 451q0 115 44 222t121 188.5t188.5 130t238.5 48.5q116 0 208 -40t152 -111l29 135h119l-217 -1024h-113l22 104q-146 -120 -346 -120q-105 0 -190.5 37.5t-140.5 102t-85 149t-30 178.5zM330 457q0 -159 93 -261t253 -102q98 0 191 44t159 122l104 492 q-49 83 -139.5 130.5t-195.5 47.5q-196 0 -330.5 -138t-134.5 -335zM776 1116l258 338h166l-313 -338h-111z" />
<glyph unicode="&#xe2;" d="M207 451q0 115 44 222t121 188.5t188.5 130t238.5 48.5q116 0 208 -40t152 -111l29 135h119l-217 -1024h-113l22 104q-146 -120 -346 -120q-105 0 -190.5 37.5t-140.5 102t-85 149t-30 178.5zM330 457q0 -159 93 -261t253 -102q98 0 191 44t159 122l104 492 q-49 83 -139.5 130.5t-195.5 47.5q-196 0 -330.5 -138t-134.5 -335zM520 1245l400 225l278 -239l-68 -78l-223 193l-336 -193z" />
<glyph unicode="&#xe3;" d="M207 451q0 115 44 222t121 188.5t188.5 130t238.5 48.5q116 0 208 -40t152 -111l29 135h119l-217 -1024h-113l22 104q-146 -120 -346 -120q-105 0 -190.5 37.5t-140.5 102t-85 149t-30 178.5zM330 457q0 -159 93 -261t253 -102q98 0 191 44t159 122l104 492 q-49 83 -139.5 130.5t-195.5 47.5q-196 0 -330.5 -138t-134.5 -335zM532 1171q14 97 79.5 150t140.5 53q43 0 98.5 -24t103.5 -48t74 -24q89 0 117 96h106q-9 -92 -73 -147.5t-144 -55.5q-56 0 -154 48.5t-128 48.5q-81 0 -113 -97h-107z" />
<glyph unicode="&#xe4;" d="M207 451q0 115 44 222t121 188.5t188.5 130t238.5 48.5q116 0 208 -40t152 -111l29 135h119l-217 -1024h-113l22 104q-146 -120 -346 -120q-105 0 -190.5 37.5t-140.5 102t-85 149t-30 178.5zM330 457q0 -159 93 -261t253 -102q98 0 191 44t159 122l104 492 q-49 83 -139.5 130.5t-195.5 47.5q-196 0 -330.5 -138t-134.5 -335zM567 1294q0 44 31.5 75.5t75.5 31.5t75 -31.5t31 -75.5t-31 -75t-75 -31t-75.5 31t-31.5 75zM1018 1294q0 44 31 75.5t75 31.5t75.5 -31.5t31.5 -75.5t-31.5 -75t-75.5 -31t-75 31t-31 75z" />
<glyph unicode="&#xe5;" d="M207 451q0 115 44 222t121 188.5t188.5 130t238.5 48.5q116 0 208 -40t152 -111l29 135h119l-217 -1024h-113l22 104q-146 -120 -346 -120q-105 0 -190.5 37.5t-140.5 102t-85 149t-30 178.5zM330 457q0 -159 93 -261t253 -102q98 0 191 44t159 122l104 492 q-49 83 -139.5 130.5t-195.5 47.5q-196 0 -330.5 -138t-134.5 -335zM723 1360q0 77 55 131.5t133 54.5q77 0 133 -55t56 -131t-56 -131t-133 -55q-78 0 -133 54.5t-55 131.5zM801 1360q0 -46 32.5 -78.5t77.5 -32.5q44 0 76.5 32.5t32.5 78.5q0 44 -32.5 77t-76.5 33 t-77 -33t-33 -77z" />
<glyph unicode="&#xe6;" horiz-adv-x="1945" d="M158 268q0 77 34.5 148t96.5 126t157.5 87.5t210.5 32.5q184 0 328 -95q27 138 27 164q0 201 -256 201q-190 0 -346 -125l-62 88q203 145 406 145q83 0 153.5 -20.5t124.5 -67.5t74 -116q78 96 192.5 150t249.5 54q194 0 311 -117.5t117 -304.5q0 -56 -10 -108h-876v-37 q0 -175 107 -277t263 -102q178 0 312 121l77 -82q-168 -149 -397 -149q-148 0 -253.5 64t-162.5 173q-231 -237 -532 -237q-168 0 -257 79.5t-89 204.5zM281 274q0 -86 65.5 -134t169.5 -48q128 0 234 54t176 143l32 160q-115 106 -321 106q-91 0 -172.5 -35t-132.5 -100.5 t-51 -145.5zM1108 614h745q2 14 2 31q0 130 -89 207.5t-228 77.5q-155 0 -272 -85.5t-158 -230.5z" />
<glyph unicode="&#xe7;" horiz-adv-x="1056" d="M211 465q0 158 75 289.5t208.5 208.5t296.5 77q127 0 231 -51t166 -147l-98 -68q-49 74 -131 115t-179 41q-191 0 -319.5 -130.5t-128.5 -326.5q0 -117 52 -204.5t135 -131t183 -43.5q179 0 306 121l77 -84q-157 -141 -372 -147l-158 -265h-152l228 269 q-132 14 -228.5 83.5t-144 171.5t-47.5 222z" />
<glyph unicode="&#xe8;" horiz-adv-x="1187" d="M211 465q0 158 75 289.5t208.5 208.5t296.5 77q194 0 311 -117.5t117 -304.5q0 -51 -11 -108h-876v-37q0 -175 107 -277t263 -102q178 0 312 121l78 -82q-168 -149 -398 -149q-113 0 -206 39.5t-152.5 106.5t-92 153.5t-32.5 181.5zM350 614h746q2 14 2 31 q0 130 -89.5 207.5t-228.5 77.5q-155 0 -272 -85.5t-158 -230.5zM621 1454h165l111 -338h-88z" />
<glyph unicode="&#xe9;" horiz-adv-x="1187" d="M211 465q0 158 75 289.5t208.5 208.5t296.5 77q194 0 311 -117.5t117 -304.5q0 -51 -11 -108h-876v-37q0 -175 107 -277t263 -102q178 0 312 121l78 -82q-168 -149 -398 -149q-113 0 -206 39.5t-152.5 106.5t-92 153.5t-32.5 181.5zM350 614h746q2 14 2 31 q0 130 -89.5 207.5t-228.5 77.5q-155 0 -272 -85.5t-158 -230.5zM672 1116l258 338h166l-314 -338h-110z" />
<glyph unicode="&#xea;" horiz-adv-x="1187" d="M211 465q0 158 75 289.5t208.5 208.5t296.5 77q194 0 311 -117.5t117 -304.5q0 -51 -11 -108h-876v-37q0 -175 107 -277t263 -102q178 0 312 121l78 -82q-168 -149 -398 -149q-113 0 -206 39.5t-152.5 106.5t-92 153.5t-32.5 181.5zM350 614h746q2 14 2 31 q0 130 -89.5 207.5t-228.5 77.5q-155 0 -272 -85.5t-158 -230.5zM469 1245l399 225l279 -239l-68 -78l-223 193l-336 -193z" />
<glyph unicode="&#xeb;" horiz-adv-x="1187" d="M211 465q0 158 75 289.5t208.5 208.5t296.5 77q194 0 311 -117.5t117 -304.5q0 -51 -11 -108h-876v-37q0 -175 107 -277t263 -102q178 0 312 121l78 -82q-168 -149 -398 -149q-113 0 -206 39.5t-152.5 106.5t-92 153.5t-32.5 181.5zM350 614h746q2 14 2 31 q0 130 -89.5 207.5t-228.5 77.5q-155 0 -272 -85.5t-158 -230.5zM514 1294q0 44 31.5 75.5t75.5 31.5t75 -31.5t31 -75.5t-31 -75t-75 -31t-75.5 31t-31.5 75zM965 1294q0 44 31 75.5t75 31.5t75.5 -31.5t31.5 -75.5t-31.5 -75t-75.5 -31t-75 31t-31 75z" />
<glyph unicode="&#xec;" horiz-adv-x="497" d="M188 0l218 1024h120l-217 -1024h-121zM301 1454h166l111 -338h-89z" />
<glyph unicode="&#xed;" horiz-adv-x="497" d="M188 0l218 1024h120l-217 -1024h-121zM344 1116l258 338h166l-313 -338h-111z" />
<glyph unicode="&#xee;" horiz-adv-x="497" d="M168 1245l399 225l279 -239l-68 -78l-223 193l-336 -193zM188 0l218 1024h120l-217 -1024h-121z" />
<glyph unicode="&#xef;" horiz-adv-x="497" d="M188 0l218 1024h120l-217 -1024h-121zM193 1294q0 44 31 75.5t75 31.5t75.5 -31.5t31.5 -75.5t-31.5 -75t-75.5 -31t-75 31t-31 75zM643 1294q0 44 31.5 75.5t75.5 31.5t75 -31.5t31 -75.5t-31 -75t-75 -31t-75.5 31t-31.5 75z" />
<glyph unicode="&#xf0;" d="M209 465q0 158 75 289.5t208.5 208.5t295.5 77q60 0 121 -15.5t92 -37.5l-90 184h-264l27 113h182l-82 170h131l80 -170h279l-27 -113h-197l146 -305q53 -106 72.5 -168.5t19.5 -138.5q0 -158 -75.5 -289.5t-209 -208.5t-295.5 -77q-150 0 -263.5 68.5t-169.5 176.5 t-56 236zM330 473q0 -171 110 -275t267 -104q191 0 320.5 131t129.5 326q0 171 -110 275t-267 104q-191 0 -320.5 -131t-129.5 -326z" />
<glyph unicode="&#xf1;" horiz-adv-x="1228" d="M188 0l218 1024h112l-22 -104q142 120 342 120q161 0 259.5 -95.5t98.5 -256.5q0 -48 -12 -110l-123 -578h-117l121 567q12 53 12 97q0 126 -75 196t-203 70q-93 0 -180 -44t-152 -120l-162 -766h-117zM535 1171q14 97 79 150t140 53q43 0 98.5 -24t103.5 -48t74 -24 q89 0 117 96h106q-9 -92 -73 -147.5t-144 -55.5q-56 0 -154 48.5t-128 48.5q-81 0 -113 -97h-106z" />
<glyph unicode="&#xf2;" horiz-adv-x="1280" d="M211 465q0 158 75.5 289.5t209 208.5t295.5 77q150 0 263.5 -68.5t169.5 -176.5t56 -236q0 -158 -75.5 -289.5t-209 -208.5t-295.5 -77q-150 0 -263.5 68.5t-169.5 176.5t-56 236zM332 473q0 -172 110.5 -275.5t266.5 -103.5q190 0 320 131t130 326q0 172 -110.5 275.5 t-266.5 103.5q-191 0 -320.5 -130.5t-129.5 -326.5zM623 1454h165l111 -338h-88z" />
<glyph unicode="&#xf3;" horiz-adv-x="1280" d="M211 465q0 158 75.5 289.5t209 208.5t295.5 77q150 0 263.5 -68.5t169.5 -176.5t56 -236q0 -158 -75.5 -289.5t-209 -208.5t-295.5 -77q-150 0 -263.5 68.5t-169.5 176.5t-56 236zM332 473q0 -172 110.5 -275.5t266.5 -103.5q190 0 320 131t130 326q0 172 -110.5 275.5 t-266.5 103.5q-191 0 -320.5 -130.5t-129.5 -326.5zM731 1116l258 338h166l-313 -338h-111z" />
<glyph unicode="&#xf4;" horiz-adv-x="1280" d="M211 465q0 158 75.5 289.5t209 208.5t295.5 77q150 0 263.5 -68.5t169.5 -176.5t56 -236q0 -158 -75.5 -289.5t-209 -208.5t-295.5 -77q-150 0 -263.5 68.5t-169.5 176.5t-56 236zM332 473q0 -172 110.5 -275.5t266.5 -103.5q190 0 320 131t130 326q0 172 -110.5 275.5 t-266.5 103.5q-191 0 -320.5 -130.5t-129.5 -326.5zM535 1245l399 225l278 -239l-67 -78l-223 193l-336 -193z" />
<glyph unicode="&#xf5;" horiz-adv-x="1280" d="M211 465q0 158 75.5 289.5t209 208.5t295.5 77q150 0 263.5 -68.5t169.5 -176.5t56 -236q0 -158 -75.5 -289.5t-209 -208.5t-295.5 -77q-150 0 -263.5 68.5t-169.5 176.5t-56 236zM332 473q0 -172 110.5 -275.5t266.5 -103.5q190 0 320 131t130 326q0 172 -110.5 275.5 t-266.5 103.5q-191 0 -320.5 -130.5t-129.5 -326.5zM481 1171q14 97 79 150t140 53q56 0 152 -48t125 -48q89 0 117 96h106q-9 -92 -73 -147.5t-144 -55.5q-57 0 -155 48.5t-128 48.5q-80 0 -112 -97h-107z" />
<glyph unicode="&#xf6;" horiz-adv-x="1280" d="M211 465q0 158 75.5 289.5t209 208.5t295.5 77q150 0 263.5 -68.5t169.5 -176.5t56 -236q0 -158 -75.5 -289.5t-209 -208.5t-295.5 -77q-150 0 -263.5 68.5t-169.5 176.5t-56 236zM332 473q0 -172 110.5 -275.5t266.5 -103.5q190 0 320 131t130 326q0 172 -110.5 275.5 t-266.5 103.5q-191 0 -320.5 -130.5t-129.5 -326.5zM580 1294q0 44 31 75.5t75 31.5t75.5 -31.5t31.5 -75.5t-31.5 -75t-75.5 -31t-75 31t-31 75zM1030 1294q0 44 31.5 75.5t75.5 31.5t75 -31.5t31 -75.5t-31 -75t-75 -31t-75.5 31t-31.5 75z" />
<glyph unicode="&#xf7;" horiz-adv-x="1384" d="M358 498v112h902v-112h-902zM688 268q0 51 36 87t87 36q50 0 85.5 -36t35.5 -87t-35.5 -87t-85.5 -36q-51 0 -87 36t-36 87zM688 840q0 51 36 87t87 36q50 0 85.5 -36t35.5 -87t-35.5 -87t-85.5 -36q-51 0 -87 36t-36 87z" />
<glyph unicode="&#xf8;" horiz-adv-x="1280" d="M211 465q0 158 75.5 289.5t209 208.5t295.5 77q177 0 301 -94l100 103l76 -72l-101 -103q113 -134 113 -315q0 -158 -75.5 -289.5t-209 -208.5t-295.5 -77q-179 0 -303 94l-100 -105l-78 74l100 105q-108 129 -108 313zM332 473q0 -137 74 -233l602 620q-98 70 -226 70 q-191 0 -320.5 -130.5t-129.5 -326.5zM481 164q98 -70 228 -70q190 0 320 131t130 326q0 136 -76 235z" />
<glyph unicode="&#xf9;" horiz-adv-x="1179" d="M207 317q0 44 14 119l125 588h117l-123 -584q-12 -56 -12 -102q0 -118 70 -181t198 -63q95 0 182 43.5t150 118.5l164 768h116l-217 -1024h-112l20 104q-67 -58 -155 -89t-183 -31q-163 0 -258.5 88.5t-95.5 244.5zM612 1454h166l111 -338h-88z" />
<glyph unicode="&#xfa;" horiz-adv-x="1179" d="M207 317q0 44 14 119l125 588h117l-123 -584q-12 -56 -12 -102q0 -118 70 -181t198 -63q95 0 182 43.5t150 118.5l164 768h116l-217 -1024h-112l20 104q-67 -58 -155 -89t-183 -31q-163 0 -258.5 88.5t-95.5 244.5zM655 1116l258 338h166l-313 -338h-111z" />
<glyph unicode="&#xfb;" horiz-adv-x="1179" d="M207 317q0 44 14 119l125 588h117l-123 -584q-12 -56 -12 -102q0 -118 70 -181t198 -63q95 0 182 43.5t150 118.5l164 768h116l-217 -1024h-112l20 104q-67 -58 -155 -89t-183 -31q-163 0 -258.5 88.5t-95.5 244.5zM459 1245l399 225l279 -239l-68 -78l-223 193 l-336 -193z" />
<glyph unicode="&#xfc;" horiz-adv-x="1179" d="M207 317q0 44 14 119l125 588h117l-123 -584q-12 -56 -12 -102q0 -118 70 -181t198 -63q95 0 182 43.5t150 118.5l164 768h116l-217 -1024h-112l20 104q-67 -58 -155 -89t-183 -31q-163 0 -258.5 88.5t-95.5 244.5zM502 1294q0 44 31 75.5t75 31.5t75.5 -31.5t31.5 -75.5 t-31.5 -75t-75.5 -31t-75 31t-31 75zM952 1294q0 44 31.5 75.5t75.5 31.5t75 -31.5t31 -75.5t-31 -75t-75 -31t-75.5 31t-31.5 75z" />
<glyph unicode="&#xfd;" horiz-adv-x="1060" d="M193 -377l282 420l-237 981h120l203 -854l572 854h135l-942 -1401h-133zM618 1116l259 338h165l-313 -338h-111z" />
<glyph unicode="&#xfe;" horiz-adv-x="1284" d="M109 -377l389 1831h112l-114 -534q146 120 346 120q140 0 243 -65.5t153 -170t50 -231.5q0 -115 -44 -222t-121 -188.5t-188.5 -130t-238.5 -48.5q-234 0 -362 151l-109 -512h-116zM362 274q46 -84 138.5 -132t199.5 -48q197 0 332 138t135 335q0 159 -93.5 261 t-254.5 102q-99 0 -192.5 -45t-159.5 -123z" />
<glyph unicode="&#xff;" horiz-adv-x="1060" d="M193 -377l282 420l-237 981h120l203 -854l572 854h135l-942 -1401h-133zM471 1294q0 44 31.5 75.5t75.5 31.5t75 -31.5t31 -75.5t-31 -75t-75 -31t-75.5 31t-31.5 75zM922 1294q0 44 31 75.5t75 31.5t75.5 -31.5t31.5 -75.5t-31.5 -75t-75.5 -31t-75 31t-31 75z" />
<glyph unicode="&#x152;" horiz-adv-x="2336" d="M238 666q0 124 35.5 241.5t107 219.5t170 178.5t233.5 120.5t289 44q166 0 299 -61.5t223 -169.5l43 215h818l-27 -121h-688l-53 -248q57 -122 63 -274h444l-26 -123h-424q-17 -139 -80.5 -265t-165.5 -222l-16 -80h690l-27 -121h-815l19 92q-187 -108 -435 -108 q-158 0 -288 56.5t-214 152t-129.5 217.5t-45.5 256zM369 676q0 -115 37 -217.5t105 -182t175 -126t238 -46.5q153 0 285 55.5t220.5 148t138.5 215t50 255.5q0 115 -36.5 217.5t-104.5 182t-175 126t-239 46.5q-153 0 -284.5 -55.5t-220 -148t-139 -215t-50.5 -255.5z" />
<glyph unicode="&#x153;" horiz-adv-x="2134" d="M211 465q0 158 75.5 289.5t209 208.5t295.5 77q161 0 276 -75t170 -201q77 127 208.5 201.5t291.5 74.5q194 0 311 -117.5t117 -304.5q0 -51 -11 -108h-876v-37q0 -175 107.5 -277t263.5 -102q177 0 311 121l78 -82q-168 -149 -398 -149q-161 0 -275 75t-167 201 q-77 -127 -207.5 -201.5t-290.5 -74.5q-150 0 -263.5 68.5t-169.5 176.5t-56 236zM332 473q0 -172 110.5 -275.5t266.5 -103.5q190 0 320 131t130 326q0 172 -110.5 275.5t-266.5 103.5q-191 0 -320.5 -130.5t-129.5 -326.5zM1296 614h746q2 14 2 31q0 130 -89.5 207.5 t-228.5 77.5q-155 0 -272 -85.5t-158 -230.5z" />
<glyph unicode="&#x178;" horiz-adv-x="1273" d="M350 1454h135l297 -715l600 715h160l-711 -838l-131 -616h-127l132 616zM659 1726q0 44 31.5 75.5t75.5 31.5t75 -31.5t31 -75.5t-31 -75t-75 -31t-75.5 31t-31.5 75zM1110 1726q0 44 31.5 75.5t75.5 31.5t75 -31.5t31 -75.5t-31 -75t-75 -31t-75.5 31t-31.5 75z" />
<glyph unicode="&#x2c6;" horiz-adv-x="761" d="M305 1245l400 225l278 -239l-68 -78l-223 193l-336 -193z" />
<glyph unicode="&#x2dc;" horiz-adv-x="841" d="M332 1171q14 97 79 150t140 53q55 0 151 -48t125 -48q89 0 117 96h107q-9 -92 -73 -147.5t-144 -55.5q-44 0 -100.5 24t-106 48.5t-76.5 24.5q-81 0 -113 -97h-106z" />
<glyph unicode="&#x2000;" horiz-adv-x="950" />
<glyph unicode="&#x2001;" horiz-adv-x="1901" />
<glyph unicode="&#x2002;" horiz-adv-x="950" />
<glyph unicode="&#x2003;" horiz-adv-x="1901" />
<glyph unicode="&#x2004;" horiz-adv-x="633" />
<glyph unicode="&#x2005;" horiz-adv-x="475" />
<glyph unicode="&#x2006;" horiz-adv-x="316" />
<glyph unicode="&#x2007;" horiz-adv-x="316" />
<glyph unicode="&#x2008;" horiz-adv-x="237" />
<glyph unicode="&#x2009;" horiz-adv-x="380" />
<glyph unicode="&#x200a;" horiz-adv-x="105" />
<glyph unicode="&#x2010;" horiz-adv-x="673" d="M209 487l29 134h464l-28 -134h-465z" />
<glyph unicode="&#x2011;" horiz-adv-x="673" d="M209 487l29 134h464l-28 -134h-465z" />
<glyph unicode="&#x2012;" horiz-adv-x="673" d="M209 487l29 134h464l-28 -134h-465z" />
<glyph unicode="&#x2013;" horiz-adv-x="1052" d="M211 498l25 112h843l-24 -112h-844z" />
<glyph unicode="&#x2014;" horiz-adv-x="1658" d="M211 498l25 112h1450l-25 -112h-1450z" />
<glyph unicode="&#x2018;" horiz-adv-x="518" d="M362 961l46 213l172 280h90l-152 -283h86l-45 -210h-197z" />
<glyph unicode="&#x2019;" horiz-adv-x="518" d="M362 961l152 282h-86l45 211h197l-45 -213l-172 -280h-91z" />
<glyph unicode="&#x201a;" horiz-adv-x="518" d="M98 -283l152 283h-86l45 211h197l-46 -213l-172 -281h-90z" />
<glyph unicode="&#x201c;" horiz-adv-x="915" d="M362 961l46 213l172 280h90l-152 -283h86l-45 -210h-197zM760 961l45 213l172 280h90l-152 -283h86l-45 -210h-196z" />
<glyph unicode="&#x201d;" horiz-adv-x="915" d="M362 961l152 282h-86l45 211h197l-45 -213l-172 -280h-91zM760 961l151 282h-86l45 211h197l-45 -213l-172 -280h-90z" />
<glyph unicode="&#x201e;" horiz-adv-x="915" d="M98 -283l152 283h-86l45 211h197l-46 -213l-172 -281h-90zM496 -283l151 283h-86l45 211h197l-45 -213l-172 -281h-90z" />
<glyph unicode="&#x2022;" horiz-adv-x="835" d="M270 618q0 116 82 197.5t197 81.5t196.5 -81.5t81.5 -197.5t-81.5 -197t-196.5 -81q-116 0 -197.5 81.5t-81.5 196.5z" />
<glyph unicode="&#x2026;" horiz-adv-x="1247" d="M111 106q0 51 34.5 88t85.5 37t86 -37t35 -88q0 -48 -35.5 -84t-85.5 -36t-85 36t-35 84zM524 106q0 51 35 88t86 37t86 -37t35 -88q0 -48 -35.5 -84t-85.5 -36t-85.5 36t-35.5 84zM938 106q0 51 35 88t86 37t86 -37t35 -88q0 -48 -35.5 -84t-85.5 -36t-85.5 36t-35.5 84 z" />
<glyph unicode="&#x202f;" horiz-adv-x="380" />
<glyph unicode="&#x2039;" horiz-adv-x="567" d="M172 512l393 436l80 -76l-336 -372l176 -373l-106 -51z" />
<glyph unicode="&#x203a;" horiz-adv-x="567" d="M139 152l336 372l-176 373l107 51l206 -436l-393 -436z" />
<glyph unicode="&#x205f;" horiz-adv-x="475" />
<glyph unicode="&#x20ac;" horiz-adv-x="1404" d="M119 520l61 92h264q-2 16 -2 54q0 92 21 184h-275l62 92h242q40 112 112 207t170.5 167t228 113t275.5 41q217 0 371 -112l-66 -98q-134 102 -315 102q-238 0 -411 -115t-249 -305h764l-61 -92h-731q-21 -86 -21 -174q0 -44 2 -64h592l-61 -92h-517q43 -192 186.5 -310 t366.5 -118q116 0 222 37l-31 -121q-89 -24 -197 -24q-138 0 -254.5 42t-198.5 115.5t-136 170t-76 208.5h-338z" />
<glyph unicode="&#x2122;" horiz-adv-x="1925" d="M399 1352v102h572v-102h-234v-715h-106v715h-232zM1104 637v858l403 -418l400 418v-858h-109v606l-291 -303l-295 303v-606h-108z" />
<glyph unicode="&#x25fc;" horiz-adv-x="1024" d="M0 0v1024h1024v-1024h-1024z" />
<glyph unicode="&#xfb01;" horiz-adv-x="1208" d="M242 911l22 113h207q-65 62 -65 172q0 114 95 186t247 72h210l-24 -111h-182q-218 0 -230 -169q-5 -60 36 -103t110 -47h200l-22 -113h-277l-192 -911h-119l193 911h-209zM903 0l217 1024h117l-217 -1024h-117zM1143 1356q0 47 35.5 80.5t83.5 33.5q39 0 64.5 -26 t25.5 -62q0 -59 -62 -98h-114q-33 26 -33 72z" />
<glyph unicode="&#xfb02;" horiz-adv-x="1208" d="M242 911l22 113h207q-65 62 -65 172q0 114 95 186t247 72h210l-24 -111h-182q-218 0 -230 -169q-5 -60 36 -103t110 -47h200l-22 -113h-277l-192 -911h-119l193 911h-209zM903 0l309 1454h117l-309 -1454h-117z" />
</font>
</defs>
</svg>
