<?xml version="1.0" standalone="no"?>
<!DOCTYPE svg PUBLIC "-//W3C//DTD SVG 1.1//EN" "http://www.w3.org/Graphics/SVG/1.1/DTD/svg11.dtd" >
<svg xmlns="http://www.w3.org/2000/svg">
<metadata></metadata>
<defs>
<font id="euclid_flexultralight" horiz-adv-x="1267" >
<font-face units-per-em="2048" ascent="1651" descent="-397" />
<missing-glyph horiz-adv-x="409" />
<glyph horiz-adv-x="0" />
<glyph horiz-adv-x="682" />
<glyph unicode=" "  horiz-adv-x="409" />
<glyph unicode="&#x09;" horiz-adv-x="409" />
<glyph unicode="&#xa0;" horiz-adv-x="409" />
<glyph unicode="!" horiz-adv-x="454" d="M205 1040v414h45v-414l-8 -706h-31zM209 0v209h39v-209q-5 -8 -19 -8q-15 0 -20 8z" />
<glyph unicode="&#x22;" horiz-adv-x="739" d="M143 993v461h39v-461h-39zM557 993v461h39v-461h-39z" />
<glyph unicode="#" horiz-adv-x="1622" d="M119 459v39h350l149 473h-335v39h348l139 444h39l-139 -444h469l139 444h37l-139 -444h327v-39h-340l-147 -473h321v-39h-333l-144 -459h-39l144 459h-467l-144 -459h-41l144 459h-338zM510 498h467l149 473h-469z" />
<glyph unicode="$" horiz-adv-x="1062" d="M100 193l33 26q61 -87 162 -141.5t217 -54.5q185 0 294 86.5t109 236.5q0 66 -24.5 122t-71.5 99.5t-102.5 77.5t-130.5 66l-154 65q-160 68 -229.5 160t-69.5 215q0 132 105 220.5t258 96.5v166h39v-164q100 -3 188 -44.5t149 -116.5l-32 -27q-109 150 -324 150 q-138 0 -240 -78.5t-102 -202.5q0 -114 65 -197t216 -147l153 -66q81 -34 141 -71t108.5 -84t73.5 -107t25 -131q0 -156 -110 -257t-311 -107v-164h-39v164q-121 4 -226.5 62t-169.5 147z" />
<glyph unicode="%" horiz-adv-x="923" d="M180 264q0 122 81.5 202.5t199.5 80.5q119 0 200.5 -80.5t81.5 -202.5q0 -121 -81.5 -200.5t-200.5 -79.5q-118 0 -199.5 80t-81.5 200zM180 1188q0 122 81.5 202t199.5 80q120 0 201 -80t81 -202q0 -121 -81.5 -201t-200.5 -80q-118 0 -199.5 80.5t-81.5 200.5zM215 711 v39h492v-39h-492zM219 264q0 -104 69 -174t173 -70q105 0 174.5 69.5t69.5 174.5q0 106 -69 176t-175 70q-104 0 -173 -70t-69 -176zM219 1188q0 -104 69 -174t173 -70q105 0 174.5 69.5t69.5 174.5q0 106 -69 176t-175 70q-104 0 -173 -70t-69 -176z" />
<glyph unicode="&#x26;" horiz-adv-x="1273" d="M63 440q0 191 130.5 324t326.5 133q157 0 281 -96l-346 653h688v-39h-625l754 -1415h-45l-254 477q2 -12 2 -37q0 -191 -129.5 -323.5t-325.5 -132.5t-326.5 132.5t-130.5 323.5zM104 440q0 -174 118.5 -295.5t297.5 -121.5t297.5 121.5t118.5 295.5q0 98 -43 189l-6 12 l-13 23q-55 90 -147.5 142t-206.5 52q-179 0 -297.5 -122t-118.5 -296z" />
<glyph unicode="'" horiz-adv-x="325" d="M143 993v461h39v-461h-39z" />
<glyph unicode="(" horiz-adv-x="444" d="M143 616q0 243 43.5 426t159.5 428l37 -16q-109 -227 -155 -423t-46 -415t46 -414.5t155 -422.5l-37 -17q-116 245 -159.5 428t-43.5 426z" />
<glyph unicode=")" horiz-adv-x="444" d="M61 -221q109 227 155 422.5t46 414.5t-46 415t-155 423l37 16q116 -245 159.5 -428t43.5 -426t-43.5 -426t-159.5 -428z" />
<glyph unicode="*" horiz-adv-x="854" d="M119 1237l12 39l277 -96v274h38v-272l277 90l12 -37l-274 -90l170 -232l-35 -24l-168 231l-168 -233l-33 20l168 232z" />
<glyph unicode="+" horiz-adv-x="1351" d="M225 535v38h432v412h39v-412h430v-38h-430v-424h-39v424h-432z" />
<glyph unicode="," horiz-adv-x="407" d="M74 -283l110 283v211h39v-213l-110 -281h-39z" />
<glyph unicode="-" horiz-adv-x="669" d="M102 535v38h465v-38h-465z" />
<glyph unicode="." horiz-adv-x="448" d="M205 0v211h39v-211h-39z" />
<glyph unicode="/" horiz-adv-x="755" d="M0 0l715 1454h41l-713 -1454h-43z" />
<glyph unicode="0" horiz-adv-x="1650" d="M82 727q0 125 37 239t104.5 205t159 158.5t205 104t237.5 36.5q154 0 292 -57t237 -155.5t157 -236.5t58 -294t-58 -294t-157 -236.5t-237 -155.5t-292 -57q-124 0 -237.5 36.5t-205 104t-159 158.5t-104.5 205t-37 239zM123 727q0 -199 94.5 -361t255 -252.5 t352.5 -90.5q143 0 272.5 53.5t224.5 146t150.5 224t55.5 280.5t-55.5 281t-150.5 224.5t-224.5 146t-272.5 53.5t-272.5 -53.5t-224 -146t-150 -224.5t-55.5 -281z" />
<glyph unicode="1" horiz-adv-x="448" d="M205 0v1432l39 38v-1470h-39z" />
<glyph unicode="2" horiz-adv-x="1116" d="M123 0l702 774q-112 -94 -260 -94q-165 0 -281 113.5t-116 281.5t116 281.5t281 113.5q166 0 282 -114t116 -281q0 -113 -52 -218.5t-170 -233.5l-532 -584h784v-39h-870zM209 1075q0 -151 103.5 -253.5t252.5 -102.5t253 102.5t104 253.5t-104 254t-253 103t-252.5 -103 t-103.5 -254z" />
<glyph unicode="3" horiz-adv-x="983" d="M41 164l35 22q57 -78 148.5 -120.5t203.5 -42.5q85 0 161 27t134.5 77.5t92.5 129t34 175.5q0 102 -35 181.5t-96.5 128.5t-141.5 74.5t-174 25.5h-79l403 573h-635v39h709l-404 -573h6q218 0 353 -118t135 -331q0 -204 -131.5 -326t-331.5 -122q-126 0 -225.5 47 t-161.5 133z" />
<glyph unicode="4" horiz-adv-x="1206" d="M55 426l916 1044v-1005h211v-39h-211v-426h-39v426h-877zM139 465h793v903z" />
<glyph unicode="5" horiz-adv-x="1093" d="M125 160l33 24q58 -77 147.5 -119t202.5 -42q85 0 161 28t134.5 80t92.5 132t34 177q0 129 -59 225.5t-154 144.5t-209 48q-164 0 -277 -86l-30 27v655h692v-39h-653v-590q116 72 268 72q199 0 331 -126t132 -331t-132 -330.5t-331 -125.5q-253 0 -383 176z" />
<glyph unicode="6" horiz-adv-x="1118" d="M102 440q0 134 66 240l477 774h45l-393 -637q116 80 262 80q196 0 326.5 -133t130.5 -324t-130.5 -323.5t-326.5 -132.5t-326.5 132.5t-130.5 323.5zM143 440q0 -174 118.5 -295.5t297.5 -121.5t297.5 121.5t118.5 295.5t-118.5 296t-297.5 122t-297.5 -122t-118.5 -296z " />
<glyph unicode="7" horiz-adv-x="1030" d="M61 1415v39h930l-772 -1454h-47l754 1415h-865z" />
<glyph unicode="8" horiz-adv-x="1118" d="M102 440q0 159 93 281t243 160q-87 36 -139.5 112.5t-52.5 171.5q0 127 91 216t222 89q133 0 223 -89t90 -216q0 -95 -52.5 -171.5t-139.5 -112.5q149 -38 242.5 -160.5t93.5 -280.5q0 -191 -130.5 -323.5t-326.5 -132.5t-326.5 132.5t-130.5 323.5zM143 440 q0 -174 118.5 -295.5t297.5 -121.5t297.5 121.5t118.5 295.5t-118.5 296t-297.5 122t-297.5 -122t-118.5 -296zM287 1165q0 -111 78 -189.5t194 -78.5t195.5 78.5t79.5 189.5t-79.5 189t-195.5 78t-194 -78t-78 -189z" />
<glyph unicode="9" horiz-adv-x="1118" d="M102 1014q0 191 130.5 323.5t326.5 132.5t326.5 -132.5t130.5 -323.5q0 -134 -66 -240l-477 -774h-45l393 637q-116 -80 -262 -80q-196 0 -326.5 133t-130.5 324zM143 1014q0 -174 118.5 -296t297.5 -122t297.5 122t118.5 296t-118.5 296t-297.5 122t-297.5 -122 t-118.5 -296z" />
<glyph unicode=":" horiz-adv-x="446" d="M203 0v211h39v-211h-39zM203 813v211h39v-211h-39z" />
<glyph unicode=";" horiz-adv-x="448" d="M94 -283l111 283v211h39v-213l-111 -281h-39zM205 813v211h39v-211h-39z" />
<glyph unicode="&#x3c;" horiz-adv-x="929" d="M139 518l592 535l27 -29l-561 -506l561 -506l-27 -28z" />
<glyph unicode="=" horiz-adv-x="1370" d="M225 291v39h920v-39h-920zM225 778v39h920v-39h-920z" />
<glyph unicode="&#x3e;" horiz-adv-x="929" d="M172 12l561 506l-561 506l27 29l592 -535l-592 -534z" />
<glyph unicode="?" horiz-adv-x="880" d="M41 1075q0 168 116 281.5t281 113.5q166 0 282 -114t116 -281q0 -55 -13.5 -106t-47 -110.5t-66.5 -106t-95 -129.5l-182 -240l-29 25l179 233q112 147 143 199q70 117 70 235q0 151 -104 254t-253 103t-252.5 -103t-103.5 -254t103.5 -253.5t252.5 -102.5v-39 q-165 0 -281 113.5t-116 281.5zM410 0v209h39v-209q-5 -8 -19 -8q-15 0 -20 8z" />
<glyph unicode="@" horiz-adv-x="1677" d="M82 709q0 160 62 301t170 242t260.5 159.5t326.5 58.5q318 0 506 -172.5t188 -463.5q0 -224 -102.5 -360t-235.5 -136q-70 0 -119.5 34.5t-68.5 92.5q-60 -62 -139 -94.5t-160 -32.5q-79 0 -142.5 28t-103.5 75.5t-61 107.5t-21 127q0 120 57 225.5t159.5 169.5t226.5 64 q85 0 156.5 -35t115.5 -94l19 86h36l-106 -508q-21 -94 25.5 -151.5t128.5 -57.5q75 0 141.5 52t110.5 158.5t44 245.5q0 145 -50 260.5t-138.5 190t-209 113.5t-263.5 39q-166 0 -311 -57.5t-246 -155.5t-159 -232t-58 -284q0 -195 84 -350.5t242 -245t364 -89.5 q238 0 414 86l14 -36q-92 -41 -207 -63.5t-221 -22.5q-219 0 -385.5 93.5t-255 258t-88.5 373.5zM481 676q0 -130 78.5 -215.5t218.5 -85.5q77 0 154.5 36t128.5 99q-3 25 4 63l82 383q-40 67 -112.5 104.5t-151.5 37.5q-169 0 -285.5 -124.5t-116.5 -297.5z" />
<glyph unicode="A" horiz-adv-x="1400" d="M20 0l680 1470l680 -1470h-43l-235 510h-803l-236 -510h-43zM317 549h766l-383 831z" />
<glyph unicode="B" horiz-adv-x="1236" d="M205 0v1454h440q191 0 294 -103t103 -255q0 -125 -59.5 -212.5t-173.5 -125.5q68 -10 126.5 -38t106.5 -73.5t75.5 -113.5t27.5 -152q0 -186 -124 -283.5t-337 -97.5h-479zM244 39h444q194 0 305 88t111 254q0 158 -106 254t-312 96h-442v-692zM244 770h415 q162 0 252 90.5t90 233.5q0 139 -92 230t-254 91h-411v-645z" />
<glyph unicode="C" horiz-adv-x="1380" d="M82 727q0 125 37 239t104.5 205t159 158.5t205 104t237.5 36.5q269 0 463 -155l-26 -31q-183 148 -437 148q-144 0 -273.5 -53.5t-223.5 -146t-149.5 -224.5t-55.5 -281q0 -199 94 -361t254.5 -252.5t353.5 -90.5q252 0 441 147l22 -31q-197 -155 -463 -155 q-124 0 -237.5 36.5t-205 104t-159 158.5t-104.5 205t-37 239z" />
<glyph unicode="D" horiz-adv-x="1478" d="M205 0v1454h403q173 0 320.5 -54.5t250 -150.5t160.5 -230.5t58 -291.5t-58 -291.5t-160.5 -230.5t-250 -150.5t-320.5 -54.5h-403zM244 39h362q166 0 307 51.5t238 142.5t151 218.5t54 275.5t-54 275t-151 218t-238 143t-307 52h-362v-1376z" />
<glyph unicode="E" horiz-adv-x="1083" d="M205 0v1454h796v-39h-757v-645h635v-39h-635v-692h757v-39h-796z" />
<glyph unicode="F" horiz-adv-x="1026" d="M205 0v1454h786v-39h-747v-645h604v-39h-604v-731h-39z" />
<glyph unicode="G" horiz-adv-x="1517" d="M82 727q0 125 37 239t104.5 205t159 158.5t205 104t237.5 36.5q297 0 496 -149l-25 -33q-191 144 -471 144q-144 0 -273.5 -53.5t-223.5 -146t-149.5 -224.5t-55.5 -281q0 -199 94 -361t254.5 -252.5t353.5 -90.5q129 0 261 32.5t229 94.5v581h-475l18 39h496v-643 q-101 -70 -243 -106.5t-286 -36.5q-124 0 -237.5 36.5t-205 104t-159 158.5t-104.5 205t-37 239z" />
<glyph unicode="H" horiz-adv-x="1515" d="M205 0v1454h39v-684h1028v684h39v-1454h-39v731h-1028v-731h-39z" />
<glyph unicode="I" horiz-adv-x="448" d="M205 0v1454h39v-1454h-39z" />
<glyph unicode="J" horiz-adv-x="1005" d="M23 383h38q0 -171 94.5 -265.5t266.5 -94.5q171 0 265.5 94.5t94.5 265.5v1071h39v-1071q0 -195 -111 -297t-288 -102t-288 102t-111 297z" />
<glyph unicode="K" horiz-adv-x="1189" d="M205 0v1454h39v-1454h-39zM246 709l790 745h56l-791 -741l868 -713h-61z" />
<glyph unicode="L" horiz-adv-x="1021" d="M205 0v1454h39v-1415h757v-39h-796z" />
<glyph unicode="M" horiz-adv-x="1748" d="M205 0v1470l669 -849l670 849v-1470h-39v1356l-631 -795l-630 795v-1356h-39z" />
<glyph unicode="N" horiz-adv-x="1568" d="M205 0v1470l1120 -1378v1362h39v-1470l-1120 1378v-1362h-39z" />
<glyph unicode="O" horiz-adv-x="1650" d="M82 727q0 125 37 239t104.5 205t159 158.5t205 104t237.5 36.5q154 0 292 -57t237 -155.5t157 -236.5t58 -294t-58 -294t-157 -236.5t-237 -155.5t-292 -57q-124 0 -237.5 36.5t-205 104t-159 158.5t-104.5 205t-37 239zM123 727q0 -199 94.5 -361t255 -252.5 t352.5 -90.5q143 0 272.5 53.5t224.5 146t150.5 224t55.5 280.5t-55.5 281t-150.5 224.5t-224.5 146t-272.5 53.5t-272.5 -53.5t-224 -146t-150 -224.5t-55.5 -281z" />
<glyph unicode="P" horiz-adv-x="1091" d="M205 0v1454h399q110 0 196.5 -30.5t139.5 -84t80 -122.5t27 -150q0 -168 -113 -277.5t-328 -109.5h-362v-680h-39zM244 719h368q189 0 291.5 97t102.5 251t-102.5 251t-291.5 97h-368v-696z" />
<glyph unicode="Q" horiz-adv-x="1650" d="M82 727q0 125 37 239t104.5 205t159 158.5t205 104t237.5 36.5q154 0 292 -57t237 -155.5t157 -236.5t58 -294q0 -150 -52.5 -282t-148.5 -232l201 -201l-29 -28l-201 200q-99 -96 -231.5 -148t-282.5 -52q-124 0 -237.5 36.5t-205 104t-159 158.5t-104.5 205t-37 239z M123 727q0 -199 94.5 -361t255 -252.5t352.5 -90.5q140 0 266 49.5t220 140.5l-193 195l29 28l192 -194q90 94 139.5 218.5t49.5 266.5q0 149 -55.5 281t-150.5 224.5t-224.5 146t-272.5 53.5t-272.5 -53.5t-224 -146t-150 -224.5t-55.5 -281z" />
<glyph unicode="R" horiz-adv-x="1241" d="M205 0v1454h381q214 0 322 -100.5t108 -266.5t-108 -266t-322 -100h-4l598 -721h-50l-595 721h-291v-721h-39zM244 760h352q186 0 282.5 87.5t96.5 239.5t-96.5 240t-282.5 88h-352v-655z" />
<glyph unicode="S" horiz-adv-x="1069" d="M100 193l33 26q61 -87 162 -141.5t217 -54.5q185 0 294 86.5t109 236.5q0 66 -24.5 122t-71.5 99.5t-102.5 77.5t-130.5 66l-154 65q-160 68 -229.5 160t-69.5 215q0 138 114.5 228.5t274.5 90.5q103 0 195.5 -41.5t154.5 -119.5l-32 -27q-109 150 -324 150 q-138 0 -240 -78.5t-102 -202.5q0 -114 65 -197t216 -147l153 -66q81 -34 141 -71t108.5 -84t73.5 -107t25 -131q0 -160 -116.5 -262t-327.5 -102q-125 0 -235 58t-177 151z" />
<glyph unicode="T" horiz-adv-x="1030" d="M41 1415v39h948v-39h-454v-1415h-39v1415h-455z" />
<glyph unicode="U" horiz-adv-x="1474" d="M205 532v922h39v-922q0 -252 130 -380.5t363 -128.5t363.5 128.5t130.5 380.5v922h39v-922q0 -264 -139.5 -406t-393.5 -142q-253 0 -392.5 142t-139.5 406z" />
<glyph unicode="V" horiz-adv-x="1318" d="M20 1454h43l596 -1372l596 1372h43l-639 -1470z" />
<glyph unicode="W" horiz-adv-x="1814" d="M61 1454h43l392 -1343l411 1359l412 -1359l391 1343h43l-434 -1470l-412 1351l-411 -1351z" />
<glyph unicode="X" horiz-adv-x="1331" d="M61 0l580 758l-532 696h49l508 -663l508 663h49l-533 -696l580 -758h-49l-555 725l-555 -725h-50z" />
<glyph unicode="Y" horiz-adv-x="1140" d="M20 1454h46l505 -795l504 795h45l-530 -836v-618h-39v618z" />
<glyph unicode="Z" horiz-adv-x="1218" d="M68 0l1003 1415h-891v39h965l-1002 -1415h1004v-39h-1079z" />
<glyph unicode="[" horiz-adv-x="530" d="M184 -236v1700h285v-39h-246v-1622h246v-39h-285z" />
<glyph unicode="\" horiz-adv-x="755" d="M0 1454h41l715 -1454h-43z" />
<glyph unicode="]" horiz-adv-x="530" d="M61 -197h246v1622h-246v39h285v-1700h-285v39z" />
<glyph unicode="^" horiz-adv-x="1290" d="M94 680l551 795l551 -795h-43l-508 731l-508 -731h-43z" />
<glyph unicode="_" horiz-adv-x="858" d="M0 0h858v-39h-858v39z" />
<glyph unicode="`" horiz-adv-x="350" d="M41 1454h43l225 -338h-43z" />
<glyph unicode="a" d="M102 512q0 108 39.5 205t108.5 168.5t168.5 113t214.5 41.5q125 0 232 -49t179 -135v168h39v-1024h-39v168q-72 -87 -178 -135.5t-233 -48.5q-115 0 -214.5 41.5t-168.5 113t-108.5 168.5t-39.5 205zM143 512q0 -135 62.5 -246.5t175 -177t252.5 -65.5q128 0 236 55 t175 149v566q-65 97 -173.5 152.5t-237.5 55.5q-140 0 -252.5 -65.5t-175 -177t-62.5 -246.5z" />
<glyph unicode="b" d="M184 0v1454h39v-598q70 86 177.5 135t234.5 49q153 0 275 -71t188.5 -191.5t66.5 -265.5t-66.5 -265.5t-188.5 -191.5t-275 -71q-127 0 -234.5 49t-177.5 135v-168h-39zM223 227q66 -94 175 -149t237 -55q211 0 350 141.5t139 347.5t-139 347.5t-350 141.5 q-130 0 -238 -55.5t-174 -152.5v-566z" />
<glyph unicode="c" horiz-adv-x="1095" d="M102 512q0 108 39.5 205t108.5 168.5t168.5 113t214.5 41.5q228 0 381 -153l-31 -31q-139 145 -350 145q-140 0 -252.5 -65.5t-175 -177t-62.5 -246.5t62.5 -246.5t175 -177t252.5 -65.5q210 0 350 143l29 -31q-148 -151 -379 -151q-115 0 -214.5 41.5t-168.5 113 t-108.5 168.5t-39.5 205z" />
<glyph unicode="d" d="M102 512q0 108 39.5 205t108.5 168.5t168.5 113t214.5 41.5q125 0 232 -49t179 -135v598h39v-1454h-39v168q-72 -87 -178 -135.5t-233 -48.5q-115 0 -214.5 41.5t-168.5 113t-108.5 168.5t-39.5 205zM143 512q0 -135 62.5 -246.5t175 -177t252.5 -65.5q128 0 236 55 t175 149v566q-65 97 -173.5 152.5t-237.5 55.5q-140 0 -252.5 -65.5t-175 -177t-62.5 -246.5z" />
<glyph unicode="e" horiz-adv-x="1179" d="M102 512q0 145 64 265.5t181.5 191.5t264.5 71q93 0 176 -30.5t151 -91t109 -160.5t42 -228h-947v-18q0 -135 62.5 -246.5t175 -177t252.5 -65.5q110 0 207 40.5t164 108.5l28 -31q-71 -72 -175.5 -114.5t-223.5 -42.5q-115 0 -214.5 41.5t-168.5 113t-108.5 168.5 t-39.5 205zM145 567h902q-15 208 -131.5 321t-303.5 113q-190 0 -319 -123t-148 -311z" />
<glyph unicode="f" horiz-adv-x="579" d="M-33 985v39h266q-56 30 -88 80.5t-32 114.5q0 107 77 171t213 64h154v-37h-170q-107 0 -170 -55t-63 -143q0 -85 63 -140t170 -55h172v-39h-283v-985h-38v985h-271z" />
<glyph unicode="g" horiz-adv-x="1249" d="M102 532q0 218 145 363t365 145q127 0 233.5 -49t178.5 -135v168h39v-776q47 -132 47 -236q0 -86 -28 -156t-75.5 -116.5t-113.5 -78t-138.5 -45t-152.5 -13.5q-122 0 -239.5 43.5t-186.5 113.5l29 31q65 -66 175 -107.5t222 -41.5q220 0 343.5 98.5t123.5 273.5 q0 115 -41 199q-72 -88 -180 -138t-236 -50q-220 0 -365 144.5t-145 362.5zM143 532q0 -200 135 -334.5t334 -134.5q127 0 236 56t176 151v525q-65 95 -174.5 150.5t-237.5 55.5q-199 0 -334 -134.5t-135 -334.5z" />
<glyph unicode="h" horiz-adv-x="1185" d="M184 0v1454h39v-647q53 104 152.5 168.5t234.5 64.5q199 0 304.5 -111.5t105.5 -301.5v-627h-39v612q0 184 -97.5 286.5t-273.5 102.5q-143 0 -244.5 -79.5t-142.5 -208.5v-713h-39z" />
<glyph unicode="i" horiz-adv-x="407" d="M184 0v1024h39v-1024h-39zM184 1270v184q5 8 21 8q13 0 18 -8v-184h-39z" />
<glyph unicode="j" horiz-adv-x="407" d="M-55 -338h16q130 0 176.5 62t46.5 210v1090h39v-1122q0 -148 -62 -213.5t-202 -65.5h-14v39zM184 1270v184q5 8 21 8q13 0 18 -8v-184h-39z" />
<glyph unicode="k" horiz-adv-x="985" d="M184 0v1454h39v-936l611 506h53l-604 -504l680 -520h-60l-680 518v-518h-39z" />
<glyph unicode="l" horiz-adv-x="407" d="M184 0v1454h39v-1454h-39z" />
<glyph unicode="m" horiz-adv-x="1814" d="M184 0v1024h39v-209q47 106 135 165.5t211 59.5q141 0 228.5 -68t120.5 -190q46 121 139.5 189.5t226.5 68.5q183 0 275 -110.5t92 -302.5v-627h-39v612q0 176 -82.5 282.5t-245.5 106.5q-134 0 -223.5 -79.5t-128.5 -223.5q4 -46 4 -71v-627h-39v612q0 176 -82.5 282.5 t-245.5 106.5q-130 0 -218.5 -75t-127.5 -211v-715h-39z" />
<glyph unicode="n" horiz-adv-x="1183" d="M184 0v1024h39v-217q53 104 152.5 168.5t234.5 64.5q199 0 304.5 -111.5t105.5 -301.5v-627h-39v612q0 184 -97.5 286.5t-273.5 102.5q-143 0 -244.5 -79.5t-142.5 -208.5v-713h-39z" />
<glyph unicode="o" horiz-adv-x="1265" d="M102 512q0 108 39.5 205t108.5 168.5t168.5 113t214.5 41.5q153 0 275 -71t188.5 -191.5t66.5 -265.5t-66.5 -265.5t-188.5 -191.5t-275 -71q-115 0 -214.5 41.5t-168.5 113t-108.5 168.5t-39.5 205zM143 512q0 -135 62.5 -246.5t175 -177t252.5 -65.5q211 0 350 141.5 t139 347.5t-139 347.5t-350 141.5q-140 0 -252.5 -65.5t-175 -177t-62.5 -246.5z" />
<glyph unicode="p" d="M184 -377v1401h39v-168q70 86 177.5 135t234.5 49q153 0 275 -71t188.5 -191.5t66.5 -265.5t-66.5 -265.5t-188.5 -191.5t-275 -71q-127 0 -234.5 49t-177.5 135v-545h-39zM223 227q66 -94 175 -149t237 -55q211 0 350 141.5t139 347.5t-139 347.5t-350 141.5 q-130 0 -238 -55.5t-174 -152.5v-566z" />
<glyph unicode="q" d="M102 512q0 108 39.5 205t108.5 168.5t168.5 113t214.5 41.5q125 0 232 -49t179 -135v168h39v-1401h-39v545q-72 -87 -178 -135.5t-233 -48.5q-115 0 -214.5 41.5t-168.5 113t-108.5 168.5t-39.5 205zM143 512q0 -135 62.5 -246.5t175 -177t252.5 -65.5q128 0 236 55 t175 149v566q-65 97 -173.5 152.5t-237.5 55.5q-140 0 -252.5 -65.5t-175 -177t-62.5 -246.5z" />
<glyph unicode="r" horiz-adv-x="655" d="M184 0v1024h39v-197q42 96 131 154.5t215 58.5q26 0 66 -4v-41q-40 4 -66 4q-137 0 -227 -76t-119 -200v-723h-39z" />
<glyph unicode="s" horiz-adv-x="849" d="M90 213l39 16q86 -206 299 -206q127 0 203 60.5t76 160.5q0 101 -59.5 158.5t-180.5 101.5l-109 39q-221 79 -221 262q0 105 77 170t206 65q92 0 157.5 -39.5t102.5 -103.5l-37 -20q-67 124 -223 124q-117 0 -179.5 -54t-62.5 -144q0 -85 52.5 -139.5t162.5 -94.5 l115 -41q122 -45 181 -112.5t59 -169.5q0 -111 -86.5 -186.5t-233.5 -75.5q-131 0 -216 68.5t-122 160.5z" />
<glyph unicode="t" horiz-adv-x="645" d="M10 1024h234v289l39 18v-307h301l-11 -39h-290v-674q0 -152 48.5 -212t190.5 -60h56v-39h-70q-140 0 -202 65.5t-62 213.5v706h-224z" />
<glyph unicode="u" horiz-adv-x="1163" d="M143 397v627h39v-612q0 -184 97.5 -286.5t273.5 -102.5q141 0 242.5 79t144.5 207v715h39v-1024h-39v217q-54 -105 -153.5 -169t-233.5 -64q-199 0 -304.5 111.5t-105.5 301.5z" />
<glyph unicode="v" horiz-adv-x="1056" d="M20 1024h46l462 -954l465 954h43l-508 -1040z" />
<glyph unicode="w" horiz-adv-x="1572" d="M61 1024h45l330 -930l350 946l351 -946l331 930h43l-374 -1040l-351 944l-350 -944z" />
<glyph unicode="x" horiz-adv-x="1032" d="M41 0l451 526l-426 498h49l401 -469l402 469h47l-424 -496l450 -528h-49l-426 500l-428 -500h-47z" />
<glyph unicode="y" horiz-adv-x="1056" d="M20 1024h46l458 -963l469 963h43l-682 -1401h-47l197 393z" />
<glyph unicode="z" horiz-adv-x="1003" d="M37 0l805 985h-729v39h809l-805 -985h786v-39h-866z" />
<glyph unicode="{" horiz-adv-x="503" d="M41 598v39h4q45 0 74 15t42.5 45t18 61t4.5 78v350q0 147 62.5 212.5t202.5 65.5h14v-39h-10q-135 0 -182.5 -61.5t-47.5 -210.5v-299q0 -106 -20 -159.5t-82 -78.5q62 -23 82 -76t20 -159v-305q0 -151 48 -212t184 -61h8v-39h-14q-140 0 -202.5 65.5t-62.5 213.5v356 q0 36 -2.5 62t-10.5 53.5t-23 44.5t-41 28t-62 11h-4z" />
<glyph unicode="|" horiz-adv-x="407" d="M184 -377v1831h39v-1831h-39z" />
<glyph unicode="}" horiz-adv-x="503" d="M41 -197h8q136 0 184 61t48 212v305q0 106 20 159t82 76q-62 25 -82 78.5t-20 159.5v299q0 149 -47.5 210.5t-182.5 61.5h-10v39h14q140 0 202 -65t62 -213v-350q0 -47 4.5 -78t18 -61t43 -45t74.5 -15h4v-39h-4q-36 0 -62.5 -11t-41 -28t-23 -44.5t-11 -53.5t-2.5 -62 v-356q0 -148 -62 -213.5t-202 -65.5h-14v39z" />
<glyph unicode="~" horiz-adv-x="1298" d="M221 465v43l221 149l410 -145l225 152v-43l-221 -150l-410 145z" />
<glyph unicode="&#xa1;" horiz-adv-x="454" d="M205 -16l8 706h31l6 -706v-361h-45v361zM207 815v209q5 8 18 8q16 0 21 -8v-209h-39z" />
<glyph unicode="&#xa2;" horiz-adv-x="1095" d="M102 512q0 216 142 367.5t364 160.5v164h39v-164q217 -6 367 -153l-31 -31q-139 145 -350 145q-140 0 -252.5 -65.5t-175 -177t-62.5 -246.5t62.5 -246.5t175 -177t252.5 -65.5q210 0 350 143l29 -31q-142 -145 -365 -151v-164h-39v164q-147 6 -263.5 78t-179.5 190 t-63 260z" />
<glyph unicode="&#xa3;" horiz-adv-x="1103" d="M133 0v39h299v678h-299v39h297q-95 47 -152 136.5t-57 201.5q0 159 110.5 267.5t266.5 108.5t266.5 -108.5t110.5 -267.5h-41q0 144 -97.5 241t-238.5 97t-238.5 -97t-97.5 -241t97.5 -241t238.5 -97h199v-39h-326v-678h571v-39h-909z" />
<glyph unicode="&#xa4;" horiz-adv-x="1298" d="M143 248l140 139q-123 136 -123 322t121 323l-138 137l31 31l135 -137q65 64 152 99.5t182 35.5q198 0 342 -137l139 139l31 -31l-141 -141q119 -138 119 -319q0 -183 -121 -320l143 -141l-31 -33l-143 143q-143 -133 -338 -133q-191 0 -332 131l-137 -141zM201 709 q0 -182 128 -311.5t316 -129.5q124 0 227.5 60t161.5 161t58 220q0 186 -129.5 318t-319.5 132q-187 0 -314.5 -132t-127.5 -318z" />
<glyph unicode="&#xa5;" horiz-adv-x="1140" d="M20 1454h46l505 -795l504 795h45l-530 -833h350v-39h-350v-228h350v-39h-350v-315h-39v315h-350v39h350v228h-350v39h348z" />
<glyph unicode="&#xa6;" horiz-adv-x="407" d="M184 -377v787h39v-787h-39zM184 670v784h39v-784h-39z" />
<glyph unicode="&#xa7;" horiz-adv-x="1157" d="M170 543q0 167 113 285t276 126l-53 19q-221 79 -221 262q0 105 76.5 170t205.5 65q177 0 260 -143l-36 -20q-68 125 -224 125q-117 0 -179 -54t-62 -145q0 -85 52.5 -139.5t162.5 -94.5l102 -36q344 -122 344 -420q0 -157 -104.5 -272t-261.5 -132l8 -2 q124 -46 181.5 -108.5t57.5 -163.5q0 -112 -86 -187t-233 -75q-131 0 -216 68.5t-122 160.5l39 16q86 -206 299 -206q127 0 202.5 60.5t75.5 160.5q0 52 -15.5 91t-49.5 68t-73.5 49t-100.5 42l-115 37q-139 45 -221 149.5t-82 243.5zM209 543q0 -153 107 -261t259 -108 q156 0 265.5 108t109.5 261q0 156 -109 264t-266 108q-153 0 -259.5 -108t-106.5 -264z" />
<glyph unicode="&#xa8;" horiz-adv-x="571" d="M41 1196v211h39v-211h-39zM492 1196v211h38v-211h-38z" />
<glyph unicode="&#xa9;" horiz-adv-x="1646" d="M82 729q0 150 59 287.5t158 236.5t236.5 158t287.5 59t287.5 -59t237 -158t158.5 -236.5t59 -287.5t-59 -287.5t-158.5 -236.5t-237 -158t-287.5 -59t-287.5 59t-236.5 158t-158 236.5t-59 287.5zM127 729q0 -188 93.5 -348.5t254 -254t348.5 -93.5q141 0 270 55.5 t222.5 148.5t149 222t55.5 270t-55.5 270t-149 222t-222.5 148.5t-270 55.5q-188 0 -348.5 -93.5t-254 -254t-93.5 -348.5zM391 729q0 189 134 323t323 134t326 -137l-33 -31q-123 123 -293 123t-291 -121t-121 -291t121 -291t291 -121t289 119l32 -30q-63 -63 -146 -98.5 t-175 -35.5q-189 0 -323 134t-134 323z" />
<glyph unicode="&#xaa;" horiz-adv-x="768" d="M61 1147q0 133 90 225t228 92q147 0 239 -106v96h39v-614h-39v96q-92 -107 -239 -107q-137 0 -227.5 92.5t-90.5 225.5zM102 1147q0 -118 78.5 -199.5t198.5 -81.5q77 0 139.5 34.5t99.5 90.5v309q-38 58 -100.5 92.5t-138.5 34.5q-120 0 -198.5 -81t-78.5 -199z" />
<glyph unicode="&#xab;" horiz-adv-x="925" d="M61 512l301 436l31 -22l-284 -414l284 -414l-31 -22zM451 512l301 436l30 -22l-284 -414l284 -414l-30 -22z" />
<glyph unicode="&#xac;" horiz-adv-x="1351" d="M225 535v38h901v-462h-39v424h-862z" />
<glyph unicode="&#xad;" horiz-adv-x="669" d="M102 530v48h465v-48h-465z" />
<glyph unicode="&#xae;" horiz-adv-x="1646" d="M82 729q0 150 59 287.5t158 236.5t236.5 158t287.5 59t287.5 -59t237 -158t158.5 -236.5t59 -287.5t-59 -287.5t-158.5 -236.5t-237 -158t-287.5 -59t-287.5 59t-236.5 158t-158 236.5t-59 287.5zM127 729q0 -188 93.5 -348.5t254 -254t348.5 -93.5q141 0 270 55.5 t222.5 148.5t149 222t55.5 270t-55.5 270t-149 222t-222.5 148.5t-270 55.5q-188 0 -348.5 -93.5t-254 -254t-93.5 -348.5zM592 279v901h227q115 0 189.5 -59.5t74.5 -172.5q0 -108 -71 -166t-183 -61l402 -442h-49l-406 442h-143v-442h-41zM633 762h182q111 0 168 49 t57 139q0 91 -57 140t-168 49h-182v-377z" />
<glyph unicode="&#xaf;" horiz-adv-x="657" d="M45 1354v39h569v-39h-569z" />
<glyph unicode="&#xb0;" horiz-adv-x="786" d="M143 1212q0 103 73.5 176.5t176.5 73.5t176.5 -73.5t73.5 -176.5t-73.5 -176t-176.5 -73t-176.5 73t-73.5 176zM180 1212q0 -88 62.5 -150.5t150.5 -62.5t150.5 62.5t62.5 150.5t-62.5 150.5t-150.5 62.5t-150.5 -62.5t-62.5 -150.5z" />
<glyph unicode="&#xb1;" horiz-adv-x="1351" d="M225 0v39h901v-39h-901zM225 627v39h432v358h39v-358h430v-39h-430v-363h-39v363h-432z" />
<glyph unicode="&#xb2;" horiz-adv-x="667" d="M63 840l404 440q-59 -43 -131 -43q-100 0 -171 70t-71 172q0 103 70.5 173t171.5 70q102 0 173 -70t71 -173q0 -73 -35 -140t-115 -153l-283 -307h445v-39h-529zM133 1479q0 -87 59 -146t144 -59q86 0 144.5 58.5t58.5 146.5q0 89 -58 148t-145 59q-85 0 -144 -59 t-59 -148z" />
<glyph unicode="&#xb3;" horiz-adv-x="608" d="M33 948l33 23q31 -48 85 -76.5t117 -28.5q102 0 172 64.5t70 171.5q0 113 -71 175t-181 62h-57l227 334h-365v39h433q-216 -318 -228 -336h2q126 -5 202.5 -78.5t76.5 -195.5q0 -120 -79.5 -196.5t-201.5 -76.5q-75 0 -137 32t-98 87z" />
<glyph unicode="&#xb4;" horiz-adv-x="350" d="M41 1116l225 338h43l-225 -338h-43z" />
<glyph unicode="&#xb6;" horiz-adv-x="1196" d="M129 993q0 125 62 231t168 168t231 62h381v-1831h-39v1792h-303v-1792h-39v909q-125 0 -231 62t-168 168t-62 231z" />
<glyph unicode="&#xb7;" horiz-adv-x="448" d="M205 440v211h39v-211h-39z" />
<glyph unicode="&#xb8;" horiz-adv-x="350" d="M-20 -338l225 338h43l-225 -338h-43z" />
<glyph unicode="&#xb9;" horiz-adv-x="335" d="M147 840v835l41 64v-899h-41z" />
<glyph unicode="&#xba;" horiz-adv-x="759" d="M61 1147q0 133 90.5 225t229.5 92q137 0 227 -92t90 -225t-90 -225.5t-227 -92.5q-139 0 -229.5 92.5t-90.5 225.5zM102 1147q0 -119 79 -200t200 -81q120 0 198 81t78 200q0 118 -78 199t-198 81q-122 0 -200.5 -80.5t-78.5 -199.5z" />
<glyph unicode="&#xbb;" horiz-adv-x="925" d="M143 98l285 414l-285 414l31 22l301 -436l-301 -436zM532 98l285 414l-285 414l31 22l301 -436l-301 -436z" />
<glyph unicode="&#xbc;" horiz-adv-x="1509" d="M70 0h43l1022 1454h-43zM170 582v860l39 39v-899h-39zM745 256l562 651v-612h127v-39h-127v-256h-39v256h-523zM827 295h441v512z" />
<glyph unicode="&#xbd;" horiz-adv-x="1536" d="M70 0h43l1022 1454h-43zM170 582v860l39 39v-899h-39zM870 0l406 440q-59 -43 -131 -43q-102 0 -173 70t-71 172q0 104 71 174t173 70q101 0 172.5 -70.5t71.5 -173.5q0 -72 -35 -139t-115 -154l-283 -307h445v-39h-531zM942 639q0 -88 58.5 -146.5t144.5 -58.5 q85 0 144 59t59 146q0 89 -59 148t-144 59q-87 0 -145 -59t-58 -148z" />
<glyph unicode="&#xbe;" horiz-adv-x="1779" d="M92 690l35 23q30 -48 84 -76.5t119 -28.5q100 0 169.5 64.5t69.5 171.5q0 113 -71 175t-181 62h-55l225 334h-362v39h430l-227 -336h4q126 -5 202 -78.5t76 -195.5q0 -119 -79.5 -196t-200.5 -77q-75 0 -138 32t-100 87zM340 0h43l1022 1454h-43zM1016 256l561 651v-612 h127v-39h-127v-256h-39v256h-522zM1098 295h440v512z" />
<glyph unicode="&#xbf;" horiz-adv-x="880" d="M45 -2q0 105 50 199t171 254l183 239l28 -24l-178 -234q-112 -147 -143 -199q-70 -117 -70 -235q0 -151 103.5 -253.5t252.5 -102.5t253 102.5t104 253.5t-104 253.5t-253 102.5v39q166 0 282 -114t116 -281t-116 -281t-282 -114q-165 0 -281 113.5t-116 281.5zM432 813 v211q5 8 19 8q15 0 20 -8v-211h-39z" />
<glyph unicode="&#xc0;" horiz-adv-x="1400" d="M20 0l680 1470l680 -1470h-43l-235 510h-803l-236 -510h-43zM317 549h766l-383 831zM455 1870h43l225 -297h-43z" />
<glyph unicode="&#xc1;" horiz-adv-x="1400" d="M20 0l680 1470l680 -1470h-43l-235 510h-803l-236 -510h-43zM317 549h766l-383 831zM678 1573l225 297h43l-225 -297h-43z" />
<glyph unicode="&#xc2;" horiz-adv-x="1400" d="M20 0l680 1470l680 -1470h-43l-235 510h-803l-236 -510h-43zM317 549h766l-383 831zM328 1616l372 285l373 -285l-22 -27l-351 264l-350 -264z" />
<glyph unicode="&#xc3;" horiz-adv-x="1400" d="M20 0l680 1470l680 -1470h-43l-235 510h-803l-236 -510h-43zM317 549h766l-383 831zM373 1645l4 20q15 77 56.5 119.5t103.5 42.5q45 0 92 -22.5t80.5 -49.5t75.5 -49.5t79 -22.5q105 0 127 144h39l-4 -19q-36 -163 -162 -163q-42 0 -86.5 22.5t-77.5 49t-77.5 49 t-85.5 22.5q-56 0 -84 -35.5t-41 -107.5h-39z" />
<glyph unicode="&#xc4;" horiz-adv-x="1400" d="M20 0l680 1470l680 -1470h-43l-235 510h-803l-236 -510h-43zM317 549h766l-383 831zM455 1614v211h39v-211h-39zM905 1614v211h39v-211h-39z" />
<glyph unicode="&#xc5;" horiz-adv-x="1400" d="M20 0l680 1470l680 -1470h-43l-235 510h-803l-236 -510h-43zM317 549h766l-383 831zM535 1712q0 68 48 116t115 48q68 0 116 -48t48 -116t-48 -116t-116 -48q-67 0 -115 48t-48 116zM571 1712q0 -54 36.5 -91.5t90.5 -37.5t90.5 37.5t36.5 91.5t-36.5 91.5t-90.5 37.5 t-90.5 -37.5t-36.5 -91.5z" />
<glyph unicode="&#xc6;" horiz-adv-x="2160" d="M20 0l660 1425l-12 29h800l19 -39h-760l297 -645h655l19 -39h-656l320 -692h760l18 -39h-803l-235 510h-803l-236 -510h-43zM317 549h766l-383 831z" />
<glyph unicode="&#xc7;" horiz-adv-x="1380" d="M82 727q0 125 37 239t104.5 205t159 158.5t205 104t237.5 36.5q269 0 463 -155l-26 -31q-183 148 -437 148q-144 0 -273.5 -53.5t-223.5 -146t-149.5 -224.5t-55.5 -281q0 -199 94 -361t254.5 -252.5t353.5 -90.5q252 0 441 147l22 -31q-190 -149 -450 -155l-213 -322 h-43l215 324q-149 5 -281.5 64t-227.5 156.5t-150.5 233t-55.5 287.5z" />
<glyph unicode="&#xc8;" horiz-adv-x="1083" d="M205 0v1454h796v-39h-757v-645h635v-39h-635v-692h757v-39h-796zM424 1870h43l225 -297h-43z" />
<glyph unicode="&#xc9;" horiz-adv-x="1083" d="M205 0v1454h796v-39h-757v-645h635v-39h-635v-692h757v-39h-796zM516 1573l225 297h43l-225 -297h-43z" />
<glyph unicode="&#xca;" horiz-adv-x="1083" d="M205 0v1454h796v-39h-757v-645h635v-39h-635v-692h757v-39h-796zM231 1616l373 285l373 -285l-23 -27l-350 264l-350 -264z" />
<glyph unicode="&#xcb;" horiz-adv-x="1083" d="M205 0v1454h796v-39h-757v-645h635v-39h-635v-692h757v-39h-796zM360 1614v211h39v-211h-39zM811 1614v211h39v-211h-39z" />
<glyph unicode="&#xcc;" horiz-adv-x="448" d="M47 1870h43l225 -297h-43zM205 0v1454h39v-1454h-39z" />
<glyph unicode="&#xcd;" horiz-adv-x="448" d="M137 1573l225 297h44l-226 -297h-43zM205 0v1454h39v-1454h-39z" />
<glyph unicode="&#xce;" horiz-adv-x="448" d="M-147 1616l372 285l373 -285l-23 -27l-350 264l-350 -264zM205 0v1454h39v-1454h-39z" />
<glyph unicode="&#xcf;" horiz-adv-x="448" d="M41 1614v211q6 7 19.5 7t19.5 -7v-211h-39zM205 0v1454h39v-1454h-39zM369 1614v211q6 7 19.5 7t19.5 -7v-211h-39z" />
<glyph unicode="&#xd0;" horiz-adv-x="1478" d="M-41 731v39h246v684h403q173 0 320.5 -54.5t250 -150.5t160.5 -230.5t58 -291.5t-58 -291.5t-160.5 -230.5t-250 -150.5t-320.5 -54.5h-403v731h-246zM244 39h362q166 0 307 51.5t238 142.5t151 218.5t54 275.5t-54 275t-151 218t-238 143t-307 52h-362v-645h395v-39 h-395v-692z" />
<glyph unicode="&#xd1;" horiz-adv-x="1568" d="M205 0v1470l1120 -1378v1362h39v-1470l-1120 1378v-1362h-39zM487 1645l5 20q15 77 56 119.5t103 42.5q45 0 92.5 -22.5t80.5 -49.5t75.5 -49.5t79.5 -22.5q105 0 127 144h39l-4 -19q-36 -163 -162 -163q-42 0 -87 22.5t-78 49t-77.5 49t-85.5 22.5q-56 0 -84 -35.5 t-41 -107.5h-39z" />
<glyph unicode="&#xd2;" horiz-adv-x="1650" d="M82 727q0 125 37 239t104.5 205t159 158.5t205 104t237.5 36.5q154 0 292 -57t237 -155.5t157 -236.5t58 -294t-58 -294t-157 -236.5t-237 -155.5t-292 -57q-124 0 -237.5 36.5t-205 104t-159 158.5t-104.5 205t-37 239zM123 727q0 -199 94.5 -361t255 -252.5 t352.5 -90.5q143 0 272.5 53.5t224.5 146t150.5 224t55.5 280.5t-55.5 281t-150.5 224.5t-224.5 146t-272.5 53.5t-272.5 -53.5t-224 -146t-150 -224.5t-55.5 -281zM635 1870h43l225 -297h-43z" />
<glyph unicode="&#xd3;" horiz-adv-x="1650" d="M82 727q0 125 37 239t104.5 205t159 158.5t205 104t237.5 36.5q154 0 292 -57t237 -155.5t157 -236.5t58 -294t-58 -294t-157 -236.5t-237 -155.5t-292 -57q-124 0 -237.5 36.5t-205 104t-159 158.5t-104.5 205t-37 239zM123 727q0 -199 94.5 -361t255 -252.5 t352.5 -90.5q143 0 272.5 53.5t224.5 146t150.5 224t55.5 280.5t-55.5 281t-150.5 224.5t-224.5 146t-272.5 53.5t-272.5 -53.5t-224 -146t-150 -224.5t-55.5 -281zM758 1573l225 297h43l-225 -297h-43z" />
<glyph unicode="&#xd4;" horiz-adv-x="1650" d="M82 727q0 125 37 239t104.5 205t159 158.5t205 104t237.5 36.5q154 0 292 -57t237 -155.5t157 -236.5t58 -294t-58 -294t-157 -236.5t-237 -155.5t-292 -57q-124 0 -237.5 36.5t-205 104t-159 158.5t-104.5 205t-37 239zM123 727q0 -199 94.5 -361t255 -252.5 t352.5 -90.5q143 0 272.5 53.5t224.5 146t150.5 224t55.5 280.5t-55.5 281t-150.5 224.5t-224.5 146t-272.5 53.5t-272.5 -53.5t-224 -146t-150 -224.5t-55.5 -281zM453 1616l372 285l373 -285l-22 -27l-351 264l-350 -264z" />
<glyph unicode="&#xd5;" horiz-adv-x="1650" d="M82 727q0 125 37 239t104.5 205t159 158.5t205 104t237.5 36.5q154 0 292 -57t237 -155.5t157 -236.5t58 -294t-58 -294t-157 -236.5t-237 -155.5t-292 -57q-124 0 -237.5 36.5t-205 104t-159 158.5t-104.5 205t-37 239zM123 727q0 -199 94.5 -361t255 -252.5 t352.5 -90.5q143 0 272.5 53.5t224.5 146t150.5 224t55.5 280.5t-55.5 281t-150.5 224.5t-224.5 146t-272.5 53.5t-272.5 -53.5t-224 -146t-150 -224.5t-55.5 -281zM498 1645l4 20q15 77 56.5 119.5t103.5 42.5q45 0 92 -22.5t80.5 -49.5t75.5 -49.5t79 -22.5q105 0 127 144 h39l-4 -19q-36 -163 -162 -163q-42 0 -86.5 22.5t-77.5 49t-77.5 49t-85.5 22.5q-56 0 -84 -35.5t-41 -107.5h-39z" />
<glyph unicode="&#xd6;" horiz-adv-x="1650" d="M82 727q0 125 37 239t104.5 205t159 158.5t205 104t237.5 36.5q154 0 292 -57t237 -155.5t157 -236.5t58 -294t-58 -294t-157 -236.5t-237 -155.5t-292 -57q-124 0 -237.5 36.5t-205 104t-159 158.5t-104.5 205t-37 239zM123 727q0 -199 94.5 -361t255 -252.5 t352.5 -90.5q143 0 272.5 53.5t224.5 146t150.5 224t55.5 280.5t-55.5 281t-150.5 224.5t-224.5 146t-272.5 53.5t-272.5 -53.5t-224 -146t-150 -224.5t-55.5 -281zM580 1614v211h38v-211h-38zM1030 1614v211h39v-211h-39z" />
<glyph unicode="&#xd7;" horiz-adv-x="1116" d="M225 860l29 29l305 -305l291 290l27 -28l-291 -291l305 -303l-29 -29l-305 303l-299 -299l-27 29l299 299z" />
<glyph unicode="&#xd8;" horiz-adv-x="1650" d="M82 727q0 125 37 239t104.5 205t159 158.5t205 104t237.5 36.5q255 0 449 -145l135 170l29 -25l-133 -170q124 -102 194 -250.5t70 -322.5q0 -156 -58 -294t-157 -236.5t-237 -155.5t-292 -57q-249 0 -448 143l-123 -156l-29 25l123 156q-125 102 -195.5 250.5 t-70.5 324.5zM123 727q0 -166 66 -307t184 -238l876 1110q-189 140 -424 140q-143 0 -272.5 -53.5t-224 -146t-150 -224.5t-55.5 -281zM401 160q185 -137 424 -137q143 0 272.5 53.5t224.5 146t150.5 224t55.5 280.5q0 164 -66.5 304.5t-183.5 238.5z" />
<glyph unicode="&#xd9;" horiz-adv-x="1474" d="M205 532v922h39v-922q0 -252 130 -380.5t363 -128.5t363.5 128.5t130.5 380.5v922h39v-922q0 -264 -139.5 -406t-393.5 -142q-253 0 -392.5 142t-139.5 406zM539 1870h43l225 -297h-43z" />
<glyph unicode="&#xda;" horiz-adv-x="1474" d="M205 532v922h39v-922q0 -252 130 -380.5t363 -128.5t363.5 128.5t130.5 380.5v922h39v-922q0 -264 -139.5 -406t-393.5 -142q-253 0 -392.5 142t-139.5 406zM670 1573l225 297h43l-225 -297h-43z" />
<glyph unicode="&#xdb;" horiz-adv-x="1474" d="M205 532v922h39v-922q0 -252 130 -380.5t363 -128.5t363.5 128.5t130.5 380.5v922h39v-922q0 -264 -139.5 -406t-393.5 -142q-253 0 -392.5 142t-139.5 406zM365 1616l372 285l373 -285l-23 -27l-350 264l-350 -264z" />
<glyph unicode="&#xdc;" horiz-adv-x="1474" d="M205 532v922h39v-922q0 -252 130 -380.5t363 -128.5t363.5 128.5t130.5 380.5v922h39v-922q0 -264 -139.5 -406t-393.5 -142q-253 0 -392.5 142t-139.5 406zM494 1614v211h38v-211h-38zM944 1614v211h39v-211h-39z" />
<glyph unicode="&#xdd;" horiz-adv-x="1140" d="M20 1454h46l505 -795l504 795h45l-530 -836v-618h-39v618zM502 1573l225 297h43l-225 -297h-43z" />
<glyph unicode="&#xde;" horiz-adv-x="1091" d="M205 0v1454h39v-324h360q110 0 196.5 -30.5t139.5 -84t80 -122.5t27 -150q0 -168 -113 -277.5t-328 -109.5h-362v-356h-39zM244 395h368q189 0 291.5 97t102.5 251t-103 251.5t-291 97.5h-368v-697z" />
<glyph unicode="&#xdf;" horiz-adv-x="1099" d="M184 0v1176q0 147 62.5 212.5t202.5 65.5h57v-39h-43q-142 0 -191 -60t-49 -212v-119h684l-403 -545h6q221 0 354 -108.5t133 -319.5q0 -201 -135 -314.5t-383 -113.5h-47v39h43q228 0 354.5 100t126.5 289q0 102 -34.5 178t-96.5 121.5t-141 67.5t-174 22h-82l403 545 h-608v-985h-39z" />
<glyph unicode="&#xe0;" d="M102 512q0 108 39.5 205t108.5 168.5t168.5 113t214.5 41.5q125 0 232 -49t179 -135v168h39v-1024h-39v168q-72 -87 -178 -135.5t-233 -48.5q-115 0 -214.5 41.5t-168.5 113t-108.5 168.5t-39.5 205zM143 512q0 -135 62.5 -246.5t175 -177t252.5 -65.5q128 0 236 55 t175 149v566q-65 97 -173.5 152.5t-237.5 55.5q-140 0 -252.5 -65.5t-175 -177t-62.5 -246.5zM428 1454h43l225 -338h-43z" />
<glyph unicode="&#xe1;" d="M102 512q0 108 39.5 205t108.5 168.5t168.5 113t214.5 41.5q125 0 232 -49t179 -135v168h39v-1024h-39v168q-72 -87 -178 -135.5t-233 -48.5q-115 0 -214.5 41.5t-168.5 113t-108.5 168.5t-39.5 205zM143 512q0 -135 62.5 -246.5t175 -177t252.5 -65.5q128 0 236 55 t175 149v566q-65 97 -173.5 152.5t-237.5 55.5q-140 0 -252.5 -65.5t-175 -177t-62.5 -246.5zM614 1116l226 338h43l-226 -338h-43z" />
<glyph unicode="&#xe2;" d="M102 512q0 108 39.5 205t108.5 168.5t168.5 113t214.5 41.5q125 0 232 -49t179 -135v168h39v-1024h-39v168q-72 -87 -178 -135.5t-233 -48.5q-115 0 -214.5 41.5t-168.5 113t-108.5 168.5t-39.5 205zM143 512q0 -135 62.5 -246.5t175 -177t252.5 -65.5q128 0 236 55 t175 149v566q-65 97 -173.5 152.5t-237.5 55.5q-140 0 -252.5 -65.5t-175 -177t-62.5 -246.5zM303 1186l332 284l332 -284l-25 -27l-307 262l-307 -262z" />
<glyph unicode="&#xe3;" d="M102 512q0 108 39.5 205t108.5 168.5t168.5 113t214.5 41.5q125 0 232 -49t179 -135v168h39v-1024h-39v168q-72 -87 -178 -135.5t-233 -48.5q-115 0 -214.5 41.5t-168.5 113t-108.5 168.5t-39.5 205zM143 512q0 -135 62.5 -246.5t175 -177t252.5 -65.5q128 0 236 55 t175 149v566q-65 97 -173.5 152.5t-237.5 55.5q-140 0 -252.5 -65.5t-175 -177t-62.5 -246.5zM342 1192l4 20q15 76 57 119t103 43q45 0 92.5 -22.5t80.5 -49t75.5 -49t79.5 -22.5q55 0 85.5 36t41.5 107h38l-4 -20q-15 -77 -56.5 -119.5t-104.5 -42.5q-42 0 -87 22.5 t-78 49t-77.5 49t-85.5 22.5q-56 0 -84 -35.5t-41 -107.5h-39z" />
<glyph unicode="&#xe4;" d="M102 512q0 108 39.5 205t108.5 168.5t168.5 113t214.5 41.5q125 0 232 -49t179 -135v168h39v-1024h-39v168q-72 -87 -178 -135.5t-233 -48.5q-115 0 -214.5 41.5t-168.5 113t-108.5 168.5t-39.5 205zM143 512q0 -135 62.5 -246.5t175 -177t252.5 -65.5q128 0 236 55 t175 149v566q-65 97 -173.5 152.5t-237.5 55.5q-140 0 -252.5 -65.5t-175 -177t-62.5 -246.5zM391 1196v211h39v-211h-39zM842 1196v211h39v-211h-39z" />
<glyph unicode="&#xe5;" d="M102 512q0 108 39.5 205t108.5 168.5t168.5 113t214.5 41.5q125 0 232 -49t179 -135v168h39v-1024h-39v168q-72 -87 -178 -135.5t-233 -48.5q-115 0 -214.5 41.5t-168.5 113t-108.5 168.5t-39.5 205zM143 512q0 -135 62.5 -246.5t175 -177t252.5 -65.5q128 0 236 55 t175 149v566q-65 97 -173.5 152.5t-237.5 55.5q-140 0 -252.5 -65.5t-175 -177t-62.5 -246.5zM469 1374q0 68 48.5 116t115.5 48t115.5 -48t48.5 -116t-48.5 -116t-115.5 -48t-115.5 48t-48.5 116zM506 1374q0 -54 36.5 -91.5t90.5 -37.5t90.5 37.5t36.5 91.5t-36.5 91.5 t-90.5 37.5t-90.5 -37.5t-36.5 -91.5z" />
<glyph unicode="&#xe6;" horiz-adv-x="1988" d="M90 313q0 147 107 238.5t286 91.5q248 0 426 -139v143q0 178 -101 266t-278 88q-111 0 -205.5 -40.5t-154.5 -106.5l-29 35q155 151 389 151q79 0 148 -18.5t127 -57t95.5 -103t45.5 -150.5q55 149 181 239t294 90q93 0 176 -30.5t150.5 -91t108.5 -160.5t42 -228h-946 v-18q0 -135 62.5 -246.5t175 -177t252.5 -65.5q109 0 206 40.5t164 108.5l29 -31q-71 -72 -175.5 -114.5t-223.5 -42.5q-155 0 -276 71t-189 193q-166 -264 -494 -264q-179 0 -286 91t-107 238zM131 313q0 -130 95.5 -210t258.5 -80q152 0 274.5 66.5t201.5 193.5 q-36 74 -46 168q-82 74 -193 113.5t-237 39.5q-163 0 -258.5 -80.5t-95.5 -210.5zM954 567h901q-15 209 -131 321.5t-303 112.5q-190 0 -319 -123t-148 -311z" />
<glyph unicode="&#xe7;" horiz-adv-x="1095" d="M102 512q0 108 39.5 205t108.5 168.5t168.5 113t214.5 41.5q228 0 381 -153l-31 -31q-139 145 -350 145q-140 0 -252.5 -65.5t-175 -177t-62.5 -246.5t62.5 -246.5t175 -177t252.5 -65.5q210 0 350 143l29 -31q-134 -137 -340 -149l-215 -324h-43l213 322 q-151 2 -272 73.5t-187 191t-66 263.5z" />
<glyph unicode="&#xe8;" horiz-adv-x="1179" d="M102 512q0 145 64 265.5t181.5 191.5t264.5 71q93 0 176 -30.5t151 -91t109 -160.5t42 -228h-947v-18q0 -135 62.5 -246.5t175 -177t252.5 -65.5q110 0 207 40.5t164 108.5l28 -31q-71 -72 -175.5 -114.5t-223.5 -42.5q-115 0 -214.5 41.5t-168.5 113t-108.5 168.5 t-39.5 205zM145 567h902q-15 208 -131.5 321t-303.5 113q-190 0 -319 -123t-148 -311zM432 1454h43l225 -338h-43z" />
<glyph unicode="&#xe9;" horiz-adv-x="1179" d="M102 512q0 145 64 265.5t181.5 191.5t264.5 71q93 0 176 -30.5t151 -91t109 -160.5t42 -228h-947v-18q0 -135 62.5 -246.5t175 -177t252.5 -65.5q110 0 207 40.5t164 108.5l28 -31q-71 -72 -175.5 -114.5t-223.5 -42.5q-115 0 -214.5 41.5t-168.5 113t-108.5 168.5 t-39.5 205zM145 567h902q-15 208 -131.5 321t-303.5 113q-190 0 -319 -123t-148 -311zM565 1116l226 338h43l-226 -338h-43z" />
<glyph unicode="&#xea;" horiz-adv-x="1179" d="M102 512q0 145 64 265.5t181.5 191.5t264.5 71q93 0 176 -30.5t151 -91t109 -160.5t42 -228h-947v-18q0 -135 62.5 -246.5t175 -177t252.5 -65.5q110 0 207 40.5t164 108.5l28 -31q-71 -72 -175.5 -114.5t-223.5 -42.5q-115 0 -214.5 41.5t-168.5 113t-108.5 168.5 t-39.5 205zM145 567h902q-15 208 -131.5 321t-303.5 113q-190 0 -319 -123t-148 -311zM281 1186l331 284l332 -284l-24 -27l-308 262l-307 -262z" />
<glyph unicode="&#xeb;" horiz-adv-x="1179" d="M102 512q0 145 64 265.5t181.5 191.5t264.5 71q93 0 176 -30.5t151 -91t109 -160.5t42 -228h-947v-18q0 -135 62.5 -246.5t175 -177t252.5 -65.5q110 0 207 40.5t164 108.5l28 -31q-71 -72 -175.5 -114.5t-223.5 -42.5q-115 0 -214.5 41.5t-168.5 113t-108.5 168.5 t-39.5 205zM145 567h902q-15 208 -131.5 321t-303.5 113q-190 0 -319 -123t-148 -311zM369 1196v211h39v-211h-39zM819 1196v211h39v-211h-39z" />
<glyph unicode="&#xec;" horiz-adv-x="407" d="M25 1454h43l225 -338h-43zM184 0v1024h39v-1024h-39z" />
<glyph unicode="&#xed;" horiz-adv-x="407" d="M113 1116l225 338h43l-225 -338h-43zM184 0v1024h39v-1024h-39z" />
<glyph unicode="&#xee;" horiz-adv-x="407" d="M-129 1186l332 284l332 -284l-25 -27l-307 262l-307 -262zM184 0v1024h39v-1024h-39z" />
<glyph unicode="&#xef;" horiz-adv-x="407" d="M20 1196v211q6 7 19.5 7t19.5 -7v-211h-39zM184 0v1024h39v-1024h-39zM348 1196v211q6 7 19.5 7t19.5 -7v-211h-39z" />
<glyph unicode="&#xf0;" horiz-adv-x="1265" d="M102 512q0 108 39.5 205t108.5 168.5t168.5 113t214.5 41.5q164 0 291 -79l-179 249h-272v39h244l-146 205h47l146 -205h299v-39h-272l276 -387q96 -138 96 -311q0 -145 -66.5 -265.5t-188.5 -191.5t-275 -71q-115 0 -214.5 41.5t-168.5 113t-108.5 168.5t-39.5 205z M143 512q0 -135 62.5 -246.5t175 -177t252.5 -65.5q211 0 350 141.5t139 347.5t-139 347.5t-350 141.5q-140 0 -252.5 -65.5t-175 -177t-62.5 -246.5z" />
<glyph unicode="&#xf1;" horiz-adv-x="1183" d="M184 0v1024h39v-217q53 104 152.5 168.5t234.5 64.5q199 0 304.5 -111.5t105.5 -301.5v-627h-39v612q0 184 -97.5 286.5t-273.5 102.5q-143 0 -244.5 -79.5t-142.5 -208.5v-713h-39zM274 1192l5 20q15 76 56.5 119t102.5 43q45 0 92.5 -22.5t80.5 -49t75.5 -49 t79.5 -22.5q55 0 85.5 36t41.5 107h39l-4 -20q-15 -77 -57 -119.5t-105 -42.5q-42 0 -87 22.5t-78 49t-77.5 49t-85.5 22.5q-56 0 -84 -35.5t-41 -107.5h-39z" />
<glyph unicode="&#xf2;" horiz-adv-x="1265" d="M102 512q0 108 39.5 205t108.5 168.5t168.5 113t214.5 41.5q153 0 275 -71t188.5 -191.5t66.5 -265.5t-66.5 -265.5t-188.5 -191.5t-275 -71q-115 0 -214.5 41.5t-168.5 113t-108.5 168.5t-39.5 205zM143 512q0 -135 62.5 -246.5t175 -177t252.5 -65.5q211 0 350 141.5 t139 347.5t-139 347.5t-350 141.5q-140 0 -252.5 -65.5t-175 -177t-62.5 -246.5zM432 1454h43l225 -338h-43z" />
<glyph unicode="&#xf3;" horiz-adv-x="1265" d="M102 512q0 108 39.5 205t108.5 168.5t168.5 113t214.5 41.5q153 0 275 -71t188.5 -191.5t66.5 -265.5t-66.5 -265.5t-188.5 -191.5t-275 -71q-115 0 -214.5 41.5t-168.5 113t-108.5 168.5t-39.5 205zM143 512q0 -135 62.5 -246.5t175 -177t252.5 -65.5q211 0 350 141.5 t139 347.5t-139 347.5t-350 141.5q-140 0 -252.5 -65.5t-175 -177t-62.5 -246.5zM586 1116l225 338h43l-225 -338h-43z" />
<glyph unicode="&#xf4;" horiz-adv-x="1265" d="M102 512q0 108 39.5 205t108.5 168.5t168.5 113t214.5 41.5q153 0 275 -71t188.5 -191.5t66.5 -265.5t-66.5 -265.5t-188.5 -191.5t-275 -71q-115 0 -214.5 41.5t-168.5 113t-108.5 168.5t-39.5 205zM143 512q0 -135 62.5 -246.5t175 -177t252.5 -65.5q211 0 350 141.5 t139 347.5t-139 347.5t-350 141.5q-140 0 -252.5 -65.5t-175 -177t-62.5 -246.5zM301 1186l332 284l332 -284l-25 -27l-307 262l-307 -262z" />
<glyph unicode="&#xf5;" horiz-adv-x="1265" d="M102 512q0 108 39.5 205t108.5 168.5t168.5 113t214.5 41.5q153 0 275 -71t188.5 -191.5t66.5 -265.5t-66.5 -265.5t-188.5 -191.5t-275 -71q-115 0 -214.5 41.5t-168.5 113t-108.5 168.5t-39.5 205zM143 512q0 -135 62.5 -246.5t175 -177t252.5 -65.5q211 0 350 141.5 t139 347.5t-139 347.5t-350 141.5q-140 0 -252.5 -65.5t-175 -177t-62.5 -246.5zM307 1192l4 20q15 76 57 119t103 43q45 0 92.5 -22.5t80.5 -49t75.5 -49t79.5 -22.5q55 0 85.5 36t41.5 107h39l-4 -20q-15 -77 -57 -119.5t-105 -42.5q-42 0 -87 22.5t-78 49t-77.5 49 t-85.5 22.5q-56 0 -84 -35.5t-41 -107.5h-39z" />
<glyph unicode="&#xf6;" horiz-adv-x="1265" d="M102 512q0 108 39.5 205t108.5 168.5t168.5 113t214.5 41.5q153 0 275 -71t188.5 -191.5t66.5 -265.5t-66.5 -265.5t-188.5 -191.5t-275 -71q-115 0 -214.5 41.5t-168.5 113t-108.5 168.5t-39.5 205zM143 512q0 -135 62.5 -246.5t175 -177t252.5 -65.5q211 0 350 141.5 t139 347.5t-139 347.5t-350 141.5q-140 0 -252.5 -65.5t-175 -177t-62.5 -246.5zM389 1196v211h39v-211h-39zM840 1196v211h39v-211h-39z" />
<glyph unicode="&#xf7;" horiz-adv-x="1351" d="M225 535v38h901v-38h-901zM655 166v211h39v-211h-39zM655 731v211h39v-211h-39z" />
<glyph unicode="&#xf8;" horiz-adv-x="1265" d="M102 512q0 108 39.5 205t108.5 168.5t168.5 113t214.5 41.5q194 0 332 -110l104 119l27 -27l-103 -117q80 -73 125 -175t45 -218q0 -145 -66.5 -265.5t-188.5 -191.5t-275 -71q-206 0 -350 122l-115 -129l-27 27l115 129q-154 151 -154 379zM143 512q0 -208 140 -348 l653 735q-133 102 -303 102q-140 0 -252.5 -65.5t-175 -177t-62.5 -246.5zM309 137q133 -114 324 -114q211 0 350 141.5t139 347.5q0 107 -41 201.5t-114 163.5z" />
<glyph unicode="&#xf9;" horiz-adv-x="1163" d="M143 397v627h39v-612q0 -184 97.5 -286.5t273.5 -102.5q141 0 242.5 79t144.5 207v715h39v-1024h-39v217q-54 -105 -153.5 -169t-233.5 -64q-199 0 -304.5 111.5t-105.5 301.5zM381 1454h43l225 -338h-43z" />
<glyph unicode="&#xfa;" horiz-adv-x="1163" d="M143 397v627h39v-612q0 -184 97.5 -286.5t273.5 -102.5q141 0 242.5 79t144.5 207v715h39v-1024h-39v217q-54 -105 -153.5 -169t-233.5 -64q-199 0 -304.5 111.5t-105.5 301.5zM471 1116l225 338h43l-225 -338h-43z" />
<glyph unicode="&#xfb;" horiz-adv-x="1163" d="M143 397v627h39v-612q0 -184 97.5 -286.5t273.5 -102.5q141 0 242.5 79t144.5 207v715h39v-1024h-39v217q-54 -105 -153.5 -169t-233.5 -64q-199 0 -304.5 111.5t-105.5 301.5zM229 1186l332 284l332 -284l-25 -27l-307 262l-307 -262z" />
<glyph unicode="&#xfc;" horiz-adv-x="1163" d="M143 397v627h39v-612q0 -184 97.5 -286.5t273.5 -102.5q141 0 242.5 79t144.5 207v715h39v-1024h-39v217q-54 -105 -153.5 -169t-233.5 -64q-199 0 -304.5 111.5t-105.5 301.5zM317 1196v211h39v-211h-39zM768 1196v211h39v-211h-39z" />
<glyph unicode="&#xfd;" horiz-adv-x="1056" d="M20 1024h46l458 -963l469 963h43l-682 -1401h-47l197 393zM504 1116l225 338h43l-225 -338h-43z" />
<glyph unicode="&#xfe;" d="M184 -377v1831h39v-598q70 86 177.5 135t234.5 49q153 0 275 -71t188.5 -191.5t66.5 -265.5t-66.5 -265.5t-188.5 -191.5t-275 -71q-127 0 -234.5 49t-177.5 135v-545h-39zM223 227q66 -94 175 -149t237 -55q211 0 350 141.5t139 347.5t-139 347.5t-350 141.5 q-130 0 -238 -55.5t-174 -152.5v-566z" />
<glyph unicode="&#xff;" horiz-adv-x="1056" d="M20 1024h46l458 -963l469 963h43l-682 -1401h-47l197 393zM283 1196v211h39v-211h-39zM733 1196v211h39v-211h-39z" />
<glyph unicode="&#x152;" horiz-adv-x="2250" d="M82 727q0 125 37 239t104.5 205t159 158.5t205 104t237.5 36.5q162 0 303 -61t244 -172v217h797v-39h-758v-223q144 -184 156 -422h479v-39h-477v-4q0 -262 -158 -467v-221h758v-39h-797v215q-103 -109 -244.5 -170t-302.5 -61q-124 0 -237.5 36.5t-205 104t-159 158.5 t-104.5 205t-37 239zM123 727q0 -199 94.5 -361t255 -252.5t352.5 -90.5q143 0 272.5 53.5t224.5 146t150.5 224t55.5 280.5t-55.5 281t-150.5 224.5t-224.5 146t-272.5 53.5t-272.5 -53.5t-224 -146t-150 -224.5t-55.5 -281z" />
<glyph unicode="&#x153;" horiz-adv-x="2199" d="M102 512q0 108 39.5 205t108.5 168.5t168.5 113t214.5 41.5q188 0 325.5 -104.5t184.5 -271.5q44 167 175.5 271.5t313.5 104.5q71 0 137.5 -18t127 -56.5t106 -94.5t74 -138t32.5 -180v-23h-946v-18q0 -135 62.5 -246.5t175 -177t252.5 -65.5q109 0 206 40.5t164 108.5 l29 -31q-71 -72 -175.5 -114.5t-223.5 -42.5q-190 0 -327.5 104.5t-182.5 271.5q-45 -166 -183.5 -271t-326.5 -105q-115 0 -214.5 41.5t-168.5 113t-108.5 168.5t-39.5 205zM143 512q0 -135 62.5 -246.5t175 -177t252.5 -65.5q211 0 350 141.5t139 347.5t-139 347.5 t-350 141.5q-140 0 -252.5 -65.5t-175 -177t-62.5 -246.5zM1165 567h901q-15 209 -131 321.5t-303 112.5q-190 0 -319 -123t-148 -311z" />
<glyph unicode="&#x178;" horiz-adv-x="1140" d="M20 1454h46l505 -795l504 795h45l-530 -836v-618h-39v618zM326 1614v211h39v-211h-39zM776 1614v211h39v-211h-39z" />
<glyph unicode="&#x2c6;" horiz-adv-x="745" d="M41 1186l332 284l332 -284l-25 -27l-307 262l-307 -262z" />
<glyph unicode="&#x2dc;" horiz-adv-x="780" d="M61 1192l5 20q15 76 56.5 119t102.5 43q45 0 92.5 -22.5t80.5 -49t75.5 -49t79.5 -22.5q55 0 85.5 36t41.5 107h39l-4 -20q-15 -77 -57 -119.5t-105 -42.5q-42 0 -87 22.5t-78 49t-77.5 49t-85.5 22.5q-56 0 -84 -35.5t-41 -107.5h-39z" />
<glyph unicode="&#x2000;" horiz-adv-x="950" />
<glyph unicode="&#x2001;" horiz-adv-x="1901" />
<glyph unicode="&#x2002;" horiz-adv-x="950" />
<glyph unicode="&#x2003;" horiz-adv-x="1901" />
<glyph unicode="&#x2004;" horiz-adv-x="633" />
<glyph unicode="&#x2005;" horiz-adv-x="475" />
<glyph unicode="&#x2006;" horiz-adv-x="316" />
<glyph unicode="&#x2007;" horiz-adv-x="316" />
<glyph unicode="&#x2008;" horiz-adv-x="237" />
<glyph unicode="&#x2009;" horiz-adv-x="380" />
<glyph unicode="&#x200a;" horiz-adv-x="105" />
<glyph unicode="&#x2010;" horiz-adv-x="669" d="M102 535v38h465v-38h-465z" />
<glyph unicode="&#x2011;" horiz-adv-x="669" d="M102 535v38h465v-38h-465z" />
<glyph unicode="&#x2012;" horiz-adv-x="669" d="M102 535v38h465v-38h-465z" />
<glyph unicode="&#x2013;" horiz-adv-x="1040" d="M102 535v38h836v-38h-836z" />
<glyph unicode="&#x2014;" horiz-adv-x="1671" d="M102 535v38h1467v-38h-1467z" />
<glyph unicode="&#x2018;" horiz-adv-x="374" d="M133 961v213l111 280h39l-111 -283v-210h-39z" />
<glyph unicode="&#x2019;" horiz-adv-x="374" d="M92 961l111 282v211h39v-213l-111 -280h-39z" />
<glyph unicode="&#x201a;" horiz-adv-x="374" d="M92 -283l111 283v211h39v-213l-111 -281h-39z" />
<glyph unicode="&#x201c;" horiz-adv-x="751" d="M133 961v213l111 280h39l-111 -283v-210h-39zM510 961v213l111 280h38l-110 -283v-210h-39z" />
<glyph unicode="&#x201d;" horiz-adv-x="751" d="M92 961l111 282v211h39v-213l-111 -280h-39zM469 961l111 282v211h38v-213l-110 -280h-39z" />
<glyph unicode="&#x201e;" horiz-adv-x="751" d="M92 -283l111 283v211h39v-213l-111 -281h-39zM469 -283l111 283v211h38v-213l-110 -281h-39z" />
<glyph unicode="&#x2022;" horiz-adv-x="1007" d="M225 618q0 116 81.5 197.5t197.5 81.5q115 0 196.5 -81.5t81.5 -197.5t-81 -197t-197 -81t-197.5 81.5t-81.5 196.5z" />
<glyph unicode="&#x2026;" horiz-adv-x="1087" d="M162 0v211h39v-211h-39zM524 0v211h39v-211h-39zM887 0v211h39v-211h-39z" />
<glyph unicode="&#x202f;" horiz-adv-x="380" />
<glyph unicode="&#x2039;" horiz-adv-x="536" d="M61 512l301 436l31 -22l-284 -414l284 -414l-31 -22z" />
<glyph unicode="&#x203a;" horiz-adv-x="536" d="M143 98l285 414l-285 414l31 22l301 -436l-301 -436z" />
<glyph unicode="&#x205f;" horiz-adv-x="475" />
<glyph unicode="&#x20ac;" horiz-adv-x="1429" d="M10 528l21 39h221q-16 82 -16 160q0 81 16 166h-242l21 39h231q65 239 262 388.5t455 149.5q228 0 405 -114l-18 -35q-171 111 -387 111q-239 0 -425 -138.5t-249 -361.5h887l-21 -39h-876q-19 -84 -19 -166q0 -73 17 -160h694l-20 -39h-664q62 -226 248 -365.5 t428 -139.5q130 0 246 40v-40q-113 -39 -246 -39q-261 0 -458.5 150.5t-260.5 393.5h-250z" />
<glyph unicode="&#x2122;" horiz-adv-x="1679" d="M129 1415v39h530v-39h-245v-760h-39v760h-246zM776 655v836l357 -504l356 504v-836h-39v715l-317 -448l-318 448v-715h-39z" />
<glyph unicode="&#x25fc;" horiz-adv-x="1024" d="M0 0v1024h1024v-1024h-1024z" />
<glyph unicode="&#xfb01;" horiz-adv-x="987" d="M-33 985v39h266q-56 30 -88 80.5t-32 114.5q0 107 77 171t213 64h154v-37h-170q-107 0 -170 -55t-63 -143q0 -85 63 -140t170 -55h172v-39h-283v-985h-38v985h-271zM764 0v1024h39v-1024h-39zM764 1270v184q5 8 20 8q14 0 19 -8v-184h-39z" />
<glyph unicode="&#xfb02;" horiz-adv-x="987" d="M-33 985v39h266q-56 30 -88 80.5t-32 114.5q0 107 77 171t213 64h154v-37h-170q-107 0 -170 -55t-63 -143q0 -85 63 -140t170 -55h172v-39h-283v-985h-38v985h-271zM764 0v1454h39v-1454h-39z" />
</font>
</defs>
</svg>
