<?xml version="1.0" encoding="utf-8"?>
<!-- Generator: Adobe Illustrator 18.0.0, SVG Export Plug-In . SVG Version: 6.00 Build 0)  -->
<!DOCTYPE svg PUBLIC "-//W3C//DTD SVG 1.1//EN" "http://www.w3.org/Graphics/SVG/1.1/DTD/svg11.dtd">
<svg version="1.1" id="Layer_1" xmlns="http://www.w3.org/2000/svg" xmlns:xlink="http://www.w3.org/1999/xlink" x="0px" y="0px"
	 viewBox="-431.4 129 98.7 98.7" enable-background="new -431.4 129 98.7 98.7" xml:space="preserve">
<g>
	<path fill="#080808" d="M-382.3,129c7,0,13.4,1.4,19.5,3.7c6,2.8,11.1,6,15.8,10.7s7.9,9.7,10.7,15.8c2.8,6,3.7,12.5,3.7,19
		c0,7-1.4,13.4-3.7,19.5c-2.8,6-6,11.1-10.7,15.8s-9.7,7.9-15.8,10.7c-6,2.8-12.5,3.7-19.5,3.7c-7,0-13.4-1.4-19-3.7
		c-6-2.8-11.1-6-15.8-10.7c-4.6-4.6-7.9-9.7-10.7-15.8c-2.8-6-3.7-12.5-3.7-19.5c0-7,1.4-13.4,3.7-19c2.8-6,6-11.1,10.7-15.8
		c4.6-4.6,9.7-7.9,15.8-10.7C-395.7,130.4-389.3,129-382.3,129z M-363.8,150.3h-10.7c-1.9,0-3.7,0.5-5.6,0.9
		c-1.9,0.9-3.2,1.9-4.6,2.8c-1.4,1.4-2.3,2.3-2.8,4.2c-0.9,1.4-0.9,2.8-0.9,4.6v6h-9.3v12h9.3v24.6h12.5v-24.6h9.3v-12h-9.3v-3.2
		c0-0.9,0.5-1.9,0.9-2.3c0.9-0.5,1.4-0.9,1.9-0.9h9.3V150.3L-363.8,150.3z"/>
</g>
</svg>
