<?xml version="1.0" encoding="utf-8"?>
<!-- Generator: Adobe Illustrator 18.0.0, SVG Export Plug-In . SVG Version: 6.00 Build 0)  -->
<!DOCTYPE svg PUBLIC "-//W3C//DTD SVG 1.1//EN" "http://www.w3.org/Graphics/SVG/1.1/DTD/svg11.dtd">
<svg version="1.1" id="Layer_1" xmlns="http://www.w3.org/2000/svg" xmlns:xlink="http://www.w3.org/1999/xlink" x="0px" y="0px"
	 viewBox="-430.5 271.3 98.2 98.2" enable-background="new -430.5 271.3 98.2 98.2" xml:space="preserve">
<g>
	<path fill="#080808" d="M-381.4,271.3c7,0,13.4,1.4,19,3.7c6,2.8,11.1,6,15.8,10.7c4.6,4.6,7.9,9.7,10.7,15.8
		c2.8,6,3.7,12.5,3.7,19c0,7-1.4,13.4-3.7,19c-2.8,6-6,11.1-10.7,15.8c-4.6,4.6-9.7,7.9-15.8,10.7c-6,2.8-12.5,3.7-19,3.7
		c-7,0-13.4-1.4-19-3.7c-6-2.8-11.1-6-15.8-10.7c-4.6-4.6-7.9-9.7-10.7-15.8c-2.8-6-3.7-12.5-3.7-19c0-7,1.4-13.4,3.7-19
		c2.8-6,6-11.1,10.7-15.8c4.6-4.6,9.7-7.9,15.8-10.7C-394.3,272.7-388.3,271.3-381.4,271.3z M-356.8,309.7c2.3-1.9,4.2-3.7,6-6
		c-0.9,0.5-2.3,0.9-3.2,1.4c-0.9,0.5-2.3,0.5-3.7,0.9c1.4-0.9,2.3-1.9,3.2-2.8c0.9-0.9,1.4-2.3,1.9-3.7c-1.4,0.5-2.3,1.4-3.7,1.9
		c-1.4,0.5-2.3,0.9-3.7,0.9c-0.9-0.9-2.3-1.9-3.7-2.8c-1.4-0.9-3.2-0.9-5.1-0.9s-3.2,0.5-4.6,0.9c-1.4,0.5-2.8,1.4-3.7,2.8
		c-0.9,0.9-1.9,2.3-2.3,3.7c-0.5,1.4-0.9,2.8-0.9,4.6c0,0.5,0,0.9,0,1.4c0,0.5,0,0.9,0,1.4c-5.1-0.5-9.7-1.4-13.9-3.7
		c-4.2-2.3-7.9-5.1-10.7-8.8c-0.9,1.9-1.9,3.7-1.9,6c0,1.9,0.5,4.2,1.4,5.6c0.9,1.9,2.3,3.2,3.7,4.2c-1.9,0-3.7-0.5-5.6-1.4l0,0
		c0,2.8,0.9,5.6,2.8,7.9s4.2,3.7,7,4.2c-0.5,0-0.9,0.5-1.4,0.5c-0.5,0-0.9,0-1.4,0c-0.5,0-0.9,0-0.9,0c-0.5,0-0.9,0-0.9,0
		c0.9,2.3,2.3,4.2,4.2,6c1.9,1.4,4.2,2.3,7,2.3c-1.9,1.9-4.2,2.8-7,3.7c-2.3,0.9-5.1,1.4-7.9,1.4c-0.5,0-0.9,0-1.4,0
		c-0.5,0-0.9,0-1.4,0c2.8,1.9,5.6,3.2,8.8,4.2c3.2,0.9,6.5,1.4,9.7,1.4c5.6,0,10.2-0.9,14.4-3.2c4.2-1.9,7.9-4.6,10.7-7.9
		c2.8-3.2,5.1-7,6.5-11.1c1.4-4.2,2.3-7.9,2.3-12L-356.8,309.7L-356.8,309.7z"/>
</g>
</svg>
