<?xml version="1.0" encoding="utf-8"?>
<!-- Generator: Adobe Illustrator 18.0.0, SVG Export Plug-In . SVG Version: 6.00 Build 0)  -->
<!DOCTYPE svg PUBLIC "-//W3C//DTD SVG 1.1//EN" "http://www.w3.org/Graphics/SVG/1.1/DTD/svg11.dtd">
<svg version="1.1" id="Layer_1" xmlns="http://www.w3.org/2000/svg" xmlns:xlink="http://www.w3.org/1999/xlink" x="0px" y="0px"
	 viewBox="-267.9 420.6 90.4 90.4" enable-background="new -267.9 420.6 90.4 90.4" xml:space="preserve">
<g>
	<path fill="#080808" d="M-177.5,507.2l-3.7,3.7l-28.3-28.3c-1.4,1.4-3.2,2.3-5.1,3.7c-1.9,0.9-3.7,1.9-5.6,2.8
		c-1.9,0.9-4.2,1.4-6,1.9c-2.3,0.5-4.2,0.5-6.5,0.5c-5.1,0-9.7-0.9-13.9-2.8s-7.9-4.6-11.1-7.4c-3.2-3.2-5.6-7-7.4-11.1
		c-1.9-4.2-2.8-8.8-2.8-13.9c0-2.3,0.5-4.6,0.9-7c0.5-2.3,0.9-4.6,1.9-6.5c0.9-2.3,1.9-4.2,3.2-6c1.4-1.9,2.8-3.7,4.6-5.6
		c1.9-1.9,3.7-3.2,5.6-4.6c1.9-1.4,4.2-2.3,6-3.2c2.3-0.9,4.2-1.4,6.5-1.9c2.3-0.5,4.6-0.9,7-0.9c4.6,0,9.3,0.9,13.9,2.8
		c4.2,1.9,8.3,4.6,11.1,7.4c3.2,3.2,5.6,7,7.4,11.1c1.9,4.2,2.8,8.8,2.8,13.9c0,2.3,0,4.2-0.5,6.5c-0.5,2.3-0.9,4.2-1.9,6
		c-0.9,1.9-1.9,3.7-2.8,5.6c-0.9,1.9-2.3,3.2-3.7,5.1L-177.5,507.2z M-232.2,485.9c4.2,0,7.9-0.9,11.6-2.3c3.7-1.4,7-3.7,9.7-6.5
		c2.8-2.8,4.6-6,6.5-9.7c1.4-3.7,2.3-7.4,2.3-11.6s-0.9-7.9-2.3-11.6s-3.7-7-6.5-9.7c-2.8-2.8-6-4.6-9.7-6.5
		c-3.7-1.4-7.4-2.3-11.6-2.3c-1.9,0-4.2,0-6,0.5c-1.9,0.5-3.7,0.9-5.6,1.9c-1.9,0.9-3.7,1.9-5.1,2.8s-3.2,2.3-4.6,3.7
		c-1.4,1.4-2.8,2.8-3.7,4.6s-1.9,3.2-2.8,5.1c-0.9,1.9-1.4,3.7-1.9,5.6c-0.5,1.9-0.5,3.7-0.5,6c0,4.2,0.9,7.9,2.3,11.6
		c1.4,3.7,3.7,7,6.5,9.7c2.8,2.8,6,4.6,9.7,6.5C-240.5,485-236.3,485.9-232.2,485.9z M-229.9,453.5v-11.1h-5.6v11.1h-11.1v5.6h11.1
		v10.7h5.6v-10.7h10.7v-5.6H-229.9z"/>
</g>
</svg>
