<?xml version="1.0" encoding="utf-8"?>
<!-- Generator: Adobe Illustrator 17.0.0, SVG Export Plug-In . SVG Version: 6.00 Build 0)  -->
<!DOCTYPE svg PUBLIC "-//W3C//DTD SVG 1.1//EN" "http://www.w3.org/Graphics/SVG/1.1/DTD/svg11.dtd">
<svg version="1.1" id="Layer_1" xmlns="http://www.w3.org/2000/svg" xmlns:xlink="http://www.w3.org/1999/xlink" x="0px" y="0px"
	 width="612px" height="792px" viewBox="0 0 612 792" enable-background="new 0 0 612 792" xml:space="preserve">
<g>
	<g id="XMLID_1_">
		<g>
			<path fill="#080808" d="M476.76,300.02c5.61-3.11,14.34-5.6,19.94-8.72c-11.21,14.33-23.05,25.55-37.39,37.39l3.74,18.7
				c0,25.55-5.61,48.61-14.33,74.79c-8.73,25.55-23.06,49.23-40.51,69.17c-17.45,20.57-40.51,37.4-66.69,49.24
				c-26.17,14.33-54.84,19.94-89.74,19.94c-19.94,0-40.51-3.12-60.45-8.73c-19.95-6.23-37.4-14.33-54.85-26.17c3.12,0,5.61,0,8.73,0
				c3.12,0,5.61,0,8.72,0c17.45,0,34.9-3.12,49.24-8.73c17.45-5.6,31.78-11.21,43.62-23.05c-17.45,0-31.78-5.61-43.62-14.34
				c-11.84-11.22-20.57-23.06-26.18-37.39c0,0,2.5,0,5.61,0c0,0,2.5,0,5.61,0c3.12,0,5.61,0,8.73,0c3.11,0,5.61-3.12,8.72-3.12
				c-17.45-3.11-31.78-11.84-43.62-26.17c-5.92-7.17-10.28-15.12-13.16-23.45c-2.89-8.34-4.29-17.06-4.29-25.79
				c11.84,5.61,23.06,8.73,34.9,8.73c-8.73-6.23-17.45-14.34-23.06-26.18c-5.61-8.72-8.73-23.06-8.73-34.9
				c0-14.33,6.23-25.55,11.84-37.39c17.45,23.06,40.51,40.51,66.69,54.84c26.17,14.34,54.84,19.95,86.63,23.06c0-3.11,0-5.61,0-8.72
				c0-3.12,0-5.61,0-8.73c0-11.22,2.49-19.94,5.6-28.67c2.5-8.72,8.73-17.45,14.34-23.06c5.61-8.72,14.33-14.33,23.06-17.45
				c8.72-2.49,16.82-5.6,28.67-5.6c11.84,0,23.05,0,31.78,5.6c8.72,5.61,17.45,11.85,23.06,17.45c8.72,0,14.33-2.49,23.06-5.6
				c8.72-3.12,14.33-8.73,23.06-11.85c-3.12,8.73-6.24,17.45-11.84,23.06c-5.61,5.61-11.22,11.84-19.95,17.45
				C462.43,303.14,471.15,303.14,476.76,300.02z"/>
		</g>
		<g>
		</g>
	</g>
</g>
</svg>
