<?xml version="1.0" encoding="utf-8"?>
<!-- Generator: Adobe Illustrator 18.0.0, SVG Export Plug-In . SVG Version: 6.00 Build 0)  -->
<!DOCTYPE svg PUBLIC "-//W3C//DTD SVG 1.1//EN" "http://www.w3.org/Graphics/SVG/1.1/DTD/svg11.dtd">
<svg version="1.1" id="Layer_1" xmlns="http://www.w3.org/2000/svg" xmlns:xlink="http://www.w3.org/1999/xlink" x="0px" y="0px"
	 viewBox="-430.5 410.3 98.2 98.2" enable-background="new -430.5 410.3 98.2 98.2" xml:space="preserve">
<g>
	<path fill="#080808" d="M-381.4,410.3c7,0,13.4,1.4,19,3.7c6,2.8,11.1,6,15.8,10.7c4.6,4.6,7.9,9.7,10.7,15.8
		c2.8,6,3.7,12.5,3.7,19c0,7-1.4,13.4-3.7,19c-2.3,5.6-6,11.1-10.7,15.8c-4.6,4.6-9.7,7.9-15.8,10.7c-6,2.8-12.5,3.7-19,3.7
		c-7,0-13.4-1.4-19-3.7c-6-2.8-11.1-6-15.8-10.7c-4.6-4.6-7.9-9.7-10.7-15.8c-2.8-6-3.7-12.5-3.7-19c0-7,1.4-13.4,3.7-19
		c2.8-6,6-11.1,10.7-15.8c4.6-4.6,9.7-7.9,15.8-10.7C-394.3,411.7-388.3,410.3-381.4,410.3z M-354,438.1c0-1.9-0.5-3.2-1.9-4.6
		c-1.4-1.4-2.8-1.9-4.6-1.9h-43.1c-1.9,0-3.2,0.5-4.6,1.9c-1.4,1.4-1.9,2.8-1.9,4.6v43.1c0,1.9,0.5,3.2,1.9,4.6
		c1.4,1.4,2.8,1.9,4.6,1.9h43.1c1.9,0,3.2-0.5,4.6-1.9c1.4-1.4,1.9-2.8,1.9-4.6V438.1z M-364.7,459.4c0-0.9,0-1.4,0-2.3
		s0-1.4-0.5-1.9h4.6v23.6c0,0.5,0,0.9-0.5,1.4c-0.5,0.5-0.9,0.5-1.4,0.5h-38.9c-0.5,0-0.9,0-1.4-0.5c-0.5-0.5-0.5-0.9-0.5-1.4v-23.6
		h4.6c0,0.5-0.5,1.4-0.5,1.9c0,0.5,0,1.4,0,2.3c0,2.3,0.5,4.6,1.4,6.5c0.9,2.3,2.3,4.2,3.7,5.6c1.4,1.4,3.2,2.8,5.6,3.7
		c2.3,0.9,4.2,1.4,6.5,1.4s4.6-0.5,6.5-1.4s4.2-2.3,5.6-3.7c1.4-1.4,2.8-3.2,3.7-5.6C-365.2,464-364.7,461.7-364.7,459.4z
		 M-381.8,470.5c-1.4,0-2.8-0.5-4.2-0.9c-1.4-0.5-2.3-1.4-3.2-2.3s-1.9-2.3-2.3-3.7c-0.5-1.4-0.9-2.8-0.9-4.2s0.5-2.8,0.9-4.2
		c0.5-1.4,1.4-2.3,2.3-3.2s2.3-1.9,3.2-2.3c1.4-0.5,2.8-0.9,4.2-0.9c2.8,0,5.6,0.9,7.4,3.2c1.9,1.9,3.2,4.6,3.2,7.4
		c0,1.4-0.5,2.8-0.9,4.2c-0.5,1.4-1.4,2.3-2.3,3.7c-0.9,0.9-2.3,1.9-3.2,2.3C-379.1,470.1-380.4,470.5-381.8,470.5z M-362.4,438.1
		c0.5,0,0.9,0,1.4,0.5c0.5,0.5,0.5,0.9,0.5,1.4v6.5c0,0.5,0,0.9-0.5,1.4c-0.5,0.5-0.9,0.5-1.4,0.5h-6.5c-0.5,0-0.9,0-1.4-0.5
		c-0.5-0.5-0.5-0.9-0.5-1.4v-6.5c0-0.5,0-0.9,0.5-1.4c0.5-0.5,0.9-0.5,1.4-0.5H-362.4z"/>
</g>
</svg>
