<?xml version="1.0" encoding="utf-8"?>
<!-- Generator: Adobe Illustrator 17.0.0, SVG Export Plug-In . SVG Version: 6.00 Build 0)  -->
<!DOCTYPE svg PUBLIC "-//W3C//DTD SVG 1.1//EN" "http://www.w3.org/Graphics/SVG/1.1/DTD/svg11.dtd">
<svg version="1.1" id="Layer_1" xmlns="http://www.w3.org/2000/svg" xmlns:xlink="http://www.w3.org/1999/xlink" x="0px" y="0px"
	 width="612px" height="792px" viewBox="0 0 612 792" enable-background="new 0 0 612 792" xml:space="preserve">
<g>
	<g id="XMLID_1_">
		<g>
			<path fill="#080808" d="M480.81,261.695v268.61c0,11.22-3.11,19.94-11.84,28.67c-8.72,8.72-16.83,11.84-28.67,11.84H171.7
				c-11.22,0-19.95-3.12-28.67-11.84c-8.73-8.73-11.84-16.83-11.84-28.67v-268.61c0-11.22,3.11-19.94,11.84-28.67
				c8.72-8.72,16.82-11.84,28.67-11.84h268.6c11.22,0,19.95,3.12,28.67,11.84C477.7,241.755,480.81,249.855,480.81,261.695z
				 M440.3,314.045v-40.51c0-3.11,0-5.61-3.11-8.72c-3.12-3.12-5.61-3.12-8.73-3.12h-40.51c-3.11,0-5.61,0-8.72,3.12
				c-3.12,3.11-3.12,5.61-3.12,8.72v40.51c0,3.12,0,5.61,3.12,8.73c3.11,3.11,5.61,3.11,8.72,3.11h40.51c3.12,0,5.61,0,8.73-3.11
				C440.3,319.655,440.3,317.165,440.3,314.045z M439.68,515.345v-147.08h-28.67c3.12,3.12,3.12,6.23,3.12,11.84
				c0,5.61,0,8.73,0,14.34c0,14.33-3.12,28.66-9.35,40.51c-5.61,14.95-14.33,26.17-23.06,34.9c-8.72,8.72-23.06,17.45-34.9,23.06
				c-11.84,5.6-26.18,8.72-40.51,8.72c-14.33,0-26.17-3.12-40.51-8.72c-14.96-5.61-26.17-14.34-34.9-23.06
				c-8.72-8.73-17.45-20.57-23.06-34.9c-5.61-11.85-8.72-26.18-8.72-40.51c0-5.61,0-11.22,0-14.34c0-3.11,3.11-8.72,3.11-11.84
				h-28.66v147.08c0,3.12,0,5.61,3.11,8.73c3.12,3.11,5.61,3.11,8.73,3.11h242.43c3.11,0,5.61,0,8.72-3.11
				C439.68,520.955,439.68,518.465,439.68,515.345z M368.01,420.615c2.49-8.72,5.61-17.45,5.61-26.17c0-17.45-8.1-34.28-19.94-46.12
				c-11.22-14.34-28.67-19.94-46.12-19.94c-8.73,0-17.45,2.49-26.18,5.6c-5.61,2.5-14.33,8.73-19.94,14.34
				c-5.61,5.61-11.22,11.22-14.34,19.94c-2.49,8.73-5.6,17.45-5.6,26.18c0,8.72,2.49,17.45,5.6,26.17
				c2.5,8.73,8.73,17.45,14.34,23.06c5.61,5.61,11.22,11.22,19.94,14.34c8.73,2.49,17.45,5.6,26.18,5.6c8.72,0,16.82-2.49,26.17-5.6
				c5.61-2.5,14.34-8.73,19.95-14.34C359.28,434.955,364.89,429.345,368.01,420.615z"/>
		</g>
		<g>
			<path fill="none" stroke="#080808" stroke-width="12" stroke-miterlimit="10" d="M480.81,261.695c0-11.84-3.11-19.94-11.84-28.67
				c-8.72-8.72-17.45-11.84-28.67-11.84H171.7c-11.85,0-19.95,3.12-28.67,11.84c-8.73,8.73-11.84,17.45-11.84,28.67v268.61
				c0,11.84,3.11,19.94,11.84,28.67c8.72,8.72,17.45,11.84,28.67,11.84h268.6c11.84,0,19.95-3.12,28.67-11.84
				c8.73-8.73,11.84-17.45,11.84-28.67V261.695z"/>
			<path fill="none" stroke="#080808" stroke-width="12" stroke-miterlimit="10" d="M414.13,394.445c0-5.61,0-8.73,0-14.34
				c0-5.61,0-8.72-3.12-11.84h28.67v147.08c0,3.12,0,5.61-3.12,8.73c-3.11,3.11-5.61,3.11-8.72,3.11H185.41
				c-3.12,0-5.61,0-8.73-3.11c-3.11-3.12-3.11-5.61-3.11-8.73v-147.08h28.66c0,3.12-3.11,8.73-3.11,11.84c0,3.12,0,8.73,0,14.34
				c0,14.33,3.11,28.66,8.72,40.51c5.61,14.33,14.34,26.17,23.06,34.9c8.73,8.72,19.94,17.45,34.9,23.06
				c14.34,5.6,26.18,8.72,40.51,8.72c14.33,0,28.67-3.12,40.51-8.72c11.84-5.61,26.18-14.34,34.9-23.06
				c8.73-8.73,17.45-19.95,23.06-34.9C411.01,423.105,414.13,408.775,414.13,394.445z"/>
			<path fill="none" stroke="#080808" stroke-width="12" stroke-miterlimit="10" d="M307.56,463.615c-8.73,0-17.45-3.11-26.18-5.6
				c-8.72-3.12-14.33-8.73-19.94-14.34c-5.61-5.61-11.84-14.33-14.34-23.06c-3.11-8.72-5.6-17.45-5.6-26.17
				c0-8.73,3.11-17.45,5.6-26.18c3.12-8.72,8.73-14.33,14.34-19.94c5.61-5.61,14.33-11.84,19.94-14.34
				c8.73-3.11,17.45-5.6,26.18-5.6c17.45,0,34.9,5.6,46.12,19.94c11.84,11.84,19.94,28.67,19.94,46.12c0,8.72-3.12,17.45-5.61,26.17
				c-3.12,8.73-8.73,14.34-14.33,23.06c-5.61,5.61-14.34,11.84-19.95,14.34C324.38,461.125,316.28,463.615,307.56,463.615z"/>
			<path fill="none" stroke="#080808" stroke-width="12" stroke-miterlimit="10" d="M428.46,261.695c3.12,0,5.61,0,8.73,3.12
				c3.11,3.11,3.11,5.61,3.11,8.72v40.51c0,3.12,0,5.61-3.11,8.73c-3.12,3.11-5.61,3.11-8.73,3.11h-40.51c-3.11,0-5.61,0-8.72-3.11
				c-3.12-3.12-3.12-5.61-3.12-8.73v-40.51c0-3.11,0-5.61,3.12-8.72c3.11-3.12,5.61-3.12,8.72-3.12H428.46z"/>
		</g>
	</g>
</g>
</svg>
