<?xml version="1.0" encoding="utf-8"?>
<!-- Generator: Adobe Illustrator 17.0.0, SVG Export Plug-In . SVG Version: 6.00 Build 0)  -->
<!DOCTYPE svg PUBLIC "-//W3C//DTD SVG 1.1//EN" "http://www.w3.org/Graphics/SVG/1.1/DTD/svg11.dtd">
<svg version="1.1" id="Layer_1" xmlns="http://www.w3.org/2000/svg" xmlns:xlink="http://www.w3.org/1999/xlink" x="0px" y="0px"
	 width="612px" height="792px" viewBox="0 0 612 792" enable-background="new 0 0 612 792" xml:space="preserve">
<g>
	<g id="XMLID_1_">
		<g>
			<path fill="#080808" d="M419.16,221.45v75.03H361.5c-3.1,0-6.21,2.48-11.79,5.58c-2.48,2.48-5.58,8.68-5.58,14.26v19.84h57.67
				v74.41h-57.67v152.54h-77.5V410.57h-57.67v-74.41h57.67v-37.2c0-11.16,0-19.84,5.58-28.52c3.1-11.78,8.68-17.36,17.36-26.04
				c8.68-5.59,16.74-11.79,28.52-17.37c11.78-2.48,22.94-5.58,34.72-5.58H419.16z"/>
		</g>
		<g>
			<path fill="none" stroke="#080808" stroke-width="12" stroke-miterlimit="10" d="M419.16,221.45h-66.35
				c-11.78,0-22.94,3.1-34.72,5.58c-11.78,5.58-19.84,11.78-28.52,17.37c-8.68,8.68-14.26,14.26-17.36,26.04
				c-5.58,8.68-5.58,17.36-5.58,28.52v37.2h-57.67v74.41h57.67v152.54h77.5V410.57h57.67v-74.41h-57.67v-19.84
				c0-5.58,3.1-11.78,5.58-14.26c5.58-3.1,8.69-5.58,11.79-5.58h57.66V221.45z"/>
		</g>
	</g>
</g>
</svg>
