<?xml version="1.0" encoding="UTF-8" standalone="no"?>
<!-- Created with Inkscape (http://www.inkscape.org/) -->

<svg
   xmlns:dc="http://purl.org/dc/elements/1.1/"
   xmlns:cc="http://creativecommons.org/ns#"
   xmlns:rdf="http://www.w3.org/1999/02/22-rdf-syntax-ns#"
   xmlns:svg="http://www.w3.org/2000/svg"
   xmlns="http://www.w3.org/2000/svg"
   xmlns:sodipodi="http://sodipodi.sourceforge.net/DTD/sodipodi-0.dtd"
   xmlns:inkscape="http://www.inkscape.org/namespaces/inkscape"
   width="21.302999"
   height="21.302999"
   id="svg3306"
   version="1.1"
   inkscape:version="0.48.5 r10040"
   sodipodi:docname="Documento nuevo 3">
  <defs
     id="defs3308" />
  <sodipodi:namedview
     id="base"
     pagecolor="#ffffff"
     bordercolor="#666666"
     borderopacity="1.0"
     inkscape:pageopacity="0.0"
     inkscape:pageshadow="2"
     inkscape:zoom="0.35"
     inkscape:cx="52.08007"
     inkscape:cy="84.937217"
     inkscape:document-units="px"
     inkscape:current-layer="layer1"
     showgrid="false"
     fit-margin-top="0"
     fit-margin-left="0"
     fit-margin-right="0"
     fit-margin-bottom="0"
     inkscape:window-width="1366"
     inkscape:window-height="716"
     inkscape:window-x="0"
     inkscape:window-y="30"
     inkscape:window-maximized="1" />
  <metadata
     id="metadata3311">
    <rdf:RDF>
      <cc:Work
         rdf:about="">
        <dc:format>image/svg+xml</dc:format>
        <dc:type
           rdf:resource="http://purl.org/dc/dcmitype/StillImage" />
        <dc:title></dc:title>
      </cc:Work>
    </rdf:RDF>
  </metadata>
  <g
     inkscape:label="Capa 1"
     inkscape:groupmode="layer"
     id="layer1"
     transform="translate(-297.91993,-595.9964)">
    <path
       style="fill:#ffffff"
       inkscape:connector-curvature="0"
       id="path3088"
       d="m 308.55893,595.9964 c 1.473,0 2.856,0.278 4.151,0.837 1.295,0.559 2.425,1.321 3.39,2.286 0.965,0.965 1.727,2.09 2.285,3.377 0.559,1.286 0.838,2.666 0.838,4.138 0,1.473 -0.279,2.857 -0.838,4.152 -0.559,1.295 -1.32,2.425 -2.285,3.39 -0.965,0.965 -2.095,1.726 -3.39,2.285 -1.295,0.559 -2.679,0.838 -4.151,0.838 -1.472,0 -2.853,-0.28 -4.139,-0.838 -1.287,-0.559 -2.412,-1.32 -3.377,-2.285 -0.965,-0.965 -1.727,-2.095 -2.285,-3.39 -0.559,-1.294 -0.838,-2.679 -0.838,-4.152 0,-1.472 0.279,-2.852 0.838,-4.138 0.559,-1.287 1.32,-2.412 2.285,-3.377 0.965,-0.965 2.09,-1.727 3.377,-2.286 1.287,-0.559 2.666,-0.837 4.139,-0.837 z m 4.012,4.646 h -2.26 c -0.44,0 -0.847,0.076 -1.219,0.229 -0.373,0.152 -0.698,0.355 -0.978,0.61 -0.279,0.253 -0.495,0.542 -0.647,0.863 -0.152,0.321 -0.229,0.644 -0.229,0.965 v 1.346 h -2.006 v 2.641 h 2.006 v 5.332 h 2.666 v -5.332 h 1.98 v -2.641 h -1.98 v -0.685 c 0,-0.203 0.08,-0.364 0.241,-0.483 0.161,-0.118 0.3,-0.177 0.419,-0.177 h 2.006 v -2.668 z" />
  </g>
</svg>
