<?xml version="1.0" encoding="UTF-8" standalone="no"?>
<!-- Created with Inkscape (http://www.inkscape.org/) -->

<svg
   xmlns:dc="http://purl.org/dc/elements/1.1/"
   xmlns:cc="http://creativecommons.org/ns#"
   xmlns:rdf="http://www.w3.org/1999/02/22-rdf-syntax-ns#"
   xmlns:svg="http://www.w3.org/2000/svg"
   xmlns="http://www.w3.org/2000/svg"
   xmlns:sodipodi="http://sodipodi.sourceforge.net/DTD/sodipodi-0.dtd"
   xmlns:inkscape="http://www.inkscape.org/namespaces/inkscape"
   width="21"
   height="21"
   id="svg3303"
   version="1.1"
   inkscape:version="0.48.5 r10040"
   sodipodi:docname="page.svg">
  <defs
     id="defs3305" />
  <sodipodi:namedview
     id="base"
     pagecolor="#ffffff"
     bordercolor="#666666"
     borderopacity="1.0"
     inkscape:pageopacity="0.0"
     inkscape:pageshadow="2"
     inkscape:zoom="0.35"
     inkscape:cx="-224.9025"
     inkscape:cy="41.672177"
     inkscape:document-units="px"
     inkscape:current-layer="layer1"
     showgrid="false"
     fit-margin-top="0"
     fit-margin-left="0"
     fit-margin-right="0"
     fit-margin-bottom="0"
     inkscape:window-width="587"
     inkscape:window-height="406"
     inkscape:window-x="230"
     inkscape:window-y="222"
     inkscape:window-maximized="0" />
  <metadata
     id="metadata3308">
    <rdf:RDF>
      <cc:Work
         rdf:about="">
        <dc:format>image/svg+xml</dc:format>
        <dc:type
           rdf:resource="http://purl.org/dc/dcmitype/StillImage" />
        <dc:title></dc:title>
      </cc:Work>
    </rdf:RDF>
  </metadata>
  <g
     inkscape:label="Capa 1"
     inkscape:groupmode="layer"
     id="layer1"
     transform="translate(-574.9025,-553.03437)">
    <g
       transform="translate(333.22238,211.31256)"
       id="g3520">
      <path
         d="m 241.68012,347.91481 v -6.193 h 6.193 v 6.193 h -6.193 z m 0,7.383 v -6.152 h 6.193 v 6.152 h -6.193 z m 0,7.424 v -6.193 h 6.193 v 6.193 h -6.193 z m 1.231,-19.77 v 3.691 h 3.691 v -3.691 h -3.691 z m 0,7.424 v 3.691 h 3.691 v -3.691 h -3.691 z m 0,7.424 v 3.691 h 3.691 v -3.691 h -3.691 z m 6.192,-9.885 v -6.193 h 6.153 v 6.193 h -6.153 z m 0,7.383 v -6.152 h 6.153 v 6.152 h -6.153 z m 0,7.424 v -6.193 h 6.153 v 6.193 h -6.153 z m 1.231,-19.77 v 3.691 h 3.691 v -3.691 h -3.691 z m 0,7.424 v 3.691 h 3.691 v -3.691 h -3.691 z m 0,7.424 v 3.691 h 3.691 v -3.691 h -3.691 z m 6.153,-16.078 h 6.193 v 6.193 h -6.193 v -6.193 z m 0,13.576 v -6.152 h 6.193 v 6.152 h -6.193 z m 0,7.424 v -6.193 h 6.193 v 6.193 h -6.193 z m 4.963,-16.078 v -3.691 h -3.691 v 3.691 h 3.691 z m -3.692,3.732 v 3.691 h 3.691 v -3.691 h -3.691 z m 0,7.424 v 3.691 h 3.691 v -3.691 h -3.691 z"
         id="path85"
         inkscape:connector-curvature="0" />
    </g>
  </g>
</svg>
