<?xml version="1.0" encoding="UTF-8" standalone="no"?>
<!-- Created with Inkscape (http://www.inkscape.org/) -->

<svg
   xmlns:dc="http://purl.org/dc/elements/1.1/"
   xmlns:cc="http://creativecommons.org/ns#"
   xmlns:rdf="http://www.w3.org/1999/02/22-rdf-syntax-ns#"
   xmlns:svg="http://www.w3.org/2000/svg"
   xmlns="http://www.w3.org/2000/svg"
   xmlns:sodipodi="http://sodipodi.sourceforge.net/DTD/sodipodi-0.dtd"
   xmlns:inkscape="http://www.inkscape.org/namespaces/inkscape"
   width="21.252001"
   height="21.252001"
   id="svg3303"
   version="1.1"
   inkscape:version="0.48.5 r10040"
   sodipodi:docname="tw.svg">
  <defs
     id="defs3305" />
  <sodipodi:namedview
     id="base"
     pagecolor="#ffffff"
     bordercolor="#666666"
     borderopacity="1.0"
     inkscape:pageopacity="0.0"
     inkscape:pageshadow="2"
     inkscape:zoom="0.35"
     inkscape:cx="21.9035"
     inkscape:cy="14.760143"
     inkscape:document-units="px"
     inkscape:current-layer="layer1"
     showgrid="false"
     fit-margin-top="0"
     fit-margin-left="0"
     fit-margin-right="0"
     fit-margin-bottom="0"
     inkscape:window-width="587"
     inkscape:window-height="406"
     inkscape:window-x="230"
     inkscape:window-y="222"
     inkscape:window-maximized="0" />
  <metadata
     id="metadata3308">
    <rdf:RDF>
      <cc:Work
         rdf:about="">
        <dc:format>image/svg+xml</dc:format>
        <dc:type
           rdf:resource="http://purl.org/dc/dcmitype/StillImage" />
        <dc:title></dc:title>
      </cc:Work>
    </rdf:RDF>
  </metadata>
  <g
     inkscape:label="Capa 1"
     inkscape:groupmode="layer"
     id="layer1"
     transform="translate(-328.0965,-525.87033)">
    <path
       style="fill:#ffffff"
       inkscape:connector-curvature="0"
       id="path103"
       d="m 338.7095,525.87033 c 1.473,0 2.852,0.28 4.139,0.838 1.286,0.558 2.412,1.316 3.377,2.272 0.965,0.956 1.727,2.078 2.285,3.365 0.559,1.286 0.838,2.666 0.838,4.138 0,1.473 -0.279,2.854 -0.838,4.139 -0.559,1.285 -1.32,2.413 -2.285,3.376 -0.965,0.966 -2.091,1.727 -3.377,2.286 -1.287,0.559 -2.666,0.838 -4.139,0.838 -1.473,0 -2.853,-0.279 -4.139,-0.838 -1.287,-0.559 -2.408,-1.32 -3.364,-2.286 -0.957,-0.964 -1.714,-2.091 -2.272,-3.376 -0.558,-1.285 -0.838,-2.666 -0.838,-4.139 0,-1.472 0.279,-2.852 0.838,-4.138 0.559,-1.287 1.316,-2.409 2.272,-3.365 0.956,-0.956 2.078,-1.714 3.364,-2.272 1.287,-0.559 2.666,-0.838 4.139,-0.838 z m 5.941,5.992 c 0,-0.39 -0.136,-0.72 -0.406,-0.991 -0.271,-0.271 -0.601,-0.407 -0.99,-0.407 h -9.293 c -0.39,0 -0.72,0.136 -0.99,0.407 -0.271,0.271 -0.406,0.601 -0.406,0.991 v 9.292 c 0,0.39 0.135,0.719 0.406,0.991 0.271,0.27 0.601,0.406 0.99,0.406 h 9.293 c 0.389,0 0.719,-0.137 0.99,-0.406 0.271,-0.271 0.406,-0.601 0.406,-0.991 v -9.292 z m -2.335,4.646 c 0,-0.152 -0.009,-0.309 -0.025,-0.469 -0.017,-0.161 -0.042,-0.309 -0.076,-0.444 h 1.041 v 5.104 c 0,0.135 -0.042,0.245 -0.127,0.33 -0.085,0.084 -0.195,0.126 -0.33,0.126 h -8.379 c -0.136,0 -0.246,-0.042 -0.33,-0.126 -0.085,-0.085 -0.127,-0.195 -0.127,-0.33 v -5.104 h 1.041 c -0.035,0.135 -0.06,0.283 -0.077,0.444 -0.017,0.161 -0.025,0.317 -0.025,0.469 0,0.508 0.097,0.99 0.292,1.447 0.194,0.458 0.457,0.854 0.787,1.194 0.33,0.339 0.724,0.605 1.181,0.799 0.457,0.194 0.939,0.292 1.447,0.292 0.508,0 0.99,-0.098 1.447,-0.292 0.457,-0.194 0.851,-0.46 1.181,-0.799 0.33,-0.339 0.592,-0.736 0.787,-1.194 0.194,-0.457 0.292,-0.938 0.292,-1.447 z m -3.708,2.337 c -0.322,0 -0.622,-0.06 -0.901,-0.179 -0.279,-0.118 -0.525,-0.282 -0.736,-0.494 -0.212,-0.213 -0.377,-0.461 -0.495,-0.75 -0.119,-0.288 -0.178,-0.593 -0.178,-0.914 0,-0.321 0.059,-0.622 0.178,-0.902 0.118,-0.279 0.283,-0.524 0.495,-0.735 0.211,-0.212 0.457,-0.377 0.736,-0.496 0.279,-0.118 0.58,-0.177 0.901,-0.177 0.643,0 1.189,0.224 1.638,0.673 0.448,0.448 0.673,0.994 0.673,1.637 0,0.321 -0.06,0.626 -0.178,0.914 -0.119,0.288 -0.284,0.537 -0.495,0.75 -0.212,0.212 -0.457,0.376 -0.737,0.494 -0.278,0.119 -0.579,0.179 -0.901,0.179 z m 4.19,-6.983 c 0.135,0 0.245,0.046 0.33,0.139 0.084,0.094 0.127,0.207 0.127,0.344 v 1.396 c 0,0.135 -0.042,0.246 -0.127,0.33 -0.085,0.085 -0.195,0.127 -0.33,0.127 h -1.396 c -0.136,0 -0.25,-0.042 -0.343,-0.127 -0.093,-0.084 -0.14,-0.195 -0.14,-0.33 v -1.396 c 0,-0.137 0.046,-0.25 0.14,-0.344 0.093,-0.092 0.207,-0.139 0.343,-0.139 h 1.396 z" />
  </g>
</svg>
