<?xml version="1.0" encoding="UTF-8" standalone="no"?>
<!-- Generator: Adobe Illustrator 18.0.0, SVG Export Plug-In . SVG Version: 6.00 Build 0)  -->

<svg
   xmlns:dc="http://purl.org/dc/elements/1.1/"
   xmlns:cc="http://creativecommons.org/ns#"
   xmlns:rdf="http://www.w3.org/1999/02/22-rdf-syntax-ns#"
   xmlns:svg="http://www.w3.org/2000/svg"
   xmlns="http://www.w3.org/2000/svg"
   xmlns:sodipodi="http://sodipodi.sourceforge.net/DTD/sodipodi-0.dtd"
   xmlns:inkscape="http://www.inkscape.org/namespaces/inkscape"
   version="1.1"
   id="Layer_1"
   x="0px"
   y="0px"
   viewBox="0 0 3012.4 947.4"
   enable-background="new 0 0 3012.4 947.4"
   xml:space="preserve"
   inkscape:version="0.48.4 r9939"
   width="100%"
   height="100%"
   sodipodi:docname="logo.svg"><metadata
     id="metadata81"><rdf:RDF><cc:Work
         rdf:about=""><dc:format>image/svg+xml</dc:format><dc:type
           rdf:resource="http://purl.org/dc/dcmitype/StillImage" /></cc:Work></rdf:RDF></metadata><defs
     id="defs79" /><sodipodi:namedview
     pagecolor="#ffffff"
     bordercolor="#666666"
     borderopacity="1"
     objecttolerance="10"
     gridtolerance="10"
     guidetolerance="10"
     inkscape:pageopacity="0"
     inkscape:pageshadow="2"
     inkscape:window-width="1317"
     inkscape:window-height="744"
     id="namedview77"
     showgrid="false"
     inkscape:zoom="0.096932678"
     inkscape:cx="1506.2"
     inkscape:cy="473.7"
     inkscape:window-x="49"
     inkscape:window-y="24"
     inkscape:window-maximized="1"
     inkscape:current-layer="Layer_1" /><g
     id="g5"><g
       id="g7"><g
         id="g9"><path
           fill="#010101"
           d="M360.9,287.8h-71.1v131.7H253V251.9h252.4v167.6h-36.5V287.8h-71.1v131.7h-36.9V287.8z"
           id="path11" /><path
           fill="#010101"
           d="M570,335.7c0-48.9,36.9-86.5,86.8-86.5c49.6,0,86.8,37.5,86.8,86.5c0,48.9-38.1,86.5-87.7,86.5     C606,422.2,570,384.7,570,335.7z M705.7,335.7c0-29.2-20.4-51.3-48.9-51.3c-28.8,0-48.9,22.1-48.9,51.3     c0,29.2,20.1,51.3,48.9,51.3C685.3,387,705.7,364.9,705.7,335.7z"
           id="path13" /><path
           fill="#010101"
           d="M808.6,251.9h92.2v35.9h-55.3v131.7h-36.9V251.9z"
           id="path15" /></g></g><g
       id="g17"><path
         fill="#010101"
         d="M582.8,610.9c0-48.9,36.9-86.5,86.5-86.5c26.8,0,48.6,11,64,27.8L708.1,578c-8.7-10.1-21.4-17.8-38.9-17.8    c-28.5,0-48.6,21.4-48.6,50.6c0,29.2,20.1,50.6,48.6,50.6c17.4,0,30.2-7.7,38.9-17.8l25.1,25.8c-15.4,16.8-37.2,27.8-64,27.8    C619.7,697.3,582.8,659.8,582.8,610.9z"
         id="path19" /><path
         fill="#010101"
         d="M808.6,456.7h36.9v86.1c11.7-12.8,29.5-18.4,46.9-18.4c41.5,0,68,28.8,68,72.1v98.2h-36.9v-97.5    c0-18.1-13.4-37.5-38.2-37.5c-18.8,0-33.2,9.7-39.9,29.5v105.6h-36.9V456.7z"
         id="path21" /><path
         fill="#010101"
         d="M1029.1,640.7c0-32.5,26.8-54.3,68-54.3c19.8,0,34.2,4,45.9,9.4v-35.9h-93.5v-32.8h130v167.6H1143v-15.1    c-12.7,11.7-29.5,17.8-48.9,17.8C1050.5,697.3,1029.1,670.5,1029.1,640.7z M1143,644v-16.4c-10.4-6-23.5-10.4-40.9-10.4    c-21.4,0-35.8,8.7-35.8,23.5c0,15.7,15.1,23.1,32.5,23.1C1119.2,663.8,1134.6,655.8,1143,644z"
         id="path23" /><path
         fill="#010101"
         d="M1266.6,527.1h92.2v35.9h-55.3v131.7h-36.9V527.1z"
         id="path25" /><path
         fill="#010101"
         d="M1429.8,527.1h36.9v12.4c11.4-9.4,27.1-15.1,44.9-15.1c49.6,0,86.1,37.5,86.1,86.5    c0,48.9-36.5,86.5-86.1,86.5c-17.8,0-33.5-5.4-44.9-14.8v73.7h-36.9V527.1z M1466.7,582.4v57c8.7,13.7,25.8,22.8,44.6,22.8    c28.5,0,48.6-22.1,48.6-51.3c0-29.2-20.1-51.3-48.6-51.3C1492.5,559.6,1475.4,568.6,1466.7,582.4z"
         id="path27" /><path
         fill="#010101"
         d="M1664.7,610.9c0-48.9,36.9-86.5,85.8-86.5c46.6,0,77.8,32.8,80.1,86.5v10.1h-127.7    c3.7,23.8,23.1,39.9,48.3,39.9c20.1,0,34.9-9.4,43.6-19.1l24.8,26.5c-14.4,16.8-38.9,29.2-68.4,29.2    C1701.5,697.3,1664.7,659.8,1664.7,610.9z M1703.9,592.4h86.1c-4.4-22.8-20.1-34.2-42.2-34.2    C1728,558.2,1709.9,571.3,1703.9,592.4z"
         id="path29" /><path
         fill="#010101"
         d="M1907.3,527.1h36.9v15.8c11.7-12.8,29.5-18.4,46.9-18.4c41.5,0,68,28.8,68,72.1v98.2h-36.9v-97.5    c0-18.1-13.4-37.5-38.2-37.5c-18.8,0-33.2,9.7-39.9,29.5v105.6h-36.9V527.1z"
         id="path31" /><path
         fill="#010101"
         d="M2118.3,527.1h32.5v-32.2l36.9-18.1v50.3h51l-8.1,32.8h-42.9V636c0,17.1,4.7,24.8,23.8,24.8h23.1v33.8    h-32.5c-32.2,0-51.3-19.1-51.3-50.9v-83.8h-24.5L2118.3,527.1z"
         id="path33" /><path
         fill="#010101"
         d="M2312,456.7h36.9v37.9H2312V456.7z M2312,527.1h36.9v167.6H2312V527.1z"
         id="path35" /><path
         fill="#010101"
         d="M2425.9,610.9c0-48.9,36.9-86.5,85.8-86.5c46.6,0,77.8,32.8,80.1,86.5v10.1h-127.7    c3.7,23.8,23.1,39.9,48.3,39.9c20.1,0,34.9-9.4,43.6-19.1l24.8,26.5c-14.4,16.8-38.9,29.2-68.4,29.2    C2462.8,697.3,2425.9,659.8,2425.9,610.9z M2465.1,592.4h86.1c-4.4-22.8-20.1-34.2-42.2-34.2    C2489.3,558.2,2471.1,571.3,2465.1,592.4z"
         id="path37" /><path
         fill="#010101"
         d="M2668.5,527.1h92.1v35.9h-55.3v131.7h-36.9V527.1z"
         id="path39" /></g></g><g
     id="g41"><g
       id="g43"><g
         id="g45"><path
           fill="#FFFFFF"
           d="M360.9,1391.8h-71.1v131.7H253v-167.6h252.4v167.6h-36.5v-131.7h-71.1v131.7h-36.9V1391.8z"
           id="path47" /><path
           fill="#FFFFFF"
           d="M570,1439.7c0-48.9,36.9-86.5,86.8-86.5c49.6,0,86.8,37.5,86.8,86.5c0,48.9-38.1,86.5-87.7,86.5     C606,1526.2,570,1488.7,570,1439.7z M705.7,1439.7c0-29.2-20.4-51.3-48.9-51.3c-28.8,0-48.9,22.1-48.9,51.3     c0,29.2,20.1,51.3,48.9,51.3C685.3,1491,705.7,1468.9,705.7,1439.7z"
           id="path49" /><path
           fill="#FFFFFF"
           d="M808.6,1355.9h92.2v35.9h-55.3v131.7h-36.9V1355.9z"
           id="path51" /></g></g><g
       id="g53"><path
         fill="#FFFFFF"
         d="M582.8,1714.9c0-48.9,36.9-86.5,86.5-86.5c26.8,0,48.6,11,64,27.8l-25.1,25.8    c-8.7-10.1-21.4-17.8-38.9-17.8c-28.5,0-48.6,21.4-48.6,50.6c0,29.2,20.1,50.6,48.6,50.6c17.4,0,30.2-7.7,38.9-17.8l25.1,25.8    c-15.4,16.8-37.2,27.8-64,27.8C619.7,1801.3,582.8,1763.8,582.8,1714.9z"
         id="path55" /><path
         fill="#FFFFFF"
         d="M808.6,1560.7h36.9v86.1c11.7-12.8,29.5-18.4,46.9-18.4c41.5,0,68,28.8,68,72.1v98.2h-36.9v-97.5    c0-18.1-13.4-37.5-38.2-37.5c-18.8,0-33.2,9.7-39.9,29.5v105.6h-36.9V1560.7z"
         id="path57" /><path
         fill="#FFFFFF"
         d="M1029.1,1744.7c0-32.5,26.8-54.3,68-54.3c19.8,0,34.2,4,45.9,9.4v-35.9h-93.5v-32.8h130v167.6H1143v-15.1    c-12.7,11.7-29.5,17.8-48.9,17.8C1050.5,1801.3,1029.1,1774.5,1029.1,1744.7z M1143,1748v-16.4c-10.4-6-23.5-10.4-40.9-10.4    c-21.4,0-35.8,8.7-35.8,23.5c0,15.7,15.1,23.1,32.5,23.1C1119.2,1767.8,1134.6,1759.8,1143,1748z"
         id="path59" /><path
         fill="#FFFFFF"
         d="M1266.6,1631.1h92.2v35.9h-55.3v131.7h-36.9V1631.1z"
         id="path61" /><path
         fill="#FFFFFF"
         d="M1429.8,1631.1h36.9v12.4c11.4-9.4,27.1-15.1,44.9-15.1c49.6,0,86.1,37.5,86.1,86.5    c0,48.9-36.5,86.5-86.1,86.5c-17.8,0-33.5-5.4-44.9-14.8v73.7h-36.9V1631.1z M1466.7,1686.4v57c8.7,13.7,25.8,22.8,44.6,22.8    c28.5,0,48.6-22.1,48.6-51.3c0-29.2-20.1-51.3-48.6-51.3C1492.5,1663.6,1475.4,1672.6,1466.7,1686.4z"
         id="path63" /><path
         fill="#FFFFFF"
         d="M1664.7,1714.9c0-48.9,36.9-86.5,85.8-86.5c46.6,0,77.8,32.8,80.1,86.5v10.1h-127.7    c3.7,23.8,23.1,39.9,48.3,39.9c20.1,0,34.9-9.4,43.6-19.1l24.8,26.5c-14.4,16.8-38.9,29.2-68.4,29.2    C1701.5,1801.3,1664.7,1763.8,1664.7,1714.9z M1703.9,1696.4h86.1c-4.4-22.8-20.1-34.2-42.2-34.2    C1728,1662.2,1709.9,1675.3,1703.9,1696.4z"
         id="path65" /><path
         fill="#FFFFFF"
         d="M1907.3,1631.1h36.9v15.8c11.7-12.8,29.5-18.4,46.9-18.4c41.5,0,68,28.8,68,72.1v98.2h-36.9v-97.5    c0-18.1-13.4-37.5-38.2-37.5c-18.8,0-33.2,9.7-39.9,29.5v105.6h-36.9V1631.1z"
         id="path67" /><path
         fill="#FFFFFF"
         d="M2118.3,1631.1h32.5v-32.2l36.9-18.1v50.3h51l-8.1,32.8h-42.9v76.1c0,17.1,4.7,24.8,23.8,24.8h23.1v33.8    h-32.5c-32.2,0-51.3-19.1-51.3-50.9v-83.8h-24.5L2118.3,1631.1z"
         id="path69" /><path
         fill="#FFFFFF"
         d="M2312,1560.7h36.9v37.9H2312V1560.7z M2312,1631.1h36.9v167.6H2312V1631.1z"
         id="path71" /><path
         fill="#FFFFFF"
         d="M2425.9,1714.9c0-48.9,36.9-86.5,85.8-86.5c46.6,0,77.8,32.8,80.1,86.5v10.1h-127.7    c3.7,23.8,23.1,39.9,48.3,39.9c20.1,0,34.9-9.4,43.6-19.1l24.8,26.5c-14.4,16.8-38.9,29.2-68.4,29.2    C2462.8,1801.3,2425.9,1763.8,2425.9,1714.9z M2465.1,1696.4h86.1c-4.4-22.8-20.1-34.2-42.2-34.2    C2489.3,1662.2,2471.1,1675.3,2465.1,1696.4z"
         id="path73" /><path
         fill="#FFFFFF"
         d="M2668.5,1631.1h92.1v35.9h-55.3v131.7h-36.9V1631.1z"
         id="path75" /></g></g></svg>