<?xml version="1.0" encoding="utf-8"?>
<!-- Generator: Adobe Illustrator 18.0.0, SVG Export Plug-In . SVG Version: 6.00 Build 0)  -->
<!DOCTYPE svg PUBLIC "-//W3C//DTD SVG 1.1//EN" "http://www.w3.org/Graphics/SVG/1.1/DTD/svg11.dtd">
<svg version="1.1" id="Layer_1" xmlns="http://www.w3.org/2000/svg" xmlns:xlink="http://www.w3.org/1999/xlink" x="0px" y="0px"
	 viewBox="0 0 160 33" enable-background="new 0 0 160 33" xml:space="preserve">
<g>
	<g id="XMLID_2_">
		<g>
			<polygon fill="#010101" points="160,18.1 160,20.7 156.4,20.7 156.4,29.1 153.8,29.1 153.8,18.1 			"/>
			<path fill="#020202" d="M149.2,23.6v0.8h-8.1c0.3,1.3,1.4,2.3,2.9,2.3c1.4,0,2.3-0.7,2.7-1.2l0.1-0.1l1.8,1.9l-0.1,0.1
				c-1,1.2-2.7,1.9-4.5,1.9c-3.2,0-5.6-2.4-5.6-5.6c0-1.5,0.6-3,1.6-4c1-1,2.5-1.6,4-1.6c1.5,0,2.8,0.5,3.7,1.5
				C148.6,20.5,149.2,21.9,149.2,23.6z M141.2,22.3h5.2c-0.3-1.2-1.2-1.9-2.5-1.9C142.6,20.4,141.6,21.1,141.2,22.3z"/>
			<rect x="131.1" y="18.1" fill="#020202" width="2.6" height="11"/>
			<rect x="131.1" y="13.5" fill="#020202" width="2.6" height="2.7"/>
			<path fill="#020202" d="M126.8,18.1l-0.6,2.4h-2.7v4.7c0,1,0.2,1.5,1.4,1.5h1.6v2.4h-2.2c-2.1,0-3.4-1.3-3.4-3.4v-5.2h-1.5
				l-0.6-2.4h2.1v-2l2.6-1.3v3.3H126.8z"/>
			<path fill="#020202" d="M115.3,22.7v6.4h-2.6v-6.4c0-1.1-0.8-2.3-2.3-2.3c-1.2,0-2,0.6-2.4,1.8v6.9h-2.6v-11h2.6V19
				c0.7-0.6,1.7-1,2.9-1c1.3,0,2.5,0.5,3.3,1.3C114.9,20.1,115.3,21.3,115.3,22.7z"/>
			<path fill="#020202" d="M100.7,23.6l0,0.8h-8.1c0.3,1.3,1.4,2.3,2.9,2.3c1.4,0,2.3-0.7,2.7-1.2l0.1-0.1l1.8,1.9l-0.1,0.1
				c-1,1.2-2.7,1.9-4.5,1.9c-3.2,0-5.6-2.4-5.6-5.6c0-1.5,0.6-3,1.6-4c1-1,2.5-1.6,4-1.6c1.5,0,2.8,0.5,3.7,1.5
				C100.1,20.5,100.7,21.9,100.7,23.6z M92.7,22.3h5.2c-0.3-1.2-1.2-1.9-2.5-1.9C94.1,20.4,93.1,21.1,92.7,22.3z"/>
			<path fill="#020202" d="M80.3,18c3.2,0,5.6,2.4,5.6,5.6c0,3.2-2.4,5.6-5.6,5.6c-1,0-2-0.3-2.7-0.8V33H75V18.1h2.6v0.7
				C78.3,18.3,79.3,18,80.3,18z M83.2,23.6c0-0.3,0-0.7-0.1-1c0-0.1,0-0.1-0.1-0.2c0,0,0,0,0-0.1c-0.4-0.9-1.1-1.6-2.1-1.8
				c0,0-0.1,0-0.2,0c-0.2,0-0.3,0-0.5,0c-0.2,0-0.3,0-0.5,0c0,0-0.1,0-0.1,0c0,0-0.1,0-0.1,0c-0.4,0.1-0.8,0.3-1.2,0.5
				c-0.2,0.1-0.4,0.3-0.5,0.4c0,0-0.1,0.1-0.1,0.1c-0.1,0.1-0.1,0.1-0.2,0.2v3.6c0,0.1,0.1,0.2,0.2,0.2c0,0,0.1,0.1,0.1,0.1
				c0.1,0.2,0.3,0.3,0.5,0.4c0.3,0.2,0.8,0.4,1.2,0.5c0,0,0.1,0,0.1,0c0,0,0.1,0,0.1,0c0.2,0,0.3,0,0.5,0c0.2,0,0.3,0,0.5,0
				c0.1,0,0.1,0,0.2,0c1-0.2,1.8-0.9,2.1-1.8c0,0,0,0,0-0.1c0-0.1,0-0.1,0.1-0.2C83.2,24.3,83.2,23.9,83.2,23.6z"/>
			<polygon fill="#020202" points="70.7,18.1 70.7,20.7 67.2,20.7 67.2,29.1 64.6,29.1 64.6,18.1 			"/>
			<path fill="#020202" d="M59.3,18.1v11h-2.6v-0.8c-0.8,0.6-1.8,1-3,1c-1.3,0-2.4-0.4-3.2-1.1c-0.7-0.7-1.1-1.6-1.1-2.6
				c0-1.1,0.4-2,1.2-2.6c0.8-0.6,1.9-1,3.2-1c1,0,2,0.2,2.8,0.5v-2h-5.9v-2.4H59.3z M56.7,25.7v-0.9c-0.7-0.4-1.5-0.6-2.5-0.6
				c-1.3,0-2.2,0.5-2.2,1.4c0,0.7,0.5,1.3,1.9,1.3C55.2,26.9,56.1,26.4,56.7,25.7z"/>
			<path fill="#020202" d="M45.3,22.7v6.4h-2.5v-6.4c0-1.1-0.8-2.3-2.3-2.3c-1.2,0-2,0.6-2.4,1.8v6.9h-2.5V13.7H38V19
				c0.8-0.6,1.8-1,2.9-1c1.3,0,2.4,0.5,3.2,1.3C44.9,20.1,45.3,21.3,45.3,22.7z"/>
			<polygon fill="#020202" points="41.5,0.2 41.5,2.7 38,2.7 38,11.1 35.4,11.1 35.4,0.2 			"/>
			<path fill="#020202" d="M31.5,5.6c0,1.5-0.6,3-1.6,4c-1.1,1-2.5,1.6-4.1,1.6c-1.6,0-3-0.6-4-1.6c-1-1-1.6-2.5-1.6-4
				c0-3.2,2.4-5.6,5.7-5.6S31.5,2.4,31.5,5.6z M28.8,5.6c0-1.8-1.3-3.1-3-3.1c-1.7,0-3,1.3-3,3.1s1.3,3.1,3,3.1
				C27.6,8.8,28.8,7.5,28.8,5.6z"/>
			<path fill="#020202" d="M30.8,19.8L30.8,19.8l-1.7,1.9L29,21.6c-0.4-0.5-1.2-1.1-2.4-1.1c-1.7,0-3,1.3-3,3.1c0,1.8,1.2,3.1,3,3.1
				c1.2,0,1.9-0.6,2.4-1.1l0.1-0.1l1.8,1.8l-0.1,0.1c-1.1,1.2-2.5,1.8-4.2,1.8c-3.2,0-5.6-2.4-5.6-5.6c0-3.2,2.4-5.6,5.6-5.6
				C28.3,18,29.7,18.6,30.8,19.8z"/>
			<polygon fill="#020202" points="16.3,0.2 16.3,11.1 13.8,11.1 13.8,2.7 9.5,2.7 9.5,11.1 6.9,11.1 6.9,2.7 2.6,2.7 2.6,11.1 
				0,11.1 0,0.2 			"/>
		</g>
		<g>
		</g>
	</g>
</g>
</svg>
