<?xml version="1.0" encoding="UTF-8" standalone="no"?>
<!-- Created with Inkscape (http://www.inkscape.org/) -->

<svg
   xmlns:dc="http://purl.org/dc/elements/1.1/"
   xmlns:cc="http://creativecommons.org/ns#"
   xmlns:rdf="http://www.w3.org/1999/02/22-rdf-syntax-ns#"
   xmlns:svg="http://www.w3.org/2000/svg"
   xmlns="http://www.w3.org/2000/svg"
   xmlns:sodipodi="http://sodipodi.sourceforge.net/DTD/sodipodi-0.dtd"
   xmlns:inkscape="http://www.inkscape.org/namespaces/inkscape"
   width="21.252001"
   height="21.250999"
   id="svg3303"
   version="1.1"
   inkscape:version="0.48.5 r10040"
   sodipodi:docname="Documento nuevo 3">
  <defs
     id="defs3305" />
  <sodipodi:namedview
     id="base"
     pagecolor="#ffffff"
     bordercolor="#666666"
     borderopacity="1.0"
     inkscape:pageopacity="0.0"
     inkscape:pageshadow="2"
     inkscape:zoom="0.35"
     inkscape:cx="134.13464"
     inkscape:cy="-7.2944271"
     inkscape:document-units="px"
     inkscape:current-layer="layer1"
     showgrid="false"
     fit-margin-top="0"
     fit-margin-left="0"
     fit-margin-right="0"
     fit-margin-bottom="0"
     inkscape:window-width="587"
     inkscape:window-height="406"
     inkscape:window-x="230"
     inkscape:window-y="222"
     inkscape:window-maximized="0" />
  <metadata
     id="metadata3308">
    <rdf:RDF>
      <cc:Work
         rdf:about="">
        <dc:format>image/svg+xml</dc:format>
        <dc:type
           rdf:resource="http://purl.org/dc/dcmitype/StillImage" />
        <dc:title></dc:title>
      </cc:Work>
    </rdf:RDF>
  </metadata>
  <g
     inkscape:label="Capa 1"
     inkscape:groupmode="layer"
     id="layer1"
     transform="translate(-215.86536,-503.81676)">
    <path
       style="fill:#ffffff"
       inkscape:connector-curvature="0"
       id="path95"
       d="m 226.47836,503.81676 c 1.473,0 2.852,0.278 4.139,0.837 1.286,0.559 2.412,1.316 3.377,2.273 0.965,0.956 1.727,2.078 2.285,3.364 0.559,1.287 0.838,2.667 0.838,4.139 0,1.473 -0.279,2.853 -0.838,4.139 -0.559,1.286 -1.32,2.412 -2.285,3.376 -0.965,0.964 -2.091,1.727 -3.377,2.285 -1.287,0.559 -2.666,0.838 -4.139,0.838 -1.473,0 -2.853,-0.279 -4.139,-0.838 -1.287,-0.559 -2.408,-1.32 -3.364,-2.285 -0.957,-0.965 -1.714,-2.091 -2.272,-3.376 -0.559,-1.287 -0.838,-2.666 -0.838,-4.139 0,-1.472 0.279,-2.852 0.838,-4.139 0.559,-1.286 1.316,-2.408 2.272,-3.364 0.956,-0.957 2.078,-1.714 3.364,-2.273 1.287,-0.559 2.666,-0.837 4.139,-0.837 z m 5.281,8.327 c 0.491,-0.372 0.922,-0.821 1.295,-1.345 -0.237,0.102 -0.479,0.186 -0.724,0.254 -0.246,0.067 -0.504,0.118 -0.774,0.152 0.271,-0.169 0.508,-0.377 0.711,-0.623 0.203,-0.245 0.347,-0.512 0.432,-0.799 -0.254,0.135 -0.517,0.257 -0.787,0.368 -0.271,0.11 -0.55,0.19 -0.838,0.241 -0.237,-0.237 -0.517,-0.432 -0.838,-0.584 -0.322,-0.152 -0.677,-0.229 -1.066,-0.229 -0.355,0 -0.69,0.068 -1.003,0.204 -0.313,0.135 -0.584,0.321 -0.812,0.558 -0.229,0.237 -0.411,0.511 -0.546,0.825 -0.136,0.313 -0.203,0.647 -0.203,1.003 0,0.102 0.004,0.203 0.013,0.304 0.008,0.102 0.021,0.194 0.038,0.28 -1.066,-0.051 -2.057,-0.313 -2.971,-0.787 -0.914,-0.474 -1.693,-1.108 -2.336,-1.905 -0.238,0.39 -0.355,0.821 -0.355,1.295 0,0.441 0.105,0.851 0.317,1.231 0.211,0.381 0.486,0.69 0.825,0.927 -0.44,-0.034 -0.83,-0.144 -1.168,-0.33 v 0.025 c 0,0.644 0.199,1.197 0.597,1.664 0.397,0.465 0.893,0.757 1.485,0.876 -0.119,0.034 -0.233,0.06 -0.343,0.076 -0.11,0.017 -0.225,0.026 -0.343,0.026 -0.085,0 -0.165,-0.005 -0.241,-0.013 -0.076,-0.009 -0.157,-0.021 -0.241,-0.038 0.169,0.507 0.47,0.931 0.901,1.269 0.432,0.34 0.935,0.508 1.511,0.508 -0.44,0.356 -0.936,0.631 -1.485,0.825 -0.55,0.194 -1.122,0.292 -1.714,0.292 -0.119,0 -0.229,-0.004 -0.33,-0.013 -0.102,-0.008 -0.203,-0.021 -0.305,-0.038 0.575,0.372 1.197,0.66 1.866,0.863 0.668,0.203 1.367,0.305 2.095,0.305 1.185,0 2.234,-0.225 3.148,-0.673 0.915,-0.448 1.68,-1.024 2.298,-1.726 0.618,-0.703 1.087,-1.49 1.409,-2.362 0.322,-0.872 0.483,-1.73 0.483,-2.577 v -0.329 z" />
  </g>
</svg>
